<svg width="1105" height="675" viewBox="0 0 1105 675" fill="none" xmlns="http://www.w3.org/2000/svg">
<mask id="mask0_78_497" style="mask-type:luminance" maskUnits="userSpaceOnUse" x="0" y="0" width="1105" height="675">
<path d="M1104.08 0H0.368164V674.63H1104.08V0Z" fill="white"/>
</mask>
<g mask="url(#mask0_78_497)">
<path d="M1104.85 0H-12.0474V674.63H1104.85V0Z" fill="url(#paint0_linear_78_497)"/>
<path d="M805.439 116.922H809.8C824.126 116.922 838.484 117.05 852.809 117.05H1195.67C1205.22 117.05 1215.06 117.687 1224.61 117.05C1243.1 115.775 1261.44 115.041 1280.03 116.348C1280.1 115.264 1280.13 114.149 1280.19 113.065H1422.94C1425.9 100.538 1428.83 87.564 1426.57 74.9091C1424.31 62.2223 1416.48 49.8543 1404.38 45.4554C1392.28 41.0565 1376.43 47.3999 1373.4 59.9272C1372.89 61.9992 1372.83 64.4537 1374.33 65.9837C1376.68 68.4063 1380.85 66.7169 1383.21 64.3262C1389.1 58.3016 1390.47 48.643 1387.6 40.7058C1384.74 32.7686 1378.08 26.5846 1370.44 22.9826C1353.25 14.9498 1328.64 21.3569 1321.39 40.1639C1320.43 42.6184 1319.83 45.2642 1320.37 47.8461C1320.88 50.3962 1322.75 52.8188 1325.3 53.3607C1328.07 53.9664 1330.94 52.2132 1332.46 49.7906C1333.96 47.3999 1334.37 44.4672 1334.57 41.6303C1335.9 19.795 1324.6 -1.97652 1307.09 -15.0139C1289.55 -28.0513 1266.44 -32.6734 1244.86 -29.2945C1215.09 -24.6406 1188.22 -6.05668 1171.32 18.6474C1167.91 23.6201 1165.08 28.9116 1162.94 34.5537C1157.88 47.8461 1156.93 62.9555 1161.89 76.2798C1162.94 79.1168 1165.36 82.3363 1168.2 81.4119C1170.62 80.615 1171.13 77.4592 1171.09 74.9091C1170.97 67.8963 1169.79 60.9473 1167.59 54.2851C1165.75 48.6749 1162.69 44.4035 1159.38 39.622C1142.09 14.631 1110.58 4.07998 1081.99 14.9817C1054.61 25.4371 1037.51 53.0738 1033.44 81.2844C1033.12 83.3882 1032.93 85.6514 1033.85 87.564C1034.81 89.4766 1037.32 90.7198 1039.14 89.5722C1040.83 88.4884 1040.92 86.1296 1040.73 84.1532C1039.04 65.6012 1027.93 48.3561 1011.22 39.9408C986.484 27.4453 958.66 36.9763 938.636 53.7432C929.818 61.1385 922.432 70.287 917.307 80.615C916.097 83.0376 914.983 85.7152 915.301 88.3928C915.619 91.0704 917.912 93.748 920.617 93.4611C923.164 93.2061 924.851 90.656 925.615 88.2015C932.46 66.6531 906.101 55.2733 888.878 55.0183C867.803 54.6995 841.062 69.6814 838.706 92.6005C838.261 96.9994 839.311 102.227 843.259 104.235C846.856 106.084 851.631 104.14 853.637 100.633C855.643 97.1269 855.197 92.5686 853.287 88.9984C850.772 84.3445 846.41 80.9337 841.349 79.6587C836.924 78.543 832.18 78.798 827.755 79.8818C819.542 81.89 812.029 86.7352 806.776 93.3974C801.523 100.06 798.372 108.507 798.34 116.986H805.439V116.922Z" fill="url(#paint1_linear_78_497)"/>
<path d="M244.828 168.466H249.189C263.515 168.466 277.872 168.594 292.198 168.594H635.059C644.61 168.594 654.447 169.231 663.997 168.594C682.493 167.318 700.83 166.585 719.421 167.892C719.485 166.808 719.517 165.693 719.581 164.609H862.328C865.289 152.082 868.217 139.108 865.957 126.453C863.697 113.766 855.865 101.398 843.768 96.9993C831.671 92.6004 815.817 98.9438 812.793 111.471C812.284 113.543 812.22 115.998 813.716 117.528C816.072 119.95 820.242 118.261 822.598 115.87C828.488 109.845 829.856 100.187 826.991 92.2498C824.094 84.3126 817.473 78.1286 809.832 74.5266C792.641 66.4937 768.033 72.9009 760.775 91.7079C759.82 94.1624 759.215 96.8081 759.756 99.3901C760.266 101.94 762.144 104.363 764.691 104.905C767.46 105.51 770.325 103.757 771.853 101.335C773.35 98.9438 773.763 96.0112 773.954 93.1742C775.292 71.3389 763.99 49.5674 746.481 36.53C728.94 23.4926 705.828 18.8706 684.244 22.2494C654.478 26.9034 627.61 45.4873 610.706 70.1914C607.299 75.1641 604.466 80.4556 602.333 86.0977C597.271 99.3901 596.316 114.499 601.282 127.824C602.333 130.661 604.752 133.88 607.586 132.956C610.005 132.159 610.514 129.003 610.483 126.453C610.355 119.44 609.177 112.491 606.981 105.829C605.134 100.219 602.078 95.9474 598.767 91.166C581.481 66.175 549.965 55.6239 521.377 66.5256C493.999 76.981 476.904 104.618 472.829 132.828C472.511 134.932 472.32 137.195 473.243 139.108C474.166 141.021 476.713 142.264 478.527 141.116C480.215 140.032 480.31 137.674 480.119 135.697C478.432 117.145 467.321 99.9001 450.608 91.4847C425.872 78.9892 398.049 88.5203 378.025 105.287C369.206 112.682 361.821 121.831 356.695 132.159C355.486 134.582 354.372 137.259 354.69 139.937C355.008 142.646 357.3 145.292 360.006 145.005C362.553 144.75 364.24 142.2 365.004 139.745C371.849 118.197 345.49 106.817 328.267 106.562C307.192 106.243 280.451 121.225 278.095 144.144C277.65 148.543 278.7 153.771 282.648 155.779C286.245 157.628 291.02 155.684 293.026 152.177C295.031 148.671 294.586 144.113 292.676 140.542C290.161 135.888 285.799 132.478 280.738 131.203C276.312 130.087 271.569 130.342 267.144 131.426C258.931 133.434 251.418 138.279 246.165 144.941C240.912 151.603 237.761 160.051 237.729 168.53H244.828V168.466Z" fill="url(#paint2_linear_78_497)"/>
<path d="M698.315 182.173C702.899 179.591 711.049 182.205 716.142 182.205H937.776C963.053 182.205 988.139 181.248 1013.32 181.248H1110C1120.22 181.248 1124.01 169.39 1124.14 160.975C1124.33 148.48 1116.75 138.439 1105.26 133.689C1087.37 126.262 1058.33 136.558 1057.09 158.489C1057 160.019 1057.38 161.963 1058.88 162.282C1060.37 162.633 1061.55 160.975 1062.12 159.541C1065.94 149.691 1062.7 137.705 1054.86 130.597C1047.03 123.489 1035.32 121.289 1025.23 124.381C1015.8 127.282 1007.27 135.857 1008 145.706C1008.16 147.97 1008.9 150.328 1010.61 151.795C1012.33 153.261 1015.23 153.484 1016.76 151.795C1017.52 150.966 1017.84 149.85 1018.1 148.766C1022.01 132.255 1015.55 113.989 1002.81 102.801C990.081 91.6123 971.808 87.4684 955.254 91.0704C938.7 94.6724 924.087 105.574 914.919 119.823C907.629 131.171 903.649 145.419 907.47 158.361C907.756 159.381 908.202 160.465 909.189 160.911C911.194 161.772 912.882 158.871 912.659 156.704C912.436 154.536 911.99 152.879 912.499 150.743C912.945 148.926 913.391 148.32 912.882 146.28C911.958 142.423 909.857 138.789 907.374 135.729C902.472 129.673 895.468 125.274 888.082 122.883C875.762 118.93 861.691 120.556 851.154 128.302C847.939 130.661 846.219 133.402 843.704 136.335C838.229 142.678 834.568 150.01 834.25 158.521C834.154 161.166 834.791 164.418 837.274 165.278C838.738 165.788 840.394 165.247 841.54 164.163C842.654 163.111 843.291 161.613 843.641 160.114C845.328 152.847 840.712 145.292 834.441 141.212C817.695 130.31 794.297 132.286 779.303 145.324C774.846 149.213 771.312 154.568 770.835 160.465C770.612 162.92 771.567 166.107 774.018 166.298C775.737 166.458 777.265 164.832 777.52 163.111C777.775 161.39 777.106 159.668 776.246 158.138C771.917 150.424 762.271 146.153 753.676 148.097C745.08 150.042 738.204 158.074 737.599 166.872C737.535 167.765 737.535 168.689 737.949 169.486C738.331 170.283 739.254 170.889 740.114 170.666C741.738 170.283 741.578 167.829 740.751 166.394C737.472 160.752 730.086 158.521 723.687 159.7C717.288 160.879 711.749 164.832 706.91 169.199C704.745 171.176 702.613 173.311 701.053 175.829C699.875 177.742 699.747 180.483 698.347 182.109L698.315 182.173Z" fill="url(#paint3_linear_78_497)"/>
<path d="M719.994 226.321C715.41 223.739 707.26 226.353 702.167 226.353H480.533C455.256 226.353 430.17 225.397 404.989 225.397H308.306C298.087 225.397 294.299 213.539 294.172 205.124C293.981 192.628 301.557 182.587 313.05 177.837C330.941 170.41 359.974 180.706 361.216 202.637C361.311 204.167 360.929 206.112 359.433 206.43C357.937 206.781 356.759 205.124 356.186 203.689C352.366 193.839 355.613 181.854 363.444 174.745C371.276 167.637 382.991 165.438 393.083 168.53C402.506 171.43 411.037 180.005 410.305 189.855C410.146 192.118 409.414 194.477 407.695 195.943C405.976 197.409 403.079 197.633 401.551 195.943C400.787 195.114 400.468 193.999 400.214 192.915C396.298 176.403 402.76 158.138 415.494 146.949C428.228 135.761 446.501 131.617 463.056 135.219C479.61 138.821 494.222 149.723 503.39 163.971C510.68 175.319 514.66 189.568 510.84 202.51C510.553 203.53 510.107 204.614 509.121 205.06C507.115 205.92 505.428 203.02 505.651 200.852C505.873 198.685 506.319 197.027 505.81 194.891C505.364 193.074 504.918 192.469 505.428 190.429C506.351 186.572 508.452 182.938 510.935 179.878C515.838 173.821 522.841 169.422 530.227 167.031C542.547 163.079 556.618 164.704 567.155 172.45C570.371 174.809 572.09 177.551 574.605 180.483C580.08 186.827 583.741 194.158 584.06 202.669C584.155 205.315 583.518 208.566 581.035 209.427C579.571 209.937 577.916 209.395 576.77 208.311C575.655 207.259 575.019 205.761 574.668 204.263C572.981 196.995 577.597 189.44 583.869 185.36C600.614 174.459 624.012 176.435 639.007 189.472C643.463 193.361 646.997 198.716 647.475 204.614C647.697 207.068 646.742 210.256 644.291 210.447C642.572 210.606 641.044 208.981 640.789 207.259C640.503 205.538 641.203 203.817 642.063 202.287C646.392 194.572 656.038 190.301 664.634 192.246C673.229 194.19 680.105 202.223 680.71 211.021C680.774 211.913 680.774 212.838 680.36 213.635C679.978 214.431 679.055 215.037 678.195 214.814C676.572 214.431 676.731 211.977 677.559 210.543C680.838 204.9 688.223 202.669 694.622 203.849C701.021 205.028 706.56 208.981 711.399 213.348C713.564 215.324 715.697 217.46 717.257 219.978C718.435 221.89 718.562 224.632 719.963 226.258L719.994 226.321Z" fill="url(#paint4_linear_78_497)"/>
<path d="M284.876 226.321C280.292 223.739 272.142 226.353 267.049 226.353H45.4145C20.1376 226.353 -4.94821 225.397 -30.1296 225.397H-126.78C-136.999 225.397 -140.787 213.539 -140.915 205.124C-141.106 192.628 -133.529 182.587 -122.037 177.837C-104.146 170.41 -75.1122 180.706 -73.8706 202.637C-73.7751 204.167 -74.1571 206.112 -75.6534 206.43C-77.1496 206.781 -78.3275 205.124 -78.9005 203.689C-82.7207 193.839 -79.4735 181.854 -71.6422 174.745C-63.8108 167.637 -52.0956 165.438 -42.004 168.53C-32.5808 171.43 -24.0491 180.005 -24.7813 189.855C-24.9405 192.118 -25.6727 194.477 -27.3918 195.943C-29.1108 197.409 -32.0078 197.633 -33.5359 195.943C-34.2999 195.114 -34.6183 193.999 -34.8729 192.915C-38.7886 176.403 -32.3262 158.138 -19.5922 146.949C-6.85831 135.761 11.4149 131.617 27.969 135.219C44.5231 138.821 59.1353 149.723 68.3037 163.971C75.5939 175.319 79.5732 189.568 75.7531 202.51C75.4665 203.53 75.0209 204.614 74.034 205.06C72.0284 205.92 70.3411 203.02 70.564 200.852C70.7868 198.685 71.2325 197.027 70.7232 194.891C70.2775 193.074 69.8318 192.469 70.3411 190.429C71.2644 186.572 73.3655 182.938 75.8486 179.878C80.7511 173.821 87.7548 169.422 95.1405 167.031C107.461 163.079 121.532 164.704 132.069 172.45C135.284 174.809 137.003 177.551 139.518 180.483C144.994 186.827 148.655 194.158 148.973 202.669C149.069 205.315 148.432 208.566 145.949 209.427C144.484 209.937 142.829 209.395 141.683 208.311C140.569 207.259 139.932 205.761 139.582 204.263C137.895 196.995 142.511 189.44 148.782 185.36C165.527 174.459 188.926 176.435 203.92 189.472C208.377 193.361 211.911 198.716 212.388 204.614C212.611 207.068 211.656 210.256 209.205 210.447C207.486 210.606 205.958 208.981 205.703 207.259C205.448 205.538 206.117 203.817 206.976 202.287C211.306 194.572 220.952 190.301 229.547 192.246C238.142 194.19 245.019 202.223 245.624 211.021C245.687 211.913 245.687 212.838 245.273 213.635C244.891 214.431 243.968 215.037 243.109 214.814C241.485 214.431 241.644 211.977 242.472 210.543C245.751 204.9 253.137 202.669 259.536 203.849C265.934 205.028 271.474 208.981 276.312 213.348C278.477 215.324 280.61 217.46 282.17 219.978C283.348 221.89 283.475 224.632 284.876 226.258V226.321Z" fill="url(#paint5_linear_78_497)"/>
<path d="M-5.99875 632.904L231.012 276.144L365.705 509.861L514.564 269.769C514.564 269.769 562.444 332.629 564.577 333.33C566.678 334.031 701.403 116.54 701.403 116.54L896.741 502.083L991.227 674.598H0.368216L-5.99875 632.872V632.904Z" fill="url(#paint6_linear_78_497)"/>
<path d="M905.325 306.432L901.414 333.983L903.022 334.212L906.933 306.661L905.325 306.432Z" fill="url(#paint7_linear_78_497)"/>
<path d="M878.85 333.012L875.189 307L876.813 306.777L880.601 333.745L878.85 333.012Z" fill="url(#paint8_linear_78_497)"/>
<path d="M897.983 345.858H884.135C882.225 345.858 880.569 344.455 880.283 342.543L878.595 331.258H903.49L901.803 342.543C901.517 344.455 899.893 345.858 897.951 345.858H897.983Z" fill="url(#paint9_linear_78_497)"/>
<path d="M890.947 164.258C860.163 164.673 835.364 189.759 835.364 220.679C835.364 231.103 838.197 240.857 843.1 249.209C854.497 271.713 875.189 307.287 875.189 307.287H906.769C906.769 307.287 927.462 271.713 938.859 249.209C943.761 240.825 946.595 231.103 946.595 220.679C946.595 189.759 921.763 164.673 891.011 164.258H890.947Z" fill="url(#paint10_radial_78_497)"/>
<mask id="mask1_78_497" style="mask-type:luminance" maskUnits="userSpaceOnUse" x="835" y="164" width="112" height="144">
<path d="M890.947 164.258C860.163 164.673 835.364 189.759 835.364 220.679C835.364 231.103 838.197 240.857 843.1 249.209C854.497 271.713 875.189 307.287 875.189 307.287H906.769C906.769 307.287 927.462 271.713 938.859 249.209C943.761 240.825 946.595 231.103 946.595 220.679C946.595 189.759 921.763 164.673 891.011 164.258H890.947Z" fill="white"/>
</mask>
<g mask="url(#mask1_78_497)">
<path d="M879.455 160.465C874.234 165.183 869.331 169.933 865.479 175.383C861.532 180.739 858.571 186.636 856.566 192.756C852.65 204.997 852.236 218.257 854.369 231.039C855.42 237.287 857.298 243.694 859.526 250.038C861.691 256.381 864.206 262.725 866.721 269.068L882.829 307.319C873.534 296.768 865.639 285.165 858.826 272.861C855.324 266.773 852.268 260.366 849.562 253.767C846.824 247.169 844.596 240.284 843.291 232.888L842.845 230.115L842.622 227.374L842.208 221.891C842.081 220.074 842.272 218.193 842.272 216.376C842.367 214.528 842.272 212.679 842.59 210.862C843.354 203.498 845.328 196.199 848.48 189.473C851.568 182.715 856.088 176.658 861.405 171.75C866.785 166.872 872.961 163.079 879.455 160.497V160.465Z" fill="url(#paint11_linear_78_497)"/>
<path d="M899.797 160.083C906.355 162.633 912.627 166.235 918.198 170.984C923.705 175.734 928.481 181.599 931.887 188.261C932.842 189.887 933.574 191.608 934.275 193.329C934.975 195.083 935.771 196.804 936.185 198.621L937.681 204.04L938.572 209.586C938.7 210.511 938.891 211.435 938.954 212.36L939.082 215.133L939.304 220.711C939.018 224.409 938.922 228.075 938.349 231.772C937.203 239.263 934.975 246.18 932.365 252.874C929.754 259.568 926.762 266.007 923.355 272.223C916.702 284.687 908.966 296.513 899.829 307.287L915.397 268.558C917.848 262.119 920.299 255.743 922.336 249.304C924.438 242.897 926.348 236.426 927.239 230.115C927.78 226.959 927.876 223.612 928.226 220.392V215.547C928.258 213.922 928.226 212.296 928.003 210.702C927.717 204.199 926.061 197.983 923.928 191.863C921.636 185.839 918.421 180.005 914.219 174.777C910.144 169.39 905.082 164.768 899.766 160.083H899.797Z" fill="url(#paint12_linear_78_497)"/>
<path d="M893.813 159.732C899.543 163.238 904.095 168.434 908.106 173.949C911.99 179.527 915.142 185.711 917.402 192.214C919.758 198.685 921.222 205.506 921.891 212.392C922.146 215.866 922.4 219.245 922.209 222.847C922.209 224.664 922.05 226.417 921.795 228.107C921.573 229.828 921.445 231.581 921.127 233.239C918.835 246.69 914.792 259.409 909.857 271.745C904.987 284.081 899.288 296.035 892.189 307.319C894.927 294.282 898.269 281.627 901.517 269.036C904.668 256.413 907.915 243.853 910.048 231.454C912.181 219.372 911.545 206.909 909.03 194.636C907.661 188.548 905.878 182.46 903.331 176.626C900.848 170.729 897.856 165.023 893.813 159.732Z" fill="url(#paint13_linear_78_497)"/>
<path d="M888.178 159.732C884.135 165.023 881.079 170.697 878.595 176.594C876.049 182.428 874.266 188.484 872.929 194.573C870.446 206.845 869.809 219.341 871.942 231.422C874.043 243.822 877.29 256.381 880.474 269.004C883.721 281.627 887.064 294.282 889.801 307.319C882.702 296.035 877.004 284.049 872.133 271.745C867.199 259.441 863.187 246.69 860.863 233.239C860.545 231.581 860.418 229.796 860.195 228.107C859.94 226.417 859.813 224.664 859.781 222.847C859.59 219.245 859.845 215.834 860.099 212.392C860.736 205.506 862.201 198.685 864.524 192.182C866.785 185.679 869.905 179.495 873.82 173.885C877.831 168.402 882.416 163.206 888.178 159.732Z" fill="url(#paint14_linear_78_497)"/>
<path d="M890.947 159.604C893.271 171.909 894.481 184.213 895.309 196.517C896.2 208.821 896.55 221.126 896.55 233.43C896.55 245.734 896.2 258.038 895.309 270.343C894.481 282.647 893.271 294.951 890.916 307.255C888.592 294.951 887.35 282.647 886.522 270.343C885.631 258.038 885.313 245.734 885.281 233.43C885.281 221.126 885.631 208.821 886.522 196.517C887.35 184.213 888.56 171.909 890.884 159.604H890.947Z" fill="url(#paint15_linear_78_497)"/>
</g>
<g opacity="0.51">
<path d="M438.636 324.418L436.956 336.252L437.649 336.351L439.329 324.516L438.636 324.418Z" fill="url(#paint16_linear_78_497)"/>
<path d="M427.21 335.784L425.65 324.659L426.35 324.563L427.974 336.103L427.21 335.784Z" fill="url(#paint17_linear_78_497)"/>
<path d="M435.423 341.299H429.47C428.642 341.299 427.942 340.694 427.814 339.865L427.082 335.02H437.747L437.015 339.865C436.887 340.694 436.187 341.299 435.359 341.299H435.423Z" fill="url(#paint18_linear_78_497)"/>
<path d="M432.399 263.425C419.187 263.617 408.554 274.359 408.554 287.619C408.554 292.082 409.764 296.258 411.865 299.86C416.736 309.518 425.618 324.787 425.618 324.787H439.148C439.148 324.787 448.03 309.518 452.9 299.86C455.001 296.258 456.211 292.082 456.211 287.619C456.211 274.359 445.578 263.617 432.367 263.425H432.399Z" fill="url(#paint19_radial_78_497)"/>
<mask id="mask2_78_497" style="mask-type:luminance" maskUnits="userSpaceOnUse" x="408" y="263" width="49" height="62">
<path d="M432.399 263.425C419.187 263.617 408.554 274.359 408.554 287.619C408.554 292.082 409.764 296.258 411.865 299.86C416.736 309.518 425.618 324.787 425.618 324.787H439.148C439.148 324.787 448.03 309.518 452.9 299.86C455.001 296.258 456.211 292.082 456.211 287.619C456.211 274.359 445.578 263.617 432.367 263.425H432.399Z" fill="white"/>
</mask>
<g mask="url(#mask2_78_497)">
<path d="M427.496 261.799C422.944 265.72 419.346 270.342 417.691 275.634C416.004 280.893 415.813 286.567 416.736 292.05C417.15 294.728 417.977 297.469 418.932 300.178C419.824 302.92 420.938 305.597 422.02 308.339L428.929 324.755C424.949 320.229 421.575 315.256 418.646 309.996C415.749 304.705 413.17 299.19 411.993 292.847C411.006 286.631 411.483 280.033 414.221 274.231C416.863 268.366 421.925 263.967 427.496 261.799Z" fill="url(#paint20_linear_78_497)"/>
<path d="M436.187 261.64C441.79 263.776 447.011 267.952 449.94 273.721C452.964 279.427 453.632 286.185 452.709 292.401C451.595 298.776 449.112 304.386 446.279 309.741C443.413 315.097 440.103 320.165 436.187 324.787L442.872 308.18C443.923 305.406 445.005 302.697 445.865 299.924C446.788 297.182 447.616 294.409 447.966 291.699C448.189 290.329 448.252 288.926 448.412 287.524C448.348 286.153 448.475 284.719 448.316 283.348C448.252 280.543 447.457 277.897 446.565 275.283C444.655 270.024 440.835 265.529 436.219 261.64H436.187Z" fill="url(#paint21_linear_78_497)"/>
<path d="M433.64 261.48C438.479 264.636 441.79 269.896 443.764 275.41C445.737 280.957 446.342 287.109 445.355 293.006C444.337 298.776 442.649 304.227 440.516 309.518C438.415 314.81 435.996 319.942 432.94 324.787C434.118 319.208 435.55 313.758 436.951 308.37C438.32 302.952 439.752 297.596 440.612 292.241C441.567 287.045 441.249 281.69 440.166 276.462C438.988 271.267 437.046 266.071 433.64 261.512V261.48Z" fill="url(#paint22_linear_78_497)"/>
<path d="M431.221 261.48C427.814 266.039 425.841 271.203 424.695 276.43C423.612 281.69 423.326 287.045 424.281 292.241C425.14 297.564 426.573 302.952 427.942 308.37C429.342 313.789 430.775 319.208 431.953 324.787C428.897 319.942 426.477 314.81 424.376 309.518C422.275 304.227 420.588 298.776 419.537 293.006C418.582 287.077 419.155 280.957 421.129 275.41C423.071 269.896 426.414 264.636 431.253 261.512L431.221 261.48Z" fill="url(#paint23_linear_78_497)"/>
<path d="M432.399 261.449C433.385 266.74 433.927 272 434.277 277.291C434.659 282.583 434.754 287.842 434.818 293.134C434.786 298.425 434.659 303.685 434.277 308.976C433.927 314.268 433.385 319.527 432.399 324.819C431.412 319.527 430.871 314.268 430.52 308.976C430.138 303.685 430.043 298.425 429.979 293.134C430.043 287.842 430.138 282.583 430.52 277.291C430.871 272 431.38 266.74 432.399 261.449Z" fill="url(#paint24_linear_78_497)"/>
</g>
</g>
<path d="M289.174 445.567H286.563C283.252 445.439 279.623 445.917 276.249 445.917H-73.8069C-86.318 431.796 -99.3703 417.643 -105.737 399.888C-107.711 394.341 -108.762 388.731 -109.494 382.93C-110.13 377.957 -108.475 372.761 -107.011 368.012C-103.859 357.811 -98.7973 348.153 -91.73 340.12C-81.7338 328.772 -67.5673 320.898 -52.5413 319.751C-33.6632 318.316 -15.0717 327.529 -1.92393 341.172C11.192 354.815 19.4054 372.506 25.1675 390.548C27.3323 397.306 29.2105 404.733 27.5551 411.81C26.8866 414.71 25.4859 417.484 23.2893 419.46C21.22 421.309 18.1957 422.361 15.6807 421.181C12.7838 419.842 11.765 416.113 12.1152 412.925C14.2482 394.724 27.9371 378.085 44.5868 371.135C66.712 361.891 96.9869 369.159 109.912 390.229C109.912 390.261 109.944 390.293 109.975 390.325C115.578 399.474 118.794 409.833 121.436 420.225C122.009 422.552 122.582 425.006 121.882 427.302C121.181 429.597 118.73 431.509 116.47 430.776C114.369 430.075 113.445 427.588 113.254 425.357C112.65 418.727 115.738 412.256 119.749 406.964C140.505 379.774 187.716 381.846 199.049 417.26C200.386 421.404 202.487 428.067 200.1 432.051C199.113 433.741 196.885 434.856 195.134 433.964C192.841 432.784 193.064 429.469 193.86 427.015C195.993 420.448 199.973 414.264 205.862 410.662C211.751 407.06 219.646 406.391 225.504 410.056C231.362 413.722 234.227 421.978 230.916 428.067C230.438 428.959 229.579 429.915 228.56 429.724C227.064 429.469 227.064 427.302 227.605 425.899C230.216 419.077 236.423 413.754 243.554 412.256C250.685 410.758 258.517 413.117 263.642 418.281C265.775 420.448 267.494 423.094 268.195 426.058C268.895 429.023 268.545 432.274 266.889 434.824C266.189 435.908 264.82 436.96 263.674 436.354C262.496 435.749 262.592 433.996 263.069 432.752C264.852 428.194 269.563 425.07 274.434 424.72C281.629 424.178 290.097 429.373 290.32 437.183C290.32 438.012 290.224 438.904 289.683 439.574C289.174 440.243 288.155 440.562 287.455 440.116C286.786 439.67 286.627 438.681 286.945 437.948C287.264 437.183 287.9 436.641 288.569 436.163C291.529 434.027 295.286 433.007 298.915 433.326C302.544 433.645 306.046 435.271 308.625 437.884C310.599 439.893 312.158 443.017 310.885 445.503H289.142L289.174 445.567Z" fill="url(#paint25_linear_78_497)"/>
<path d="M633.085 400.398C720.408 400.494 807.763 400.589 895.086 400.589H1085.17C1093.1 400.589 1100.71 402.31 1108.47 402.247C1120.09 402.151 1132.13 399.729 1143.68 398.517C1147.15 398.135 1150.78 397.72 1153.74 395.84C1159.89 391.951 1160.91 383.503 1161.16 376.236C1161.89 354.879 1161.45 333.171 1155.43 312.642C1149.45 292.146 1137.32 272.733 1119.04 261.704C1100.87 250.739 1077.98 249.049 1057.48 254.564C1036.97 260.078 1018.73 272.351 1003.64 287.301C987.662 303.143 974.482 323.066 971.712 345.411C971.33 348.599 971.171 351.978 972.54 354.879C973.941 357.779 977.347 359.947 980.371 358.895C984.096 357.62 985.083 352.775 984.892 348.822C983.332 315.416 951.815 299.095 921.445 300.657C883.784 302.601 852.777 332.342 851.95 370.912C851.854 375.184 853.541 380.89 857.839 380.666C862.392 380.443 863.219 373.941 862.073 369.51C855.42 343.849 829.602 324.564 803.115 325.489C776.66 326.413 752.243 347.483 747.404 373.558C746.545 378.244 747.723 384.842 752.498 384.97C755.363 385.034 757.655 382.228 757.973 379.36C758.292 376.491 757.082 373.717 755.745 371.167C751.606 363.294 745.43 356.154 737.249 352.743C729.067 349.332 718.689 350.352 712.481 356.696C706.305 363.071 706.146 374.897 713.245 380.252C711.94 367.502 700.384 356.6 687.618 356.058C674.821 355.516 662.405 365.43 660.049 378.021C659.572 380.507 659.54 383.28 661.068 385.257C662.596 387.265 666.162 387.679 667.435 385.512C668.868 383.057 666.385 380.188 664.029 378.595C657.343 374.132 648.621 371.422 641.267 374.674C633.913 377.925 630.284 388.954 636.205 394.373C633.595 387.233 625.445 382.579 617.996 384.013C610.546 385.416 604.625 392.716 604.816 400.302C614.239 400.302 623.694 400.302 633.117 400.302L633.085 400.398Z" fill="url(#paint26_linear_78_497)"/>
<path d="M-58.0487 358.576L329.986 357.907C322.537 347.962 307.224 344.87 296.75 351.564C293.949 344.232 287.805 338.239 280.355 335.721C272.906 333.203 264.406 333.394 257.721 337.506C257.498 332.629 256.193 327.656 253.2 323.768C250.208 319.879 245.433 317.233 240.562 317.52C235.691 317.807 230.311 320.038 229.483 324.851C230.088 321.249 225.791 315.735 223.498 313.408C220.474 310.284 216.781 308.276 212.579 307.128C197.33 302.984 179.917 312.643 173.39 326.732C172.817 311.495 167.342 296.099 156.582 285.293C146.617 275.284 132.133 270.438 118.125 271.809C103.036 273.275 90.4608 282.233 81.5152 294.123C76.3579 300.976 72.3467 308.69 69.4498 316.755C67.1258 323.258 65.4704 330.175 66.2663 337.028C66.521 339.132 66.9985 341.236 68.2719 342.925C69.5134 344.615 71.6782 345.762 73.7156 345.348C75.9759 344.87 77.504 342.67 77.9178 340.407C79.3185 332.789 74.0021 324.246 68.3037 319.655C62.0322 314.587 53.8189 311.91 45.7328 312.515C39.2385 312.993 32.9352 315.639 27.9053 319.751C23.0983 323.672 17.941 329.856 16.1901 335.881C14.6939 341.013 16.0309 347.324 20.5515 350.193C22.4616 351.404 25.3585 351.723 26.6956 349.938C28.0008 348.185 27.0139 345.667 25.9634 343.754C25.4222 342.766 24.881 341.778 24.308 340.789C21.984 336.709 19.5009 332.725 16.986 328.772C3.80636 308.339 -16.9181 293.931 -40.8261 288.608C-44.5507 287.779 -48.2436 286.759 -51.9046 285.898C-49.8035 301.677 -51.045 318.317 -50.281 334.255C-49.8353 343.371 -51.1087 352.743 -58.1124 358.576H-58.0487Z" fill="url(#paint27_linear_78_497)"/>
<path d="M1051.94 502.402L663.901 501.733C671.351 491.787 686.663 488.695 697.137 495.389C699.938 488.058 706.082 482.065 713.532 479.547C720.981 477.029 729.481 477.22 736.166 481.332C736.389 476.455 737.694 471.482 740.687 467.593C743.679 463.704 748.455 461.059 753.325 461.345C758.196 461.632 763.576 463.864 764.404 468.677C763.799 465.075 768.097 459.56 770.389 457.233C773.413 454.11 777.106 452.101 781.308 450.954C796.557 446.81 813.971 456.468 820.497 470.558C821.07 455.321 826.545 439.925 837.306 429.119C847.27 419.109 861.755 414.264 875.762 415.635C890.852 417.101 903.427 426.058 912.372 437.948C917.529 444.802 921.541 452.516 924.438 460.58C926.761 467.083 928.417 474 927.621 480.854C927.366 482.958 926.889 485.061 925.647 486.751C924.406 488.44 922.241 489.588 920.204 489.174C917.943 488.695 916.415 486.496 916.001 484.233C914.601 476.614 919.917 468.071 925.615 463.481C931.887 458.413 940.1 455.735 948.186 456.341C954.681 456.819 960.984 459.465 966.014 463.577C970.821 467.498 975.978 473.682 977.729 479.706C979.225 484.838 977.888 491.15 973.368 494.019C971.458 495.23 968.561 495.549 967.224 493.764C965.918 492.01 966.905 489.492 967.956 487.58C968.497 486.592 969.038 485.603 969.611 484.615C971.935 480.535 974.418 476.55 976.933 472.598C990.113 452.165 1010.84 437.757 1034.75 432.434C1038.47 431.605 1042.16 430.585 1045.82 429.724C1043.72 445.503 1044.96 462.142 1044.2 478.081C1043.75 487.197 1045.03 496.569 1052.03 502.402H1051.94Z" fill="url(#paint28_linear_78_497)"/>
<path d="M328.235 555.125L716.27 554.456C708.82 544.51 693.508 541.418 683.034 548.112C680.233 540.781 674.089 534.788 666.639 532.27C659.19 529.752 650.69 529.943 644.005 534.055C643.782 529.178 642.477 524.205 639.484 520.316C636.492 516.427 631.716 513.782 626.846 514.069C621.975 514.355 616.595 516.587 615.767 521.4C616.372 517.798 612.074 512.283 609.782 509.957C606.758 506.833 603.065 504.824 598.863 503.677C583.614 499.533 566.2 509.192 559.674 523.281C559.101 508.044 553.626 492.648 542.865 481.842C532.901 471.833 518.416 466.987 504.409 468.358C489.319 469.824 476.745 478.782 467.799 490.671C462.642 497.525 458.631 505.239 455.734 513.335C453.41 519.838 451.754 526.755 452.55 533.609C452.805 535.681 453.282 537.816 454.524 539.506C455.765 541.195 457.93 542.343 459.968 541.928C462.228 541.45 463.756 539.251 464.17 536.988C465.571 529.369 460.254 520.826 454.556 516.236C448.284 511.168 440.071 508.49 431.985 509.096C425.491 509.574 419.187 512.22 414.157 516.332C409.35 520.253 404.193 526.437 402.442 532.461C400.946 537.593 402.283 543.905 406.803 546.774C408.714 547.985 411.61 548.304 412.948 546.519C414.253 544.765 413.266 542.247 412.215 540.335C411.674 539.346 411.133 538.358 410.56 537.37C408.236 533.29 405.753 529.305 403.238 525.353C390.058 504.92 369.334 490.512 345.426 485.189C341.701 484.36 338.008 483.34 334.347 482.479C336.449 498.258 335.207 514.897 335.971 530.836C336.417 539.952 335.143 549.324 328.14 555.157L328.235 555.125Z" fill="url(#paint29_linear_78_497)"/>
<path d="M728.908 674.63L923.546 342.511L1019.31 455.512L1058.24 386.309L1162.63 603.801V674.63H728.908Z" fill="url(#paint30_linear_78_497)"/>
<path d="M-183.987 102.514L204.047 101.845C196.598 91.8991 181.285 88.8072 170.812 95.5012C168.01 88.1696 161.866 82.1769 154.417 79.6587C146.999 77.1085 138.468 77.3317 131.782 81.4437C131.56 76.5667 130.254 71.5939 127.262 67.705C124.269 63.8161 119.494 61.1704 114.623 61.4573C109.753 61.7442 104.373 63.9755 103.545 68.7888C104.15 65.1868 99.852 59.6722 97.5599 57.3452C94.5356 54.2214 90.8428 52.2132 86.6406 51.0656C71.3917 46.9217 53.978 56.5802 47.4519 70.6695C46.8789 55.4327 41.4033 40.0364 30.6431 29.2304C20.6788 19.2212 6.194 14.376 -7.81332 15.7467C-22.903 17.213 -35.4778 26.1702 -44.4234 38.0601C-49.5806 44.9135 -53.5918 52.6275 -56.4888 60.6922C-58.8127 67.195 -60.4681 74.1122 -59.6723 80.9656C-59.4176 83.0694 -58.94 85.1732 -57.6667 86.8627C-56.4251 88.5521 -54.2603 89.6997 -52.2229 89.2853C-49.9626 88.8072 -48.4346 86.6077 -48.0207 84.3445C-46.62 76.726 -51.9364 68.1832 -57.6348 63.593C-63.9063 58.5247 -72.1197 55.8471 -80.2057 56.4527C-86.7 56.9308 -93.0033 59.5766 -98.0332 63.6886C-102.84 67.6094 -107.998 73.7934 -109.748 79.818C-111.245 84.9501 -109.908 91.2616 -105.387 94.1305C-103.477 95.3418 -100.58 95.6606 -99.2429 93.8755C-97.9377 92.1223 -98.9246 89.6041 -99.9751 87.6915C-100.516 86.7033 -101.058 85.7151 -101.631 84.727C-103.954 80.6468 -106.438 76.6623 -108.953 72.7096C-122.132 52.2769 -142.857 37.8688 -166.765 32.5455C-170.489 31.7167 -174.182 30.6967 -177.843 29.836C-175.742 45.6148 -176.984 62.2542 -176.22 78.1923C-175.774 87.309 -177.047 96.6806 -184.051 102.514H-183.987Z" fill="url(#paint31_linear_78_497)"/>
<path d="M609.018 674.63L389.008 316.404L266.284 513.399L218.787 424.433L142.893 519.743L67.4442 411.013L-11.538 515.535L-5.99876 678.646L609.018 674.63Z" fill="url(#paint32_linear_78_497)"/>
<path d="M359.083 252.528L353.357 292.861L355.721 293.197L361.447 252.865L359.083 252.528Z" fill="url(#paint33_linear_78_497)"/>
<path d="M320.308 291.444L314.928 253.416L317.284 253.097L322.855 292.528L320.308 291.444Z" fill="url(#paint34_linear_78_497)"/>
<path d="M348.291 310.283H328.012C325.179 310.283 322.791 308.211 322.377 305.438L319.926 288.958H356.377L353.926 305.438C353.512 308.243 351.124 310.283 348.291 310.283Z" fill="url(#paint35_linear_78_497)"/>
<path d="M337.977 44.499C292.93 45.1047 256.607 81.8262 256.607 127.059C256.607 142.295 260.745 156.576 267.94 168.817C284.59 201.777 314.896 253.831 314.896 253.831H361.089C361.089 253.831 391.364 201.777 408.045 168.817C415.24 156.576 419.378 142.295 419.378 127.059C419.378 81.8262 383.055 45.1047 338.008 44.499H337.977Z" fill="url(#paint36_radial_78_497)"/>
<mask id="mask3_78_497" style="mask-type:luminance" maskUnits="userSpaceOnUse" x="256" y="44" width="164" height="210">
<path d="M337.977 44.499C292.93 45.1047 256.607 81.8262 256.607 127.059C256.607 142.295 260.745 156.576 267.94 168.817C284.59 201.777 314.896 253.831 314.896 253.831H361.089C361.089 253.831 391.364 201.777 408.045 168.817C415.24 156.576 419.378 142.295 419.378 127.059C419.378 81.8262 383.055 45.1047 338.008 44.499H337.977Z" fill="white"/>
</mask>
<g mask="url(#mask3_78_497)">
<path d="M321.2 38.9524C313.559 45.8696 306.396 52.8186 300.762 60.7877C294.968 68.5974 290.67 77.2677 287.773 86.225C281.915 104.108 281.406 123.52 284.494 142.232C286.022 151.38 288.792 160.752 292.039 169.996C295.222 179.304 298.82 188.58 302.64 197.824C310.153 216.408 318.43 234.8 326.166 253.831C312.54 238.402 301.08 221.38 290.988 203.434C285.927 194.477 281.438 185.137 277.459 175.479C273.479 165.82 270.168 155.747 268.29 144.909L267.622 140.861L267.303 136.845L266.698 128.812C266.476 126.134 266.762 123.425 266.794 120.715C266.953 118.006 266.794 115.328 267.271 112.619L268.417 104.554C268.736 101.876 269.659 99.2624 270.296 96.6166L271.346 92.664C271.76 91.357 272.269 90.082 272.747 88.8069C273.798 86.2887 274.53 83.6749 275.867 81.2841C280.419 71.4025 287.041 62.5728 294.808 55.3687C302.704 48.2284 311.713 42.682 321.231 38.8887L321.2 38.9524Z" fill="url(#paint37_linear_78_497)"/>
<path d="M350.933 38.3789C360.516 42.1084 369.716 47.3999 377.866 54.3171C385.92 61.298 392.923 69.8408 397.921 79.5631C398.558 80.7744 399.259 81.9538 399.832 83.197L401.391 86.9903C402.378 89.5404 403.556 92.0586 404.193 94.7362L406.39 102.673L407.695 110.77C407.886 112.141 408.172 113.479 408.268 114.85L408.427 118.93L408.745 127.123L408.172 135.219C407.918 137.929 407.918 140.606 407.345 143.316C406.835 145.993 406.453 148.767 405.785 151.38L403.779 159.19C402.124 164.227 400.564 169.327 398.59 174.172C394.77 183.958 390.345 193.393 385.442 202.51C375.605 220.711 364.336 238.052 350.965 253.799C358.414 234.546 366.469 215.898 373.727 197.091C377.388 187.719 380.922 178.348 383.946 168.912C387.002 159.541 389.804 150.073 391.141 140.861C391.682 138.598 391.682 136.144 391.937 133.785L392.573 126.644V119.536V115.966C392.51 114.786 392.35 113.607 392.255 112.459L391.618 105.415C391.141 103.12 390.727 100.793 390.281 98.4976C389.963 96.1388 389.103 93.9393 388.498 91.6761L387.543 88.2653C387.193 87.1496 386.684 86.0658 386.27 84.9502C382.927 76.0886 378.248 67.5776 372.135 59.8954C366.182 52.022 358.765 45.2642 350.997 38.3789H350.933Z" fill="url(#paint38_linear_78_497)"/>
<path d="M342.179 37.8688C350.583 43.0009 357.237 50.6193 363.094 58.6521C368.888 66.7806 373.345 75.8653 376.751 85.3645C380.094 94.8636 382.322 104.841 383.246 114.914C383.628 119.982 384.01 124.955 383.723 130.214L383.564 134.135L383.118 137.928C382.8 140.415 382.609 142.997 382.131 145.451C378.789 165.151 372.804 183.735 365.705 201.809C358.51 219.819 350.169 237.351 339.791 253.863C343.802 234.801 348.737 216.28 353.416 197.792C358.16 179.368 362.808 160.975 365.928 142.806C367.424 133.657 368.092 125.21 367.742 115.966C367.487 106.881 366.278 97.86 364.368 88.9027C362.426 79.9774 359.72 71.1158 356.091 62.541C352.461 53.9344 348.068 45.5829 342.179 37.8369V37.8688Z" fill="url(#paint39_linear_78_497)"/>
<path d="M333.934 37.8689C328.044 45.6149 323.555 53.9346 319.926 62.5093C316.265 71.084 313.559 79.9138 311.681 88.8391C309.803 97.7964 308.657 106.817 308.37 115.902C308.02 125.146 308.657 133.625 310.185 142.742C313.305 160.88 317.952 179.304 322.696 197.729C327.376 216.217 332.278 234.737 336.321 253.799C325.943 237.287 317.602 219.755 310.408 201.745C303.277 183.703 297.323 165.087 293.981 145.388C293.535 142.933 293.344 140.383 292.994 137.865L292.548 134.072L292.389 130.151C292.103 124.859 292.485 119.919 292.835 114.85C293.758 104.777 295.923 94.8 299.265 85.269C302.64 75.7698 307.129 66.6532 312.923 58.5248C318.78 50.4919 325.497 42.9054 333.934 37.8052V37.8689Z" fill="url(#paint40_linear_78_497)"/>
<path d="M337.977 37.7095C341.383 55.7196 343.134 73.7297 344.407 91.7398C345.617 109.75 346.158 127.76 346.19 145.77C346.19 163.78 345.649 181.79 344.439 199.8C343.166 217.811 341.415 235.821 337.977 253.831C334.57 235.821 332.787 217.811 331.514 199.8C330.304 181.79 329.763 163.78 329.763 145.77C329.763 127.76 330.336 109.75 331.546 91.7398C332.819 73.7297 334.57 55.7196 337.977 37.7095Z" fill="url(#paint41_linear_78_497)"/>
</g>
<g filter="url(#filter0_d_78_497)">
<path opacity="0.77" d="M285.799 280.447C283.762 280.447 283.762 283.603 285.799 283.603C287.837 283.603 287.837 280.447 285.799 280.447Z" fill="#F2F2F2"/>
<path opacity="0.77" d="M187.079 160.401C185.042 160.401 185.042 163.557 187.079 163.557C189.117 163.557 189.117 160.401 187.079 160.401Z" fill="#F2F2F2"/>
<path opacity="0.77" d="M229.866 63.9116C227.828 63.9116 227.828 67.0674 229.866 67.0674C231.903 67.0674 231.903 63.9116 229.866 63.9116Z" fill="#F2F2F2"/>
<path opacity="0.77" d="M136.78 24.353C134.743 24.353 134.743 27.5088 136.78 27.5088C138.818 27.5088 138.818 24.353 136.78 24.353Z" fill="#F2F2F2"/>
<path opacity="0.77" d="M51.2084 257.847C49.171 257.847 49.171 261.003 51.2084 261.003C53.2459 261.003 53.2459 257.847 51.2084 257.847Z" fill="#F2F2F2"/>
<path opacity="0.77" d="M113.255 150.042C111.217 150.042 111.217 153.197 113.255 153.197C115.292 153.197 115.292 150.042 113.255 150.042Z" fill="#F2F2F2"/>
<path opacity="0.77" d="M475.28 260.206C473.243 260.206 473.243 263.361 475.28 263.361C477.318 263.361 477.318 260.206 475.28 260.206Z" fill="#F2F2F2"/>
<path opacity="0.77" d="M556.141 271.044C554.103 271.044 554.103 274.2 556.141 274.2C558.178 274.2 558.178 271.044 556.141 271.044Z" fill="#F2F2F2"/>
<path opacity="0.77" d="M490.784 56.3569C488.746 56.3569 488.746 59.5127 490.784 59.5127C492.821 59.5127 492.821 56.3569 490.784 56.3569Z" fill="#F2F2F2"/>
<path opacity="0.77" d="M558.974 21.0698C556.937 21.0698 556.937 24.2256 558.974 24.2256C561.011 24.2256 561.011 21.0698 558.974 21.0698Z" fill="#F2F2F2"/>
<path opacity="0.77" d="M808.145 29.9951C806.108 29.9951 806.108 33.1509 808.145 33.1509C810.183 33.1509 810.183 29.9951 808.145 29.9951Z" fill="#F2F2F2"/>
<path opacity="0.77" d="M828.36 45.9971C826.323 45.9971 826.323 49.1528 828.36 49.1528C830.398 49.1528 830.398 45.9971 828.36 45.9971Z" fill="#F2F2F2"/>
<path opacity="0.77" d="M851.854 22.9507C849.817 22.9507 849.817 26.1064 851.854 26.1064C853.892 26.1064 853.892 22.9507 851.854 22.9507Z" fill="#F2F2F2"/>
<path opacity="0.77" d="M987.248 223.962C985.21 223.962 985.21 227.118 987.248 227.118C989.285 227.118 989.285 223.962 987.248 223.962Z" fill="#F2F2F2"/>
<path opacity="0.77" d="M968.911 266.804C966.873 266.804 966.873 269.96 968.911 269.96C970.948 269.96 970.948 266.804 968.911 266.804Z" fill="#F2F2F2"/>
<path opacity="0.77" d="M1036.62 231.007C1034.59 231.007 1034.59 234.163 1036.62 234.163C1038.66 234.163 1038.66 231.007 1036.62 231.007Z" fill="#F2F2F2"/>
<path opacity="0.77" d="M806.712 211.244C804.675 211.244 804.675 214.399 806.712 214.399C808.75 214.399 808.75 211.244 806.712 211.244Z" fill="#F2F2F2"/>
<path opacity="0.77" d="M844.341 284.208C842.304 284.208 842.304 287.364 844.341 287.364C846.378 287.364 846.378 284.208 844.341 284.208Z" fill="#F2F2F2"/>
<path opacity="0.77" d="M817.059 268.207C815.021 268.207 815.021 271.362 817.059 271.362C819.096 271.362 819.096 268.207 817.059 268.207Z" fill="#F2F2F2"/>
<path opacity="0.77" d="M774.75 226.768C772.713 226.768 772.713 229.923 774.75 229.923C776.788 229.923 776.788 226.768 774.75 226.768Z" fill="#F2F2F2"/>
<path opacity="0.77" d="M459.777 304.45C457.739 304.45 457.739 307.606 459.777 307.606C461.814 307.606 461.814 304.45 459.777 304.45Z" fill="#F2F2F2"/>
<path opacity="0.77" d="M524.178 247.487C522.141 247.487 522.141 250.643 524.178 250.643C526.216 250.643 526.216 247.487 524.178 247.487Z" fill="#F2F2F2"/>
<path opacity="0.77" d="M413.68 240.442C411.642 240.442 411.642 243.598 413.68 243.598C415.717 243.598 415.717 240.442 413.68 240.442Z" fill="#F2F2F2"/>
<path opacity="0.77" d="M384.997 286.089C382.959 286.089 382.959 289.245 384.997 289.245C387.034 289.245 387.034 286.089 384.997 286.089Z" fill="#F2F2F2"/>
<path opacity="0.77" d="M235.5 240.889C233.463 240.889 233.463 244.044 235.5 244.044C237.538 244.044 237.538 240.889 235.5 240.889Z" fill="#F2F2F2"/>
<path opacity="0.77" d="M202.137 270.087C200.1 270.087 200.1 273.243 202.137 273.243C204.175 273.243 204.175 270.087 202.137 270.087Z" fill="#F2F2F2"/>
<path opacity="0.77" d="M124.556 244.204C122.518 244.204 122.518 247.36 124.556 247.36C126.593 247.36 126.593 244.204 124.556 244.204Z" fill="#F2F2F2"/>
<path opacity="0.77" d="M120.322 379.296C118.284 379.296 118.284 382.452 120.322 382.452C122.359 382.452 122.359 379.296 120.322 379.296Z" fill="#F2F2F2"/>
<path opacity="0.77" d="M41.8172 288.448C39.7797 288.448 39.7797 291.604 41.8172 291.604C43.8546 291.604 43.8546 288.448 41.8172 288.448Z" fill="#F2F2F2"/>
<path opacity="0.77" d="M18.7688 252.205C16.7313 252.205 16.7313 255.361 18.7688 255.361C20.8062 255.361 20.8062 252.205 18.7688 252.205Z" fill="#F2F2F2"/>
<path opacity="0.77" d="M147.604 133.561C145.567 133.561 145.567 136.717 147.604 136.717C149.642 136.717 149.642 133.561 147.604 133.561Z" fill="#F2F2F2"/>
<path opacity="0.77" d="M204.939 124.158C202.901 124.158 202.901 127.313 204.939 127.313C206.976 127.313 206.976 124.158 204.939 124.158Z" fill="#F2F2F2"/>
<path opacity="0.77" d="M180.967 51.6709C178.93 51.6709 178.93 54.8267 180.967 54.8267C183.005 54.8267 183.005 51.6709 180.967 51.6709Z" fill="#F2F2F2"/>
<path opacity="0.77" d="M342.688 21.5161C340.651 21.5161 340.651 24.6719 342.688 24.6719C344.726 24.6719 344.726 21.5161 342.688 21.5161Z" fill="#F2F2F2"/>
<path opacity="0.77" d="M583.423 44.1162C581.386 44.1162 581.386 47.272 583.423 47.272C585.46 47.272 585.46 44.1162 583.423 44.1162Z" fill="#F2F2F2"/>
<path opacity="0.77" d="M1075.18 199.481C1073.14 199.481 1073.14 202.637 1075.18 202.637C1077.21 202.637 1077.21 199.481 1075.18 199.481Z" fill="#F2F2F2"/>
<path opacity="0.77" d="M1070.97 215.037C1070.91 214.846 1070.81 214.686 1070.66 214.527C1070.53 214.367 1070.34 214.272 1070.15 214.208C1069.95 214.112 1069.76 214.049 1069.54 214.081C1069.41 214.081 1069.25 214.112 1069.13 214.144C1068.87 214.208 1068.62 214.367 1068.43 214.559C1068.33 214.654 1068.27 214.782 1068.17 214.877C1068.04 215.132 1067.95 215.387 1067.95 215.674V216.631C1067.95 216.854 1067.98 217.045 1068.08 217.236C1068.14 217.428 1068.24 217.587 1068.39 217.746C1068.52 217.906 1068.71 218.001 1068.9 218.065C1069.1 218.161 1069.29 218.224 1069.51 218.193C1069.64 218.193 1069.8 218.161 1069.92 218.129C1070.18 218.065 1070.43 217.906 1070.62 217.714C1070.72 217.619 1070.78 217.491 1070.88 217.396C1071.01 217.141 1071.1 216.886 1071.1 216.599V215.642C1071.1 215.419 1071.07 215.228 1070.97 215.037Z" fill="#F2F2F2"/>
<path opacity="0.77" d="M976.901 206.08C974.864 206.08 974.864 209.236 976.901 209.236C978.939 209.236 978.939 206.08 976.901 206.08Z" fill="#F2F2F2"/>
<path opacity="0.77" d="M1020.16 220.201C1018.13 220.201 1018.13 223.357 1020.16 223.357C1022.2 223.357 1022.2 220.201 1020.16 220.201Z" fill="#F2F2F2"/>
<path opacity="0.77" d="M492.63 245.925C492.503 245.702 492.312 245.511 492.057 245.352C491.739 245.192 491.42 245.033 491.102 244.873C490.911 244.746 490.72 244.682 490.529 244.682C490.306 244.65 490.115 244.65 489.892 244.682C489.701 244.746 489.51 244.841 489.351 244.969C489.192 245.065 489.033 245.224 488.937 245.415L488.778 245.798C488.714 246.085 488.714 246.372 488.778 246.627L488.937 247.009C489.065 247.232 489.256 247.423 489.51 247.583C489.829 247.742 490.147 247.902 490.465 248.061C490.656 248.188 490.847 248.252 491.038 248.252C491.261 248.284 491.452 248.284 491.675 248.252C491.866 248.189 492.057 248.093 492.216 247.965C492.376 247.838 492.535 247.71 492.63 247.519C492.694 247.392 492.726 247.264 492.789 247.137C492.853 246.85 492.853 246.563 492.789 246.308C492.726 246.18 492.694 246.053 492.63 245.925Z" fill="#F2F2F2"/>
<path opacity="0.77" d="M446.597 364.696C444.56 364.696 444.56 367.852 446.597 367.852C448.634 367.852 448.634 364.696 446.597 364.696Z" fill="#F2F2F2"/>
<path opacity="0.77" d="M329.095 379.327C329.031 379.136 328.935 378.977 328.776 378.817C328.649 378.658 328.458 378.562 328.267 378.499C328.076 378.403 327.885 378.339 327.662 378.371C327.535 378.371 327.376 378.403 327.248 378.435C326.994 378.499 326.739 378.658 326.548 378.849C326.452 378.945 326.389 379.072 326.293 379.168C326.166 379.423 326.07 379.678 326.07 379.965V380.443C326.07 380.666 326.102 380.857 326.198 381.049C326.261 381.24 326.357 381.399 326.516 381.559C326.643 381.718 326.834 381.814 327.025 381.877C327.216 381.973 327.407 382.037 327.63 382.005C327.758 382.005 327.917 381.973 328.044 381.941C328.299 381.878 328.553 381.718 328.744 381.527C328.84 381.431 328.904 381.304 328.999 381.208C329.126 380.953 329.222 380.698 329.222 380.411V379.933C329.222 379.71 329.19 379.519 329.095 379.327Z" fill="#F2F2F2"/>
<path opacity="0.77" d="M341.287 339.291C339.25 339.291 339.25 342.447 341.287 342.447C343.325 342.447 343.325 339.291 341.287 339.291Z" fill="#F2F2F2"/>
<path opacity="0.77" d="M70.5003 116.157C68.4629 116.157 68.4629 119.312 70.5003 119.312C72.5378 119.312 72.5378 116.157 70.5003 116.157Z" fill="#F2F2F2"/>
<path opacity="0.77" d="M79.4141 130.278C77.3767 130.278 77.3767 133.434 79.4141 133.434C81.4515 133.434 81.4515 130.278 79.4141 130.278Z" fill="#F2F2F2"/>
<path opacity="0.77" d="M90.7473 125.114C90.6836 124.923 90.5881 124.763 90.4289 124.604C90.2697 124.445 90.1106 124.349 89.9196 124.285C89.7286 124.19 89.5375 124.126 89.3147 124.158C89.1874 124.158 89.0282 124.19 88.9009 124.221C88.6462 124.285 88.3915 124.445 88.2005 124.636C88.105 124.731 88.0413 124.859 87.9458 124.955C87.8185 125.21 87.723 125.465 87.723 125.752V126.23C87.723 126.453 87.7548 126.644 87.8503 126.835C87.914 127.027 88.0095 127.186 88.1686 127.345C88.296 127.505 88.487 127.6 88.678 127.664C88.869 127.76 89.06 127.823 89.2829 127.792C89.4102 127.792 89.5694 127.76 89.6967 127.728C89.9514 127.664 90.2061 127.505 90.3971 127.313C90.4926 127.218 90.5563 127.09 90.6518 126.995C90.7791 126.74 90.8746 126.485 90.8746 126.198V125.72C90.8746 125.497 90.8428 125.305 90.7473 125.114Z" fill="#F2F2F2"/>
<path opacity="0.77" d="M246.802 249.368C244.764 249.368 244.764 252.523 246.802 252.523C248.839 252.523 248.839 249.368 246.802 249.368Z" fill="#F2F2F2"/>
<path opacity="0.77" d="M291.912 289.404C289.874 289.404 289.874 292.56 291.912 292.56C293.949 292.56 293.949 289.404 291.912 289.404Z" fill="#F2F2F2"/>
<path opacity="0.77" d="M470.091 250.802C468.054 250.802 468.054 253.958 470.091 253.958C472.129 253.958 472.129 250.802 470.091 250.802Z" fill="#F2F2F2"/>
</g>
</g>
<defs>
<filter id="filter0_d_78_497" x="15.2407" y="19.0698" width="1063.46" height="365.382" filterUnits="userSpaceOnUse" color-interpolation-filters="sRGB">
<feFlood flood-opacity="0" result="BackgroundImageFix"/>
<feColorMatrix in="SourceAlpha" type="matrix" values="0 0 0 0 0 0 0 0 0 0 0 0 0 0 0 0 0 0 127 0" result="hardAlpha"/>
<feOffset/>
<feGaussianBlur stdDeviation="1"/>
<feColorMatrix type="matrix" values="0 0 0 0 1 0 0 0 0 1 0 0 0 0 1 0 0 0 0.9 0"/>
<feBlend mode="normal" in2="BackgroundImageFix" result="effect1_dropShadow_78_497"/>
<feBlend mode="normal" in="SourceGraphic" in2="effect1_dropShadow_78_497" result="shape"/>
</filter>
<linearGradient id="paint0_linear_78_497" x1="546.399" y1="552.703" x2="546.399" y2="-25.0866" gradientUnits="userSpaceOnUse">
<stop stop-color="#975AE7"/>
<stop offset="0.44" stop-color="#662D91"/>
<stop offset="0.97" stop-color="#1B1464"/>
</linearGradient>
<linearGradient id="paint1_linear_78_497" x1="1112.1" y1="145.292" x2="1114.91" y2="-15.0138" gradientUnits="userSpaceOnUse">
<stop offset="0.24" stop-color="#01F0FF" stop-opacity="0"/>
<stop offset="1" stop-color="white"/>
</linearGradient>
<linearGradient id="paint2_linear_78_497" x1="554.549" y1="191.64" x2="544.144" y2="10.7437" gradientUnits="userSpaceOnUse">
<stop offset="0.09" stop-color="#01F0FF" stop-opacity="0"/>
<stop offset="0.97" stop-color="white"/>
</linearGradient>
<linearGradient id="paint3_linear_78_497" x1="912.786" y1="198.749" x2="906.02" y2="80.8391" gradientUnits="userSpaceOnUse">
<stop offset="0.01" stop-color="#01F0FF" stop-opacity="0"/>
<stop offset="0.97" stop-color="white"/>
</linearGradient>
<linearGradient id="paint4_linear_78_497" x1="505.491" y1="242.897" x2="512.258" y2="124.988" gradientUnits="userSpaceOnUse">
<stop offset="0.01" stop-color="#01F0FF" stop-opacity="0"/>
<stop offset="0.97" stop-color="white"/>
</linearGradient>
<linearGradient id="paint5_linear_78_497" x1="70.373" y1="242.897" x2="77.1395" y2="124.988" gradientUnits="userSpaceOnUse">
<stop offset="0.01" stop-color="#01F0FF" stop-opacity="0"/>
<stop offset="0.97" stop-color="white"/>
</linearGradient>
<linearGradient id="paint6_linear_78_497" x1="492.63" y1="783.838" x2="492.63" y2="254.915" gradientUnits="userSpaceOnUse">
<stop offset="0.31" stop-color="#662D91" stop-opacity="0.9"/>
<stop offset="0.97" stop-color="#1B1464"/>
</linearGradient>
<linearGradient id="paint7_linear_78_497" x1="903.995" y1="341.856" x2="904.314" y2="307.111" gradientUnits="userSpaceOnUse">
<stop offset="0.1" stop-color="#FFEB69"/>
<stop offset="0.21" stop-color="#F8E270"/>
<stop offset="0.4" stop-color="#E7CA85"/>
<stop offset="0.63" stop-color="#CCA4A6"/>
<stop offset="0.9" stop-color="#A66FD4"/>
<stop offset="1" stop-color="#975AE7"/>
</linearGradient>
<linearGradient id="paint8_linear_78_497" x1="877.704" y1="341.268" x2="878.023" y2="306.841" gradientUnits="userSpaceOnUse">
<stop offset="0.1" stop-color="#FFEB69"/>
<stop offset="0.21" stop-color="#F8E270"/>
<stop offset="0.4" stop-color="#E7CA85"/>
<stop offset="0.63" stop-color="#CCA4A6"/>
<stop offset="0.9" stop-color="#A66FD4"/>
<stop offset="1" stop-color="#975AE7"/>
</linearGradient>
<linearGradient id="paint9_linear_78_497" x1="891.043" y1="318.667" x2="891.043" y2="344.933" gradientUnits="userSpaceOnUse">
<stop offset="0.1" stop-color="#FFEB69"/>
<stop offset="0.21" stop-color="#F8E270"/>
<stop offset="0.4" stop-color="#E7CA85"/>
<stop offset="0.63" stop-color="#CCA4A6"/>
<stop offset="0.9" stop-color="#A66FD4"/>
<stop offset="1" stop-color="#975AE7"/>
</linearGradient>
<radialGradient id="paint10_radial_78_497" cx="0" cy="0" r="1" gradientUnits="userSpaceOnUse" gradientTransform="translate(859.301 178.75) rotate(73.2506) scale(115.38 82.9833)">
<stop stop-color="#FFEB69"/>
<stop offset="0.13" stop-color="#F8E270"/>
<stop offset="0.33" stop-color="#E7CA85"/>
<stop offset="0.59" stop-color="#CCA4A6"/>
<stop offset="0.89" stop-color="#A66FD4"/>
<stop offset="1" stop-color="#975AE7"/>
</radialGradient>
<linearGradient id="paint11_linear_78_497" x1="862.519" y1="310.316" x2="862.519" y2="155.971" gradientUnits="userSpaceOnUse">
<stop stop-color="#FFEB69" stop-opacity="0"/>
<stop offset="0.09" stop-color="#FBE56D" stop-opacity="0.04"/>
<stop offset="0.24" stop-color="#F0D67A" stop-opacity="0.14"/>
<stop offset="0.42" stop-color="#DFBE8F" stop-opacity="0.31"/>
<stop offset="0.64" stop-color="#C69CAD" stop-opacity="0.54"/>
<stop offset="0.87" stop-color="#A872D1" stop-opacity="0.83"/>
<stop offset="1" stop-color="#975AE7"/>
</linearGradient>
<linearGradient id="paint12_linear_78_497" x1="919.535" y1="310.252" x2="919.535" y2="155.556" gradientUnits="userSpaceOnUse">
<stop stop-color="#FFEB69" stop-opacity="0"/>
<stop offset="0.09" stop-color="#FBE56D" stop-opacity="0.04"/>
<stop offset="0.24" stop-color="#F0D67A" stop-opacity="0.14"/>
<stop offset="0.42" stop-color="#DFBE8F" stop-opacity="0.31"/>
<stop offset="0.64" stop-color="#C69CAD" stop-opacity="0.54"/>
<stop offset="0.87" stop-color="#A872D1" stop-opacity="0.83"/>
<stop offset="1" stop-color="#975AE7"/>
</linearGradient>
<linearGradient id="paint13_linear_78_497" x1="907.215" y1="309.455" x2="907.215" y2="155.461" gradientUnits="userSpaceOnUse">
<stop stop-color="#FFEB69" stop-opacity="0"/>
<stop offset="0.09" stop-color="#FBE56D" stop-opacity="0.04"/>
<stop offset="0.24" stop-color="#F0D67A" stop-opacity="0.14"/>
<stop offset="0.42" stop-color="#DFBE8F" stop-opacity="0.31"/>
<stop offset="0.64" stop-color="#C69CAD" stop-opacity="0.54"/>
<stop offset="0.87" stop-color="#A872D1" stop-opacity="0.83"/>
<stop offset="1" stop-color="#975AE7"/>
</linearGradient>
<linearGradient id="paint14_linear_78_497" x1="874.743" y1="309.455" x2="874.743" y2="155.461" gradientUnits="userSpaceOnUse">
<stop stop-color="#FFEB69" stop-opacity="0"/>
<stop offset="0.09" stop-color="#FBE56D" stop-opacity="0.04"/>
<stop offset="0.24" stop-color="#F0D67A" stop-opacity="0.14"/>
<stop offset="0.42" stop-color="#DFBE8F" stop-opacity="0.31"/>
<stop offset="0.64" stop-color="#C69CAD" stop-opacity="0.54"/>
<stop offset="0.87" stop-color="#A872D1" stop-opacity="0.83"/>
<stop offset="1" stop-color="#975AE7"/>
</linearGradient>
<linearGradient id="paint15_linear_78_497" x1="890.947" y1="307.319" x2="890.947" y2="159.604" gradientUnits="userSpaceOnUse">
<stop stop-color="#FFEB69" stop-opacity="0"/>
<stop offset="0.09" stop-color="#FBE56D" stop-opacity="0.04"/>
<stop offset="0.24" stop-color="#F0D67A" stop-opacity="0.14"/>
<stop offset="0.42" stop-color="#DFBE8F" stop-opacity="0.31"/>
<stop offset="0.64" stop-color="#C69CAD" stop-opacity="0.54"/>
<stop offset="0.87" stop-color="#A872D1" stop-opacity="0.83"/>
<stop offset="1" stop-color="#975AE7"/>
</linearGradient>
<linearGradient id="paint16_linear_78_497" x1="438.057" y1="339.563" x2="438.216" y2="324.677" gradientUnits="userSpaceOnUse">
<stop offset="0.1" stop-color="#FFEB69"/>
<stop offset="0.21" stop-color="#F8E270"/>
<stop offset="0.4" stop-color="#E7CA85"/>
<stop offset="0.63" stop-color="#CCA4A6"/>
<stop offset="0.9" stop-color="#A66FD4"/>
<stop offset="1" stop-color="#975AE7"/>
</linearGradient>
<linearGradient id="paint17_linear_78_497" x1="426.732" y1="339.322" x2="426.86" y2="324.563" gradientUnits="userSpaceOnUse">
<stop offset="0.1" stop-color="#FFEB69"/>
<stop offset="0.21" stop-color="#F8E270"/>
<stop offset="0.4" stop-color="#E7CA85"/>
<stop offset="0.63" stop-color="#CCA4A6"/>
<stop offset="0.9" stop-color="#A66FD4"/>
<stop offset="1" stop-color="#975AE7"/>
</linearGradient>
<linearGradient id="paint18_linear_78_497" x1="432.462" y1="329.664" x2="432.462" y2="340.917" gradientUnits="userSpaceOnUse">
<stop offset="0.1" stop-color="#FFEB69"/>
<stop offset="0.21" stop-color="#F8E270"/>
<stop offset="0.4" stop-color="#E7CA85"/>
<stop offset="0.63" stop-color="#CCA4A6"/>
<stop offset="0.9" stop-color="#A66FD4"/>
<stop offset="1" stop-color="#975AE7"/>
</linearGradient>
<radialGradient id="paint19_radial_78_497" cx="0" cy="0" r="1" gradientUnits="userSpaceOnUse" gradientTransform="translate(418.401 269.809) rotate(73.2506) scale(49.4985 35.6003)">
<stop stop-color="#FFEB69"/>
<stop offset="0.13" stop-color="#F8E270"/>
<stop offset="0.33" stop-color="#E7CA85"/>
<stop offset="0.59" stop-color="#CCA4A6"/>
<stop offset="0.89" stop-color="#A66FD4"/>
<stop offset="1" stop-color="#975AE7"/>
</radialGradient>
<linearGradient id="paint20_linear_78_497" x1="420.206" y1="326.062" x2="420.206" y2="259.887" gradientUnits="userSpaceOnUse">
<stop stop-color="#FFEB69" stop-opacity="0"/>
<stop offset="0.09" stop-color="#FBE56D" stop-opacity="0.04"/>
<stop offset="0.24" stop-color="#F0D67A" stop-opacity="0.14"/>
<stop offset="0.42" stop-color="#DFBE8F" stop-opacity="0.31"/>
<stop offset="0.64" stop-color="#C69CAD" stop-opacity="0.54"/>
<stop offset="0.87" stop-color="#A872D1" stop-opacity="0.83"/>
<stop offset="1" stop-color="#975AE7"/>
</linearGradient>
<linearGradient id="paint21_linear_78_497" x1="444.655" y1="326.03" x2="444.655" y2="259.696" gradientUnits="userSpaceOnUse">
<stop stop-color="#FFEB69" stop-opacity="0"/>
<stop offset="0.09" stop-color="#FBE56D" stop-opacity="0.04"/>
<stop offset="0.24" stop-color="#F0D67A" stop-opacity="0.14"/>
<stop offset="0.42" stop-color="#DFBE8F" stop-opacity="0.31"/>
<stop offset="0.64" stop-color="#C69CAD" stop-opacity="0.54"/>
<stop offset="0.87" stop-color="#A872D1" stop-opacity="0.83"/>
<stop offset="1" stop-color="#975AE7"/>
</linearGradient>
<linearGradient id="paint22_linear_78_497" x1="439.37" y1="325.711" x2="439.37" y2="259.664" gradientUnits="userSpaceOnUse">
<stop stop-color="#FFEB69" stop-opacity="0"/>
<stop offset="0.09" stop-color="#FBE56D" stop-opacity="0.04"/>
<stop offset="0.24" stop-color="#F0D67A" stop-opacity="0.14"/>
<stop offset="0.42" stop-color="#DFBE8F" stop-opacity="0.31"/>
<stop offset="0.64" stop-color="#C69CAD" stop-opacity="0.54"/>
<stop offset="0.87" stop-color="#A872D1" stop-opacity="0.83"/>
<stop offset="1" stop-color="#975AE7"/>
</linearGradient>
<linearGradient id="paint23_linear_78_497" x1="425.49" y1="325.711" x2="425.49" y2="259.664" gradientUnits="userSpaceOnUse">
<stop stop-color="#FFEB69" stop-opacity="0"/>
<stop offset="0.09" stop-color="#FBE56D" stop-opacity="0.04"/>
<stop offset="0.24" stop-color="#F0D67A" stop-opacity="0.14"/>
<stop offset="0.42" stop-color="#DFBE8F" stop-opacity="0.31"/>
<stop offset="0.64" stop-color="#C69CAD" stop-opacity="0.54"/>
<stop offset="0.87" stop-color="#A872D1" stop-opacity="0.83"/>
<stop offset="1" stop-color="#975AE7"/>
</linearGradient>
<linearGradient id="paint24_linear_78_497" x1="432.399" y1="324.787" x2="432.399" y2="261.449" gradientUnits="userSpaceOnUse">
<stop stop-color="#FFEB69" stop-opacity="0"/>
<stop offset="0.09" stop-color="#FBE56D" stop-opacity="0.04"/>
<stop offset="0.24" stop-color="#F0D67A" stop-opacity="0.14"/>
<stop offset="0.42" stop-color="#DFBE8F" stop-opacity="0.31"/>
<stop offset="0.64" stop-color="#C69CAD" stop-opacity="0.54"/>
<stop offset="0.87" stop-color="#A872D1" stop-opacity="0.83"/>
<stop offset="1" stop-color="#975AE7"/>
</linearGradient>
<linearGradient id="paint25_linear_78_497" x1="97.9101" y1="463.64" x2="106.624" y2="312.453" gradientUnits="userSpaceOnUse">
<stop offset="0.01" stop-color="#01F0FF" stop-opacity="0"/>
<stop offset="0.97" stop-color="white"/>
</linearGradient>
<linearGradient id="paint26_linear_78_497" x1="885.79" y1="424.465" x2="875.417" y2="244.046" gradientUnits="userSpaceOnUse">
<stop offset="0.01" stop-color="#01F0FF" stop-opacity="0"/>
<stop offset="0.97" stop-color="white"/>
</linearGradient>
<linearGradient id="paint27_linear_78_497" x1="-58.0487" y1="315.097" x2="329.954" y2="315.097" gradientUnits="userSpaceOnUse">
<stop offset="0.01" stop-color="#01F0FF" stop-opacity="0"/>
<stop offset="0.98" stop-color="white"/>
</linearGradient>
<linearGradient id="paint28_linear_78_497" x1="1051.94" y1="458.891" x2="663.901" y2="458.891" gradientUnits="userSpaceOnUse">
<stop offset="0.01" stop-color="#01F0FF" stop-opacity="0"/>
<stop offset="0.97" stop-color="white"/>
</linearGradient>
<linearGradient id="paint29_linear_78_497" x1="328.235" y1="511.614" x2="716.27" y2="511.614" gradientUnits="userSpaceOnUse">
<stop offset="0.01" stop-color="#01F0FF" stop-opacity="0"/>
<stop offset="0.97" stop-color="white"/>
</linearGradient>
<linearGradient id="paint30_linear_78_497" x1="998.072" y1="746.607" x2="826.343" y2="392.318" gradientUnits="userSpaceOnUse">
<stop offset="0.31" stop-color="#662D91" stop-opacity="0.9"/>
<stop offset="0.97" stop-color="#1B1464"/>
</linearGradient>
<linearGradient id="paint31_linear_78_497" x1="8.6771" y1="124.126" x2="17.1352" y2="-12.1756" gradientUnits="userSpaceOnUse">
<stop offset="0.12" stop-color="#01F0FF" stop-opacity="0"/>
<stop offset="0.97" stop-color="white"/>
</linearGradient>
<linearGradient id="paint32_linear_78_497" x1="300.125" y1="739.912" x2="297.061" y2="421.086" gradientUnits="userSpaceOnUse">
<stop offset="0.31" stop-color="#662D91" stop-opacity="0.9"/>
<stop offset="0.97" stop-color="#1B1464"/>
</linearGradient>
<linearGradient id="paint33_linear_78_497" x1="357.152" y1="304.328" x2="357.598" y2="253.486" gradientUnits="userSpaceOnUse">
<stop offset="0.1" stop-color="#FFEB69"/>
<stop offset="0.21" stop-color="#F8E270"/>
<stop offset="0.4" stop-color="#E7CA85"/>
<stop offset="0.63" stop-color="#CCA4A6"/>
<stop offset="0.9" stop-color="#A66FD4"/>
<stop offset="1" stop-color="#975AE7"/>
</linearGradient>
<linearGradient id="paint34_linear_78_497" x1="318.621" y1="303.525" x2="319.068" y2="253.161" gradientUnits="userSpaceOnUse">
<stop offset="0.1" stop-color="#FFEB69"/>
<stop offset="0.21" stop-color="#F8E270"/>
<stop offset="0.4" stop-color="#E7CA85"/>
<stop offset="0.63" stop-color="#CCA4A6"/>
<stop offset="0.9" stop-color="#A66FD4"/>
<stop offset="1" stop-color="#975AE7"/>
</linearGradient>
<linearGradient id="paint35_linear_78_497" x1="338.168" y1="270.502" x2="338.168" y2="308.913" gradientUnits="userSpaceOnUse">
<stop offset="0.1" stop-color="#FFEB69"/>
<stop offset="0.21" stop-color="#F8E270"/>
<stop offset="0.4" stop-color="#E7CA85"/>
<stop offset="0.63" stop-color="#CCA4A6"/>
<stop offset="0.9" stop-color="#A66FD4"/>
<stop offset="1" stop-color="#975AE7"/>
</linearGradient>
<radialGradient id="paint36_radial_78_497" cx="0" cy="0" r="1" gradientUnits="userSpaceOnUse" gradientTransform="translate(292.104 65.5567) rotate(73.2506) scale(168.862 121.449)">
<stop stop-color="#FFEB69"/>
<stop offset="0.13" stop-color="#F8E270"/>
<stop offset="0.33" stop-color="#E7CA85"/>
<stop offset="0.59" stop-color="#CCA4A6"/>
<stop offset="0.89" stop-color="#A66FD4"/>
<stop offset="1" stop-color="#975AE7"/>
</radialGradient>
<linearGradient id="paint37_linear_78_497" x1="296.368" y1="258.261" x2="296.368" y2="32.3859" gradientUnits="userSpaceOnUse">
<stop stop-color="#FFEB69" stop-opacity="0"/>
<stop offset="0.09" stop-color="#FBE56D" stop-opacity="0.04"/>
<stop offset="0.24" stop-color="#F0D67A" stop-opacity="0.14"/>
<stop offset="0.42" stop-color="#DFBE8F" stop-opacity="0.31"/>
<stop offset="0.64" stop-color="#C69CAD" stop-opacity="0.54"/>
<stop offset="0.87" stop-color="#A872D1" stop-opacity="0.83"/>
<stop offset="1" stop-color="#975AE7"/>
</linearGradient>
<linearGradient id="paint38_linear_78_497" x1="379.807" y1="258.134" x2="379.807" y2="31.7805" gradientUnits="userSpaceOnUse">
<stop stop-color="#FFEB69" stop-opacity="0"/>
<stop offset="0.09" stop-color="#FBE56D" stop-opacity="0.04"/>
<stop offset="0.24" stop-color="#F0D67A" stop-opacity="0.14"/>
<stop offset="0.42" stop-color="#DFBE8F" stop-opacity="0.31"/>
<stop offset="0.64" stop-color="#C69CAD" stop-opacity="0.54"/>
<stop offset="0.87" stop-color="#A872D1" stop-opacity="0.83"/>
<stop offset="1" stop-color="#975AE7"/>
</linearGradient>
<linearGradient id="paint39_linear_78_497" x1="361.821" y1="256.986" x2="361.821" y2="31.6529" gradientUnits="userSpaceOnUse">
<stop stop-color="#FFEB69" stop-opacity="0"/>
<stop offset="0.09" stop-color="#FBE56D" stop-opacity="0.04"/>
<stop offset="0.24" stop-color="#F0D67A" stop-opacity="0.14"/>
<stop offset="0.42" stop-color="#DFBE8F" stop-opacity="0.31"/>
<stop offset="0.64" stop-color="#C69CAD" stop-opacity="0.54"/>
<stop offset="0.87" stop-color="#A872D1" stop-opacity="0.83"/>
<stop offset="1" stop-color="#975AE7"/>
</linearGradient>
<linearGradient id="paint40_linear_78_497" x1="314.291" y1="256.987" x2="314.291" y2="31.653" gradientUnits="userSpaceOnUse">
<stop stop-color="#FFEB69" stop-opacity="0"/>
<stop offset="0.09" stop-color="#FBE56D" stop-opacity="0.04"/>
<stop offset="0.24" stop-color="#F0D67A" stop-opacity="0.14"/>
<stop offset="0.42" stop-color="#DFBE8F" stop-opacity="0.31"/>
<stop offset="0.64" stop-color="#C69CAD" stop-opacity="0.54"/>
<stop offset="0.87" stop-color="#A872D1" stop-opacity="0.83"/>
<stop offset="1" stop-color="#975AE7"/>
</linearGradient>
<linearGradient id="paint41_linear_78_497" x1="337.977" y1="253.831" x2="337.977" y2="37.7095" gradientUnits="userSpaceOnUse">
<stop stop-color="#FFEB69" stop-opacity="0"/>
<stop offset="0.09" stop-color="#FBE56D" stop-opacity="0.04"/>
<stop offset="0.24" stop-color="#F0D67A" stop-opacity="0.14"/>
<stop offset="0.42" stop-color="#DFBE8F" stop-opacity="0.31"/>
<stop offset="0.64" stop-color="#C69CAD" stop-opacity="0.54"/>
<stop offset="0.87" stop-color="#A872D1" stop-opacity="0.83"/>
<stop offset="1" stop-color="#975AE7"/>
</linearGradient>
</defs>
</svg>
