<svg width="1296" height="707" viewBox="0 0 1296 707" fill="none" xmlns="http://www.w3.org/2000/svg">
<mask id="mask0_96_2464" style="mask-type:luminance" maskUnits="userSpaceOnUse" x="0" y="0" width="1296" height="707">
<path d="M1246 0H50C22.3858 0 0 22.3858 0 50V657C0 684.614 22.3858 707 50 707H1246C1273.61 707 1296 684.614 1296 657V50C1296 22.3858 1273.61 0 1246 0Z" fill="white"/>
</mask>
<g mask="url(#mask0_96_2464)">
<path d="M1246.9 0H35.4211C7.8069 0 -14.5789 22.3858 -14.5789 50V657C-14.5789 684.614 7.80689 707 35.4211 707H1246.9C1274.51 707 1296.9 684.614 1296.9 657V50C1296.9 22.3858 1274.51 0 1246.9 0Z" fill="url(#paint0_linear_96_2464)"/>
<path d="M945.329 122.566C945.329 122.547 945.344 122.532 945.362 122.532H950.45C967.272 122.532 984.131 122.666 1000.95 122.666H1403.55C1414.76 122.666 1426.31 123.334 1437.53 122.666C1458.65 121.366 1479.61 120.604 1500.83 121.824C1501.81 121.881 1502.65 121.138 1502.7 120.157V120.157C1502.75 119.219 1503.52 118.49 1504.46 118.49H1631.93C1654.61 118.49 1678.47 102.995 1675.04 80.5722C1674.93 79.8819 1674.81 79.1923 1674.67 78.5036C1672.02 65.2081 1662.82 52.2467 1648.62 47.6367C1634.41 43.0267 1615.8 49.6744 1612.24 62.8029C1611.65 64.9743 1611.57 67.5465 1613.33 69.15C1616.09 71.6888 1620.99 69.9183 1623.76 67.4129C1630.67 61.0992 1632.28 50.9772 1628.92 42.6592C1625.55 34.3412 1617.74 27.8604 1608.77 24.0856C1588.58 15.6673 1559.69 22.3819 1551.16 42.0913C1550.04 44.6636 1549.33 47.4362 1549.97 50.1421C1550.57 52.8146 1552.77 55.3534 1555.76 55.9213C1559.01 56.556 1562.38 54.7187 1564.17 52.1799C1565.93 49.6744 1566.41 46.6011 1566.64 43.628C1568.21 20.745 1554.94 -2.07113 1534.38 -15.7341C1513.78 -29.3971 1486.64 -34.2409 1461.3 -30.6999C1426.35 -25.8226 1394.8 -6.34707 1374.95 19.5424C1370.95 24.7537 1367.62 30.2991 1365.12 36.2119C1359.17 50.1421 1358.05 65.9764 1363.88 79.9401C1365.12 82.9132 1367.96 86.2872 1371.29 85.3184C1374.13 84.4832 1374.72 81.1761 1374.69 78.5036C1374.54 71.1543 1373.15 63.8719 1370.58 56.8901C1368.41 51.0107 1364.82 46.5343 1360.93 41.5234C1340.63 15.3333 1303.63 4.27597 1270.06 15.7007C1237.91 26.6578 1217.84 55.6206 1213.05 85.1848C1212.68 87.3895 1212.45 89.7614 1213.54 91.7657C1214.66 93.7701 1217.61 95.0729 1219.74 93.8703C1221.72 92.7345 1221.84 90.2624 1221.61 88.1913C1219.63 68.7491 1206.59 50.6766 1186.96 41.8575C1157.91 28.7624 1125.24 38.7507 1101.73 56.3222C1091.38 64.0723 1082.7 73.6598 1076.69 84.4832C1075.27 87.0221 1073.96 89.8282 1074.33 92.6343C1074.7 95.4403 1077.4 98.2464 1080.57 97.9458C1083.56 97.6785 1085.55 95.0061 1086.44 92.4338C1094.48 69.8515 1063.53 57.9257 1043.3 57.6584C1018.56 57.3243 987.158 73.0251 984.392 97.0438C983.869 101.654 985.102 107.132 989.738 109.237C993.962 111.174 999.569 109.137 1001.92 105.462C1004.28 101.787 1003.76 97.0104 1001.51 93.269C998.56 88.3917 993.438 84.8173 987.495 83.4811C982.299 82.3119 976.729 82.5791 971.533 83.7149C961.889 85.8195 953.067 90.8972 946.899 97.879C941.697 103.768 938.25 110.987 937.276 118.435C936.977 120.719 938.866 122.599 941.17 122.599H945.296C945.314 122.599 945.329 122.584 945.329 122.566V122.566Z" fill="url(#paint1_linear_96_2464)"/>
<path d="M287.049 176.583C287.049 176.564 287.064 176.55 287.082 176.55H292.17C308.992 176.55 325.85 176.683 342.672 176.683H745.266C756.48 176.683 768.031 177.351 779.245 176.683C800.375 175.383 821.328 174.621 842.551 175.842C843.532 175.898 844.374 175.155 844.421 174.174V174.174C844.467 173.236 845.242 172.507 846.181 172.507H973.646C996.33 172.507 1020.19 157.012 1016.76 134.589C1016.65 133.899 1016.53 133.209 1016.39 132.521C1013.74 119.225 1004.54 106.264 990.336 101.654C976.131 97.0438 957.515 103.692 953.964 116.82C953.366 118.991 953.291 121.564 955.048 123.167C957.814 125.706 962.711 123.935 965.477 121.43C972.393 115.116 974 104.994 970.636 96.6763C967.234 88.3583 959.459 81.8775 950.487 78.1027C930.302 69.6844 901.406 76.399 892.883 96.1084C891.762 98.6806 891.052 101.453 891.687 104.159C892.285 106.832 894.491 109.37 897.481 109.938C900.733 110.573 904.098 108.736 905.892 106.197C907.649 103.692 908.135 100.618 908.359 97.6451C909.929 74.7621 896.659 51.946 876.099 38.283C855.502 24.62 828.364 19.7762 803.019 23.3172C768.068 28.1945 736.518 47.67 716.669 73.5595C712.669 78.7708 709.342 84.3162 706.838 90.229C700.894 104.159 699.773 119.994 705.604 133.957C706.838 136.93 709.679 140.304 713.006 139.335C715.847 138.5 716.445 135.193 716.407 132.521C716.258 125.171 714.875 117.889 712.296 110.907C710.127 105.028 706.539 100.551 702.651 95.5405C682.353 69.3504 645.346 58.2931 611.778 69.7178C579.63 80.6749 559.557 109.638 554.772 139.202C554.398 141.407 554.174 143.778 555.258 145.783C556.342 147.787 559.332 149.09 561.463 147.887C563.444 146.752 563.556 144.28 563.332 142.208C561.351 122.766 548.305 104.694 528.68 95.8746C499.635 82.7795 466.964 92.7678 443.451 110.339C433.097 118.089 424.424 127.677 418.406 138.5C416.985 141.039 415.677 143.845 416.051 146.651C416.425 149.491 419.116 152.264 422.294 151.963C425.284 151.696 427.265 149.023 428.162 146.451C436.199 123.869 405.248 111.943 385.025 111.675C360.278 111.341 328.878 127.042 326.112 151.061C325.589 155.671 326.822 161.149 331.458 163.254C335.682 165.192 341.289 163.154 343.644 159.479C345.999 155.805 345.476 151.028 343.233 147.286C340.28 142.409 335.158 138.834 329.215 137.498C324.019 136.329 318.449 136.596 313.253 137.732C303.609 139.837 294.787 144.914 288.619 151.896C283.417 157.785 279.97 165.004 278.995 172.452C278.697 174.736 280.586 176.616 282.89 176.616H287.016C287.034 176.616 287.049 176.601 287.049 176.583V176.583Z" fill="url(#paint2_linear_96_2464)"/>
<path d="M819.577 190.85C819.567 190.869 819.587 190.891 819.607 190.881C825.002 188.23 834.518 190.947 840.475 190.947H1100.72C1130.4 190.947 1159.86 189.945 1189.43 189.945H1302.95C1314.95 189.945 1319.4 177.518 1319.55 168.699C1319.77 155.604 1310.88 145.081 1297.38 140.104C1276.38 132.32 1242.28 143.11 1240.83 166.093C1240.71 167.697 1241.16 169.735 1242.92 170.069C1244.68 170.436 1246.06 168.699 1246.73 167.196C1251.22 156.873 1247.4 144.313 1238.21 136.863C1229.01 129.414 1215.26 127.109 1203.41 130.349C1192.34 133.389 1182.32 142.375 1183.18 152.698C1183.37 155.07 1184.23 157.542 1186.25 159.078C1188.27 160.615 1191.67 160.849 1193.46 159.078C1194.36 158.21 1194.73 157.04 1195.03 155.905C1199.63 138.6 1192.04 119.459 1177.09 107.734C1162.14 96.0081 1140.68 91.6653 1121.24 95.4402C1101.81 99.215 1084.65 110.64 1073.88 125.572C1065.32 137.465 1060.65 152.397 1065.13 165.96C1065.47 167.029 1065.99 168.165 1067.15 168.632C1069.51 169.534 1071.49 166.494 1071.23 164.223C1070.97 161.951 1070.44 160.214 1071.04 157.976C1071.56 156.072 1072.09 155.437 1071.49 153.299C1070.41 149.257 1067.94 145.449 1065.02 142.242C1059.27 135.895 1051.04 131.285 1042.37 128.779C1027.9 124.637 1011.38 126.341 999.008 134.458C995.232 136.93 993.214 139.803 990.261 142.876C983.831 149.524 979.532 157.207 979.159 166.127C979.046 168.9 979.794 172.307 982.71 173.209C984.429 173.743 986.373 173.175 987.719 172.04C989.027 170.937 989.775 169.367 990.186 167.797C992.167 160.181 986.747 152.263 979.383 147.987C959.72 136.563 932.245 138.634 914.639 152.297C909.405 156.372 905.256 161.985 904.695 168.165C904.434 170.737 905.555 174.077 908.434 174.278C910.452 174.445 912.246 172.741 912.545 170.937C912.845 169.133 912.06 167.329 911.05 165.726C905.966 157.642 894.64 153.165 884.547 155.203C874.454 157.241 866.38 165.659 865.67 174.879C865.595 175.815 865.595 176.783 866.081 177.618C866.529 178.454 867.614 179.088 868.623 178.854C870.529 178.454 870.342 175.881 869.37 174.378C865.52 168.465 856.848 166.127 849.334 167.363C841.821 168.599 835.316 172.741 829.634 177.318C827.093 179.389 824.588 181.627 822.756 184.266C821.374 186.27 821.224 189.141 819.581 190.845C819.58 190.846 819.578 190.848 819.577 190.85V190.85Z" fill="url(#paint3_linear_96_2464)"/>
<path d="M844.962 237.117C844.973 237.136 844.952 237.158 844.932 237.148C839.537 234.497 830.021 237.214 824.064 237.214H563.818C534.137 237.214 504.681 236.212 475.112 236.212H361.586C349.587 236.212 345.139 223.785 344.989 214.966C344.765 201.871 353.661 191.348 367.156 186.371C388.164 178.587 422.256 189.377 423.713 212.361C423.826 213.964 423.377 216.002 421.62 216.336C419.863 216.703 418.48 214.966 417.807 213.463C413.321 203.141 417.134 190.58 426.33 183.13C435.526 175.681 449.282 173.376 461.132 176.616C472.197 179.656 482.215 188.642 481.355 198.965C481.168 201.337 480.308 203.809 478.29 205.345C476.271 206.882 472.869 207.116 471.075 205.345C470.178 204.477 469.804 203.308 469.505 202.172C464.907 184.868 472.496 165.726 487.448 154.001C502.4 142.275 523.857 137.932 543.295 141.707C562.733 145.482 579.891 156.907 590.657 171.839C599.217 183.732 603.89 198.664 599.404 212.227C599.068 213.296 598.544 214.432 597.386 214.899C595.031 215.801 593.049 212.761 593.311 210.49C593.573 208.218 594.096 206.481 593.498 204.243C592.975 202.339 592.451 201.704 593.049 199.566C594.133 195.524 596.601 191.716 599.516 188.509C605.273 182.162 613.497 177.552 622.169 175.046C636.636 170.904 653.158 172.608 665.531 180.725C669.307 183.197 671.325 186.07 674.278 189.143C680.708 195.791 685.007 203.475 685.381 212.394C685.493 215.167 684.745 218.574 681.829 219.476C680.11 220.01 678.166 219.443 676.82 218.307C675.512 217.204 674.764 215.634 674.353 214.064C672.372 206.448 677.792 198.531 685.156 194.255C704.819 182.83 732.294 184.901 749.9 198.564C755.134 202.639 759.283 208.252 759.844 214.432C760.105 217.004 758.984 220.345 756.105 220.545C754.087 220.712 752.293 219.008 751.994 217.204C751.657 215.4 752.48 213.597 753.489 211.993C758.573 203.909 769.899 199.432 779.992 201.47C790.085 203.508 798.159 211.926 798.869 221.146C798.944 222.082 798.944 223.05 798.458 223.886C798.01 224.721 796.925 225.355 795.916 225.122C794.01 224.721 794.197 222.148 795.169 220.645C799.019 214.732 807.691 212.394 815.205 213.63C822.718 214.866 829.223 219.008 834.905 223.585C837.447 225.656 839.951 227.894 841.783 230.533C843.165 232.537 843.315 235.408 844.958 237.112C844.96 237.113 844.961 237.115 844.962 237.117V237.117Z" fill="url(#paint4_linear_96_2464)"/>
<path d="M334.074 237.128C334.074 237.152 334.049 237.168 334.027 237.157C328.635 234.491 319.104 237.214 313.141 237.214H52.8943C23.2138 237.214 -6.24241 236.212 -35.8108 236.212H-149.3C-161.299 236.212 -165.747 223.785 -165.897 214.966C-166.121 201.871 -157.224 191.348 -143.73 186.371C-122.722 178.587 -88.6302 189.377 -87.1723 212.361C-87.0602 213.964 -87.5087 216.002 -89.2657 216.336C-91.0226 216.703 -92.4057 214.966 -93.0785 213.463C-97.5642 203.141 -93.7514 190.58 -84.5556 183.13C-75.3599 175.681 -61.6037 173.376 -49.7539 176.616C-38.6891 179.656 -28.671 188.642 -29.5308 198.965C-29.7177 201.337 -30.5775 203.809 -32.596 205.345C-34.6146 206.882 -38.0163 207.116 -39.8106 205.345C-40.7077 204.477 -41.0815 203.308 -41.3806 202.172C-45.9784 184.868 -38.3901 165.726 -23.4377 154.001C-8.48528 142.275 12.9714 137.932 32.4096 141.707C51.8477 145.482 69.0056 156.907 79.7713 171.839C88.3316 183.732 93.0042 198.664 88.5185 212.227C88.182 213.296 87.6587 214.432 86.4999 214.899C84.1449 215.801 82.1637 212.761 82.4254 210.49C82.687 208.218 83.2104 206.481 82.6123 204.243C82.0889 202.339 81.5656 201.704 82.1637 199.566C83.2477 195.524 85.7149 191.716 88.6306 188.509C94.3873 182.162 102.611 177.552 111.284 175.046C125.75 170.904 142.272 172.608 154.645 180.725C158.421 183.197 160.44 186.07 163.393 189.143C169.822 195.791 174.121 203.475 174.495 212.394C174.607 215.167 173.859 218.574 170.944 219.476C169.224 220.01 167.28 219.443 165.935 218.307C164.626 217.204 163.879 215.634 163.467 214.064C161.486 206.448 166.906 198.531 174.271 194.255C193.933 182.83 221.408 184.901 239.014 198.564C244.248 202.639 248.397 208.252 248.958 214.432C249.219 217.004 248.098 220.345 245.22 220.545C243.201 220.712 241.407 219.008 241.108 217.204C240.809 215.4 241.594 213.597 242.603 211.993C247.687 203.909 259.013 199.432 269.106 201.47C279.199 203.508 287.273 211.926 287.984 221.146C288.058 222.082 288.058 223.05 287.572 223.886C287.124 224.721 286.04 225.355 285.03 225.122C283.124 224.721 283.311 222.148 284.283 220.645C288.133 214.732 296.806 212.394 304.319 213.63C311.833 214.866 318.337 219.008 324.019 223.585C326.561 225.656 329.065 227.894 330.897 230.533C332.277 232.534 332.429 235.4 334.065 237.105C334.071 237.111 334.074 237.119 334.074 237.128V237.128Z" fill="url(#paint5_linear_96_2464)"/>
<path d="M-7.4762 663.265C-7.4762 663.267 -7.47343 663.268 -7.47213 663.266L227.801 347.195C248.63 319.212 290.99 320.621 309.913 349.927L388.498 471.627C407.8 501.518 451.265 502.253 471.566 473.03L566.78 335.972C585.482 309.05 624.53 307.19 646.209 331.778C654.889 341.621 661.67 349.079 662.504 349.324C664.1 349.799 730.839 254.623 777.788 187.325C798.856 157.125 844.228 159.229 862.406 191.252L1052.54 526.174L1116.75 630.814C1137.2 664.13 1113.22 706.966 1074.14 706.966H2.96378C1.2518 706.966 -0.21095 705.732 -0.499461 704.045L-7.47172 663.264C-7.47218 663.262 -7.4762 663.262 -7.4762 663.265V663.265Z" fill="url(#paint6_linear_96_2464)"/>
<path d="M1062.47 322.075L1058.17 349.069C1058.09 349.588 1058.45 350.062 1058.97 350.128C1059.49 350.194 1059.98 349.827 1060.06 349.309L1064.36 322.314C1064.44 321.796 1064.08 321.321 1063.56 321.255C1063.04 321.189 1062.55 321.556 1062.47 322.075Z" fill="url(#paint7_linear_96_2464)"/>
<path d="M1032.05 349.186C1031.73 349.065 1031.5 348.78 1031.44 348.439L1027.39 322.713C1027.3 322.176 1027.68 321.677 1028.22 321.61V321.61C1028.73 321.548 1029.2 321.903 1029.28 322.414L1033.33 348.142C1033.44 348.865 1032.74 349.442 1032.05 349.186V349.186Z" fill="url(#paint8_linear_96_2464)"/>
<path d="M1054 362.453H1037.73C1035.49 362.453 1033.55 360.983 1033.21 358.979V358.979C1032.17 352.79 1036.95 347.153 1043.22 347.153H1048.47C1054.75 347.153 1059.52 352.79 1058.48 358.979V358.979C1058.14 360.983 1056.24 362.453 1053.96 362.453H1054Z" fill="url(#paint9_linear_96_2464)"/>
<path d="M1045.73 172.14C1009.59 172.574 980.467 198.865 980.467 231.268C980.467 242.192 983.793 252.414 989.55 261.167C997.385 274.974 1008.96 293.476 1017.21 306.443C1023.42 316.201 1034.2 322.032 1045.77 322.032V322.032C1057.34 322.032 1068.12 316.201 1074.33 306.443C1082.58 293.476 1094.16 274.974 1101.99 261.167C1107.75 252.381 1111.08 242.192 1111.08 231.268C1111.08 198.865 1081.92 172.574 1045.81 172.14H1045.73Z" fill="url(#paint10_radial_96_2464)"/>
<mask id="mask1_96_2464" style="mask-type:luminance" maskUnits="userSpaceOnUse" x="980" y="172" width="132" height="151">
<path d="M1045.73 172.14C1009.59 172.574 980.467 198.865 980.467 231.268C980.467 242.192 983.793 252.414 989.55 261.167C997.385 274.974 1008.96 293.476 1017.21 306.443C1023.42 316.201 1034.2 322.032 1045.77 322.032V322.032C1057.34 322.032 1068.12 316.201 1074.33 306.443C1082.58 293.476 1094.16 274.974 1101.99 261.167C1107.75 252.381 1111.08 242.192 1111.08 231.268C1111.08 198.865 1081.92 172.574 1045.81 172.14H1045.73Z" fill="white"/>
</mask>
<g mask="url(#mask1_96_2464)">
<path d="M1032.24 168.19C1032.24 168.179 1032.23 168.174 1032.22 168.18C1026.1 173.119 1020.35 178.092 1015.83 183.798C1011.19 189.411 1007.72 195.591 1005.36 202.005C1000.76 214.832 1000.28 228.729 1002.78 242.125C1004.02 248.673 1006.22 255.387 1008.84 262.035C1011.38 268.683 1014.33 275.33 1017.29 281.978V281.978C1020.92 289.675 1013.39 294.494 1008.85 287.293C1008.57 286.847 1008.29 286.401 1008.02 285.953C1003.9 279.573 1000.32 272.858 997.138 265.943C993.923 259.028 991.307 251.813 989.774 244.062L989.251 241.156L988.989 238.283L988.503 232.538C988.354 230.633 988.578 228.662 988.578 226.758C988.69 224.821 988.578 222.883 988.952 220.979C989.849 213.262 992.166 205.612 995.867 198.564C999.493 191.482 1004.8 185.135 1011.04 179.99C1017.36 174.881 1024.61 170.907 1032.23 168.201C1032.24 168.199 1032.24 168.195 1032.24 168.19V168.19Z" fill="url(#paint11_linear_96_2464)"/>
<path d="M1056.12 167.764C1056.12 167.764 1056.13 167.764 1056.13 167.764C1063.83 170.437 1071.19 174.211 1077.73 179.188C1084.2 184.166 1089.81 190.313 1093.81 197.294C1094.93 198.998 1095.79 200.802 1096.61 202.606C1097.43 204.443 1098.37 206.247 1098.85 208.151L1100.61 213.83L1101.66 219.643C1101.81 220.612 1102.03 221.58 1102.1 222.549L1102.25 225.455L1102.52 231.301C1102.18 235.177 1102.07 239.018 1101.39 242.893C1100.05 250.744 1097.43 257.993 1094.37 265.008C1091.3 272.023 1087.79 278.771 1083.79 285.285C1083.52 285.729 1083.26 286.172 1082.99 286.614C1078.57 293.895 1070.94 289.21 1074.44 281.444V281.444C1077.32 274.696 1080.2 268.014 1082.59 261.266C1085.06 254.552 1087.3 247.771 1088.35 241.156C1088.98 237.849 1089.1 234.341 1089.51 230.967V225.89C1089.54 224.186 1089.51 222.482 1089.25 220.812C1088.91 213.997 1086.96 207.483 1084.46 201.069C1081.77 194.756 1077.99 188.642 1073.06 183.164C1068.28 177.527 1062.35 172.689 1056.12 167.786C1056.11 167.778 1056.11 167.764 1056.12 167.764V167.764Z" fill="url(#paint12_linear_96_2464)"/>
<path d="M1060.27 185.102C1058.45 181.23 1062.12 177.795 1064.87 181.074C1065.21 181.479 1065.55 181.886 1065.88 182.295C1070.44 188.141 1074.14 194.622 1076.8 201.437C1079.56 208.218 1081.28 215.367 1082.07 222.583C1082.37 226.224 1082.67 229.765 1082.44 233.54C1082.44 235.444 1082.25 237.281 1081.96 239.052C1081.69 240.856 1081.54 242.693 1081.17 244.43C1078.48 258.527 1073.73 271.856 1067.94 284.784C1067.78 285.132 1067.63 285.48 1067.47 285.827C1063.85 293.921 1055.68 290.463 1058.14 281.945V281.945C1061.84 268.716 1065.66 255.554 1068.16 242.559C1070.67 229.899 1069.92 216.837 1066.97 203.976C1065.36 197.595 1063.27 191.215 1060.27 185.102V185.102Z" fill="url(#paint13_linear_96_2464)"/>
<path d="M1026.64 181.008C1029.44 177.689 1033.08 181.14 1031.23 185.068V185.068C1028.24 191.181 1026.15 197.528 1024.58 203.909C1021.66 216.77 1020.91 229.865 1023.42 242.526C1025.88 255.521 1029.7 268.683 1033.44 281.911V281.911C1035.89 290.437 1027.72 293.894 1024.09 285.797C1023.94 285.46 1023.79 285.122 1023.64 284.784C1017.85 271.89 1013.14 258.527 1010.41 244.43C1010.03 242.693 1009.89 240.822 1009.62 239.052C1009.32 237.281 1009.17 235.444 1009.14 233.54C1008.91 229.765 1009.21 226.191 1009.51 222.583C1010.26 215.367 1011.98 208.218 1014.71 201.404C1017.36 194.589 1021.02 188.108 1025.62 182.229C1025.96 181.82 1026.3 181.413 1026.64 181.008Z" fill="url(#paint14_linear_96_2464)"/>
<path d="M1045.7 167.263C1045.72 167.263 1045.74 167.278 1045.74 167.299C1048.46 180.182 1049.88 193.064 1050.85 205.947C1051.9 218.841 1052.31 231.736 1052.31 244.63C1052.31 257.525 1051.9 270.42 1050.85 283.314V283.314C1050.18 292.27 1041.21 292.27 1040.54 283.314V283.314C1039.49 270.42 1039.12 257.525 1039.08 244.63C1039.08 231.736 1039.49 218.841 1040.54 205.947C1041.51 193.064 1042.93 180.182 1045.65 167.299C1045.66 167.278 1045.67 167.263 1045.7 167.263V167.263Z" fill="url(#paint15_linear_96_2464)"/>
</g>
<g opacity="0.51">
<path d="M514.557 340.389L512.713 351.981C512.678 352.205 512.831 352.41 513.056 352.438C513.281 352.467 513.492 352.309 513.527 352.085L515.371 340.493C515.407 340.269 515.253 340.064 515.029 340.036C514.804 340.007 514.593 340.166 514.557 340.389Z" fill="url(#paint16_linear_96_2464)"/>
<path d="M501.433 351.981C501.292 351.929 501.19 351.804 501.167 351.655L499.44 340.661C499.403 340.429 499.566 340.214 499.799 340.186V340.186C500.02 340.159 500.223 340.312 500.258 340.532L501.991 351.525C502.041 351.841 501.732 352.092 501.433 351.981V351.981Z" fill="url(#paint17_linear_96_2464)"/>
<path d="M510.849 357.676H503.859C502.887 357.676 502.064 357.041 501.915 356.172V356.172C501.465 353.517 503.512 351.095 506.205 351.095H508.428C511.121 351.095 513.167 353.517 512.718 356.172V356.172C512.568 357.041 511.746 357.676 510.774 357.676H510.849Z" fill="url(#paint18_linear_96_2464)"/>
<path d="M507.298 276.065C491.784 276.266 479.299 287.524 479.299 301.42C479.299 306.097 480.72 310.473 483.187 314.248C486.537 320.178 491.505 328.126 495.044 333.692C497.703 337.874 502.324 340.372 507.279 340.372V340.372C512.234 340.372 516.854 337.874 519.513 333.692C523.053 328.126 528.02 320.178 531.371 314.248C533.838 310.473 535.259 306.097 535.259 301.42C535.259 287.524 522.773 276.266 507.26 276.065H507.298Z" fill="url(#paint19_radial_96_2464)"/>
<mask id="mask2_96_2464" style="mask-type:luminance" maskUnits="userSpaceOnUse" x="479" y="276" width="57" height="65">
<path d="M507.298 276.065C491.784 276.266 479.299 287.524 479.299 301.42C479.299 306.097 480.72 310.473 483.187 314.248C486.537 320.178 491.505 328.126 495.044 333.692C497.703 337.874 502.324 340.372 507.279 340.372V340.372C512.234 340.372 516.854 337.874 519.513 333.692C523.053 328.126 528.02 320.178 531.371 314.248C533.838 310.473 535.259 306.097 535.259 301.42C535.259 287.524 522.773 276.266 507.26 276.065H507.298Z" fill="white"/>
</mask>
<g mask="url(#mask2_96_2464)">
<path d="M486.954 285.614C488.781 282.687 491.169 285.604 490.028 288.86V288.86C488.047 294.372 487.822 300.318 488.906 306.064C489.392 308.87 490.364 311.743 491.486 314.582C492.532 317.455 493.841 320.261 495.112 323.134V323.134C496.666 326.431 493.439 328.494 491.49 325.414C491.376 325.234 491.262 325.053 491.149 324.871C487.748 319.326 484.72 313.547 483.337 306.899C482.178 300.385 482.739 293.47 485.953 287.39C486.26 286.783 486.594 286.19 486.954 285.614Z" fill="url(#paint20_linear_96_2464)"/>
<path d="M511.782 274.194C511.775 274.194 511.773 274.204 511.78 274.206C518.346 276.447 524.462 280.819 527.895 286.855C531.446 292.835 532.231 299.917 531.147 306.431C529.839 313.112 526.923 318.991 523.596 324.604C523.481 324.795 523.365 324.987 523.249 325.178C521.356 328.291 518.098 326.288 519.596 322.967V322.967C520.83 320.06 522.101 317.221 523.11 314.315C524.194 311.442 525.166 308.535 525.577 305.696V305.696C526.1 302.829 526.364 299.834 525.988 296.944V296.944C525.914 294.004 524.979 291.231 523.932 288.492C521.69 282.981 517.205 278.271 511.785 274.196C511.784 274.195 511.783 274.194 511.782 274.194V274.194Z" fill="url(#paint21_linear_96_2464)"/>
<path d="M508.756 274.055C508.756 274.043 508.769 274.035 508.78 274.041C514.448 277.35 518.328 282.855 520.643 288.626C522.96 294.438 523.671 300.886 522.512 307.066C521.316 313.112 519.334 318.824 516.83 324.37C516.762 324.522 516.694 324.674 516.626 324.825C515.067 328.294 511.58 326.818 512.643 323.167V323.167C514.251 317.488 515.933 311.876 516.942 306.264C518.063 300.819 517.69 295.207 516.419 289.728C515.036 284.285 512.757 278.841 508.759 274.065C508.757 274.062 508.756 274.059 508.756 274.055V274.055Z" fill="url(#paint22_linear_96_2464)"/>
<path d="M505.931 274.042C505.922 274.034 505.909 274.035 505.901 274.044C501.91 278.817 499.596 284.222 498.252 289.695C496.981 295.207 496.645 300.819 497.766 306.264C498.775 311.843 500.457 317.488 502.065 323.167V323.167C503.123 326.82 499.641 328.294 498.082 324.826C498.014 324.674 497.946 324.522 497.878 324.37C495.411 318.824 493.43 313.112 492.196 307.066C491.075 300.852 491.748 294.438 494.065 288.626C496.342 282.855 500.259 277.351 505.928 274.075C505.94 274.068 505.942 274.051 505.931 274.042V274.042Z" fill="url(#paint23_linear_96_2464)"/>
<path d="M505.093 290.597C505.377 286.764 509.219 286.764 509.503 290.597V290.597C509.952 296.142 510.064 301.654 510.139 307.199C510.102 312.745 509.952 318.257 509.503 323.802V323.802C509.223 327.587 505.373 327.587 505.093 323.802V323.802C504.644 318.257 504.532 312.745 504.457 307.199C504.532 301.654 504.644 296.142 505.093 290.597V290.597Z" fill="url(#paint24_linear_96_2464)"/>
</g>
</g>
<path d="M339.102 466.913C339.11 466.928 339.099 466.946 339.082 466.946H336.055C332.168 466.812 327.906 467.313 323.944 467.313H-66.2797C-79.604 467.313 -92.5614 462.17 -101.639 452.416C-111.105 442.243 -119.598 431.501 -124.591 419.076C-126.909 413.263 -128.142 407.384 -129.002 401.304C-129.75 396.092 -127.806 390.647 -126.086 385.67C-122.385 374.98 -116.442 364.858 -108.143 356.44C-96.4056 344.547 -79.7711 336.296 -62.1272 335.093C-39.9603 333.59 -18.1298 343.244 -2.69144 357.542C12.7095 371.84 22.3538 390.38 29.1198 409.288C31.6617 416.37 33.8672 424.153 31.9234 431.569C31.1384 434.609 29.4936 437.516 26.9143 439.587C24.4846 441.524 20.9334 442.627 17.9803 441.391C14.5786 439.988 13.3824 436.079 13.7936 432.739C16.2981 413.664 32.372 396.226 51.9223 388.944C77.8722 379.267 113.37 386.855 128.576 408.878C128.61 408.927 128.629 408.984 128.672 409.026V409.026C128.689 409.042 128.71 409.064 128.723 409.083C135.29 418.664 139.061 429.509 142.16 440.388C142.833 442.827 143.506 445.399 142.683 447.805C141.861 450.21 138.983 452.214 136.329 451.446C133.861 450.711 132.777 448.105 132.553 445.767C131.843 438.818 135.469 432.037 140.179 426.492C164.551 397.996 219.987 400.168 233.295 437.282C234.865 441.624 237.332 448.606 234.529 452.782C233.37 454.553 230.753 455.722 228.697 454.786C226.006 453.55 226.267 450.076 227.202 447.504C229.706 440.622 234.379 434.142 241.294 430.367C248.21 426.592 257.48 425.89 264.359 429.732C271.237 433.574 274.601 442.226 270.713 448.606C270.153 449.542 269.143 450.544 267.947 450.343C266.19 450.076 266.19 447.805 266.826 446.335C269.891 439.186 277.18 433.607 285.554 432.037C293.927 430.467 303.123 432.939 309.141 438.351C311.646 440.622 313.664 443.395 314.486 446.502C315.309 449.608 314.898 453.016 312.954 455.688C312.132 456.824 310.524 457.926 309.178 457.292C307.795 456.657 307.907 454.82 308.468 453.517C310.561 448.74 316.094 445.466 321.813 445.099C330.261 444.531 340.205 449.976 340.466 458.16C340.466 459.029 340.354 459.964 339.719 460.666C339.121 461.367 337.924 461.701 337.102 461.234C336.317 460.766 336.13 459.73 336.504 458.962C336.878 458.16 337.625 457.592 338.41 457.091C341.887 454.853 346.298 453.784 350.559 454.118C354.821 454.452 358.933 456.156 361.96 458.895C362.59 459.467 363.184 460.125 363.685 460.833C365.998 464.099 362.146 466.879 358.144 466.879H339.122C339.104 466.879 339.094 466.898 339.102 466.913V466.913Z" fill="url(#paint25_linear_96_2464)"/>
<path d="M742.967 419.56C742.957 419.584 742.975 419.61 743.001 419.61C845.52 419.71 948.075 419.81 1050.59 419.81H1273.8C1283.1 419.81 1292.04 421.614 1301.16 421.547C1314.8 421.447 1328.93 418.908 1342.5 417.639C1346.58 417.238 1350.84 416.804 1354.31 414.833C1361.53 410.757 1362.73 401.905 1363.02 394.288C1363.88 371.906 1363.36 349.157 1356.3 327.644C1349.27 306.164 1335.03 285.82 1313.57 274.261C1292.22 262.77 1265.35 260.999 1241.27 266.778C1217.2 272.558 1195.78 285.419 1178.06 301.086C1159.3 317.689 1143.82 338.568 1140.57 361.985C1140.12 365.326 1139.93 368.867 1141.54 371.906C1143.19 374.946 1147.19 377.218 1150.74 376.116C1155.11 374.779 1156.27 369.702 1156.05 365.559C1154.21 330.55 1117.21 313.446 1081.55 315.083C1037.32 317.121 1000.91 348.289 999.942 388.71C999.83 393.186 1001.81 399.166 1006.86 398.932C1012.2 398.698 1013.18 391.883 1011.83 387.24C1004.02 360.348 973.701 340.138 942.6 341.106C911.536 342.075 882.865 364.156 877.183 391.482C876.174 396.393 877.557 403.308 883.164 403.442C886.528 403.508 889.22 400.569 889.594 397.562C889.967 394.556 888.547 391.649 886.977 388.977C882.117 380.726 874.865 373.243 865.259 369.668C855.652 366.094 843.465 367.163 836.176 373.811V373.811C827.987 381.355 830.6 381.861 820.69 376.783C816.506 374.639 811.818 373.326 806.982 373.143C791.954 372.575 777.376 382.964 774.61 396.159C774.049 398.765 774.011 401.671 775.806 403.742C777.6 405.847 781.787 406.281 783.282 404.009C784.964 401.437 782.048 398.431 779.282 396.76C771.432 392.084 761.19 389.244 752.555 392.651V392.651C746.274 395.13 731.884 401.296 725.229 402.439V402.439C721.306 403.099 717.743 405.001 715.027 407.617C709.658 412.788 715.688 419.51 723.142 419.51C729.742 419.51 736.343 419.51 742.932 419.51C742.958 419.51 742.976 419.536 742.967 419.56V419.56Z" fill="url(#paint26_linear_96_2464)"/>
<path d="M-68.5937 375.782L359.079 375.123C370.168 375.106 373.192 364.457 362.106 364.709V364.709C354.305 364.887 345.209 361.832 339.017 357.082C336.011 354.776 332.531 352.966 328.767 351.83C325.057 350.711 321.126 350.102 317.23 350.101C310.001 350.099 301.601 344.778 296.881 339.303V339.303C293.367 335.227 287.76 332.455 282.04 332.755C276.321 333.056 270.004 335.394 269.032 340.439C269.742 336.664 264.695 330.885 262.004 328.446C258.453 325.172 254.117 323.068 249.182 321.865C247.584 321.477 245.965 321.205 244.336 321.041C231.03 319.7 193.388 307.908 183.429 298.982V298.982C171.729 288.493 154.721 283.415 138.273 284.851C120.554 286.388 105.789 295.775 95.2847 308.235C89.229 315.418 84.519 323.502 81.1173 331.954C78.3885 338.768 76.4447 346.017 77.3792 353.2C77.6782 355.404 78.2389 357.609 79.7342 359.38C81.192 361.15 83.7339 362.353 86.1263 361.919C88.7804 361.417 90.5747 359.112 91.0606 356.741C92.7054 348.757 86.4628 339.804 79.7716 334.993C72.4075 329.682 62.7632 326.876 53.2684 327.511C45.6427 328.012 38.2412 330.784 32.335 335.094C26.6905 339.203 20.6348 345.683 18.5788 351.997C16.8219 357.375 18.3919 363.99 23.7 366.996C25.9429 368.266 29.3446 368.6 30.9146 366.729C32.4472 364.892 31.2884 362.253 30.0548 360.248C29.4193 359.213 28.7839 358.177 28.111 357.141C25.3822 352.866 22.4665 348.69 19.5134 344.547C4.03762 323.134 -20.2974 308.035 -48.3706 302.456V302.456C-54.701 301.199 -60.4482 306.421 -60.1305 312.868C-59.5175 325.306 -60.1331 337.999 -59.4727 350.293C-58.9507 359.824 -60.4373 369.62 -68.608 375.737C-68.6271 375.751 -68.6175 375.782 -68.5937 375.782V375.782Z" fill="url(#paint27_linear_96_2464)"/>
<path d="M1234.77 526.508L807.097 525.85C796.008 525.833 792.984 515.183 804.07 515.436V515.436C811.871 515.613 820.967 512.558 827.159 507.808C830.165 505.502 833.645 503.692 837.41 502.557C841.119 501.437 845.05 500.829 848.946 500.828C856.175 500.826 864.575 495.504 869.296 490.029V490.029C872.809 485.954 878.417 483.181 884.136 483.482C889.855 483.782 896.173 486.121 897.144 491.165C896.434 487.39 901.481 481.611 904.172 479.172C907.723 475.899 912.059 473.794 916.994 472.592C918.593 472.204 920.212 471.931 921.84 471.767C935.146 470.426 972.788 458.635 982.747 449.709V449.709C994.447 439.219 1011.46 434.141 1027.9 435.578C1045.62 437.115 1060.39 446.502 1070.89 458.962C1076.95 466.144 1081.66 474.228 1085.06 482.68C1087.79 489.495 1089.73 496.744 1088.8 503.926C1088.5 506.131 1087.94 508.336 1086.48 510.106C1085.02 511.877 1082.48 513.079 1080.09 512.645C1077.43 512.144 1075.64 509.839 1075.15 507.467C1073.51 499.483 1079.75 490.53 1086.44 485.72C1093.81 480.408 1103.45 477.602 1112.95 478.237C1120.57 478.738 1127.97 481.511 1133.88 485.82C1139.52 489.929 1145.58 496.41 1147.63 502.724C1149.39 508.102 1147.82 514.716 1142.51 517.723C1140.27 518.992 1136.87 519.326 1135.3 517.455C1133.77 515.618 1134.93 512.979 1136.16 510.975C1136.79 509.939 1137.43 508.904 1138.1 507.868C1140.83 503.592 1143.75 499.416 1146.7 495.274C1162.18 473.861 1186.51 458.762 1214.58 453.183V453.183C1220.91 451.926 1226.66 457.148 1226.34 463.594C1225.73 476.032 1226.35 488.725 1225.69 501.02C1225.16 510.539 1226.65 520.323 1234.79 526.441C1234.82 526.462 1234.81 526.508 1234.77 526.508V526.508Z" fill="url(#paint28_linear_96_2464)"/>
<path d="M384.985 581.763C384.986 581.762 384.988 581.762 384.99 581.762L812.66 581.103C823.749 581.086 826.773 570.436 815.687 570.689V570.689C807.886 570.867 798.79 567.812 792.599 563.062C789.593 560.756 786.112 558.946 782.348 557.81C778.639 556.691 774.708 556.082 770.811 556.081C763.582 556.079 755.182 550.758 750.462 545.283V545.283C746.948 541.207 741.341 538.435 735.621 538.735C729.902 539.036 723.585 541.374 722.613 546.419C723.323 542.644 718.277 536.864 715.585 534.426C712.034 531.152 707.698 529.048 702.763 527.845C701.165 527.457 699.546 527.185 697.917 527.021C684.611 525.68 646.969 513.888 637.01 504.962V504.962C625.31 494.473 608.302 489.395 591.854 490.831C574.135 492.368 559.37 501.755 548.866 514.215C542.81 521.398 538.1 529.482 534.698 537.967C531.97 544.782 530.026 552.031 530.96 559.213C531.259 561.384 531.82 563.623 533.278 565.393C534.736 567.164 537.278 568.366 539.67 567.932C542.324 567.431 544.118 565.126 544.604 562.754C546.249 554.77 540.006 545.817 533.315 541.007C525.951 535.695 516.307 532.889 506.812 533.524C499.186 534.025 491.785 536.798 485.879 541.107C480.234 545.216 474.179 551.697 472.123 558.01C470.366 563.389 471.936 570.003 477.244 573.01C479.487 574.279 482.888 574.613 484.458 572.742C485.991 570.905 484.832 568.266 483.599 566.262C482.963 565.226 482.328 564.19 481.655 563.155C478.926 558.879 476.01 554.703 473.057 550.561C457.581 529.148 433.246 514.048 405.173 508.47V508.47C398.843 507.212 393.096 512.435 393.413 518.881C394.026 531.319 393.411 544.012 394.071 556.307C394.592 565.825 393.11 575.608 384.967 581.726C384.949 581.74 384.963 581.769 384.985 581.763V581.763Z" fill="url(#paint29_linear_96_2464)"/>
<path d="M948.113 707C908.336 707 884.485 662.805 906.318 629.556L1049.39 411.671C1067.08 384.734 1105.25 381.318 1127.44 404.688L1171.16 450.727C1183.99 464.239 1206.11 462.052 1216.05 446.291V446.291C1227.71 427.778 1255.01 428.721 1265.38 447.994L1358.78 621.683C1362.69 628.962 1364.74 637.099 1364.74 645.364V657C1364.74 684.614 1342.36 707 1314.74 707H948.113Z" fill="url(#paint30_linear_96_2464)"/>
<path d="M-216.474 107.433L211.199 106.774C222.288 106.757 225.312 96.1074 214.226 96.3598V96.3598C206.425 96.5375 197.329 93.4826 191.138 88.7328C188.132 86.4267 184.651 84.6166 180.887 83.4809C177.188 82.3459 173.253 81.7351 169.348 81.7381C162.119 81.7436 153.721 76.4286 149.001 70.9537V70.9537C145.487 66.8782 139.88 64.1055 134.16 64.4061C128.441 64.7068 122.124 67.0452 121.152 72.0895C121.862 68.3146 116.816 62.5354 114.124 60.0968C110.573 56.823 106.237 54.7185 101.303 53.5159C99.7037 53.1281 98.0847 52.8556 96.4563 52.6915C83.1498 51.3505 45.5083 39.5591 35.5493 30.6329V30.6329C23.849 20.1435 6.84068 15.0658 -9.60697 16.5022C-27.3256 18.0389 -42.0911 27.4259 -52.5951 39.8863C-58.6509 47.0685 -63.3609 55.1527 -66.7625 63.6044C-69.4914 70.4192 -71.4352 77.6682 -70.5006 84.8505C-70.2016 87.0553 -69.6409 89.26 -68.1456 91.0306C-66.6878 92.8011 -64.1459 94.0037 -61.7535 93.5694C-59.0994 93.0683 -57.3051 90.7633 -56.8192 88.3915C-55.1744 80.4075 -61.4171 71.4548 -68.1083 66.6443C-75.4723 61.3328 -85.1166 58.5267 -94.6114 59.1614C-102.237 59.6625 -109.639 62.4352 -115.545 66.7445C-121.189 70.8535 -127.245 77.3342 -129.301 83.6479C-131.058 89.0262 -129.488 95.6406 -124.18 98.6471C-121.937 99.9165 -118.535 100.251 -116.965 98.3798C-115.433 96.5425 -116.591 93.9035 -117.825 91.8991C-118.46 90.8635 -119.096 89.828 -119.769 88.7924C-122.498 84.5164 -125.413 80.3407 -128.366 76.1984C-143.842 54.7853 -168.177 39.6859 -196.25 34.1071V34.1071C-202.581 32.8499 -208.328 38.0723 -208.01 44.5185C-207.397 56.9567 -208.013 69.6495 -207.353 81.9442C-206.83 91.4748 -208.317 101.271 -216.488 107.388C-216.507 107.402 -216.497 107.433 -216.474 107.433V107.433Z" fill="url(#paint31_linear_96_2464)"/>
<path d="M620.256 707.551C660.392 707.317 683.907 662.271 661.154 629.207L497.244 391.017C477.455 362.259 435.035 362.118 415.055 390.743L345.315 490.655C329.793 512.891 296.503 511.72 282.582 488.448V488.448C269.633 466.801 239.401 463.93 222.609 482.752L207.304 499.905C186.515 523.206 149.689 521.961 130.522 497.308L116.581 479.377C97.0886 454.306 59.4678 453.522 38.9479 477.758L-1.43854 525.458C-9.50677 534.988 -13.7176 547.191 -13.2428 559.668L-9.31744 662.829C-8.29128 689.797 13.9508 711.084 40.9378 710.927L620.256 707.551Z" fill="url(#paint32_linear_96_2464)"/>
<path d="M420.989 266.027L414.706 305.532C414.584 306.295 415.107 306.993 415.874 307.09C416.64 307.187 417.36 306.648 417.482 305.885L423.765 266.38C423.886 265.617 423.363 264.919 422.597 264.822C421.83 264.725 421.111 265.264 420.989 266.027Z" fill="url(#paint33_linear_96_2464)"/>
<path d="M376.432 305.715C375.967 305.538 375.632 305.126 375.554 304.635L369.588 267.003C369.465 266.224 370.013 265.498 370.796 265.403V265.403C371.54 265.313 372.221 265.828 372.338 266.567L378.296 304.2C378.462 305.254 377.429 306.094 376.432 305.715V305.715Z" fill="url(#paint34_linear_96_2464)"/>
<path d="M408.537 325.172H384.725C381.398 325.172 378.595 323.001 378.109 320.095V320.095C376.602 311.054 383.574 302.824 392.74 302.824H400.523C409.688 302.824 416.66 311.054 415.154 320.095V320.095C414.668 323.034 411.864 325.172 408.537 325.172Z" fill="url(#paint35_linear_96_2464)"/>
<path d="M396.426 46.6348C343.532 47.2695 300.88 85.7529 300.88 133.156C300.88 149.124 305.739 164.089 314.188 176.917C325.643 197.156 342.604 224.265 354.685 243.245C363.758 257.497 379.542 266.011 396.437 266.011V266.011C413.34 266.011 429.131 257.489 438.204 243.227C450.278 224.248 467.228 197.15 478.701 176.917C487.15 164.089 492.009 149.124 492.009 133.156C492.009 85.7529 449.357 47.2695 396.463 46.6348H396.426Z" fill="url(#paint36_radial_96_2464)"/>
<mask id="mask3_96_2464" style="mask-type:luminance" maskUnits="userSpaceOnUse" x="300" y="46" width="193" height="221">
<path d="M396.426 46.6348C343.532 47.2695 300.88 85.7529 300.88 133.156C300.88 149.124 305.739 164.089 314.188 176.917C325.643 197.156 342.604 224.265 354.685 243.245C363.758 257.497 379.542 266.011 396.437 266.011V266.011C413.34 266.011 429.131 257.489 438.204 243.227C450.278 224.248 467.228 197.15 478.701 176.917C487.15 164.089 492.009 149.124 492.009 133.156C492.009 85.7529 449.357 47.2695 396.463 46.6348H396.426Z" fill="white"/>
</mask>
<g mask="url(#mask3_96_2464)">
<path d="M376.729 40.8172C376.727 40.8202 376.725 40.8228 376.722 40.825C367.752 48.0729 359.343 55.3545 352.728 63.7047C345.924 71.8891 340.878 80.9755 337.476 90.3625C330.598 109.103 330 129.447 333.626 149.056C335.42 158.644 338.672 168.465 342.485 178.153C346.223 187.907 350.447 197.628 354.933 207.316V207.316C360.26 219.077 349.437 226.03 342.49 215.148C342.075 214.498 341.662 213.848 341.252 213.196C335.308 203.809 330.037 194.021 325.365 183.899C320.692 173.777 316.804 163.22 314.599 151.863L313.814 147.62L313.44 143.411L312.73 134.993C312.468 132.187 312.805 129.347 312.842 126.508C313.029 123.668 312.842 120.862 313.403 118.022L314.748 109.571C315.122 106.765 316.206 104.025 316.954 101.253L318.188 97.1104C318.673 95.7408 319.272 94.4046 319.832 93.0683C321.066 90.4293 321.926 87.69 323.496 85.1846C328.841 74.8288 336.616 65.5754 345.737 58.0257C354.989 50.5578 365.544 44.7535 376.696 40.7788C376.72 40.7705 376.741 40.7956 376.729 40.8172V40.8172Z" fill="url(#paint37_linear_96_2464)"/>
<path d="M411.711 40.2207C411.697 40.2207 411.694 40.2395 411.707 40.2439C422.935 44.1511 433.714 49.6889 443.264 56.9236C452.722 64.2395 460.946 73.1922 466.814 83.381C467.562 84.6504 468.385 85.8864 469.057 87.1892L470.889 91.1645C472.048 93.837 473.431 96.476 474.179 99.2821L476.758 107.6L478.29 116.085C478.515 117.522 478.851 118.925 478.963 120.361L479.15 124.637L479.524 133.222L478.851 141.707C478.552 144.547 478.552 147.353 477.879 150.193C477.281 152.999 476.833 155.905 476.048 158.644L473.693 166.829C471.749 172.107 469.917 177.452 467.6 182.529C463.114 192.785 457.918 202.673 452.161 212.227C451.771 212.871 451.38 213.514 450.986 214.155C444.225 225.175 433.274 218.414 438.405 206.548V206.548C442.704 196.727 446.853 186.905 450.404 177.017C453.993 167.196 457.282 157.275 458.852 147.62C459.488 145.248 459.488 142.676 459.787 140.204L460.535 132.721V125.272V121.53C460.46 120.294 460.273 119.058 460.161 117.856L459.413 110.473C458.852 108.068 458.366 105.629 457.843 103.224C457.469 100.752 456.46 98.447 455.75 96.0752L454.628 92.5008C454.217 91.3316 453.619 90.1958 453.133 89.0266C449.208 79.7397 443.713 70.8204 436.536 62.7696C429.546 54.5194 420.838 47.438 411.718 40.2233C411.716 40.2216 411.713 40.2207 411.711 40.2207V40.2207Z" fill="url(#paint38_linear_96_2464)"/>
<path d="M401.36 39.6802C401.36 39.6839 401.362 39.6873 401.366 39.6891C411.232 45.0674 419.043 53.0501 425.92 61.4668C432.723 69.9853 437.956 79.5059 441.956 89.4609C445.881 99.4158 448.498 109.872 449.582 120.428C450.03 125.74 450.479 130.951 450.143 136.463L449.956 140.572L449.432 144.547C449.059 147.153 448.834 149.859 448.274 152.431C444.349 173.076 437.321 192.551 428.985 211.492C428.759 211.996 428.533 212.499 428.306 213.002C422.968 224.809 411.02 219.749 414.556 207.283V207.283C420.126 187.975 425.583 168.699 429.247 149.658C431.004 140.071 431.788 131.218 431.377 121.53C431.078 112.01 429.658 102.556 427.415 93.1689C425.135 83.8153 421.957 74.5285 417.696 65.5423C413.438 56.5305 408.285 47.7855 401.378 39.6737C401.372 39.6666 401.36 39.6709 401.36 39.6802V39.6802Z" fill="url(#paint39_linear_96_2464)"/>
<path d="M391.679 39.6739C391.679 39.6817 391.676 39.6892 391.671 39.6951C384.759 47.8101 379.491 56.5259 375.231 65.5086C370.932 74.4948 367.755 83.7482 365.55 93.1018C363.344 102.489 361.998 111.943 361.662 121.463C361.251 131.151 361.998 140.037 363.793 149.591C367.456 168.599 372.914 187.907 378.483 207.216V207.216C382.005 219.633 370.051 224.697 364.734 212.936C364.506 212.432 364.28 211.929 364.054 211.425C355.681 192.517 348.691 173.008 344.766 152.364C344.242 149.791 344.018 147.119 343.607 144.48L343.084 140.505L342.897 136.396C342.56 130.85 343.009 125.672 343.42 120.361C344.504 109.805 347.046 99.3487 350.971 89.3603C354.933 79.4054 360.204 69.8514 367.007 61.3329C373.874 52.9283 381.747 44.9899 391.631 39.6452C391.652 39.6334 391.679 39.6492 391.679 39.6739V39.6739Z" fill="url(#paint40_linear_96_2464)"/>
<path d="M388.875 96.1418C389.909 83.0946 402.944 83.0946 403.977 96.1418V96.1418C405.398 115.016 406.033 133.89 406.071 152.765C406.071 171.639 405.435 190.513 404.015 209.387V209.387C402.977 222.484 389.875 222.484 388.838 209.387V209.387C387.417 190.513 386.782 171.639 386.782 152.765C386.782 133.89 387.455 115.016 388.875 96.1418V96.1418Z" fill="url(#paint41_linear_96_2464)"/>
</g>
<g filter="url(#filter0_d_96_2464)">
<path opacity="0.77" d="M335.158 293.904C332.766 293.904 332.766 297.211 335.158 297.211C337.551 297.211 337.551 293.904 335.158 293.904Z" fill="#F2F2F2"/>
<path opacity="0.77" d="M219.239 168.098C216.847 168.098 216.847 171.405 219.239 171.405C221.632 171.405 221.632 168.098 219.239 168.098Z" fill="#F2F2F2"/>
<path opacity="0.77" d="M269.479 66.9785C267.087 66.9785 267.087 70.2857 269.479 70.2857C271.872 70.2857 271.872 66.9785 269.479 66.9785Z" fill="#F2F2F2"/>
<path opacity="0.77" d="M160.178 25.522C157.785 25.522 157.785 28.8291 160.178 28.8291C162.57 28.8291 162.57 25.522 160.178 25.522Z" fill="#F2F2F2"/>
<path opacity="0.77" d="M59.6979 270.219C57.3055 270.219 57.3055 273.526 59.6979 273.526C62.0902 273.526 62.0902 270.219 59.6979 270.219Z" fill="#F2F2F2"/>
<path opacity="0.77" d="M132.553 157.241C130.161 157.241 130.161 160.548 132.553 160.548C134.945 160.548 134.945 157.241 132.553 157.241Z" fill="#F2F2F2"/>
<path opacity="0.77" d="M557.65 272.691C555.258 272.691 555.258 275.999 557.65 275.999C560.042 275.999 560.042 272.691 557.65 272.691Z" fill="#F2F2F2"/>
<path opacity="0.77" d="M652.598 284.049C650.205 284.049 650.205 287.357 652.598 287.357C654.99 287.357 654.99 284.049 652.598 284.049Z" fill="#F2F2F2"/>
<path opacity="0.77" d="M575.855 59.0615C573.462 59.0615 573.462 62.3687 575.855 62.3687C578.247 62.3687 578.247 59.0615 575.855 59.0615Z" fill="#F2F2F2"/>
<path opacity="0.77" d="M655.925 22.0811C653.533 22.0811 653.533 25.3882 655.925 25.3882C658.318 25.3882 658.318 22.0811 655.925 22.0811Z" fill="#F2F2F2"/>
<path opacity="0.77" d="M948.506 31.4346C946.113 31.4346 946.113 34.7417 948.506 34.7417C950.898 34.7417 950.898 31.4346 948.506 31.4346Z" fill="#F2F2F2"/>
<path opacity="0.77" d="M972.243 48.2046C969.851 48.2046 969.851 51.5118 972.243 51.5118C974.635 51.5118 974.635 48.2046 972.243 48.2046Z" fill="#F2F2F2"/>
<path opacity="0.77" d="M999.83 24.0522C997.438 24.0522 997.438 27.3594 999.83 27.3594C1002.22 27.3594 1002.22 24.0522 999.83 24.0522Z" fill="#F2F2F2"/>
<path opacity="0.77" d="M1158.81 234.709C1156.42 234.709 1156.42 238.016 1158.81 238.016C1161.2 238.016 1161.2 234.709 1158.81 234.709Z" fill="#F2F2F2"/>
<path opacity="0.77" d="M1137.28 279.606C1134.89 279.606 1134.89 282.914 1137.28 282.914C1139.67 282.914 1139.67 279.606 1137.28 279.606Z" fill="#F2F2F2"/>
<path opacity="0.77" d="M1216.79 242.092C1214.4 242.092 1214.4 245.399 1216.79 245.399C1219.18 245.399 1219.18 242.092 1216.79 242.092Z" fill="#F2F2F2"/>
<path opacity="0.77" d="M946.824 221.38C944.432 221.38 944.432 224.687 946.824 224.687C949.216 224.687 949.216 221.38 946.824 221.38Z" fill="#F2F2F2"/>
<path opacity="0.77" d="M991.008 297.846C988.616 297.846 988.616 301.153 991.008 301.153C993.4 301.153 993.4 297.846 991.008 297.846Z" fill="#F2F2F2"/>
<path opacity="0.77" d="M958.973 281.076C956.58 281.076 956.58 284.383 958.973 284.383C961.365 284.383 961.365 281.076 958.973 281.076Z" fill="#F2F2F2"/>
<path opacity="0.77" d="M909.293 237.648C906.901 237.648 906.901 240.956 909.293 240.956C911.686 240.956 911.686 237.648 909.293 237.648Z" fill="#F2F2F2"/>
<path opacity="0.77" d="M539.445 319.059C537.053 319.059 537.053 322.366 539.445 322.366C541.838 322.366 541.838 319.059 539.445 319.059Z" fill="#F2F2F2"/>
<path opacity="0.77" d="M615.067 259.362C612.675 259.362 612.675 262.669 615.067 262.669C617.459 262.669 617.459 259.362 615.067 259.362Z" fill="#F2F2F2"/>
<path opacity="0.77" d="M485.318 251.98C482.926 251.98 482.926 255.287 485.318 255.287C487.71 255.287 487.71 251.98 485.318 251.98Z" fill="#F2F2F2"/>
<path opacity="0.77" d="M451.638 299.817C449.245 299.817 449.245 303.124 451.638 303.124C454.03 303.124 454.03 299.817 451.638 299.817Z" fill="#F2F2F2"/>
<path opacity="0.77" d="M276.097 252.447C273.704 252.447 273.704 255.754 276.097 255.754C278.489 255.754 278.489 252.447 276.097 252.447Z" fill="#F2F2F2"/>
<path opacity="0.77" d="M236.921 283.047C234.528 283.047 234.528 286.354 236.921 286.354C239.313 286.354 239.313 283.047 236.921 283.047Z" fill="#F2F2F2"/>
<path opacity="0.77" d="M145.823 255.921C143.431 255.921 143.431 259.229 145.823 259.229C148.216 259.229 148.216 255.921 145.823 255.921Z" fill="#F2F2F2"/>
<path opacity="0.77" d="M140.852 397.495C138.46 397.495 138.46 400.802 140.852 400.802C143.244 400.802 143.244 397.495 140.852 397.495Z" fill="#F2F2F2"/>
<path opacity="0.77" d="M48.6699 302.289C46.2775 302.289 46.2775 305.596 48.6699 305.596C51.0623 305.596 51.0623 302.289 48.6699 302.289Z" fill="#F2F2F2"/>
<path opacity="0.77" d="M21.6062 264.306C19.2138 264.306 19.2138 267.613 21.6062 267.613C23.9986 267.613 23.9986 264.306 21.6062 264.306Z" fill="#F2F2F2"/>
<path opacity="0.77" d="M172.887 139.97C170.495 139.97 170.495 143.277 172.887 143.277C175.279 143.277 175.279 139.97 172.887 139.97Z" fill="#F2F2F2"/>
<path opacity="0.77" d="M240.211 130.115C237.818 130.115 237.818 133.422 240.211 133.422C242.603 133.422 242.603 130.115 240.211 130.115Z" fill="#F2F2F2"/>
<path opacity="0.77" d="M212.063 54.1509C209.67 54.1509 209.67 57.4581 212.063 57.4581C214.455 57.4581 214.455 54.1509 212.063 54.1509Z" fill="#F2F2F2"/>
<path opacity="0.77" d="M401.958 22.5488C399.566 22.5488 399.566 25.856 401.958 25.856C404.35 25.856 404.35 22.5488 401.958 22.5488Z" fill="#F2F2F2"/>
<path opacity="0.77" d="M684.633 46.2334C682.241 46.2334 682.241 49.5406 684.633 49.5406C687.026 49.5406 687.026 46.2334 684.633 46.2334Z" fill="#F2F2F2"/>
<path opacity="0.77" d="M1262.06 209.053C1259.67 209.053 1259.67 212.36 1262.06 212.36C1264.45 212.36 1264.45 209.053 1262.06 209.053Z" fill="#F2F2F2"/>
<path opacity="0.77" d="M1257.27 225.99C1257.27 225.551 1257.08 225.113 1256.75 224.821V224.821C1256.6 224.654 1256.38 224.554 1256.15 224.487C1255.93 224.387 1255.7 224.32 1255.44 224.353C1255.29 224.353 1255.1 224.387 1254.96 224.42C1254.66 224.487 1254.36 224.654 1254.13 224.854V224.854C1253.91 225.053 1253.74 225.314 1253.65 225.596C1253.6 225.733 1253.57 225.874 1253.57 226.024V227.026V227.026C1253.57 227.465 1253.77 227.903 1254.1 228.195V228.195C1254.25 228.362 1254.47 228.462 1254.69 228.529C1254.92 228.629 1255.14 228.696 1255.4 228.663C1255.55 228.663 1255.74 228.629 1255.89 228.596C1256.19 228.529 1256.49 228.362 1256.71 228.162V228.162C1256.93 227.964 1257.1 227.702 1257.2 227.421C1257.25 227.283 1257.27 227.142 1257.27 226.992V225.99V225.99Z" fill="#F2F2F2"/>
<path opacity="0.77" d="M1146.66 215.968C1144.27 215.968 1144.27 219.275 1146.66 219.275C1149.06 219.275 1149.06 215.968 1146.66 215.968Z" fill="#F2F2F2"/>
<path opacity="0.77" d="M1197.46 230.767C1195.07 230.767 1195.07 234.074 1197.46 234.074C1199.86 234.074 1199.86 230.767 1197.46 230.767Z" fill="#F2F2F2"/>
<path opacity="0.77" d="M578.023 257.725C577.873 257.491 577.649 257.291 577.35 257.124C576.976 256.957 576.602 256.79 576.228 256.623C576.004 256.489 575.78 256.423 575.556 256.423C575.541 256.421 575.527 256.419 575.512 256.417C575.045 256.363 574.555 256.45 574.173 256.723V256.723C573.986 256.823 573.799 256.99 573.687 257.191V257.191C573.562 257.457 573.445 257.735 573.444 258.029C573.444 258.04 573.444 258.051 573.444 258.062C573.447 258.33 573.557 258.582 573.67 258.826L573.687 258.861C573.836 259.095 574.06 259.295 574.359 259.462C574.733 259.629 575.107 259.796 575.481 259.964C575.705 260.097 575.929 260.164 576.154 260.164C576.168 260.166 576.183 260.168 576.197 260.169C576.664 260.223 577.155 260.137 577.537 259.863V259.863C577.724 259.73 577.911 259.596 578.023 259.396V259.396C578.166 259.139 578.264 258.851 578.266 258.557C578.266 258.549 578.266 258.542 578.266 258.535C578.264 258.26 578.165 257.994 578.037 257.751C578.032 257.742 578.028 257.734 578.023 257.725Z" fill="#F2F2F2"/>
<path opacity="0.77" d="M523.97 382.195C521.577 382.195 521.577 385.502 523.97 385.502C526.362 385.502 526.362 382.195 523.97 382.195Z" fill="#F2F2F2"/>
<path opacity="0.77" d="M386.146 398.163C386.146 397.724 385.95 397.286 385.623 396.994V396.994C385.473 396.827 385.249 396.727 385.025 396.66C384.801 396.56 384.576 396.493 384.315 396.526C384.165 396.526 383.978 396.56 383.829 396.593C383.53 396.66 383.231 396.827 383.006 397.027V397.027C382.785 397.225 382.615 397.487 382.52 397.769C382.473 397.906 382.446 398.047 382.446 398.197V398.698V398.698C382.446 399.136 382.642 399.574 382.969 399.867V399.867C383.118 400.034 383.343 400.134 383.567 400.201C383.791 400.301 384.016 400.368 384.277 400.335C384.427 400.335 384.614 400.301 384.763 400.268C385.062 400.201 385.361 400.034 385.586 399.833V399.833C385.807 399.635 385.977 399.374 386.072 399.092C386.119 398.955 386.146 398.814 386.146 398.664V398.163V398.163Z" fill="#F2F2F2"/>
<path opacity="0.77" d="M400.314 355.571C397.921 355.571 397.921 358.878 400.314 358.878C402.706 358.878 402.706 355.571 400.314 355.571Z" fill="#F2F2F2"/>
<path opacity="0.77" d="M82.3503 121.73C79.9579 121.73 79.9579 125.038 82.3503 125.038C84.7427 125.038 84.7427 121.73 82.3503 121.73Z" fill="#F2F2F2"/>
<path opacity="0.77" d="M92.8171 136.529C90.4247 136.529 90.4247 139.836 92.8171 139.836C95.2095 139.836 95.2095 136.529 92.8171 136.529Z" fill="#F2F2F2"/>
<path opacity="0.77" d="M106.275 131.753C106.275 131.314 106.078 130.876 105.751 130.583V130.583C105.564 130.416 105.377 130.316 105.153 130.249C104.929 130.149 104.705 130.082 104.443 130.116C104.293 130.116 104.106 130.149 103.957 130.182C103.658 130.249 103.359 130.416 103.135 130.617V130.617C102.913 130.815 102.743 131.076 102.648 131.358C102.602 131.495 102.574 131.636 102.574 131.786V132.287V132.287C102.574 132.726 102.77 133.164 103.097 133.456V133.456C103.247 133.623 103.471 133.723 103.695 133.79C103.92 133.89 104.144 133.957 104.406 133.924C104.555 133.924 104.742 133.89 104.891 133.857C105.191 133.79 105.49 133.623 105.714 133.423V133.423C105.935 133.225 106.105 132.963 106.201 132.682C106.247 132.544 106.275 132.403 106.275 132.254V131.753V131.753Z" fill="#F2F2F2"/>
<path opacity="0.77" d="M289.366 261.333C286.974 261.333 286.974 264.641 289.366 264.641C291.759 264.641 291.759 261.333 289.366 261.333Z" fill="#F2F2F2"/>
<path opacity="0.77" d="M342.335 303.291C339.943 303.291 339.943 306.598 342.335 306.598C344.728 306.598 344.728 303.291 342.335 303.291Z" fill="#F2F2F2"/>
<path opacity="0.77" d="M551.557 262.836C549.165 262.836 549.165 266.144 551.557 266.144C553.949 266.144 553.949 262.836 551.557 262.836Z" fill="#F2F2F2"/>
</g>
</g>
<defs>
<filter id="filter0_d_96_2464" x="17.8119" y="20.0811" width="1248.04" height="382.721" filterUnits="userSpaceOnUse" color-interpolation-filters="sRGB">
<feFlood flood-opacity="0" result="BackgroundImageFix"/>
<feColorMatrix in="SourceAlpha" type="matrix" values="0 0 0 0 0 0 0 0 0 0 0 0 0 0 0 0 0 0 127 0" result="hardAlpha"/>
<feOffset/>
<feGaussianBlur stdDeviation="1"/>
<feColorMatrix type="matrix" values="0 0 0 0 1 0 0 0 0 1 0 0 0 0 1 0 0 0 0.9 0"/>
<feBlend mode="normal" in2="BackgroundImageFix" result="effect1_dropShadow_96_2464"/>
<feBlend mode="normal" in="SourceGraphic" in2="effect1_dropShadow_96_2464" result="shape"/>
</filter>
<linearGradient id="paint0_linear_96_2464" x1="641.159" y1="579.223" x2="641.159" y2="-26.2903" gradientUnits="userSpaceOnUse">
<stop stop-color="#975AE7"/>
<stop offset="0.44" stop-color="#662D91"/>
<stop offset="0.97" stop-color="#1B1464"/>
</linearGradient>
<linearGradient id="paint1_linear_96_2464" x1="1305.42" y1="152.264" x2="1308.05" y2="-15.7445" gradientUnits="userSpaceOnUse">
<stop offset="0.24" stop-color="#01F0FF" stop-opacity="0"/>
<stop offset="1" stop-color="white"/>
</linearGradient>
<linearGradient id="paint2_linear_96_2464" x1="650.729" y1="200.836" x2="640.99" y2="11.1321" gradientUnits="userSpaceOnUse">
<stop offset="0.09" stop-color="#01F0FF" stop-opacity="0"/>
<stop offset="0.97" stop-color="white"/>
</linearGradient>
<linearGradient id="paint3_linear_96_2464" x1="1071.38" y1="208.285" x2="1065.04" y2="84.6354" gradientUnits="userSpaceOnUse">
<stop offset="0.01" stop-color="#01F0FF" stop-opacity="0"/>
<stop offset="0.97" stop-color="white"/>
</linearGradient>
<linearGradient id="paint4_linear_96_2464" x1="593.124" y1="254.552" x2="599.457" y2="130.902" gradientUnits="userSpaceOnUse">
<stop offset="0.01" stop-color="#01F0FF" stop-opacity="0"/>
<stop offset="0.97" stop-color="white"/>
</linearGradient>
<linearGradient id="paint5_linear_96_2464" x1="82.2011" y1="254.552" x2="88.5342" y2="130.902" gradientUnits="userSpaceOnUse">
<stop offset="0.01" stop-color="#01F0FF" stop-opacity="0"/>
<stop offset="0.97" stop-color="white"/>
</linearGradient>
<linearGradient id="paint6_linear_96_2464" x1="578.023" y1="821.448" x2="578.023" y2="267.146" gradientUnits="userSpaceOnUse">
<stop offset="0.31" stop-color="#662D91" stop-opacity="0.9"/>
<stop offset="0.97" stop-color="#1B1464"/>
</linearGradient>
<linearGradient id="paint7_linear_96_2464" x1="1061.06" y1="358.259" x2="1061.35" y2="321.846" gradientUnits="userSpaceOnUse">
<stop offset="0.1" stop-color="#FFEB69"/>
<stop offset="0.21" stop-color="#F8E270"/>
<stop offset="0.4" stop-color="#E7CA85"/>
<stop offset="0.63" stop-color="#CCA4A6"/>
<stop offset="0.9" stop-color="#A66FD4"/>
<stop offset="1" stop-color="#975AE7"/>
</linearGradient>
<linearGradient id="paint8_linear_96_2464" x1="1030.18" y1="357.643" x2="1030.48" y2="321.564" gradientUnits="userSpaceOnUse">
<stop offset="0.1" stop-color="#FFEB69"/>
<stop offset="0.21" stop-color="#F8E270"/>
<stop offset="0.4" stop-color="#E7CA85"/>
<stop offset="0.63" stop-color="#CCA4A6"/>
<stop offset="0.9" stop-color="#A66FD4"/>
<stop offset="1" stop-color="#975AE7"/>
</linearGradient>
<linearGradient id="paint9_linear_96_2464" x1="1045.85" y1="333.958" x2="1045.85" y2="361.484" gradientUnits="userSpaceOnUse">
<stop offset="0.1" stop-color="#FFEB69"/>
<stop offset="0.21" stop-color="#F8E270"/>
<stop offset="0.4" stop-color="#E7CA85"/>
<stop offset="0.63" stop-color="#CCA4A6"/>
<stop offset="0.9" stop-color="#A66FD4"/>
<stop offset="1" stop-color="#975AE7"/>
</linearGradient>
<radialGradient id="paint10_radial_96_2464" cx="0" cy="0" r="1" gradientUnits="userSpaceOnUse" gradientTransform="translate(1008.57 187.328) rotate(71.3656) scale(122.192 96.4231)">
<stop stop-color="#FFEB69"/>
<stop offset="0.13" stop-color="#F8E270"/>
<stop offset="0.33" stop-color="#E7CA85"/>
<stop offset="0.59" stop-color="#CCA4A6"/>
<stop offset="0.89" stop-color="#A66FD4"/>
<stop offset="1" stop-color="#975AE7"/>
</radialGradient>
<linearGradient id="paint11_linear_96_2464" x1="1012.35" y1="325.205" x2="1012.35" y2="163.454" gradientUnits="userSpaceOnUse">
<stop stop-color="#FFEB69" stop-opacity="0"/>
<stop offset="0.09" stop-color="#FBE56D" stop-opacity="0.04"/>
<stop offset="0.24" stop-color="#F0D67A" stop-opacity="0.14"/>
<stop offset="0.42" stop-color="#DFBE8F" stop-opacity="0.31"/>
<stop offset="0.64" stop-color="#C69CAD" stop-opacity="0.54"/>
<stop offset="0.87" stop-color="#A872D1" stop-opacity="0.83"/>
<stop offset="1" stop-color="#975AE7"/>
</linearGradient>
<linearGradient id="paint12_linear_96_2464" x1="1079.3" y1="325.138" x2="1079.3" y2="163.02" gradientUnits="userSpaceOnUse">
<stop stop-color="#FFEB69" stop-opacity="0"/>
<stop offset="0.09" stop-color="#FBE56D" stop-opacity="0.04"/>
<stop offset="0.24" stop-color="#F0D67A" stop-opacity="0.14"/>
<stop offset="0.42" stop-color="#DFBE8F" stop-opacity="0.31"/>
<stop offset="0.64" stop-color="#C69CAD" stop-opacity="0.54"/>
<stop offset="0.87" stop-color="#A872D1" stop-opacity="0.83"/>
<stop offset="1" stop-color="#975AE7"/>
</linearGradient>
<linearGradient id="paint13_linear_96_2464" x1="1064.84" y1="324.303" x2="1064.84" y2="162.92" gradientUnits="userSpaceOnUse">
<stop stop-color="#FFEB69" stop-opacity="0"/>
<stop offset="0.09" stop-color="#FBE56D" stop-opacity="0.04"/>
<stop offset="0.24" stop-color="#F0D67A" stop-opacity="0.14"/>
<stop offset="0.42" stop-color="#DFBE8F" stop-opacity="0.31"/>
<stop offset="0.64" stop-color="#C69CAD" stop-opacity="0.54"/>
<stop offset="0.87" stop-color="#A872D1" stop-opacity="0.83"/>
<stop offset="1" stop-color="#975AE7"/>
</linearGradient>
<linearGradient id="paint14_linear_96_2464" x1="1026.71" y1="324.303" x2="1026.71" y2="162.92" gradientUnits="userSpaceOnUse">
<stop stop-color="#FFEB69" stop-opacity="0"/>
<stop offset="0.09" stop-color="#FBE56D" stop-opacity="0.04"/>
<stop offset="0.24" stop-color="#F0D67A" stop-opacity="0.14"/>
<stop offset="0.42" stop-color="#DFBE8F" stop-opacity="0.31"/>
<stop offset="0.64" stop-color="#C69CAD" stop-opacity="0.54"/>
<stop offset="0.87" stop-color="#A872D1" stop-opacity="0.83"/>
<stop offset="1" stop-color="#975AE7"/>
</linearGradient>
<linearGradient id="paint15_linear_96_2464" x1="1045.73" y1="322.065" x2="1045.73" y2="167.263" gradientUnits="userSpaceOnUse">
<stop stop-color="#FFEB69" stop-opacity="0"/>
<stop offset="0.09" stop-color="#FBE56D" stop-opacity="0.04"/>
<stop offset="0.24" stop-color="#F0D67A" stop-opacity="0.14"/>
<stop offset="0.42" stop-color="#DFBE8F" stop-opacity="0.31"/>
<stop offset="0.64" stop-color="#C69CAD" stop-opacity="0.54"/>
<stop offset="0.87" stop-color="#A872D1" stop-opacity="0.83"/>
<stop offset="1" stop-color="#975AE7"/>
</linearGradient>
<linearGradient id="paint16_linear_96_2464" x1="513.942" y1="355.856" x2="514.091" y2="340.255" gradientUnits="userSpaceOnUse">
<stop offset="0.1" stop-color="#FFEB69"/>
<stop offset="0.21" stop-color="#F8E270"/>
<stop offset="0.4" stop-color="#E7CA85"/>
<stop offset="0.63" stop-color="#CCA4A6"/>
<stop offset="0.9" stop-color="#A66FD4"/>
<stop offset="1" stop-color="#975AE7"/>
</linearGradient>
<linearGradient id="paint17_linear_96_2464" x1="500.644" y1="355.604" x2="500.764" y2="340.137" gradientUnits="userSpaceOnUse">
<stop offset="0.1" stop-color="#FFEB69"/>
<stop offset="0.21" stop-color="#F8E270"/>
<stop offset="0.4" stop-color="#E7CA85"/>
<stop offset="0.63" stop-color="#CCA4A6"/>
<stop offset="0.9" stop-color="#A66FD4"/>
<stop offset="1" stop-color="#975AE7"/>
</linearGradient>
<linearGradient id="paint18_linear_96_2464" x1="507.372" y1="345.483" x2="507.372" y2="357.275" gradientUnits="userSpaceOnUse">
<stop offset="0.1" stop-color="#FFEB69"/>
<stop offset="0.21" stop-color="#F8E270"/>
<stop offset="0.4" stop-color="#E7CA85"/>
<stop offset="0.63" stop-color="#CCA4A6"/>
<stop offset="0.9" stop-color="#A66FD4"/>
<stop offset="1" stop-color="#975AE7"/>
</linearGradient>
<radialGradient id="paint19_radial_96_2464" cx="0" cy="0" r="1" gradientUnits="userSpaceOnUse" gradientTransform="translate(490.861 282.755) rotate(71.3656) scale(52.4209 41.366)">
<stop stop-color="#FFEB69"/>
<stop offset="0.13" stop-color="#F8E270"/>
<stop offset="0.33" stop-color="#E7CA85"/>
<stop offset="0.59" stop-color="#CCA4A6"/>
<stop offset="0.89" stop-color="#A66FD4"/>
<stop offset="1" stop-color="#975AE7"/>
</radialGradient>
<linearGradient id="paint20_linear_96_2464" x1="492.981" y1="341.708" x2="492.981" y2="272.357" gradientUnits="userSpaceOnUse">
<stop stop-color="#FFEB69" stop-opacity="0"/>
<stop offset="0.09" stop-color="#FBE56D" stop-opacity="0.04"/>
<stop offset="0.24" stop-color="#F0D67A" stop-opacity="0.14"/>
<stop offset="0.42" stop-color="#DFBE8F" stop-opacity="0.31"/>
<stop offset="0.64" stop-color="#C69CAD" stop-opacity="0.54"/>
<stop offset="0.87" stop-color="#A872D1" stop-opacity="0.83"/>
<stop offset="1" stop-color="#975AE7"/>
</linearGradient>
<linearGradient id="paint21_linear_96_2464" x1="521.69" y1="341.674" x2="521.69" y2="272.157" gradientUnits="userSpaceOnUse">
<stop stop-color="#FFEB69" stop-opacity="0"/>
<stop offset="0.09" stop-color="#FBE56D" stop-opacity="0.04"/>
<stop offset="0.24" stop-color="#F0D67A" stop-opacity="0.14"/>
<stop offset="0.42" stop-color="#DFBE8F" stop-opacity="0.31"/>
<stop offset="0.64" stop-color="#C69CAD" stop-opacity="0.54"/>
<stop offset="0.87" stop-color="#A872D1" stop-opacity="0.83"/>
<stop offset="1" stop-color="#975AE7"/>
</linearGradient>
<linearGradient id="paint22_linear_96_2464" x1="515.484" y1="341.34" x2="515.484" y2="272.123" gradientUnits="userSpaceOnUse">
<stop stop-color="#FFEB69" stop-opacity="0"/>
<stop offset="0.09" stop-color="#FBE56D" stop-opacity="0.04"/>
<stop offset="0.24" stop-color="#F0D67A" stop-opacity="0.14"/>
<stop offset="0.42" stop-color="#DFBE8F" stop-opacity="0.31"/>
<stop offset="0.64" stop-color="#C69CAD" stop-opacity="0.54"/>
<stop offset="0.87" stop-color="#A872D1" stop-opacity="0.83"/>
<stop offset="1" stop-color="#975AE7"/>
</linearGradient>
<linearGradient id="paint23_linear_96_2464" x1="499.186" y1="341.34" x2="499.186" y2="272.123" gradientUnits="userSpaceOnUse">
<stop stop-color="#FFEB69" stop-opacity="0"/>
<stop offset="0.09" stop-color="#FBE56D" stop-opacity="0.04"/>
<stop offset="0.24" stop-color="#F0D67A" stop-opacity="0.14"/>
<stop offset="0.42" stop-color="#DFBE8F" stop-opacity="0.31"/>
<stop offset="0.64" stop-color="#C69CAD" stop-opacity="0.54"/>
<stop offset="0.87" stop-color="#A872D1" stop-opacity="0.83"/>
<stop offset="1" stop-color="#975AE7"/>
</linearGradient>
<linearGradient id="paint24_linear_96_2464" x1="507.298" y1="340.371" x2="507.298" y2="273.994" gradientUnits="userSpaceOnUse">
<stop stop-color="#FFEB69" stop-opacity="0"/>
<stop offset="0.09" stop-color="#FBE56D" stop-opacity="0.04"/>
<stop offset="0.24" stop-color="#F0D67A" stop-opacity="0.14"/>
<stop offset="0.42" stop-color="#DFBE8F" stop-opacity="0.31"/>
<stop offset="0.64" stop-color="#C69CAD" stop-opacity="0.54"/>
<stop offset="0.87" stop-color="#A872D1" stop-opacity="0.83"/>
<stop offset="1" stop-color="#975AE7"/>
</linearGradient>
<linearGradient id="paint25_linear_96_2464" x1="114.535" y1="485.887" x2="122.691" y2="327.338" gradientUnits="userSpaceOnUse">
<stop offset="0.01" stop-color="#01F0FF" stop-opacity="0"/>
<stop offset="0.97" stop-color="white"/>
</linearGradient>
<linearGradient id="paint26_linear_96_2464" x1="1039.68" y1="444.831" x2="1029.97" y2="255.629" gradientUnits="userSpaceOnUse">
<stop offset="0.01" stop-color="#01F0FF" stop-opacity="0"/>
<stop offset="0.97" stop-color="white"/>
</linearGradient>
<linearGradient id="paint27_linear_96_2464" x1="-68.5937" y1="330.216" x2="387.006" y2="330.216" gradientUnits="userSpaceOnUse">
<stop offset="0.01" stop-color="#01F0FF" stop-opacity="0"/>
<stop offset="0.98" stop-color="white"/>
</linearGradient>
<linearGradient id="paint28_linear_96_2464" x1="1234.77" y1="480.91" x2="779.133" y2="480.91" gradientUnits="userSpaceOnUse">
<stop offset="0.01" stop-color="#01F0FF" stop-opacity="0"/>
<stop offset="0.97" stop-color="white"/>
</linearGradient>
<linearGradient id="paint29_linear_96_2464" x1="384.987" y1="536.163" x2="840.625" y2="536.163" gradientUnits="userSpaceOnUse">
<stop offset="0.01" stop-color="#01F0FF" stop-opacity="0"/>
<stop offset="0.97" stop-color="white"/>
</linearGradient>
<linearGradient id="paint30_linear_96_2464" x1="1171.52" y1="782.43" x2="1004.43" y2="396.192" gradientUnits="userSpaceOnUse">
<stop offset="0.31" stop-color="#662D91" stop-opacity="0.9"/>
<stop offset="0.97" stop-color="#1B1464"/>
</linearGradient>
<linearGradient id="paint31_linear_96_2464" x1="9.7564" y1="130.082" x2="17.6736" y2="-12.8714" gradientUnits="userSpaceOnUse">
<stop offset="0.12" stop-color="#01F0FF" stop-opacity="0"/>
<stop offset="0.97" stop-color="white"/>
</linearGradient>
<linearGradient id="paint32_linear_96_2464" x1="351.979" y1="775.415" x2="349.113" y2="441.284" gradientUnits="userSpaceOnUse">
<stop offset="0.31" stop-color="#662D91" stop-opacity="0.9"/>
<stop offset="0.97" stop-color="#1B1464"/>
</linearGradient>
<linearGradient id="paint33_linear_96_2464" x1="418.941" y1="318.931" x2="419.359" y2="265.648" gradientUnits="userSpaceOnUse">
<stop offset="0.1" stop-color="#FFEB69"/>
<stop offset="0.21" stop-color="#F8E270"/>
<stop offset="0.4" stop-color="#E7CA85"/>
<stop offset="0.63" stop-color="#CCA4A6"/>
<stop offset="0.9" stop-color="#A66FD4"/>
<stop offset="1" stop-color="#975AE7"/>
</linearGradient>
<linearGradient id="paint34_linear_96_2464" x1="373.698" y1="318.09" x2="374.116" y2="265.308" gradientUnits="userSpaceOnUse">
<stop offset="0.1" stop-color="#FFEB69"/>
<stop offset="0.21" stop-color="#F8E270"/>
<stop offset="0.4" stop-color="#E7CA85"/>
<stop offset="0.63" stop-color="#CCA4A6"/>
<stop offset="0.9" stop-color="#A66FD4"/>
<stop offset="1" stop-color="#975AE7"/>
</linearGradient>
<linearGradient id="paint35_linear_96_2464" x1="396.65" y1="283.482" x2="396.65" y2="323.736" gradientUnits="userSpaceOnUse">
<stop offset="0.1" stop-color="#FFEB69"/>
<stop offset="0.21" stop-color="#F8E270"/>
<stop offset="0.4" stop-color="#E7CA85"/>
<stop offset="0.63" stop-color="#CCA4A6"/>
<stop offset="0.9" stop-color="#A66FD4"/>
<stop offset="1" stop-color="#975AE7"/>
</linearGradient>
<radialGradient id="paint36_radial_96_2464" cx="0" cy="0" r="1" gradientUnits="userSpaceOnUse" gradientTransform="translate(342.562 68.7029) rotate(71.3656) scale(178.832 141.119)">
<stop stop-color="#FFEB69"/>
<stop offset="0.13" stop-color="#F8E270"/>
<stop offset="0.33" stop-color="#E7CA85"/>
<stop offset="0.59" stop-color="#CCA4A6"/>
<stop offset="0.89" stop-color="#A66FD4"/>
<stop offset="1" stop-color="#975AE7"/>
</radialGradient>
<linearGradient id="paint37_linear_96_2464" x1="347.569" y1="270.654" x2="347.569" y2="33.9401" gradientUnits="userSpaceOnUse">
<stop stop-color="#FFEB69" stop-opacity="0"/>
<stop offset="0.09" stop-color="#FBE56D" stop-opacity="0.04"/>
<stop offset="0.24" stop-color="#F0D67A" stop-opacity="0.14"/>
<stop offset="0.42" stop-color="#DFBE8F" stop-opacity="0.31"/>
<stop offset="0.64" stop-color="#C69CAD" stop-opacity="0.54"/>
<stop offset="0.87" stop-color="#A872D1" stop-opacity="0.83"/>
<stop offset="1" stop-color="#975AE7"/>
</linearGradient>
<linearGradient id="paint38_linear_96_2464" x1="445.545" y1="270.52" x2="445.545" y2="33.3057" gradientUnits="userSpaceOnUse">
<stop stop-color="#FFEB69" stop-opacity="0"/>
<stop offset="0.09" stop-color="#FBE56D" stop-opacity="0.04"/>
<stop offset="0.24" stop-color="#F0D67A" stop-opacity="0.14"/>
<stop offset="0.42" stop-color="#DFBE8F" stop-opacity="0.31"/>
<stop offset="0.64" stop-color="#C69CAD" stop-opacity="0.54"/>
<stop offset="0.87" stop-color="#A872D1" stop-opacity="0.83"/>
<stop offset="1" stop-color="#975AE7"/>
</linearGradient>
<linearGradient id="paint39_linear_96_2464" x1="424.424" y1="269.318" x2="424.424" y2="33.1721" gradientUnits="userSpaceOnUse">
<stop stop-color="#FFEB69" stop-opacity="0"/>
<stop offset="0.09" stop-color="#FBE56D" stop-opacity="0.04"/>
<stop offset="0.24" stop-color="#F0D67A" stop-opacity="0.14"/>
<stop offset="0.42" stop-color="#DFBE8F" stop-opacity="0.31"/>
<stop offset="0.64" stop-color="#C69CAD" stop-opacity="0.54"/>
<stop offset="0.87" stop-color="#A872D1" stop-opacity="0.83"/>
<stop offset="1" stop-color="#975AE7"/>
</linearGradient>
<linearGradient id="paint40_linear_96_2464" x1="368.615" y1="269.317" x2="368.615" y2="33.1718" gradientUnits="userSpaceOnUse">
<stop stop-color="#FFEB69" stop-opacity="0"/>
<stop offset="0.09" stop-color="#FBE56D" stop-opacity="0.04"/>
<stop offset="0.24" stop-color="#F0D67A" stop-opacity="0.14"/>
<stop offset="0.42" stop-color="#DFBE8F" stop-opacity="0.31"/>
<stop offset="0.64" stop-color="#C69CAD" stop-opacity="0.54"/>
<stop offset="0.87" stop-color="#A872D1" stop-opacity="0.83"/>
<stop offset="1" stop-color="#975AE7"/>
</linearGradient>
<linearGradient id="paint41_linear_96_2464" x1="396.426" y1="266.01" x2="396.426" y2="39.519" gradientUnits="userSpaceOnUse">
<stop stop-color="#FFEB69" stop-opacity="0"/>
<stop offset="0.09" stop-color="#FBE56D" stop-opacity="0.04"/>
<stop offset="0.24" stop-color="#F0D67A" stop-opacity="0.14"/>
<stop offset="0.42" stop-color="#DFBE8F" stop-opacity="0.31"/>
<stop offset="0.64" stop-color="#C69CAD" stop-opacity="0.54"/>
<stop offset="0.87" stop-color="#A872D1" stop-opacity="0.83"/>
<stop offset="1" stop-color="#975AE7"/>
</linearGradient>
</defs>
</svg>
