<svg width="1292" height="707" viewBox="0 0 1292 707" fill="none" xmlns="http://www.w3.org/2000/svg">
<mask id="mask0_96_1963" style="mask-type:luminance" maskUnits="userSpaceOnUse" x="0" y="0" width="1292" height="707">
<path d="M1242 0H50C22.3858 0 0 22.3858 0 50V657C0 684.614 22.3858 707 50 707H1242C1269.61 707 1292 684.614 1292 657V50C1292 22.3858 1269.61 0 1242 0Z" fill="white"/>
</mask>
<g mask="url(#mask0_96_1963)">
<path d="M1242.89 0H35.4661C7.85183 0 -14.5339 22.3858 -14.5339 50V657C-14.5339 684.614 7.85179 707 35.466 707H1242.89C1270.51 707 1292.89 684.614 1292.89 657V50C1292.89 22.3858 1270.51 0 1242.89 0Z" fill="url(#paint0_linear_96_1963)"/>
<path d="M942.411 122.566C942.411 122.547 942.426 122.532 942.445 122.532H947.517C964.286 122.532 981.093 122.666 997.863 122.666H1399.21C1410.39 122.666 1421.91 123.334 1433.09 122.666C1454.15 121.366 1475.04 120.604 1496.19 121.824C1497.17 121.881 1498.02 121.137 1498.06 120.156V120.156C1498.11 119.219 1498.88 118.49 1499.82 118.49H1626.74C1649.44 118.49 1673.3 102.975 1669.86 80.5388C1669.76 79.8596 1669.64 79.1812 1669.5 78.5036C1666.86 65.2081 1657.69 52.2467 1643.53 47.6367C1629.37 43.0267 1610.81 49.6744 1607.27 62.8029C1606.67 64.9743 1606.6 67.5465 1608.35 69.15C1611.11 71.6888 1615.99 69.9183 1618.75 67.4129C1625.64 61.0992 1627.24 50.9772 1623.89 42.6592C1620.53 34.3412 1612.75 27.8604 1603.8 24.0856C1583.68 15.6673 1554.87 22.3819 1546.38 42.0913C1545.26 44.6636 1544.55 47.4362 1545.18 50.1421C1545.78 52.8146 1547.98 55.3534 1550.96 55.9213C1554.2 56.556 1557.56 54.7187 1559.34 52.1799C1561.1 49.6744 1561.58 46.6011 1561.8 43.628C1563.37 20.745 1550.14 -2.07113 1529.64 -15.7341C1509.11 -29.3971 1482.06 -34.2409 1456.79 -30.6999C1421.95 -25.8226 1390.49 -6.34707 1370.71 19.5424C1366.72 24.7537 1363.4 30.2991 1360.9 36.2119C1354.98 50.1421 1353.86 65.9764 1359.67 79.9401C1360.9 82.9132 1363.74 86.2872 1367.05 85.3184C1369.89 84.4832 1370.48 81.1761 1370.44 78.5036C1370.3 71.1543 1368.92 63.8719 1366.35 56.8901C1364.18 51.0107 1360.61 46.5343 1356.73 41.5234C1336.5 15.3333 1299.6 4.27597 1266.14 15.7007C1234.09 26.6578 1214.08 55.6206 1209.31 85.1848C1208.94 87.3895 1208.71 89.7614 1209.79 91.7657C1210.91 93.7701 1213.85 95.0729 1215.98 93.8703C1217.95 92.7345 1218.07 90.2624 1217.84 88.1913C1215.87 68.7491 1202.86 50.6766 1183.3 41.8575C1154.34 28.7624 1121.77 38.7507 1098.33 56.3222C1088.01 64.0723 1079.36 73.6598 1073.36 84.4832C1071.95 87.0221 1070.64 89.8282 1071.02 92.6343C1071.39 95.4403 1074.07 98.2464 1077.24 97.9458C1080.22 97.6785 1082.19 95.0061 1083.09 92.4338C1091.1 69.8515 1060.25 57.9257 1040.08 57.6584C1015.41 57.3243 984.112 73.0251 981.354 97.0438C980.832 101.654 982.062 107.132 986.683 109.237C990.894 111.174 996.484 109.137 998.831 105.462C1001.18 101.787 1000.66 97.0104 998.422 93.269C995.478 88.3917 990.372 84.8173 984.447 83.4811C979.267 82.3119 973.714 82.5791 968.534 83.7149C958.92 85.8195 950.125 90.8972 943.976 97.879C938.787 103.771 935.35 110.995 934.381 118.447C934.085 120.725 935.968 122.599 938.265 122.599H942.378C942.396 122.599 942.411 122.584 942.411 122.566V122.566Z" fill="url(#paint1_linear_96_1963)"/>
<path d="M286.163 176.582C286.163 176.564 286.178 176.549 286.196 176.549H291.268C308.038 176.549 324.845 176.683 341.614 176.683H742.965C754.145 176.683 765.66 177.351 776.84 176.683C797.903 175.383 818.789 174.62 839.945 175.841C840.926 175.897 841.768 175.154 841.815 174.173V174.173C841.861 173.235 842.636 172.507 843.574 172.507H970.491C993.19 172.507 1017.06 156.992 1013.61 134.555C1013.51 133.876 1013.39 133.198 1013.25 132.52C1010.61 119.225 1001.44 106.263 987.279 101.653C973.118 97.0433 954.56 103.691 951.019 116.819C950.423 118.991 950.349 121.563 952.1 123.167C954.858 125.705 959.74 123.935 962.497 121.429C969.391 115.116 970.994 104.994 967.64 96.6758C964.249 88.3578 956.497 81.877 947.554 78.1022C927.43 69.6839 898.624 76.3985 890.127 96.1079C889.009 98.6802 888.301 101.453 888.935 104.159C889.531 106.831 891.73 109.37 894.711 109.938C897.953 110.573 901.307 108.735 903.096 106.196C904.847 103.691 905.332 100.618 905.555 97.6446C907.121 74.7616 893.891 51.9455 873.395 38.2825C852.862 24.6195 825.807 19.7757 800.541 23.3167C765.697 28.194 734.245 47.6695 714.457 73.559C710.47 78.7703 707.153 84.3157 704.656 90.2285C698.731 104.159 697.613 119.993 703.426 133.957C704.656 136.93 707.488 140.304 710.805 139.335C713.637 138.5 714.234 135.193 714.196 132.52C714.047 125.171 712.668 117.888 710.097 110.907C707.936 105.027 704.358 100.551 700.483 95.54C680.247 69.3499 643.354 58.2926 609.89 69.7173C577.841 80.6744 557.83 109.637 553.06 139.201C552.687 141.406 552.463 143.778 553.544 145.782C554.625 147.787 557.606 149.089 559.73 147.887C561.705 146.751 561.817 144.279 561.593 142.208C559.618 122.766 546.613 104.693 527.048 95.8741C498.093 82.779 465.523 92.7673 442.082 110.339C431.76 118.089 423.114 127.676 417.114 138.5C415.698 141.039 414.394 143.845 414.767 146.651C415.139 149.49 417.823 152.263 420.99 151.962C423.971 151.695 425.946 149.023 426.841 146.45C434.853 123.868 403.997 111.942 383.836 111.675C359.166 111.341 327.863 127.042 325.106 151.06C324.584 155.67 325.814 161.149 330.435 163.254C334.646 165.191 340.235 163.153 342.583 159.479C344.931 155.804 344.409 151.027 342.173 147.286C339.229 142.408 334.124 138.834 328.199 137.498C323.019 136.328 317.466 136.596 312.286 137.732C302.672 139.836 293.877 144.914 287.728 151.896C282.539 157.788 279.102 165.012 278.133 172.464C277.836 174.742 279.72 176.616 282.017 176.616H286.13C286.148 176.616 286.163 176.601 286.163 176.582V176.582Z" fill="url(#paint2_linear_96_1963)"/>
<path d="M817.048 190.85C817.037 190.869 817.058 190.891 817.078 190.881C822.456 188.23 831.943 190.947 837.881 190.947H1097.32C1126.91 190.947 1156.28 189.945 1185.76 189.945H1298.93C1310.89 189.945 1315.33 177.518 1315.48 168.699C1315.7 155.604 1306.83 145.081 1293.38 140.104C1272.44 132.32 1238.45 143.11 1237 166.093C1236.88 167.697 1237.33 169.735 1239.08 170.069C1240.83 170.436 1242.21 168.699 1242.88 167.196C1247.36 156.873 1243.55 144.313 1234.39 136.863C1225.22 129.414 1211.51 127.109 1199.69 130.349C1188.66 133.389 1178.68 142.375 1179.53 152.698C1179.72 155.07 1180.58 157.542 1182.59 159.078C1184.6 160.615 1187.99 160.849 1189.78 159.078C1190.67 158.21 1191.05 157.04 1191.35 155.905C1195.93 138.6 1188.36 119.459 1173.46 107.734C1158.55 96.0081 1137.16 91.6653 1117.78 95.4402C1098.41 99.215 1081.3 110.64 1070.57 125.572C1062.03 137.465 1057.38 152.397 1061.85 165.96C1062.18 167.029 1062.7 168.165 1063.86 168.632C1066.21 169.534 1068.18 166.494 1067.92 164.223C1067.66 161.951 1067.14 160.214 1067.74 157.976C1068.26 156.072 1068.78 155.437 1068.18 153.299C1067.1 149.257 1064.64 145.449 1061.74 142.242C1056 135.895 1047.8 131.285 1039.15 128.779C1024.73 124.637 1008.26 126.341 995.925 134.458C992.161 136.93 990.148 139.803 987.204 142.876C980.795 149.524 976.509 157.207 976.137 166.127C976.025 168.9 976.77 172.307 979.677 173.209C981.391 173.743 983.329 173.175 984.67 172.04C985.975 170.937 986.72 169.367 987.13 167.797C989.105 160.181 983.701 152.263 976.36 147.987C956.758 136.563 929.368 138.634 911.816 152.297C906.599 156.372 902.462 161.985 901.903 168.165C901.642 170.737 902.76 174.077 905.63 174.278C907.642 174.445 909.431 172.741 909.729 170.937C910.027 169.133 909.245 167.329 908.239 165.726C903.17 157.642 891.879 153.165 881.817 155.203C871.755 157.241 863.706 165.659 862.998 174.879C862.923 175.815 862.924 176.783 863.408 177.618C863.855 178.454 864.936 179.088 865.942 178.854C867.843 178.454 867.656 175.881 866.687 174.378C862.849 168.465 854.203 166.127 846.713 167.363C839.223 168.599 832.738 172.741 827.074 177.318C824.54 179.389 822.043 181.627 820.217 184.266C818.839 186.27 818.689 189.141 817.052 190.845C817.05 190.846 817.049 190.848 817.048 190.85V190.85Z" fill="url(#paint3_linear_96_1963)"/>
<path d="M842.354 237.117C842.365 237.137 842.344 237.159 842.324 237.149C836.946 234.498 827.459 237.215 821.521 237.215H562.077C532.489 237.215 503.123 236.213 473.646 236.213H360.47C348.508 236.213 344.073 223.786 343.924 214.967C343.701 201.872 352.57 191.349 366.023 186.371C386.966 178.588 420.952 189.378 422.406 212.361C422.518 213.964 422.07 216.002 420.319 216.336C418.567 216.704 417.189 214.967 416.518 213.463C412.046 203.141 415.847 190.58 425.014 183.131C434.182 175.681 447.895 173.376 459.709 176.617C470.739 179.657 480.726 188.643 479.869 198.965C479.683 201.337 478.826 203.809 476.814 205.346C474.801 206.882 471.41 207.116 469.621 205.346C468.727 204.477 468.354 203.308 468.056 202.172C463.472 184.868 471.037 165.727 485.944 154.001C500.85 142.276 522.24 137.933 541.619 141.708C560.997 145.483 578.102 156.907 588.834 171.84C597.368 183.732 602.026 198.665 597.554 212.227C597.219 213.296 596.697 214.432 595.542 214.9C593.194 215.802 591.219 212.762 591.48 210.49C591.741 208.219 592.263 206.482 591.666 204.243C591.145 202.339 590.623 201.705 591.219 199.567C592.3 195.524 594.759 191.716 597.666 188.509C603.405 182.162 611.603 177.552 620.249 175.047C634.671 170.904 651.142 172.608 663.477 180.726C667.241 183.198 669.253 186.071 672.197 189.144C678.607 195.792 682.893 203.475 683.265 212.394C683.377 215.167 682.632 218.574 679.725 219.476C678.011 220.011 676.073 219.443 674.731 218.307C673.427 217.205 672.682 215.635 672.272 214.065C670.297 206.448 675.7 198.531 683.042 194.255C702.643 182.83 730.034 184.901 747.586 198.564C752.803 202.64 756.939 208.252 757.498 214.432C757.759 217.004 756.641 220.345 753.772 220.545C751.76 220.712 749.971 219.009 749.673 217.205C749.337 215.401 750.157 213.597 751.163 211.994C756.231 203.909 767.523 199.433 777.585 201.471C787.646 203.508 795.696 211.927 796.404 221.147C796.478 222.082 796.478 223.051 795.994 223.886C795.547 224.721 794.466 225.356 793.46 225.122C791.559 224.721 791.746 222.149 792.714 220.646C796.553 214.733 805.198 212.394 812.689 213.63C820.179 214.866 826.664 219.009 832.328 223.585C834.862 225.656 837.359 227.895 839.185 230.534C840.563 232.537 840.713 235.409 842.35 237.113C842.352 237.114 842.353 237.116 842.354 237.117V237.117Z" fill="url(#paint4_linear_96_1963)"/>
<path d="M333.043 237.128C333.043 237.153 333.018 237.169 332.996 237.158C327.621 234.492 318.119 237.215 312.174 237.215H52.731C23.1421 237.215 -6.22321 236.213 -35.7003 236.213H-148.839C-160.801 236.213 -165.236 223.786 -165.385 214.967C-165.608 201.872 -156.739 191.349 -143.286 186.371C-122.343 178.588 -88.3567 189.378 -86.9033 212.361C-86.7915 213.964 -87.2387 216.002 -88.9902 216.336C-90.7417 216.704 -92.1205 214.967 -92.7913 213.463C-97.2632 203.141 -93.4621 190.58 -84.2947 183.131C-75.1274 175.681 -61.4136 173.376 -49.6004 176.617C-38.5698 179.657 -28.5826 188.643 -29.4397 198.965C-29.626 201.337 -30.4832 203.809 -32.4955 205.346C-34.5078 206.882 -37.899 207.116 -39.6878 205.346C-40.5821 204.477 -40.9548 203.308 -41.2529 202.172C-45.8366 184.868 -38.2717 165.727 -23.3654 154.001C-8.45915 142.276 12.9313 137.933 32.3095 141.708C51.6876 145.483 68.7925 156.907 79.525 171.84C88.0589 183.732 92.7171 198.665 88.2452 212.227C87.9098 213.296 87.3881 214.432 86.2329 214.9C83.8851 215.802 81.91 212.762 82.1709 210.49C82.4318 208.219 82.9535 206.482 82.3572 204.243C81.8355 202.339 81.3138 201.705 81.91 199.567C82.9907 195.524 85.4503 191.716 88.357 188.509C94.0959 182.162 102.294 177.552 110.94 175.047C125.362 170.904 141.833 172.608 154.168 180.726C157.932 183.198 159.944 186.071 162.888 189.144C169.298 195.792 173.584 203.475 173.956 212.394C174.068 215.167 173.323 218.574 170.416 219.476C168.702 220.011 166.764 219.443 165.422 218.307C164.118 217.205 163.373 215.635 162.963 214.065C160.988 206.448 166.391 198.531 173.733 194.255C193.334 182.83 220.725 184.901 238.277 198.564C243.494 202.64 247.63 208.252 248.189 214.432C248.45 217.004 247.332 220.345 244.463 220.545C242.45 220.712 240.662 219.009 240.364 217.205C240.065 215.401 240.848 213.597 241.854 211.994C246.922 203.909 258.214 199.433 268.276 201.471C278.337 203.508 286.387 211.927 287.095 221.147C287.169 222.082 287.169 223.051 286.685 223.886C286.238 224.721 285.157 225.356 284.151 225.122C282.25 224.721 282.437 222.149 283.405 220.646C287.244 214.733 295.889 212.394 303.38 213.63C310.87 214.866 317.354 219.009 323.019 223.585C325.553 225.656 328.05 227.895 329.876 230.534C331.252 232.534 331.403 235.4 333.034 237.105C333.04 237.111 333.043 237.119 333.043 237.128V237.128Z" fill="url(#paint5_linear_96_1963)"/>
<path d="M-7.45312 663.265C-7.45312 663.267 -7.45036 663.268 -7.44907 663.267L226.918 347.437C247.743 319.374 290.197 320.785 309.112 350.169L387.138 471.376C406.431 501.346 449.991 502.082 470.285 472.779L564.88 336.19C583.578 309.191 622.718 307.33 644.404 331.993C652.966 341.73 659.634 349.082 660.459 349.325C662.048 349.799 728.408 254.873 775.203 187.59C796.262 157.311 841.729 159.419 859.895 191.517L1049.29 526.175L1113.34 630.874C1133.72 664.191 1109.75 706.967 1070.69 706.967H2.95656C1.24898 706.967 -0.209843 705.736 -0.49675 704.052L-7.44866 663.265C-7.44912 663.262 -7.45312 663.263 -7.45312 663.265V663.265Z" fill="url(#paint6_linear_96_1963)"/>
<path d="M1059.19 322.071L1054.91 349.071C1054.83 349.588 1055.18 350.061 1055.7 350.128C1056.22 350.194 1056.71 349.828 1056.79 349.311L1061.07 322.311C1061.15 321.794 1060.8 321.321 1060.28 321.255C1059.76 321.188 1059.27 321.554 1059.19 322.071Z" fill="url(#paint7_linear_96_1963)"/>
<path d="M1028.87 349.185C1028.54 349.065 1028.31 348.78 1028.26 348.441L1024.21 322.708C1024.13 322.174 1024.51 321.676 1025.04 321.61V321.61C1025.55 321.547 1026.02 321.902 1026.1 322.411L1030.14 348.145C1030.26 348.866 1029.55 349.441 1028.87 349.185V349.185Z" fill="url(#paint8_linear_96_1963)"/>
<path d="M1050.74 362.452H1034.53C1032.3 362.452 1030.36 360.982 1030.02 358.978V358.978C1028.99 352.788 1033.76 347.152 1040.04 347.152H1045.2C1051.48 347.152 1056.25 352.788 1055.21 358.978V358.978C1054.88 360.982 1052.98 362.452 1050.71 362.452H1050.74Z" fill="url(#paint9_linear_96_1963)"/>
<path d="M1042.51 172.14C1006.47 172.574 977.44 198.864 977.44 231.268C977.44 242.192 980.757 252.414 986.496 261.166C994.313 274.986 1005.87 293.508 1014.09 306.477C1020.27 316.211 1031.02 322.031 1042.54 322.031V322.031C1054.07 322.031 1064.82 316.211 1070.99 306.477C1079.22 293.508 1090.77 274.986 1098.59 261.166C1104.33 252.38 1107.65 242.192 1107.65 231.268C1107.65 198.864 1078.58 172.574 1042.58 172.14H1042.51Z" fill="url(#paint10_radial_96_1963)"/>
<mask id="mask1_96_1963" style="mask-type:luminance" maskUnits="userSpaceOnUse" x="977" y="172" width="131" height="151">
<path d="M1042.51 172.14C1006.47 172.574 977.44 198.864 977.44 231.268C977.44 242.192 980.757 252.414 986.496 261.166C994.313 274.986 1005.87 293.508 1014.09 306.477C1020.27 316.211 1031.02 322.031 1042.54 322.031V322.031C1054.07 322.031 1064.82 316.211 1070.99 306.477C1079.22 293.508 1090.77 274.986 1098.59 261.166C1104.33 252.38 1107.65 242.192 1107.65 231.268C1107.65 198.864 1078.58 172.574 1042.58 172.14H1042.51Z" fill="white"/>
</mask>
<g mask="url(#mask1_96_1963)">
<path d="M1029.05 168.19C1029.05 168.18 1029.04 168.174 1029.03 168.181C1022.93 173.12 1017.2 178.093 1012.69 183.799C1008.07 189.411 1004.61 195.591 1002.26 202.005C997.675 214.833 997.191 228.73 999.688 242.125C1000.92 248.673 1003.12 255.388 1005.72 262.035C1008.26 268.683 1011.2 275.331 1014.15 281.979V281.979C1017.76 289.669 1010.24 294.468 1005.72 287.27C1005.45 286.832 1005.18 286.393 1004.9 285.954C1000.81 279.573 997.228 272.859 994.06 265.944C990.856 259.029 988.247 251.813 986.719 244.063L986.197 241.157L985.937 238.284L985.452 232.538C985.303 230.634 985.527 228.663 985.527 226.759C985.638 224.821 985.527 222.884 985.899 220.98C986.794 213.263 989.104 205.613 992.793 198.564C996.408 191.482 1001.7 185.135 1007.92 179.991C1014.22 174.881 1021.45 170.907 1029.04 168.201C1029.05 168.2 1029.05 168.195 1029.05 168.19V168.19Z" fill="url(#paint11_linear_96_1963)"/>
<path d="M1052.86 167.764C1052.87 167.764 1052.87 167.764 1052.87 167.764C1060.54 170.437 1067.88 174.211 1074.41 179.188C1080.85 184.166 1086.44 190.313 1090.43 197.294C1091.55 198.998 1092.4 200.802 1093.22 202.606C1094.04 204.443 1094.98 206.247 1095.46 208.151L1097.21 213.83L1098.26 219.643C1098.4 220.612 1098.63 221.58 1098.7 222.549L1098.85 225.455L1099.11 231.301C1098.78 235.177 1098.67 239.018 1097.99 242.893C1096.65 250.744 1094.04 257.993 1090.99 265.008C1087.93 272.023 1084.43 278.771 1080.44 285.285C1080.18 285.721 1079.92 286.156 1079.66 286.591C1075.26 293.868 1067.64 289.202 1071.13 281.444V281.444C1074 274.696 1076.86 268.014 1079.25 261.266C1081.71 254.552 1083.95 247.771 1084.99 241.156C1085.62 237.849 1085.73 234.341 1086.14 230.967V225.89C1086.18 224.186 1086.14 222.482 1085.88 220.812C1085.55 213.997 1083.61 207.483 1081.11 201.069C1078.43 194.756 1074.67 188.642 1069.75 183.164C1064.98 177.527 1059.07 172.689 1052.86 167.786C1052.85 167.778 1052.85 167.764 1052.86 167.764V167.764Z" fill="url(#paint12_linear_96_1963)"/>
<path d="M1057 185.102C1055.18 181.229 1058.85 177.805 1061.6 181.088C1061.93 181.488 1062.26 181.891 1062.59 182.295C1067.14 188.141 1070.83 194.622 1073.47 201.437C1076.23 208.218 1077.95 215.367 1078.73 222.583C1079.03 226.224 1079.32 229.765 1079.1 233.54C1079.1 235.444 1078.91 237.281 1078.62 239.052C1078.36 240.856 1078.21 242.693 1077.83 244.43C1075.15 258.527 1070.42 271.856 1064.64 284.784C1064.49 285.126 1064.34 285.467 1064.19 285.807C1060.59 293.89 1052.43 290.449 1054.88 281.945V281.945C1058.57 268.716 1062.37 255.554 1064.87 242.559C1067.36 229.899 1066.62 216.837 1063.67 203.976C1062.07 197.595 1059.98 191.215 1057 185.102V185.102Z" fill="url(#paint13_linear_96_1963)"/>
<path d="M1023.46 181.022C1026.25 177.7 1029.89 181.139 1028.05 185.068V185.068C1025.07 191.181 1022.98 197.528 1021.41 203.909C1018.51 216.77 1017.76 229.865 1020.26 242.526C1022.72 255.521 1026.52 268.683 1030.25 281.911V281.911C1032.69 290.423 1024.53 293.863 1020.92 285.777C1020.78 285.446 1020.63 285.115 1020.48 284.784C1014.71 271.89 1010.01 258.527 1007.29 244.43C1006.92 242.693 1006.77 240.822 1006.51 239.052C1006.21 237.281 1006.06 235.444 1006.02 233.54C1005.8 229.765 1006.1 226.191 1006.4 222.583C1007.14 215.367 1008.86 208.218 1011.58 201.404C1014.22 194.589 1017.87 188.108 1022.46 182.229C1022.79 181.825 1023.12 181.422 1023.46 181.022Z" fill="url(#paint14_linear_96_1963)"/>
<path d="M1042.47 167.263C1042.49 167.263 1042.51 167.278 1042.51 167.299C1045.23 180.182 1046.64 193.064 1047.61 205.947C1048.65 218.841 1049.06 231.736 1049.06 244.63C1049.06 257.525 1048.65 270.42 1047.61 283.314V283.314C1046.94 292.247 1038 292.247 1037.33 283.314V283.314C1036.28 270.42 1035.91 257.525 1035.87 244.63C1035.87 231.736 1036.28 218.841 1037.33 205.947C1038.29 193.064 1039.71 180.182 1042.42 167.299C1042.43 167.278 1042.45 167.263 1042.47 167.263V167.263Z" fill="url(#paint15_linear_96_1963)"/>
</g>
<g opacity="0.51">
<path d="M512.969 340.388L511.131 351.983C511.095 352.206 511.248 352.41 511.472 352.438C511.697 352.467 511.907 352.309 511.942 352.086L513.781 340.492C513.816 340.269 513.663 340.064 513.439 340.036C513.215 340.007 513.005 340.165 512.969 340.388Z" fill="url(#paint16_linear_96_1963)"/>
<path d="M499.885 351.981C499.745 351.928 499.643 351.804 499.62 351.655L497.898 340.659C497.862 340.428 498.024 340.213 498.256 340.185V340.185C498.477 340.158 498.679 340.311 498.714 340.531L500.442 351.527C500.491 351.841 500.184 352.092 499.885 351.981V351.981Z" fill="url(#paint17_linear_96_1963)"/>
<path d="M509.272 357.676H502.303C501.335 357.676 500.515 357.041 500.366 356.172V356.172C499.917 353.516 501.964 351.095 504.658 351.095H506.843C509.537 351.095 511.584 353.516 511.135 356.172V356.172C510.986 357.041 510.167 357.676 509.198 357.676H509.272Z" fill="url(#paint18_linear_96_1963)"/>
<path d="M505.732 276.065C490.267 276.266 477.82 287.524 477.82 301.42C477.82 306.097 479.236 310.473 481.695 314.248C485.039 320.183 489.996 328.14 493.526 333.707C496.17 337.878 500.774 340.372 505.713 340.372V340.372C510.652 340.372 515.256 337.878 517.901 333.707C521.43 328.14 526.388 320.183 529.731 314.248C532.19 310.473 533.607 306.097 533.607 301.42C533.607 287.524 521.16 276.266 505.695 276.065H505.732Z" fill="url(#paint19_radial_96_1963)"/>
<mask id="mask2_96_1963" style="mask-type:luminance" maskUnits="userSpaceOnUse" x="477" y="276" width="57" height="65">
<path d="M505.732 276.065C490.267 276.266 477.82 287.524 477.82 301.42C477.82 306.097 479.236 310.473 481.695 314.248C485.039 320.183 489.996 328.14 493.526 333.707C496.17 337.878 500.774 340.372 505.713 340.372V340.372C510.652 340.372 515.256 337.878 517.901 333.707C521.43 328.14 526.388 320.183 529.731 314.248C532.19 310.473 533.607 306.097 533.607 301.42C533.607 287.524 521.16 276.266 505.695 276.065H505.732Z" fill="white"/>
</mask>
<g mask="url(#mask2_96_1963)">
<path d="M485.444 285.624C487.266 282.694 489.654 285.602 488.515 288.859V288.859C486.54 294.371 486.317 300.318 487.397 306.063C487.882 308.869 488.851 311.742 489.969 314.582C491.012 317.455 492.317 320.261 493.584 323.134V323.134C495.132 326.427 491.908 328.482 489.967 325.404C489.855 325.226 489.744 325.049 489.633 324.871C486.242 319.325 483.224 313.546 481.845 306.899C480.69 300.384 481.249 293.469 484.453 287.39C484.757 286.786 485.088 286.197 485.444 285.624Z" fill="url(#paint20_linear_96_1963)"/>
<path d="M510.202 274.194C510.195 274.194 510.194 274.204 510.2 274.206C516.746 276.447 522.843 280.819 526.266 286.855C529.806 292.835 530.588 299.917 529.508 306.431C528.203 313.112 525.297 318.991 521.98 324.604C521.867 324.792 521.754 324.98 521.64 325.168C519.755 328.279 516.501 326.285 517.993 322.967V322.967C519.222 320.06 520.489 317.221 521.496 314.315C522.576 311.442 523.545 308.535 523.955 305.696V305.696C524.476 302.828 524.74 299.834 524.365 296.944V296.944C524.29 294.004 523.359 291.231 522.315 288.492C520.08 282.981 515.608 278.271 510.206 274.196C510.205 274.195 510.203 274.194 510.202 274.194V274.194Z" fill="url(#paint21_linear_96_1963)"/>
<path d="M507.185 274.055C507.185 274.043 507.199 274.035 507.209 274.041C512.861 277.35 516.729 282.855 519.036 288.626C521.346 294.438 522.054 300.886 520.899 307.066C519.707 313.112 517.732 318.824 515.235 324.37C515.169 324.519 515.102 324.668 515.035 324.817C513.484 328.281 510.002 326.812 511.061 323.167V323.167C512.663 317.488 514.34 311.876 515.347 306.264C516.464 300.819 516.092 295.207 514.825 289.728C513.446 284.285 511.174 278.841 507.189 274.065C507.187 274.062 507.185 274.059 507.185 274.055V274.055Z" fill="url(#paint22_linear_96_1963)"/>
<path d="M504.37 274.042C504.361 274.034 504.347 274.035 504.34 274.044C500.361 278.817 498.054 284.222 496.714 289.695C495.447 295.207 495.112 300.819 496.23 306.264C497.236 311.843 498.913 317.488 500.515 323.167V323.167C501.568 326.814 498.092 328.281 496.541 324.817C496.474 324.668 496.408 324.519 496.342 324.37C493.882 318.824 491.907 313.112 490.677 307.066C489.559 300.852 490.23 294.438 492.54 288.626C494.81 282.855 498.715 277.351 504.366 274.075C504.378 274.068 504.38 274.051 504.37 274.042V274.042Z" fill="url(#paint23_linear_96_1963)"/>
<path d="M503.533 290.597C503.816 286.773 507.648 286.773 507.931 290.597V290.597C508.378 296.142 508.49 301.654 508.564 307.199C508.527 312.745 508.378 318.257 507.931 323.802V323.802C507.652 327.577 503.812 327.577 503.533 323.802V323.802C503.086 318.257 502.974 312.745 502.9 307.199C502.974 301.654 503.086 296.142 503.533 290.597V290.597Z" fill="url(#paint24_linear_96_1963)"/>
</g>
</g>
<path d="M338.055 466.913C338.064 466.928 338.053 466.946 338.036 466.946H335.018C331.143 466.812 326.894 467.313 322.944 467.313H-65.9655C-79.3166 467.313 -92.2995 462.15 -101.377 452.36C-110.794 442.204 -119.238 431.478 -124.206 419.076C-126.517 413.263 -127.747 407.384 -128.604 401.304C-129.349 396.092 -127.411 390.647 -125.697 385.67C-122.008 374.98 -116.082 364.858 -107.809 356.44C-96.1081 344.547 -79.5249 336.296 -61.9355 335.093C-39.8369 333.59 -18.0738 343.244 -2.6831 357.542C12.6703 371.84 22.2849 390.38 29.03 409.288C31.564 416.37 33.7627 424.153 31.8249 431.569C31.0423 434.609 29.4026 437.516 26.8313 439.587C24.409 441.524 20.8688 442.627 17.9248 441.391C14.5336 439.988 13.3411 436.079 13.7511 432.739C16.2478 413.664 32.2721 396.226 51.762 388.944C77.6319 379.267 113.02 386.855 128.179 408.878C128.213 408.927 128.232 408.984 128.275 409.026V409.026C128.292 409.042 128.312 409.064 128.326 409.083C134.872 418.664 138.631 429.509 141.721 440.388C142.392 442.827 143.063 445.399 142.243 447.805C141.423 450.21 138.554 452.214 135.908 451.446C133.448 450.711 132.368 448.105 132.144 445.767C131.436 438.818 135.051 432.037 139.746 426.492C164.043 397.996 219.308 400.168 232.575 437.282C234.14 441.624 236.6 448.606 233.805 452.782C232.649 454.553 230.041 455.722 227.991 454.786C225.308 453.55 225.569 450.076 226.501 447.504C228.997 440.622 233.656 434.142 240.55 430.367C247.444 426.592 256.686 425.89 263.543 429.732C270.4 433.574 273.753 442.226 269.878 448.606C269.319 449.542 268.313 450.544 267.12 450.343C265.369 450.076 265.369 447.805 266.002 446.335C269.058 439.186 276.325 433.607 284.672 432.037C293.02 430.467 302.187 432.939 308.187 438.351C310.684 440.622 312.696 443.395 313.516 446.502C314.336 449.608 313.926 453.016 311.988 455.688C311.168 456.824 309.566 457.926 308.224 457.292C306.845 456.657 306.957 454.82 307.516 453.517C309.603 448.74 315.118 445.466 320.82 445.099C329.242 444.531 339.155 449.976 339.416 458.16C339.416 459.029 339.304 459.964 338.67 460.666C338.074 461.367 336.881 461.701 336.062 461.234C335.279 460.766 335.093 459.73 335.465 458.962C335.838 458.16 336.583 457.592 337.366 457.091C340.832 454.853 345.229 453.784 349.477 454.118C353.726 454.452 357.825 456.156 360.843 458.895C361.472 459.468 362.064 460.127 362.564 460.835C364.869 464.102 361.022 466.879 357.024 466.879H338.075C338.058 466.879 338.047 466.898 338.055 466.913V466.913Z" fill="url(#paint25_linear_96_1963)"/>
<path d="M740.673 419.56C740.664 419.584 740.682 419.61 740.708 419.61C842.91 419.71 945.149 419.81 1047.35 419.81H1269.86C1279.14 419.81 1288.05 421.614 1297.14 421.547C1310.74 421.447 1324.83 418.908 1338.36 417.639C1342.42 417.238 1346.67 416.804 1350.13 414.833C1357.33 410.757 1358.52 401.905 1358.82 394.288C1359.67 371.906 1359.15 349.157 1352.11 327.644C1345.1 306.164 1330.91 285.82 1309.51 274.261C1288.24 262.77 1261.44 260.999 1237.44 266.778C1213.44 272.558 1192.09 285.419 1174.43 301.086C1155.72 317.689 1140.29 338.568 1137.05 361.985C1136.6 365.326 1136.42 368.867 1138.02 371.906C1139.66 374.946 1143.65 377.218 1147.19 376.116C1151.55 374.779 1152.7 369.702 1152.48 365.559C1150.65 330.55 1113.76 313.446 1078.21 315.083C1034.12 317.121 997.825 348.289 996.856 388.71C996.744 393.186 998.719 399.166 1003.75 398.932C1009.08 398.698 1010.05 391.883 1008.71 387.24C1000.92 360.348 970.696 340.138 939.691 341.106C908.723 342.075 880.14 364.156 874.476 391.482C873.47 396.393 874.848 403.308 880.438 403.442C883.792 403.508 886.475 400.569 886.848 397.562C887.221 394.556 885.804 391.649 884.239 388.977C879.395 380.726 872.165 373.243 862.588 369.668C853.011 366.094 840.862 367.163 833.595 373.811V373.811C825.43 381.356 828.035 381.855 818.145 376.777C813.977 374.636 809.307 373.326 804.491 373.143C789.51 372.575 774.976 382.964 772.219 396.159C771.66 398.765 771.623 401.671 773.411 403.742C775.2 405.847 779.374 406.281 780.864 404.009C782.541 401.437 779.635 398.431 776.877 396.76C769.051 392.084 758.84 389.244 750.232 392.651V392.651C743.964 395.133 729.634 401.294 722.991 402.439V402.439C719.071 403.1 715.513 405.009 712.803 407.633C707.461 412.807 713.483 419.51 720.92 419.51C727.495 419.51 734.074 419.51 740.639 419.51C740.665 419.51 740.682 419.536 740.673 419.56V419.56Z" fill="url(#paint26_linear_96_1963)"/>
<path d="M-68.382 375.782L358 375.123C369.056 375.106 372.085 364.47 361.032 364.708V364.708C353.234 364.876 344.138 361.821 337.954 357.068C334.961 354.769 331.497 352.963 327.752 351.83C324.066 350.715 320.161 350.106 316.289 350.101C309.069 350.092 300.67 344.778 295.964 339.303V339.303C292.461 335.227 286.871 332.455 281.17 332.755C275.468 333.056 269.17 335.394 268.201 340.439C268.909 336.664 263.878 330.885 261.195 328.446C257.655 325.172 253.332 323.068 248.413 321.865C246.845 321.483 245.258 321.214 243.661 321.049C230.394 319.678 192.781 307.899 182.863 298.982V298.982C171.199 288.493 154.243 283.415 137.846 284.851C120.182 286.388 105.462 295.775 94.9906 308.235C88.9535 315.418 84.2581 323.502 80.8669 331.954C78.1465 338.768 76.2087 346.017 77.1403 353.2C77.4385 355.404 77.9974 357.609 79.4881 359.38C80.9414 361.15 83.4755 362.353 85.8605 361.919C88.5063 361.417 90.2951 359.112 90.7795 356.741C92.4192 348.757 86.1959 339.804 79.5253 334.993C72.184 329.682 62.5695 326.876 53.104 327.511C45.5018 328.012 38.1232 330.784 32.2352 335.094C26.6081 339.203 20.5711 345.683 18.5215 351.997C16.77 357.375 18.3351 363.99 23.6269 366.996C25.8628 368.266 29.254 368.6 30.8191 366.729C32.347 364.892 31.1918 362.253 29.962 360.248C29.3285 359.213 28.695 358.177 28.0242 357.141C25.3038 352.866 22.3971 348.69 19.4531 344.547C4.02514 323.134 -20.2348 308.035 -48.2213 302.456V302.456C-54.5318 301.199 -60.2639 306.402 -59.9468 312.829C-59.3325 325.279 -59.9482 337.986 -59.2892 350.293C-58.7688 359.824 -60.2508 369.62 -68.3963 375.737C-68.4154 375.751 -68.4058 375.782 -68.382 375.782V375.782Z" fill="url(#paint27_linear_96_1963)"/>
<path d="M1230.96 526.508L804.576 525.85C793.521 525.833 790.492 515.196 801.545 515.435V515.435C809.342 515.603 818.439 512.547 824.623 507.795C827.616 505.495 831.079 503.69 834.825 502.557C838.511 501.441 842.416 500.833 846.288 500.828C853.508 500.818 861.906 495.505 866.612 490.029V490.029C870.115 485.954 875.705 483.181 881.407 483.482C887.109 483.782 893.407 486.121 894.375 491.165C893.667 487.39 898.698 481.611 901.381 479.172C904.922 475.899 909.244 473.794 914.163 472.592C915.731 472.21 917.319 471.94 918.916 471.775C932.183 470.405 969.795 458.626 979.714 449.709V449.709C991.378 439.219 1008.33 434.141 1024.73 435.578C1042.39 437.115 1057.11 446.502 1067.59 458.962C1073.62 466.144 1078.32 474.228 1081.71 482.68C1084.43 489.495 1086.37 496.744 1085.44 503.926C1085.14 506.131 1084.58 508.336 1083.13 510.106C1081.67 511.877 1079.14 513.079 1076.75 512.645C1074.11 512.144 1072.32 509.839 1071.83 507.467C1070.19 499.483 1076.42 490.53 1083.09 485.72C1090.43 480.408 1100.04 477.602 1109.51 478.237C1117.11 478.738 1124.49 481.511 1130.38 485.82C1136.01 489.929 1142.04 496.41 1144.09 502.724C1145.84 508.102 1144.28 514.716 1138.99 517.723C1136.75 518.992 1133.36 519.326 1131.79 517.455C1130.27 515.618 1131.42 512.979 1132.65 510.975C1133.29 509.939 1133.92 508.904 1134.59 507.868C1137.31 503.592 1140.22 499.416 1143.16 495.274C1158.59 473.861 1182.85 458.762 1210.84 453.183V453.183C1217.15 451.926 1222.88 457.129 1222.56 463.555C1221.95 476.006 1222.56 488.712 1221.9 501.02C1221.38 510.539 1222.86 520.323 1230.98 526.441C1231.01 526.462 1230.99 526.508 1230.96 526.508V526.508Z" fill="url(#paint28_linear_96_1963)"/>
<path d="M383.796 581.762C383.798 581.762 383.8 581.761 383.802 581.761L810.182 581.103C821.237 581.086 824.266 570.449 813.213 570.687V570.687C805.415 570.856 796.319 567.8 790.135 563.048C787.142 560.748 783.678 558.943 779.933 557.809C776.247 556.694 772.342 556.086 768.47 556.081C761.25 556.071 752.852 550.758 748.145 545.282V545.282C744.642 541.207 739.052 538.434 733.351 538.735C727.649 539.035 721.351 541.374 720.382 546.418C721.09 542.643 716.06 536.864 713.376 534.425C709.836 531.152 705.513 529.047 700.594 527.844C699.026 527.463 697.439 527.193 695.842 527.028C682.575 525.658 644.962 513.879 635.044 504.961V504.961C623.38 494.472 606.424 489.394 590.027 490.831C572.363 492.368 557.643 501.755 547.172 514.215C541.135 521.397 536.439 529.481 533.048 537.966C530.328 544.781 528.39 552.03 529.321 559.212C529.62 561.384 530.179 563.622 531.632 565.393C533.085 567.163 535.619 568.366 538.004 567.931C540.65 567.43 542.439 565.125 542.923 562.754C544.563 554.77 538.34 545.817 531.669 541.006C524.328 535.695 514.713 532.889 505.248 533.523C497.646 534.025 490.267 536.797 484.379 541.107C478.752 545.215 472.715 551.696 470.665 558.01C468.914 563.388 470.479 570.003 475.771 573.009C478.007 574.278 481.398 574.613 482.963 572.742C484.491 570.904 483.336 568.265 482.106 566.261C481.472 565.225 480.839 564.19 480.168 563.154C477.448 558.878 474.541 554.703 471.597 550.56C456.169 529.147 431.909 514.048 403.923 508.469V508.469C397.612 507.212 391.88 512.415 392.197 518.842C392.811 531.292 392.196 543.999 392.855 556.306C393.374 565.824 391.897 575.608 383.779 581.726C383.761 581.74 383.775 581.769 383.796 581.762V581.762Z" fill="url(#paint29_linear_96_1963)"/>
<path d="M945.315 707C905.57 707 881.713 662.869 903.482 629.615L1046.01 411.881C1063.7 384.868 1101.96 381.446 1124.16 404.894L1167.53 450.712C1180.31 464.216 1202.4 462.034 1212.29 446.291V446.291C1223.91 427.807 1251.15 428.747 1261.47 447.987L1354.6 621.705C1358.49 628.971 1360.53 637.086 1360.53 645.33V657C1360.53 684.614 1338.15 707 1310.53 707H945.315Z" fill="url(#paint30_linear_96_1963)"/>
<path d="M-215.805 107.433L210.577 106.775C221.633 106.758 224.661 96.1211 213.608 96.3594V96.3594C205.811 96.5274 196.715 93.472 190.53 88.7198C187.537 86.4201 184.074 84.6149 180.328 83.4813C176.653 82.35 172.743 81.7395 168.863 81.7385C161.643 81.7367 153.247 76.4297 148.541 70.9542V70.9542C145.038 66.8787 139.448 64.106 133.746 64.4066C128.045 64.7073 121.747 67.0457 120.778 72.09C121.486 68.3151 116.455 62.5359 113.772 60.0973C110.232 56.8235 105.909 54.719 100.99 53.5163C99.4219 53.1349 97.8344 52.865 96.2377 52.7001C82.9706 51.3299 45.3579 39.5507 35.4396 30.6334V30.6334C23.7755 20.144 6.81961 15.0663 -9.57727 16.5027C-27.2412 18.0394 -41.9611 27.4264 -52.4328 39.8868C-58.4698 47.069 -63.1653 55.1532 -66.5564 63.6049C-69.2768 70.4197 -71.2147 77.6687 -70.283 84.851C-69.9849 87.0558 -69.4259 89.2605 -67.9353 91.031C-66.4819 92.8015 -63.9479 94.0042 -61.5629 93.5699C-58.917 93.0688 -57.1282 90.7638 -56.6438 88.392C-55.0041 80.408 -61.2275 71.4553 -67.898 66.6448C-75.2393 61.3333 -84.8539 58.5272 -94.3194 59.1619C-101.922 59.663 -109.3 62.4357 -115.188 66.745C-120.815 70.8539 -126.852 77.3347 -128.902 83.6484C-130.653 89.0267 -129.088 95.641 -123.796 98.6476C-121.561 99.917 -118.169 100.251 -116.604 98.3803C-115.076 96.543 -116.232 93.9039 -117.461 91.8996C-118.095 90.864 -118.728 89.8284 -119.399 88.7929C-122.12 84.5169 -125.026 80.3412 -127.97 76.1989C-143.398 54.7858 -167.658 39.6864 -195.645 34.1076V34.1076C-201.955 32.8505 -207.687 38.0535 -207.37 44.4802C-206.756 56.9308 -207.372 69.6373 -206.713 81.9447C-206.192 91.4753 -207.674 101.272 -215.82 107.388C-215.839 107.403 -215.829 107.433 -215.805 107.433V107.433Z" fill="url(#paint31_linear_96_1963)"/>
<path d="M618.217 707.551C658.319 707.317 681.841 662.337 659.155 629.267L495.876 391.26C476.094 362.423 433.579 362.282 413.605 390.986L344.256 490.644C328.801 512.854 295.568 511.687 281.709 488.447V488.447C268.816 466.828 238.633 463.963 221.903 482.772L206.842 499.705C186.047 523.085 149.131 521.837 129.963 497.106L116.381 479.584C96.8891 454.436 59.1763 453.65 38.6535 477.964L-1.44846 525.475C-9.4839 534.995 -13.676 547.172 -13.2038 559.621L-9.28899 662.822C-8.2659 689.793 13.9777 711.084 40.9674 710.926L618.217 707.551Z" fill="url(#paint32_linear_96_1963)"/>
<path d="M419.691 266.023L413.425 305.536C413.305 306.296 413.826 306.992 414.59 307.089C415.354 307.187 416.072 306.649 416.192 305.888L422.458 266.375C422.578 265.615 422.057 264.919 421.293 264.822C420.528 264.724 419.811 265.262 419.691 266.023Z" fill="url(#paint33_linear_96_1963)"/>
<path d="M375.269 305.715C374.806 305.538 374.472 305.127 374.395 304.637L368.447 266.998C368.324 266.221 368.87 265.498 369.651 265.403V265.403C370.392 265.313 371.072 265.827 371.189 266.565L377.129 304.206C377.295 305.256 376.263 306.093 375.269 305.715V305.715Z" fill="url(#paint34_linear_96_1963)"/>
<path d="M407.276 325.172H383.538C380.221 325.172 377.426 323 376.942 320.094V320.094C375.44 311.052 382.414 302.823 391.58 302.823H399.234C408.401 302.823 415.375 311.052 413.872 320.094V320.094C413.388 323.034 410.593 325.172 407.276 325.172Z" fill="url(#paint35_linear_96_1963)"/>
<path d="M395.202 46.6348C342.471 47.2695 299.951 85.7529 299.951 133.156C299.951 149.124 304.796 164.089 313.218 176.917C324.642 197.165 341.56 224.288 353.605 243.269C362.639 257.503 378.355 266.011 395.213 266.011V266.011C412.08 266.011 427.803 257.494 436.836 243.251C448.874 224.271 465.781 197.158 477.224 176.917C485.646 164.089 490.49 149.124 490.49 133.156C490.49 85.7529 447.97 47.2695 395.239 46.6348H395.202Z" fill="url(#paint36_radial_96_1963)"/>
<mask id="mask3_96_1963" style="mask-type:luminance" maskUnits="userSpaceOnUse" x="299" y="46" width="192" height="221">
<path d="M395.202 46.6348C342.471 47.2695 299.951 85.7529 299.951 133.156C299.951 149.124 304.796 164.089 313.218 176.917C324.642 197.165 341.56 224.288 353.605 243.269C362.639 257.503 378.355 266.011 395.213 266.011V266.011C412.08 266.011 427.803 257.494 436.836 243.251C448.874 224.271 465.781 197.158 477.224 176.917C485.646 164.089 490.49 149.124 490.49 133.156C490.49 85.7529 447.97 47.2695 395.239 46.6348H395.202Z" fill="white"/>
</mask>
<g mask="url(#mask3_96_1963)">
<path d="M375.566 40.8182C375.564 40.8211 375.562 40.8238 375.56 40.8259C366.617 48.0739 358.234 55.3554 351.639 63.7056C344.857 71.8901 339.826 80.9764 336.435 90.3635C329.578 109.104 328.982 129.448 332.596 149.057C334.385 158.645 337.627 168.466 341.428 178.154C345.155 187.908 349.366 197.629 353.838 207.317V207.317C359.143 219.067 348.331 225.992 341.411 215.115C341.005 214.476 340.601 213.837 340.198 213.197C334.273 203.809 329.019 194.022 324.361 183.9C319.702 173.778 315.827 163.221 313.628 151.864L312.845 147.621L312.473 143.412L311.765 134.994C311.504 132.187 311.839 129.348 311.877 126.509C312.063 123.669 311.877 120.863 312.436 118.023L313.777 109.572C314.15 106.766 315.23 104.026 315.976 101.254L317.206 97.1114C317.69 95.7418 318.286 94.4055 318.845 93.0693C320.075 90.4303 320.932 87.691 322.497 85.1855C327.826 74.8298 335.577 65.5764 344.67 58.0266C353.894 50.5588 364.416 44.7545 375.534 40.7798C375.557 40.7715 375.578 40.7965 375.566 40.8182V40.8182Z" fill="url(#paint37_linear_96_1963)"/>
<path d="M410.44 40.2207C410.427 40.2207 410.423 40.2395 410.436 40.2439C421.629 44.1511 432.375 49.6889 441.896 56.9236C451.325 64.2395 459.523 73.1922 465.374 83.381C466.119 84.6504 466.939 85.8864 467.61 87.1892L469.436 91.1645C470.591 93.837 471.97 96.476 472.715 99.2821L475.286 107.6L476.814 116.085C477.038 117.522 477.373 118.925 477.485 120.361L477.671 124.637L478.044 133.222L477.373 141.707C477.075 144.547 477.075 147.353 476.404 150.193C475.808 152.999 475.361 155.905 474.578 158.644L472.231 166.829C470.293 172.107 468.467 177.452 466.156 182.529C461.684 192.785 456.504 202.673 450.766 212.227C450.384 212.86 450 213.491 449.615 214.121C442.88 225.134 431.942 218.402 437.052 206.548V206.548C441.337 196.727 445.474 186.905 449.014 177.017C452.592 167.196 455.871 157.275 457.436 147.62C458.07 145.248 458.07 142.676 458.368 140.204L459.113 132.721V125.272V121.53C459.039 120.294 458.852 119.058 458.74 117.856L457.995 110.473C457.436 108.068 456.952 105.629 456.43 103.224C456.057 100.752 455.051 98.447 454.343 96.0752L453.225 92.5008C452.815 91.3316 452.219 90.1958 451.735 89.0266C447.822 79.7397 442.344 70.8204 435.189 62.7696C428.221 54.5194 419.539 47.438 410.447 40.2233C410.445 40.2216 410.443 40.2207 410.44 40.2207V40.2207Z" fill="url(#paint38_linear_96_1963)"/>
<path d="M400.122 39.6808C400.122 39.6844 400.124 39.6878 400.127 39.6896C409.962 45.0679 417.749 53.0505 424.605 61.4673C431.387 69.9858 436.605 79.5064 440.592 89.4613C444.505 99.4163 447.114 109.872 448.194 120.429C448.641 125.74 449.089 130.951 448.753 136.463L448.567 140.572L448.045 144.547C447.673 147.153 447.449 149.859 446.89 152.431C442.977 173.076 435.971 192.552 427.661 211.493C427.441 211.987 427.219 212.48 426.997 212.973C421.684 224.764 409.758 219.729 413.276 207.284V207.284C418.829 187.975 424.27 168.7 427.922 149.659C429.673 140.071 430.456 131.219 430.046 121.531C429.748 112.01 428.332 102.556 426.096 93.1694C423.823 83.8158 420.655 74.529 416.407 65.5428C412.162 56.531 407.025 47.786 400.139 39.6743C400.133 39.6671 400.122 39.6714 400.122 39.6808V39.6808Z" fill="url(#paint39_linear_96_1963)"/>
<path d="M390.47 39.6749C390.47 39.6827 390.467 39.6902 390.462 39.6961C383.572 47.8111 378.32 56.5268 374.073 65.5096C369.788 74.4958 366.62 83.7492 364.421 93.1028C362.223 102.49 360.881 111.944 360.546 121.464C360.136 131.152 360.881 140.038 362.67 149.592C366.322 168.6 371.763 187.908 377.315 207.217V207.217C380.82 219.614 368.888 224.653 363.595 212.907C363.373 212.414 363.151 211.92 362.931 211.426C354.583 192.518 347.615 173.009 343.702 152.365C343.18 149.792 342.956 147.12 342.546 144.481L342.025 140.506L341.838 136.397C341.503 130.851 341.95 125.673 342.36 120.362C343.441 109.806 345.975 99.3497 349.888 89.3613C353.838 79.4064 359.092 69.8524 365.875 61.3339C372.72 52.9293 380.569 44.991 390.422 39.6463C390.444 39.6345 390.47 39.6502 390.47 39.6749V39.6749Z" fill="url(#paint40_linear_96_1963)"/>
<path d="M387.675 96.1423C388.703 83.1276 401.702 83.1276 402.73 96.1423V96.1423C404.146 115.017 404.78 133.891 404.817 152.765C404.817 171.639 404.184 190.514 402.768 209.388V209.388C401.736 222.452 388.669 222.452 387.638 209.388V209.388C386.222 190.514 385.588 171.639 385.588 152.765C385.588 133.891 386.259 115.017 387.675 96.1423V96.1423Z" fill="url(#paint41_linear_96_1963)"/>
</g>
<g filter="url(#filter0_d_96_1963)">
<path opacity="0.77" d="M334.124 293.904C331.739 293.904 331.739 297.211 334.124 297.211C336.509 297.211 336.509 293.904 334.124 293.904Z" fill="#F2F2F2"/>
<path opacity="0.77" d="M218.563 168.098C216.178 168.098 216.178 171.405 218.563 171.405C220.948 171.405 220.948 168.098 218.563 168.098Z" fill="#F2F2F2"/>
<path opacity="0.77" d="M268.648 66.9785C266.263 66.9785 266.263 70.2857 268.648 70.2857C271.033 70.2857 271.033 66.9785 268.648 66.9785Z" fill="#F2F2F2"/>
<path opacity="0.77" d="M159.684 25.5215C157.299 25.5215 157.299 28.8287 159.684 28.8287C162.069 28.8287 162.069 25.5215 159.684 25.5215Z" fill="#F2F2F2"/>
<path opacity="0.77" d="M59.5136 270.219C57.1286 270.219 57.1286 273.526 59.5136 273.526C61.8986 273.526 61.8986 270.219 59.5136 270.219Z" fill="#F2F2F2"/>
<path opacity="0.77" d="M132.144 157.241C129.759 157.241 129.759 160.548 132.144 160.548C134.529 160.548 134.529 157.241 132.144 157.241Z" fill="#F2F2F2"/>
<path opacity="0.77" d="M555.929 272.691C553.544 272.691 553.544 275.999 555.929 275.999C558.314 275.999 558.314 272.691 555.929 272.691Z" fill="#F2F2F2"/>
<path opacity="0.77" d="M650.584 284.049C648.199 284.049 648.199 287.356 650.584 287.356C652.969 287.356 652.969 284.049 650.584 284.049Z" fill="#F2F2F2"/>
<path opacity="0.77" d="M574.078 59.0615C571.693 59.0615 571.693 62.3687 574.078 62.3687C576.463 62.3687 576.463 59.0615 574.078 59.0615Z" fill="#F2F2F2"/>
<path opacity="0.77" d="M653.901 22.0811C651.516 22.0811 651.516 25.3882 653.901 25.3882C656.286 25.3882 656.286 22.0811 653.901 22.0811Z" fill="#F2F2F2"/>
<path opacity="0.77" d="M945.578 31.4346C943.193 31.4346 943.193 34.7417 945.578 34.7417C947.963 34.7417 947.963 31.4346 945.578 31.4346Z" fill="#F2F2F2"/>
<path opacity="0.77" d="M969.242 48.2041C966.857 48.2041 966.857 51.5113 969.242 51.5113C971.627 51.5113 971.627 48.2041 969.242 48.2041Z" fill="#F2F2F2"/>
<path opacity="0.77" d="M996.744 24.0518C994.359 24.0518 994.359 27.3589 996.744 27.3589C999.129 27.3589 999.129 24.0518 996.744 24.0518Z" fill="#F2F2F2"/>
<path opacity="0.77" d="M1155.24 234.709C1152.85 234.709 1152.85 238.016 1155.24 238.016C1157.62 238.016 1157.62 234.709 1155.24 234.709Z" fill="#F2F2F2"/>
<path opacity="0.77" d="M1133.77 279.606C1131.39 279.606 1131.39 282.914 1133.77 282.914C1136.16 282.914 1136.16 279.606 1133.77 279.606Z" fill="#F2F2F2"/>
<path opacity="0.77" d="M1213.03 242.092C1210.65 242.092 1210.65 245.399 1213.03 245.399C1215.42 245.399 1215.42 242.092 1213.03 242.092Z" fill="#F2F2F2"/>
<path opacity="0.77" d="M943.902 221.38C941.517 221.38 941.517 224.687 943.902 224.687C946.287 224.687 946.287 221.38 943.902 221.38Z" fill="#F2F2F2"/>
<path opacity="0.77" d="M987.949 297.846C985.564 297.846 985.564 301.153 987.949 301.153C990.334 301.153 990.334 297.846 987.949 297.846Z" fill="#F2F2F2"/>
<path opacity="0.77" d="M956.013 281.076C953.628 281.076 953.628 284.383 956.013 284.383C958.398 284.383 958.398 281.076 956.013 281.076Z" fill="#F2F2F2"/>
<path opacity="0.77" d="M906.487 237.648C904.102 237.648 904.102 240.956 906.487 240.956C908.872 240.956 908.872 237.648 906.487 237.648Z" fill="#F2F2F2"/>
<path opacity="0.77" d="M537.78 319.059C535.395 319.059 535.395 322.366 537.78 322.366C540.165 322.366 540.165 319.059 537.78 319.059Z" fill="#F2F2F2"/>
<path opacity="0.77" d="M613.169 259.362C610.784 259.362 610.784 262.669 613.169 262.669C615.554 262.669 615.554 259.362 613.169 259.362Z" fill="#F2F2F2"/>
<path opacity="0.77" d="M483.82 251.979C481.435 251.979 481.435 255.287 483.82 255.287C486.205 255.287 486.205 251.979 483.82 251.979Z" fill="#F2F2F2"/>
<path opacity="0.77" d="M450.244 299.816C447.859 299.816 447.859 303.124 450.244 303.124C452.629 303.124 452.629 299.816 450.244 299.816Z" fill="#F2F2F2"/>
<path opacity="0.77" d="M275.244 252.447C272.859 252.447 272.859 255.754 275.244 255.754C277.629 255.754 277.629 252.447 275.244 252.447Z" fill="#F2F2F2"/>
<path opacity="0.77" d="M236.19 283.047C233.805 283.047 233.805 286.354 236.19 286.354C238.575 286.354 238.575 283.047 236.19 283.047Z" fill="#F2F2F2"/>
<path opacity="0.77" d="M145.373 255.922C142.988 255.922 142.988 259.229 145.373 259.229C147.758 259.229 147.758 255.922 145.373 255.922Z" fill="#F2F2F2"/>
<path opacity="0.77" d="M140.417 397.495C138.032 397.495 138.032 400.802 140.417 400.802C142.802 400.802 142.802 397.495 140.417 397.495Z" fill="#F2F2F2"/>
<path opacity="0.77" d="M48.5197 302.289C46.1347 302.289 46.1347 305.596 48.5197 305.596C50.9047 305.596 50.9047 302.289 48.5197 302.289Z" fill="#F2F2F2"/>
<path opacity="0.77" d="M21.5395 264.307C19.1545 264.307 19.1545 267.614 21.5395 267.614C23.9245 267.614 23.9245 264.307 21.5395 264.307Z" fill="#F2F2F2"/>
<path opacity="0.77" d="M172.353 139.97C169.968 139.97 169.968 143.277 172.353 143.277C174.738 143.277 174.738 139.97 172.353 139.97Z" fill="#F2F2F2"/>
<path opacity="0.77" d="M239.469 130.115C237.084 130.115 237.084 133.422 239.469 133.422C241.854 133.422 241.854 130.115 239.469 130.115Z" fill="#F2F2F2"/>
<path opacity="0.77" d="M211.408 54.1504C209.023 54.1504 209.023 57.4576 211.408 57.4576C213.793 57.4576 213.793 54.1504 211.408 54.1504Z" fill="#F2F2F2"/>
<path opacity="0.77" d="M400.717 22.5488C398.332 22.5488 398.332 25.856 400.717 25.856C403.102 25.856 403.102 22.5488 400.717 22.5488Z" fill="#F2F2F2"/>
<path opacity="0.77" d="M682.52 46.2334C680.135 46.2334 680.135 49.5406 682.52 49.5406C684.905 49.5406 684.905 46.2334 682.52 46.2334Z" fill="#F2F2F2"/>
<path opacity="0.77" d="M1258.16 209.054C1255.78 209.054 1255.78 212.361 1258.16 212.361C1260.55 212.361 1260.55 209.054 1258.16 209.054Z" fill="#F2F2F2"/>
<path opacity="0.77" d="M1253.39 225.99C1253.39 225.552 1253.2 225.114 1252.87 224.821V224.821C1252.72 224.654 1252.5 224.554 1252.27 224.487C1252.05 224.387 1251.83 224.32 1251.57 224.353C1251.42 224.353 1251.23 224.387 1251.08 224.42C1250.78 224.487 1250.49 224.654 1250.26 224.854V224.854C1250.04 225.053 1249.87 225.314 1249.78 225.595C1249.73 225.733 1249.7 225.874 1249.7 226.024V227.026V227.026C1249.7 227.464 1249.9 227.902 1250.22 228.195V228.195C1250.37 228.362 1250.6 228.462 1250.82 228.529C1251.04 228.629 1251.27 228.696 1251.53 228.663C1251.68 228.663 1251.86 228.629 1252.01 228.596C1252.31 228.529 1252.61 228.362 1252.83 228.162V228.162C1253.05 227.964 1253.22 227.702 1253.32 227.421C1253.36 227.284 1253.39 227.142 1253.39 226.992V225.99V225.99Z" fill="#F2F2F2"/>
<path opacity="0.77" d="M1143.12 215.968C1140.74 215.968 1140.74 219.275 1143.12 219.275C1145.51 219.275 1145.51 215.968 1143.12 215.968Z" fill="#F2F2F2"/>
<path opacity="0.77" d="M1193.77 230.767C1191.38 230.767 1191.38 234.074 1193.77 234.074C1196.15 234.074 1196.15 230.767 1193.77 230.767Z" fill="#F2F2F2"/>
<path opacity="0.77" d="M576.239 257.725C576.09 257.491 575.866 257.291 575.568 257.124C575.195 256.957 574.823 256.79 574.45 256.623C574.227 256.489 574.003 256.423 573.779 256.423C573.765 256.421 573.751 256.419 573.736 256.417C573.271 256.363 572.781 256.45 572.4 256.723V256.723C572.214 256.823 572.028 256.99 571.916 257.191V257.191C571.792 257.457 571.675 257.735 571.674 258.029C571.674 258.04 571.674 258.051 571.674 258.062C571.678 258.33 571.787 258.583 571.9 258.826L571.916 258.861C572.065 259.095 572.289 259.295 572.587 259.462C572.959 259.629 573.332 259.796 573.705 259.964C573.928 260.097 574.152 260.164 574.376 260.164C574.39 260.166 574.404 260.168 574.418 260.169C574.884 260.223 575.373 260.137 575.754 259.863V259.863C575.941 259.73 576.127 259.596 576.239 259.396V259.396C576.382 259.139 576.48 258.851 576.481 258.557C576.481 258.55 576.481 258.542 576.481 258.535C576.479 258.26 576.38 257.994 576.253 257.751C576.248 257.742 576.244 257.734 576.239 257.725Z" fill="#F2F2F2"/>
<path opacity="0.77" d="M522.352 382.195C519.967 382.195 519.967 385.502 522.352 385.502C524.737 385.502 524.737 382.195 522.352 382.195Z" fill="#F2F2F2"/>
<path opacity="0.77" d="M384.954 398.163C384.954 397.725 384.759 397.287 384.433 396.994V396.994C384.284 396.827 384.06 396.727 383.836 396.66C383.613 396.56 383.389 396.493 383.128 396.526C382.979 396.526 382.793 396.56 382.644 396.593C382.346 396.66 382.048 396.827 381.824 397.027V397.027C381.603 397.225 381.434 397.487 381.339 397.768C381.293 397.905 381.265 398.047 381.265 398.197V398.698V398.698C381.265 399.136 381.46 399.574 381.787 399.867V399.867C381.936 400.034 382.16 400.134 382.383 400.201C382.607 400.301 382.83 400.368 383.091 400.335C383.24 400.335 383.427 400.301 383.576 400.268C383.874 400.201 384.172 400.034 384.395 399.833V399.833C384.616 399.635 384.786 399.374 384.881 399.093C384.927 398.955 384.954 398.814 384.954 398.664V398.163V398.163Z" fill="#F2F2F2"/>
<path opacity="0.77" d="M399.078 355.571C396.693 355.571 396.693 358.878 399.078 358.878C401.463 358.878 401.463 355.571 399.078 355.571Z" fill="#F2F2F2"/>
<path opacity="0.77" d="M82.0961 121.73C79.7111 121.73 79.7111 125.038 82.0961 125.038C84.4811 125.038 84.4811 121.73 82.0961 121.73Z" fill="#F2F2F2"/>
<path opacity="0.77" d="M92.5307 136.529C90.1457 136.529 90.1457 139.836 92.5307 139.836C94.9157 139.836 94.9157 136.529 92.5307 136.529Z" fill="#F2F2F2"/>
<path opacity="0.77" d="M105.947 131.752C105.947 131.314 105.751 130.875 105.425 130.583V130.583C105.239 130.416 105.052 130.316 104.829 130.249C104.605 130.149 104.381 130.082 104.121 130.115C103.972 130.115 103.785 130.149 103.636 130.182C103.338 130.249 103.04 130.416 102.816 130.616V130.616C102.595 130.814 102.426 131.076 102.331 131.357C102.285 131.494 102.257 131.636 102.257 131.785V132.287V132.287C102.257 132.725 102.453 133.163 102.779 133.456V133.456C102.928 133.623 103.152 133.723 103.375 133.79C103.599 133.89 103.822 133.957 104.083 133.923C104.232 133.923 104.419 133.89 104.568 133.857C104.866 133.79 105.164 133.623 105.388 133.422V133.422C105.609 133.224 105.778 132.963 105.873 132.681C105.919 132.544 105.947 132.403 105.947 132.253V131.752V131.752Z" fill="#F2F2F2"/>
<path opacity="0.77" d="M288.473 261.333C286.088 261.333 286.088 264.64 288.473 264.64C290.858 264.64 290.858 261.333 288.473 261.333Z" fill="#F2F2F2"/>
<path opacity="0.77" d="M341.279 303.291C338.894 303.291 338.894 306.598 341.279 306.598C343.664 306.598 343.664 303.291 341.279 303.291Z" fill="#F2F2F2"/>
<path opacity="0.77" d="M549.855 262.837C547.47 262.837 547.47 266.144 549.855 266.144C552.24 266.144 552.24 262.837 549.855 262.837Z" fill="#F2F2F2"/>
</g>
</g>
<defs>
<filter id="filter0_d_96_1963" x="17.7507" y="20.0811" width="1244.2" height="382.722" filterUnits="userSpaceOnUse" color-interpolation-filters="sRGB">
<feFlood flood-opacity="0" result="BackgroundImageFix"/>
<feColorMatrix in="SourceAlpha" type="matrix" values="0 0 0 0 0 0 0 0 0 0 0 0 0 0 0 0 0 0 127 0" result="hardAlpha"/>
<feOffset/>
<feGaussianBlur stdDeviation="1"/>
<feColorMatrix type="matrix" values="0 0 0 0 1 0 0 0 0 1 0 0 0 0 1 0 0 0 0.9 0"/>
<feBlend mode="normal" in2="BackgroundImageFix" result="effect1_dropShadow_96_1963"/>
<feBlend mode="normal" in="SourceGraphic" in2="effect1_dropShadow_96_1963" result="shape"/>
</filter>
<linearGradient id="paint0_linear_96_1963" x1="639.18" y1="579.223" x2="639.18" y2="-26.2903" gradientUnits="userSpaceOnUse">
<stop stop-color="#975AE7"/>
<stop offset="0.44" stop-color="#662D91"/>
<stop offset="0.97" stop-color="#1B1464"/>
</linearGradient>
<linearGradient id="paint1_linear_96_1963" x1="1301.39" y1="152.264" x2="1304.03" y2="-15.7442" gradientUnits="userSpaceOnUse">
<stop offset="0.24" stop-color="#01F0FF" stop-opacity="0"/>
<stop offset="1" stop-color="white"/>
</linearGradient>
<linearGradient id="paint2_linear_96_1963" x1="648.721" y1="200.835" x2="638.952" y2="11.1347" gradientUnits="userSpaceOnUse">
<stop offset="0.09" stop-color="#01F0FF" stop-opacity="0"/>
<stop offset="0.97" stop-color="white"/>
</linearGradient>
<linearGradient id="paint3_linear_96_1963" x1="1068.07" y1="208.285" x2="1061.72" y2="84.6374" gradientUnits="userSpaceOnUse">
<stop offset="0.01" stop-color="#01F0FF" stop-opacity="0"/>
<stop offset="0.97" stop-color="white"/>
</linearGradient>
<linearGradient id="paint4_linear_96_1963" x1="591.294" y1="254.553" x2="597.646" y2="130.905" gradientUnits="userSpaceOnUse">
<stop offset="0.01" stop-color="#01F0FF" stop-opacity="0"/>
<stop offset="0.97" stop-color="white"/>
</linearGradient>
<linearGradient id="paint5_linear_96_1963" x1="81.9473" y1="254.553" x2="88.2999" y2="130.905" gradientUnits="userSpaceOnUse">
<stop offset="0.01" stop-color="#01F0FF" stop-opacity="0"/>
<stop offset="0.97" stop-color="white"/>
</linearGradient>
<linearGradient id="paint6_linear_96_1963" x1="576.239" y1="821.448" x2="576.239" y2="267.146" gradientUnits="userSpaceOnUse">
<stop offset="0.31" stop-color="#662D91" stop-opacity="0.9"/>
<stop offset="0.97" stop-color="#1B1464"/>
</linearGradient>
<linearGradient id="paint7_linear_96_1963" x1="1057.78" y1="358.259" x2="1058.08" y2="321.846" gradientUnits="userSpaceOnUse">
<stop offset="0.1" stop-color="#FFEB69"/>
<stop offset="0.21" stop-color="#F8E270"/>
<stop offset="0.4" stop-color="#E7CA85"/>
<stop offset="0.63" stop-color="#CCA4A6"/>
<stop offset="0.9" stop-color="#A66FD4"/>
<stop offset="1" stop-color="#975AE7"/>
</linearGradient>
<linearGradient id="paint8_linear_96_1963" x1="1027" y1="357.642" x2="1027.3" y2="321.563" gradientUnits="userSpaceOnUse">
<stop offset="0.1" stop-color="#FFEB69"/>
<stop offset="0.21" stop-color="#F8E270"/>
<stop offset="0.4" stop-color="#E7CA85"/>
<stop offset="0.63" stop-color="#CCA4A6"/>
<stop offset="0.9" stop-color="#A66FD4"/>
<stop offset="1" stop-color="#975AE7"/>
</linearGradient>
<linearGradient id="paint9_linear_96_1963" x1="1042.62" y1="333.957" x2="1042.62" y2="361.483" gradientUnits="userSpaceOnUse">
<stop offset="0.1" stop-color="#FFEB69"/>
<stop offset="0.21" stop-color="#F8E270"/>
<stop offset="0.4" stop-color="#E7CA85"/>
<stop offset="0.63" stop-color="#CCA4A6"/>
<stop offset="0.9" stop-color="#A66FD4"/>
<stop offset="1" stop-color="#975AE7"/>
</linearGradient>
<radialGradient id="paint10_radial_96_1963" cx="0" cy="0" r="1" gradientUnits="userSpaceOnUse" gradientTransform="translate(1005.46 187.327) rotate(71.4191) scale(122.153 96.1558)">
<stop stop-color="#FFEB69"/>
<stop offset="0.13" stop-color="#F8E270"/>
<stop offset="0.33" stop-color="#E7CA85"/>
<stop offset="0.59" stop-color="#CCA4A6"/>
<stop offset="0.89" stop-color="#A66FD4"/>
<stop offset="1" stop-color="#975AE7"/>
</radialGradient>
<linearGradient id="paint11_linear_96_1963" x1="1009.23" y1="325.206" x2="1009.23" y2="163.455" gradientUnits="userSpaceOnUse">
<stop stop-color="#FFEB69" stop-opacity="0"/>
<stop offset="0.09" stop-color="#FBE56D" stop-opacity="0.04"/>
<stop offset="0.24" stop-color="#F0D67A" stop-opacity="0.14"/>
<stop offset="0.42" stop-color="#DFBE8F" stop-opacity="0.31"/>
<stop offset="0.64" stop-color="#C69CAD" stop-opacity="0.54"/>
<stop offset="0.87" stop-color="#A872D1" stop-opacity="0.83"/>
<stop offset="1" stop-color="#975AE7"/>
</linearGradient>
<linearGradient id="paint12_linear_96_1963" x1="1075.97" y1="325.138" x2="1075.97" y2="163.02" gradientUnits="userSpaceOnUse">
<stop stop-color="#FFEB69" stop-opacity="0"/>
<stop offset="0.09" stop-color="#FBE56D" stop-opacity="0.04"/>
<stop offset="0.24" stop-color="#F0D67A" stop-opacity="0.14"/>
<stop offset="0.42" stop-color="#DFBE8F" stop-opacity="0.31"/>
<stop offset="0.64" stop-color="#C69CAD" stop-opacity="0.54"/>
<stop offset="0.87" stop-color="#A872D1" stop-opacity="0.83"/>
<stop offset="1" stop-color="#975AE7"/>
</linearGradient>
<linearGradient id="paint13_linear_96_1963" x1="1061.55" y1="324.303" x2="1061.55" y2="162.92" gradientUnits="userSpaceOnUse">
<stop stop-color="#FFEB69" stop-opacity="0"/>
<stop offset="0.09" stop-color="#FBE56D" stop-opacity="0.04"/>
<stop offset="0.24" stop-color="#F0D67A" stop-opacity="0.14"/>
<stop offset="0.42" stop-color="#DFBE8F" stop-opacity="0.31"/>
<stop offset="0.64" stop-color="#C69CAD" stop-opacity="0.54"/>
<stop offset="0.87" stop-color="#A872D1" stop-opacity="0.83"/>
<stop offset="1" stop-color="#975AE7"/>
</linearGradient>
<linearGradient id="paint14_linear_96_1963" x1="1023.54" y1="324.303" x2="1023.54" y2="162.92" gradientUnits="userSpaceOnUse">
<stop stop-color="#FFEB69" stop-opacity="0"/>
<stop offset="0.09" stop-color="#FBE56D" stop-opacity="0.04"/>
<stop offset="0.24" stop-color="#F0D67A" stop-opacity="0.14"/>
<stop offset="0.42" stop-color="#DFBE8F" stop-opacity="0.31"/>
<stop offset="0.64" stop-color="#C69CAD" stop-opacity="0.54"/>
<stop offset="0.87" stop-color="#A872D1" stop-opacity="0.83"/>
<stop offset="1" stop-color="#975AE7"/>
</linearGradient>
<linearGradient id="paint15_linear_96_1963" x1="1042.51" y1="322.065" x2="1042.51" y2="167.263" gradientUnits="userSpaceOnUse">
<stop stop-color="#FFEB69" stop-opacity="0"/>
<stop offset="0.09" stop-color="#FBE56D" stop-opacity="0.04"/>
<stop offset="0.24" stop-color="#F0D67A" stop-opacity="0.14"/>
<stop offset="0.42" stop-color="#DFBE8F" stop-opacity="0.31"/>
<stop offset="0.64" stop-color="#C69CAD" stop-opacity="0.54"/>
<stop offset="0.87" stop-color="#A872D1" stop-opacity="0.83"/>
<stop offset="1" stop-color="#975AE7"/>
</linearGradient>
<linearGradient id="paint16_linear_96_1963" x1="512.356" y1="355.856" x2="512.505" y2="340.255" gradientUnits="userSpaceOnUse">
<stop offset="0.1" stop-color="#FFEB69"/>
<stop offset="0.21" stop-color="#F8E270"/>
<stop offset="0.4" stop-color="#E7CA85"/>
<stop offset="0.63" stop-color="#CCA4A6"/>
<stop offset="0.9" stop-color="#A66FD4"/>
<stop offset="1" stop-color="#975AE7"/>
</linearGradient>
<linearGradient id="paint17_linear_96_1963" x1="499.099" y1="355.604" x2="499.219" y2="340.136" gradientUnits="userSpaceOnUse">
<stop offset="0.1" stop-color="#FFEB69"/>
<stop offset="0.21" stop-color="#F8E270"/>
<stop offset="0.4" stop-color="#E7CA85"/>
<stop offset="0.63" stop-color="#CCA4A6"/>
<stop offset="0.9" stop-color="#A66FD4"/>
<stop offset="1" stop-color="#975AE7"/>
</linearGradient>
<linearGradient id="paint18_linear_96_1963" x1="505.806" y1="345.483" x2="505.806" y2="357.275" gradientUnits="userSpaceOnUse">
<stop offset="0.1" stop-color="#FFEB69"/>
<stop offset="0.21" stop-color="#F8E270"/>
<stop offset="0.4" stop-color="#E7CA85"/>
<stop offset="0.63" stop-color="#CCA4A6"/>
<stop offset="0.9" stop-color="#A66FD4"/>
<stop offset="1" stop-color="#975AE7"/>
</linearGradient>
<radialGradient id="paint19_radial_96_1963" cx="0" cy="0" r="1" gradientUnits="userSpaceOnUse" gradientTransform="translate(489.346 282.755) rotate(71.4191) scale(52.4044 41.2513)">
<stop stop-color="#FFEB69"/>
<stop offset="0.13" stop-color="#F8E270"/>
<stop offset="0.33" stop-color="#E7CA85"/>
<stop offset="0.59" stop-color="#CCA4A6"/>
<stop offset="0.89" stop-color="#A66FD4"/>
<stop offset="1" stop-color="#975AE7"/>
</radialGradient>
<linearGradient id="paint20_linear_96_1963" x1="491.459" y1="341.707" x2="491.459" y2="272.357" gradientUnits="userSpaceOnUse">
<stop stop-color="#FFEB69" stop-opacity="0"/>
<stop offset="0.09" stop-color="#FBE56D" stop-opacity="0.04"/>
<stop offset="0.24" stop-color="#F0D67A" stop-opacity="0.14"/>
<stop offset="0.42" stop-color="#DFBE8F" stop-opacity="0.31"/>
<stop offset="0.64" stop-color="#C69CAD" stop-opacity="0.54"/>
<stop offset="0.87" stop-color="#A872D1" stop-opacity="0.83"/>
<stop offset="1" stop-color="#975AE7"/>
</linearGradient>
<linearGradient id="paint21_linear_96_1963" x1="520.079" y1="341.674" x2="520.079" y2="272.157" gradientUnits="userSpaceOnUse">
<stop stop-color="#FFEB69" stop-opacity="0"/>
<stop offset="0.09" stop-color="#FBE56D" stop-opacity="0.04"/>
<stop offset="0.24" stop-color="#F0D67A" stop-opacity="0.14"/>
<stop offset="0.42" stop-color="#DFBE8F" stop-opacity="0.31"/>
<stop offset="0.64" stop-color="#C69CAD" stop-opacity="0.54"/>
<stop offset="0.87" stop-color="#A872D1" stop-opacity="0.83"/>
<stop offset="1" stop-color="#975AE7"/>
</linearGradient>
<linearGradient id="paint22_linear_96_1963" x1="513.893" y1="341.34" x2="513.893" y2="272.123" gradientUnits="userSpaceOnUse">
<stop stop-color="#FFEB69" stop-opacity="0"/>
<stop offset="0.09" stop-color="#FBE56D" stop-opacity="0.04"/>
<stop offset="0.24" stop-color="#F0D67A" stop-opacity="0.14"/>
<stop offset="0.42" stop-color="#DFBE8F" stop-opacity="0.31"/>
<stop offset="0.64" stop-color="#C69CAD" stop-opacity="0.54"/>
<stop offset="0.87" stop-color="#A872D1" stop-opacity="0.83"/>
<stop offset="1" stop-color="#975AE7"/>
</linearGradient>
<linearGradient id="paint23_linear_96_1963" x1="497.646" y1="341.34" x2="497.646" y2="272.123" gradientUnits="userSpaceOnUse">
<stop stop-color="#FFEB69" stop-opacity="0"/>
<stop offset="0.09" stop-color="#FBE56D" stop-opacity="0.04"/>
<stop offset="0.24" stop-color="#F0D67A" stop-opacity="0.14"/>
<stop offset="0.42" stop-color="#DFBE8F" stop-opacity="0.31"/>
<stop offset="0.64" stop-color="#C69CAD" stop-opacity="0.54"/>
<stop offset="0.87" stop-color="#A872D1" stop-opacity="0.83"/>
<stop offset="1" stop-color="#975AE7"/>
</linearGradient>
<linearGradient id="paint24_linear_96_1963" x1="505.732" y1="340.371" x2="505.732" y2="273.994" gradientUnits="userSpaceOnUse">
<stop stop-color="#FFEB69" stop-opacity="0"/>
<stop offset="0.09" stop-color="#FBE56D" stop-opacity="0.04"/>
<stop offset="0.24" stop-color="#F0D67A" stop-opacity="0.14"/>
<stop offset="0.42" stop-color="#DFBE8F" stop-opacity="0.31"/>
<stop offset="0.64" stop-color="#C69CAD" stop-opacity="0.54"/>
<stop offset="0.87" stop-color="#A872D1" stop-opacity="0.83"/>
<stop offset="1" stop-color="#975AE7"/>
</linearGradient>
<linearGradient id="paint25_linear_96_1963" x1="114.182" y1="485.887" x2="122.362" y2="327.341" gradientUnits="userSpaceOnUse">
<stop offset="0.01" stop-color="#01F0FF" stop-opacity="0"/>
<stop offset="0.97" stop-color="white"/>
</linearGradient>
<linearGradient id="paint26_linear_96_1963" x1="1036.47" y1="444.831" x2="1026.73" y2="255.632" gradientUnits="userSpaceOnUse">
<stop offset="0.01" stop-color="#01F0FF" stop-opacity="0"/>
<stop offset="0.97" stop-color="white"/>
</linearGradient>
<linearGradient id="paint27_linear_96_1963" x1="-68.382" y1="330.216" x2="385.812" y2="330.216" gradientUnits="userSpaceOnUse">
<stop offset="0.01" stop-color="#01F0FF" stop-opacity="0"/>
<stop offset="0.98" stop-color="white"/>
</linearGradient>
<linearGradient id="paint28_linear_96_1963" x1="1230.96" y1="480.91" x2="776.728" y2="480.91" gradientUnits="userSpaceOnUse">
<stop offset="0.01" stop-color="#01F0FF" stop-opacity="0"/>
<stop offset="0.97" stop-color="white"/>
</linearGradient>
<linearGradient id="paint29_linear_96_1963" x1="383.799" y1="536.163" x2="838.03" y2="536.163" gradientUnits="userSpaceOnUse">
<stop offset="0.01" stop-color="#01F0FF" stop-opacity="0"/>
<stop offset="0.97" stop-color="white"/>
</linearGradient>
<linearGradient id="paint30_linear_96_1963" x1="1167.91" y1="782.43" x2="1000.46" y2="396.569" gradientUnits="userSpaceOnUse">
<stop offset="0.31" stop-color="#662D91" stop-opacity="0.9"/>
<stop offset="0.97" stop-color="#1B1464"/>
</linearGradient>
<linearGradient id="paint31_linear_96_1963" x1="9.72632" y1="130.082" x2="17.6679" y2="-12.8682" gradientUnits="userSpaceOnUse">
<stop offset="0.12" stop-color="#01F0FF" stop-opacity="0"/>
<stop offset="0.97" stop-color="white"/>
</linearGradient>
<linearGradient id="paint32_linear_96_1963" x1="350.893" y1="775.415" x2="348.018" y2="441.284" gradientUnits="userSpaceOnUse">
<stop offset="0.31" stop-color="#662D91" stop-opacity="0.9"/>
<stop offset="0.97" stop-color="#1B1464"/>
</linearGradient>
<linearGradient id="paint33_linear_96_1963" x1="417.648" y1="318.931" x2="418.068" y2="265.648" gradientUnits="userSpaceOnUse">
<stop offset="0.1" stop-color="#FFEB69"/>
<stop offset="0.21" stop-color="#F8E270"/>
<stop offset="0.4" stop-color="#E7CA85"/>
<stop offset="0.63" stop-color="#CCA4A6"/>
<stop offset="0.9" stop-color="#A66FD4"/>
<stop offset="1" stop-color="#975AE7"/>
</linearGradient>
<linearGradient id="paint34_linear_96_1963" x1="372.545" y1="318.09" x2="372.964" y2="265.308" gradientUnits="userSpaceOnUse">
<stop offset="0.1" stop-color="#FFEB69"/>
<stop offset="0.21" stop-color="#F8E270"/>
<stop offset="0.4" stop-color="#E7CA85"/>
<stop offset="0.63" stop-color="#CCA4A6"/>
<stop offset="0.9" stop-color="#A66FD4"/>
<stop offset="1" stop-color="#975AE7"/>
</linearGradient>
<linearGradient id="paint35_linear_96_1963" x1="395.426" y1="283.481" x2="395.426" y2="323.735" gradientUnits="userSpaceOnUse">
<stop offset="0.1" stop-color="#FFEB69"/>
<stop offset="0.21" stop-color="#F8E270"/>
<stop offset="0.4" stop-color="#E7CA85"/>
<stop offset="0.63" stop-color="#CCA4A6"/>
<stop offset="0.9" stop-color="#A66FD4"/>
<stop offset="1" stop-color="#975AE7"/>
</linearGradient>
<radialGradient id="paint36_radial_96_1963" cx="0" cy="0" r="1" gradientUnits="userSpaceOnUse" gradientTransform="translate(341.504 68.7029) rotate(71.4191) scale(178.776 140.727)">
<stop stop-color="#FFEB69"/>
<stop offset="0.13" stop-color="#F8E270"/>
<stop offset="0.33" stop-color="#E7CA85"/>
<stop offset="0.59" stop-color="#CCA4A6"/>
<stop offset="0.89" stop-color="#A66FD4"/>
<stop offset="1" stop-color="#975AE7"/>
</radialGradient>
<linearGradient id="paint37_linear_96_1963" x1="346.496" y1="270.654" x2="346.496" y2="33.9411" gradientUnits="userSpaceOnUse">
<stop stop-color="#FFEB69" stop-opacity="0"/>
<stop offset="0.09" stop-color="#FBE56D" stop-opacity="0.04"/>
<stop offset="0.24" stop-color="#F0D67A" stop-opacity="0.14"/>
<stop offset="0.42" stop-color="#DFBE8F" stop-opacity="0.31"/>
<stop offset="0.64" stop-color="#C69CAD" stop-opacity="0.54"/>
<stop offset="0.87" stop-color="#A872D1" stop-opacity="0.83"/>
<stop offset="1" stop-color="#975AE7"/>
</linearGradient>
<linearGradient id="paint38_linear_96_1963" x1="444.17" y1="270.52" x2="444.17" y2="33.3057" gradientUnits="userSpaceOnUse">
<stop stop-color="#FFEB69" stop-opacity="0"/>
<stop offset="0.09" stop-color="#FBE56D" stop-opacity="0.04"/>
<stop offset="0.24" stop-color="#F0D67A" stop-opacity="0.14"/>
<stop offset="0.42" stop-color="#DFBE8F" stop-opacity="0.31"/>
<stop offset="0.64" stop-color="#C69CAD" stop-opacity="0.54"/>
<stop offset="0.87" stop-color="#A872D1" stop-opacity="0.83"/>
<stop offset="1" stop-color="#975AE7"/>
</linearGradient>
<linearGradient id="paint39_linear_96_1963" x1="423.114" y1="269.318" x2="423.114" y2="33.1726" gradientUnits="userSpaceOnUse">
<stop stop-color="#FFEB69" stop-opacity="0"/>
<stop offset="0.09" stop-color="#FBE56D" stop-opacity="0.04"/>
<stop offset="0.24" stop-color="#F0D67A" stop-opacity="0.14"/>
<stop offset="0.42" stop-color="#DFBE8F" stop-opacity="0.31"/>
<stop offset="0.64" stop-color="#C69CAD" stop-opacity="0.54"/>
<stop offset="0.87" stop-color="#A872D1" stop-opacity="0.83"/>
<stop offset="1" stop-color="#975AE7"/>
</linearGradient>
<linearGradient id="paint40_linear_96_1963" x1="367.477" y1="269.318" x2="367.477" y2="33.1728" gradientUnits="userSpaceOnUse">
<stop stop-color="#FFEB69" stop-opacity="0"/>
<stop offset="0.09" stop-color="#FBE56D" stop-opacity="0.04"/>
<stop offset="0.24" stop-color="#F0D67A" stop-opacity="0.14"/>
<stop offset="0.42" stop-color="#DFBE8F" stop-opacity="0.31"/>
<stop offset="0.64" stop-color="#C69CAD" stop-opacity="0.54"/>
<stop offset="0.87" stop-color="#A872D1" stop-opacity="0.83"/>
<stop offset="1" stop-color="#975AE7"/>
</linearGradient>
<linearGradient id="paint41_linear_96_1963" x1="395.203" y1="266.011" x2="395.203" y2="39.5195" gradientUnits="userSpaceOnUse">
<stop stop-color="#FFEB69" stop-opacity="0"/>
<stop offset="0.09" stop-color="#FBE56D" stop-opacity="0.04"/>
<stop offset="0.24" stop-color="#F0D67A" stop-opacity="0.14"/>
<stop offset="0.42" stop-color="#DFBE8F" stop-opacity="0.31"/>
<stop offset="0.64" stop-color="#C69CAD" stop-opacity="0.54"/>
<stop offset="0.87" stop-color="#A872D1" stop-opacity="0.83"/>
<stop offset="1" stop-color="#975AE7"/>
</linearGradient>
</defs>
</svg>
