<svg width="26" height="19" viewBox="0 0 26 19" fill="none" xmlns="http://www.w3.org/2000/svg">
<g clip-path="url(#clip0_15_375)">
<path d="M24.8339 3.53696C24.5498 2.47094 23.713 1.63151 22.6501 1.34662C20.724 0.828857 13 0.828857 13 0.828857C13 0.828857 5.27609 0.828857 3.34986 1.34662C2.28716 1.63151 1.45016 2.47094 1.16613 3.53696C0.649994 5.46901 0.649994 9.50009 0.649994 9.50009C0.649994 9.50009 0.649994 13.5312 1.16613 15.4634C1.45016 16.5293 2.28716 17.3687 3.34986 17.6537C5.27609 18.1714 13 18.1714 13 18.1714C13 18.1714 20.724 18.1714 22.6501 17.6537C23.713 17.3687 24.5498 16.5293 24.8339 15.4634C25.35 13.5312 25.35 9.50009 25.35 9.50009C25.35 9.50009 25.35 5.46901 24.8339 3.53696Z" fill="#ED1D24"/>
<path d="M10.4733 13.16L16.929 9.50023L10.4733 5.84009V13.16Z" fill="white"/>
</g>
<defs>
<clipPath id="clip0_15_375">
<rect width="26" height="19" fill="white"/>
</clipPath>
</defs>
</svg>
