<svg width="26" height="19" viewBox="0 0 26 19" fill="none" xmlns="http://www.w3.org/2000/svg">
<g clip-path="url(#clip0_96_3333)">
<path d="M24.8338 3.53696C24.5497 2.47094 23.7129 1.63151 22.65 1.34662C20.7239 0.828857 12.9999 0.828857 12.9999 0.828857C12.9999 0.828857 5.276 0.828857 3.34976 1.34662C2.28707 1.63151 1.45006 2.47094 1.16604 3.53696C0.649902 5.46901 0.649902 9.50009 0.649902 9.50009C0.649902 9.50009 0.649902 13.5312 1.16604 15.4634C1.45006 16.5293 2.28707 17.3687 3.34976 17.6537C5.276 18.1714 12.9999 18.1714 12.9999 18.1714C12.9999 18.1714 20.7239 18.1714 22.65 17.6537C23.7129 17.3687 24.5497 16.5293 24.8338 15.4634C25.3499 13.5312 25.3499 9.50009 25.3499 9.50009C25.3499 9.50009 25.3499 5.46901 24.8338 3.53696Z" fill="#ED1D24"/>
<path d="M10.4734 13.16L16.9291 9.50023L10.4734 5.84009V13.16Z" fill="white"/>
</g>
<defs>
<clipPath id="clip0_96_3333">
<rect width="26" height="19" fill="white"/>
</clipPath>
</defs>
</svg>
