<svg width="207" height="209" viewBox="0 0 207 209" fill="none" xmlns="http://www.w3.org/2000/svg">
<circle cx="103.5" cy="103.5" r="103.5" fill="#22303E"/>
<circle cx="103.5" cy="103.5" r="103" stroke="white" stroke-opacity="0.33"/>
<path d="M189.13 158.601L34.2518 156.367V178.705L36.2343 180.587C47.2328 191.026 60.7692 198.538 75.4372 202.385C80.7822 203.787 86.2731 204.701 91.7844 205.101L100.482 205.732C128.812 207.789 156.451 196.35 175.042 174.874L189.13 158.601Z" fill="white"/>
<path d="M105.734 23.8271C115.213 23.8271 124.304 27.5927 131.007 34.2954C137.709 40.9982 141.475 50.0891 141.475 59.5682C141.475 69.0473 137.709 78.1381 131.007 84.8409C124.304 91.5436 115.213 95.3092 105.734 95.3092C96.2548 95.3092 87.1639 91.5436 80.4612 84.8409C73.7584 78.1381 69.9929 69.0473 69.9929 59.5682C69.9929 50.0891 73.7584 40.9982 80.4612 34.2954C87.1639 27.5927 96.2548 23.8271 105.734 23.8271ZM105.734 113.18C145.228 113.18 177.216 129.174 177.216 148.921V166.791H34.2519V148.921C34.2519 129.174 66.2401 113.18 105.734 113.18Z" fill="white"/>
<circle cx="157.856" cy="171.259" r="35.741" fill="#975AE7"/>
<circle cx="157.856" cy="171.259" r="35.241" stroke="white" stroke-opacity="0.33"/>
<path d="M172.748 157.856H167.588L165.051 154.051C164.915 153.848 164.731 153.681 164.515 153.565C164.299 153.449 164.058 153.389 163.813 153.389H151.899C151.654 153.389 151.413 153.449 151.197 153.565C150.982 153.681 150.797 153.848 150.661 154.051L148.122 157.856H142.964C141.779 157.856 140.643 158.327 139.805 159.165C138.967 160.003 138.497 161.139 138.497 162.324V183.173C138.497 184.358 138.967 185.494 139.805 186.332C140.643 187.17 141.779 187.64 142.964 187.64H172.748C173.933 187.64 175.07 187.17 175.907 186.332C176.745 185.494 177.216 184.358 177.216 183.173V162.324C177.216 161.139 176.745 160.003 175.907 159.165C175.07 158.327 173.933 157.856 172.748 157.856ZM164.558 172.004C164.558 173.329 164.165 174.625 163.428 175.727C162.692 176.829 161.645 177.688 160.421 178.195C159.196 178.702 157.849 178.835 156.549 178.576C155.249 178.318 154.055 177.68 153.118 176.742C152.18 175.805 151.542 174.611 151.284 173.311C151.025 172.011 151.158 170.664 151.665 169.439C152.172 168.215 153.031 167.168 154.133 166.432C155.235 165.695 156.531 165.302 157.856 165.302C159.634 165.302 161.338 166.008 162.595 167.265C163.852 168.522 164.558 170.226 164.558 172.004Z" fill="white"/>
</svg>
