<svg width="139" height="173" viewBox="0 0 139 173" fill="none" xmlns="http://www.w3.org/2000/svg">
<circle cx="69.5" cy="69.5" r="69.5" fill="#22303E"/>
<circle cx="69.5" cy="69.5" r="69" stroke="white" stroke-opacity="0.33"/>
<path d="M127 106.5L23 105V120L24.7163 121.479C56.2616 148.664 104.575 141.589 127 106.5Z" fill="white"/>
<path d="M71 16C77.3652 16 83.4697 18.5286 87.9706 23.0294C92.4714 27.5303 95 33.6348 95 40C95 46.3652 92.4714 52.4697 87.9706 56.9706C83.4697 61.4714 77.3652 64 71 64C64.6348 64 58.5303 61.4714 54.0294 56.9706C49.5286 52.4697 47 46.3652 47 40C47 33.6348 49.5286 27.5303 54.0294 23.0294C58.5303 18.5286 64.6348 16 71 16ZM71 76C97.52 76 119 86.74 119 100V112H23V100C23 86.74 44.48 76 71 76Z" fill="white"/>
<circle cx="106" cy="115" r="24" fill="#975AE7"/>
<circle cx="106" cy="115" r="23.5" stroke="white" stroke-opacity="0.33"/>
<path d="M116 106H112.535L110.831 103.445C110.74 103.308 110.616 103.196 110.471 103.118C110.326 103.041 110.164 103 110 103H102C101.836 103 101.674 103.041 101.529 103.118C101.384 103.196 101.26 103.308 101.169 103.445L99.4637 106H96C95.2044 106 94.4413 106.316 93.8787 106.879C93.3161 107.441 93 108.204 93 109V123C93 123.796 93.3161 124.559 93.8787 125.121C94.4413 125.684 95.2044 126 96 126H116C116.796 126 117.559 125.684 118.121 125.121C118.684 124.559 119 123.796 119 123V109C119 108.204 118.684 107.441 118.121 106.879C117.559 106.316 116.796 106 116 106ZM110.5 115.5C110.5 116.39 110.236 117.26 109.742 118C109.247 118.74 108.544 119.317 107.722 119.657C106.9 119.998 105.995 120.087 105.122 119.914C104.249 119.74 103.447 119.311 102.818 118.682C102.189 118.053 101.76 117.251 101.586 116.378C101.413 115.505 101.502 114.6 101.843 113.778C102.183 112.956 102.76 112.253 103.5 111.758C104.24 111.264 105.11 111 106 111C107.193 111 108.338 111.474 109.182 112.318C110.026 113.162 110.5 114.307 110.5 115.5Z" fill="white"/>
</svg>
