<svg width="1300" height="715" viewBox="0 0 1300 715" fill="none" xmlns="http://www.w3.org/2000/svg">
<g filter="url(#filter0_d_23_2205)">
<rect width="1292" height="707" rx="50" transform="matrix(-1 0 0 1 1296 0)" fill="#2C3E50"/>
</g>
<mask id="mask0_23_2205" style="mask-type:luminance" maskUnits="userSpaceOnUse" x="4" y="0" width="1292" height="707">
<path d="M1246 0H54C26.3858 0 4 22.3858 4 50V657C4 684.614 26.3858 707 54 707H1246C1273.61 707 1296 684.614 1296 657V50C1296 22.3858 1273.61 0 1246 0Z" fill="white"/>
</mask>
<g mask="url(#mask0_23_2205)">
<path d="M1246.89 0H39.4661C11.8518 0 -10.5339 22.3858 -10.5339 50V657C-10.5339 684.614 11.8518 707 39.466 707H1246.89C1274.51 707 1296.89 684.614 1296.89 657V50C1296.89 22.3858 1274.51 0 1246.89 0Z" fill="url(#paint0_linear_23_2205)"/>
<path d="M946.411 122.566C946.411 122.547 946.426 122.532 946.445 122.532H951.517C968.286 122.532 985.093 122.666 1001.86 122.666H1403.21C1414.39 122.666 1425.91 123.334 1437.09 122.666C1458.15 121.366 1479.04 120.604 1500.19 121.824C1501.17 121.881 1502.02 121.137 1502.06 120.156V120.156C1502.11 119.219 1502.88 118.49 1503.82 118.49H1630.74C1653.44 118.49 1677.3 102.975 1673.86 80.5388C1673.76 79.8596 1673.64 79.1812 1673.5 78.5036C1670.86 65.2081 1661.69 52.2467 1647.53 47.6367C1633.37 43.0267 1614.81 49.6744 1611.27 62.8029C1610.67 64.9743 1610.6 67.5465 1612.35 69.15C1615.11 71.6888 1619.99 69.9183 1622.75 67.4129C1629.64 61.0992 1631.24 50.9772 1627.89 42.6592C1624.53 34.3412 1616.75 27.8604 1607.8 24.0856C1587.68 15.6673 1558.87 22.3819 1550.38 42.0913C1549.26 44.6636 1548.55 47.4362 1549.18 50.1421C1549.78 52.8146 1551.98 55.3534 1554.96 55.9213C1558.2 56.556 1561.56 54.7187 1563.34 52.1799C1565.1 49.6744 1565.58 46.6011 1565.8 43.628C1567.37 20.745 1554.14 -2.07113 1533.64 -15.7341C1513.11 -29.3971 1486.06 -34.2409 1460.79 -30.6999C1425.95 -25.8226 1394.49 -6.34707 1374.71 19.5424C1370.72 24.7537 1367.4 30.2991 1364.9 36.2119C1358.98 50.1421 1357.86 65.9764 1363.67 79.9401C1364.9 82.9132 1367.74 86.2872 1371.05 85.3184C1373.89 84.4832 1374.48 81.1761 1374.44 78.5036C1374.3 71.1543 1372.92 63.8719 1370.35 56.8901C1368.18 51.0107 1364.61 46.5343 1360.73 41.5234C1340.5 15.3333 1303.6 4.27597 1270.14 15.7007C1238.09 26.6578 1218.08 55.6206 1213.31 85.1848C1212.94 87.3895 1212.71 89.7614 1213.79 91.7657C1214.91 93.7701 1217.85 95.0729 1219.98 93.8703C1221.95 92.7345 1222.07 90.2624 1221.84 88.1913C1219.87 68.7491 1206.86 50.6766 1187.3 41.8575C1158.34 28.7624 1125.77 38.7507 1102.33 56.3222C1092.01 64.0723 1083.36 73.6598 1077.36 84.4832C1075.95 87.0221 1074.64 89.8282 1075.02 92.6343C1075.39 95.4403 1078.07 98.2464 1081.24 97.9458C1084.22 97.6785 1086.19 95.0061 1087.09 92.4338C1095.1 69.8515 1064.25 57.9257 1044.08 57.6584C1019.41 57.3243 988.112 73.0251 985.354 97.0438C984.832 101.654 986.062 107.132 990.683 109.237C994.894 111.174 1000.48 109.137 1002.83 105.462C1005.18 101.787 1004.66 97.0104 1002.42 93.269C999.478 88.3917 994.372 84.8173 988.447 83.4811C983.267 82.3119 977.714 82.5791 972.534 83.7149C962.92 85.8195 954.125 90.8972 947.976 97.879C942.787 103.771 939.35 110.995 938.381 118.447C938.085 120.725 939.968 122.599 942.265 122.599H946.378C946.396 122.599 946.411 122.584 946.411 122.566V122.566Z" fill="url(#paint1_linear_23_2205)"/>
<path d="M290.163 176.582C290.163 176.564 290.178 176.549 290.196 176.549H295.268C312.038 176.549 328.845 176.683 345.614 176.683H746.965C758.145 176.683 769.66 177.351 780.84 176.683C801.903 175.383 822.789 174.62 843.945 175.841C844.926 175.897 845.768 175.154 845.815 174.173V174.173C845.861 173.235 846.636 172.507 847.574 172.507H974.491C997.19 172.507 1021.06 156.992 1017.61 134.555C1017.51 133.876 1017.39 133.198 1017.25 132.52C1014.61 119.225 1005.44 106.263 991.279 101.653C977.118 97.0433 958.56 103.691 955.019 116.819C954.423 118.991 954.349 121.563 956.1 123.167C958.858 125.705 963.74 123.935 966.497 121.429C973.391 115.116 974.994 104.994 971.64 96.6758C968.249 88.3578 960.497 81.877 951.554 78.1022C931.43 69.6839 902.624 76.3985 894.127 96.1079C893.009 98.6802 892.301 101.453 892.935 104.159C893.531 106.831 895.73 109.37 898.711 109.938C901.953 110.573 905.307 108.735 907.096 106.196C908.847 103.691 909.332 100.618 909.555 97.6446C911.121 74.7616 897.891 51.9455 877.395 38.2825C856.862 24.6195 829.807 19.7757 804.541 23.3167C769.697 28.194 738.245 47.6695 718.457 73.559C714.47 78.7703 711.153 84.3157 708.656 90.2285C702.731 104.159 701.613 119.993 707.426 133.957C708.656 136.93 711.488 140.304 714.805 139.335C717.637 138.5 718.234 135.193 718.196 132.52C718.047 125.171 716.668 117.888 714.097 110.907C711.936 105.027 708.358 100.551 704.483 95.54C684.247 69.3499 647.354 58.2926 613.89 69.7173C581.841 80.6744 561.83 109.637 557.06 139.201C556.687 141.406 556.463 143.778 557.544 145.782C558.625 147.787 561.606 149.089 563.73 147.887C565.705 146.751 565.817 144.279 565.593 142.208C563.618 122.766 550.613 104.693 531.048 95.8741C502.093 82.779 469.523 92.7673 446.082 110.339C435.76 118.089 427.114 127.676 421.114 138.5C419.698 141.039 418.394 143.845 418.767 146.651C419.139 149.49 421.823 152.263 424.99 151.962C427.971 151.695 429.946 149.023 430.841 146.45C438.853 123.868 407.997 111.942 387.836 111.675C363.166 111.341 331.863 127.042 329.106 151.06C328.584 155.67 329.814 161.149 334.435 163.254C338.646 165.191 344.235 163.153 346.583 159.479C348.931 155.804 348.409 151.027 346.173 147.286C343.229 142.408 338.124 138.834 332.199 137.498C327.019 136.328 321.466 136.596 316.286 137.732C306.672 139.836 297.877 144.914 291.728 151.896C286.539 157.788 283.102 165.012 282.133 172.464C281.836 174.742 283.72 176.616 286.017 176.616H290.13C290.148 176.616 290.163 176.601 290.163 176.582V176.582Z" fill="url(#paint2_linear_23_2205)"/>
<path d="M821.048 190.85C821.037 190.869 821.058 190.891 821.078 190.881C826.456 188.23 835.943 190.947 841.881 190.947H1101.32C1130.91 190.947 1160.28 189.945 1189.76 189.945H1302.93C1314.89 189.945 1319.33 177.518 1319.48 168.699C1319.7 155.604 1310.83 145.081 1297.38 140.104C1276.44 132.32 1242.45 143.11 1241 166.093C1240.88 167.697 1241.33 169.735 1243.08 170.069C1244.83 170.436 1246.21 168.699 1246.88 167.196C1251.36 156.873 1247.55 144.313 1238.39 136.863C1229.22 129.414 1215.51 127.109 1203.69 130.349C1192.66 133.389 1182.68 142.375 1183.53 152.698C1183.72 155.07 1184.58 157.542 1186.59 159.078C1188.6 160.615 1191.99 160.849 1193.78 159.078C1194.67 158.21 1195.05 157.04 1195.35 155.905C1199.93 138.6 1192.36 119.459 1177.46 107.734C1162.55 96.0081 1141.16 91.6653 1121.78 95.4402C1102.41 99.215 1085.3 110.64 1074.57 125.572C1066.03 137.465 1061.38 152.397 1065.85 165.96C1066.18 167.029 1066.7 168.165 1067.86 168.632C1070.21 169.534 1072.18 166.494 1071.92 164.223C1071.66 161.951 1071.14 160.214 1071.74 157.976C1072.26 156.072 1072.78 155.437 1072.18 153.299C1071.1 149.257 1068.64 145.449 1065.74 142.242C1060 135.895 1051.8 131.285 1043.15 128.779C1028.73 124.637 1012.26 126.341 999.925 134.458C996.161 136.93 994.148 139.803 991.204 142.876C984.795 149.524 980.509 157.207 980.137 166.127C980.025 168.9 980.77 172.307 983.677 173.209C985.391 173.743 987.329 173.175 988.67 172.04C989.975 170.937 990.72 169.367 991.13 167.797C993.105 160.181 987.701 152.263 980.36 147.987C960.758 136.563 933.368 138.634 915.816 152.297C910.599 156.372 906.462 161.985 905.903 168.165C905.642 170.737 906.76 174.077 909.63 174.278C911.642 174.445 913.431 172.741 913.729 170.937C914.027 169.133 913.245 167.329 912.239 165.726C907.17 157.642 895.879 153.165 885.817 155.203C875.755 157.241 867.706 165.659 866.998 174.879C866.923 175.815 866.924 176.783 867.408 177.618C867.855 178.454 868.936 179.088 869.942 178.854C871.843 178.454 871.656 175.881 870.687 174.378C866.849 168.465 858.203 166.127 850.713 167.363C843.223 168.599 836.738 172.741 831.074 177.318C828.54 179.389 826.043 181.627 824.217 184.266C822.839 186.27 822.689 189.141 821.052 190.845C821.05 190.846 821.049 190.848 821.048 190.85V190.85Z" fill="url(#paint3_linear_23_2205)"/>
<path d="M846.354 237.117C846.365 237.137 846.344 237.159 846.324 237.149C840.946 234.498 831.459 237.215 825.521 237.215H566.077C536.489 237.215 507.123 236.213 477.646 236.213H364.47C352.508 236.213 348.073 223.786 347.924 214.967C347.701 201.872 356.57 191.349 370.023 186.371C390.966 178.588 424.952 189.378 426.406 212.361C426.518 213.964 426.07 216.002 424.319 216.336C422.567 216.704 421.189 214.967 420.518 213.463C416.046 203.141 419.847 190.58 429.014 183.131C438.182 175.681 451.895 173.376 463.709 176.617C474.739 179.657 484.726 188.643 483.869 198.965C483.683 201.337 482.826 203.809 480.814 205.346C478.801 206.882 475.41 207.116 473.621 205.346C472.727 204.477 472.354 203.308 472.056 202.172C467.472 184.868 475.037 165.727 489.944 154.001C504.85 142.276 526.24 137.933 545.619 141.708C564.997 145.483 582.102 156.907 592.834 171.84C601.368 183.732 606.026 198.665 601.554 212.227C601.219 213.296 600.697 214.432 599.542 214.9C597.194 215.802 595.219 212.762 595.48 210.49C595.741 208.219 596.263 206.482 595.666 204.243C595.145 202.339 594.623 201.705 595.219 199.567C596.3 195.524 598.759 191.716 601.666 188.509C607.405 182.162 615.603 177.552 624.249 175.047C638.671 170.904 655.142 172.608 667.477 180.726C671.241 183.198 673.253 186.071 676.197 189.144C682.607 195.792 686.893 203.475 687.265 212.394C687.377 215.167 686.632 218.574 683.725 219.476C682.011 220.011 680.073 219.443 678.731 218.307C677.427 217.205 676.682 215.635 676.272 214.065C674.297 206.448 679.7 198.531 687.042 194.255C706.643 182.83 734.034 184.901 751.586 198.564C756.803 202.64 760.939 208.252 761.498 214.432C761.759 217.004 760.641 220.345 757.772 220.545C755.76 220.712 753.971 219.009 753.673 217.205C753.337 215.401 754.157 213.597 755.163 211.994C760.231 203.909 771.523 199.433 781.585 201.471C791.646 203.508 799.696 211.927 800.404 221.147C800.478 222.082 800.478 223.051 799.994 223.886C799.547 224.721 798.466 225.356 797.46 225.122C795.559 224.721 795.746 222.149 796.714 220.646C800.553 214.733 809.198 212.394 816.689 213.63C824.179 214.866 830.664 219.009 836.328 223.585C838.862 225.656 841.359 227.895 843.185 230.534C844.563 232.537 844.713 235.409 846.35 237.113C846.352 237.114 846.353 237.116 846.354 237.117V237.117Z" fill="url(#paint4_linear_23_2205)"/>
<path d="M337.043 237.128C337.043 237.153 337.018 237.169 336.996 237.158C331.621 234.492 322.119 237.215 316.174 237.215H56.731C27.1421 237.215 -2.22321 236.213 -31.7003 236.213H-144.839C-156.801 236.213 -161.236 223.786 -161.385 214.967C-161.608 201.872 -152.739 191.349 -139.286 186.371C-118.343 178.588 -84.3567 189.378 -82.9033 212.361C-82.7915 213.964 -83.2387 216.002 -84.9902 216.336C-86.7417 216.704 -88.1205 214.967 -88.7913 213.463C-93.2632 203.141 -89.4621 190.58 -80.2947 183.131C-71.1274 175.681 -57.4136 173.376 -45.6004 176.617C-34.5698 179.657 -24.5826 188.643 -25.4397 198.965C-25.626 201.337 -26.4832 203.809 -28.4955 205.346C-30.5078 206.882 -33.899 207.116 -35.6878 205.346C-36.5821 204.477 -36.9548 203.308 -37.2529 202.172C-41.8366 184.868 -34.2717 165.727 -19.3654 154.001C-4.45915 142.276 16.9313 137.933 36.3095 141.708C55.6876 145.483 72.7925 156.907 83.525 171.84C92.0589 183.732 96.7171 198.665 92.2452 212.227C91.9098 213.296 91.3881 214.432 90.2329 214.9C87.8851 215.802 85.91 212.762 86.1709 210.49C86.4318 208.219 86.9535 206.482 86.3572 204.243C85.8355 202.339 85.3138 201.705 85.91 199.567C86.9907 195.524 89.4503 191.716 92.357 188.509C98.0959 182.162 106.294 177.552 114.94 175.047C129.362 170.904 145.833 172.608 158.168 180.726C161.932 183.198 163.944 186.071 166.888 189.144C173.298 195.792 177.584 203.475 177.956 212.394C178.068 215.167 177.323 218.574 174.416 219.476C172.702 220.011 170.764 219.443 169.422 218.307C168.118 217.205 167.373 215.635 166.963 214.065C164.988 206.448 170.391 198.531 177.733 194.255C197.334 182.83 224.725 184.901 242.277 198.564C247.494 202.64 251.63 208.252 252.189 214.432C252.45 217.004 251.332 220.345 248.463 220.545C246.45 220.712 244.662 219.009 244.364 217.205C244.065 215.401 244.848 213.597 245.854 211.994C250.922 203.909 262.214 199.433 272.276 201.471C282.337 203.508 290.387 211.927 291.095 221.147C291.169 222.082 291.169 223.051 290.685 223.886C290.238 224.721 289.157 225.356 288.151 225.122C286.25 224.721 286.437 222.149 287.405 220.646C291.244 214.733 299.889 212.394 307.38 213.63C314.87 214.866 321.354 219.009 327.019 223.585C329.553 225.656 332.05 227.895 333.876 230.534C335.252 232.534 335.403 235.4 337.034 237.105C337.04 237.111 337.043 237.119 337.043 237.128V237.128Z" fill="url(#paint5_linear_23_2205)"/>
<path d="M-3.45312 663.265C-3.45312 663.267 -3.45036 663.268 -3.44907 663.267L230.918 347.437C251.743 319.374 294.197 320.785 313.112 350.169L391.138 471.376C410.431 501.346 453.991 502.082 474.285 472.779L568.88 336.19C587.578 309.191 626.718 307.33 648.404 331.993C656.966 341.73 663.634 349.082 664.459 349.325C666.048 349.799 732.408 254.873 779.203 187.59C800.262 157.311 845.729 159.419 863.895 191.517L1053.29 526.175L1117.34 630.874C1137.72 664.191 1113.75 706.967 1074.69 706.967H6.95656C5.24898 706.967 3.79016 705.736 3.50325 704.052L-3.44866 663.265C-3.44912 663.262 -3.45312 663.263 -3.45312 663.265V663.265Z" fill="url(#paint6_linear_23_2205)"/>
<path d="M1063.19 322.071L1058.91 349.071C1058.83 349.588 1059.18 350.061 1059.7 350.128C1060.22 350.194 1060.71 349.828 1060.79 349.311L1065.07 322.311C1065.15 321.794 1064.8 321.321 1064.28 321.255C1063.76 321.188 1063.27 321.554 1063.19 322.071Z" fill="url(#paint7_linear_23_2205)"/>
<path d="M1032.87 349.185C1032.54 349.065 1032.31 348.78 1032.26 348.441L1028.21 322.708C1028.13 322.174 1028.51 321.676 1029.04 321.61V321.61C1029.55 321.547 1030.02 321.902 1030.1 322.411L1034.14 348.145C1034.26 348.866 1033.55 349.441 1032.87 349.185V349.185Z" fill="url(#paint8_linear_23_2205)"/>
<path d="M1054.74 362.453H1038.53C1036.3 362.453 1034.36 360.983 1034.02 358.978V358.978C1032.99 352.789 1037.76 347.153 1044.04 347.153H1049.2C1055.48 347.153 1060.25 352.789 1059.21 358.978V358.978C1058.88 360.983 1056.98 362.453 1054.71 362.453H1054.74Z" fill="url(#paint9_linear_23_2205)"/>
<path d="M1046.51 172.14C1010.47 172.574 981.44 198.864 981.44 231.268C981.44 242.192 984.757 252.414 990.496 261.166C998.313 274.986 1009.87 293.508 1018.09 306.477C1024.27 316.211 1035.02 322.031 1046.54 322.031V322.031C1058.07 322.031 1068.82 316.211 1074.99 306.477C1083.22 293.508 1094.77 274.986 1102.59 261.166C1108.33 252.38 1111.65 242.192 1111.65 231.268C1111.65 198.864 1082.58 172.574 1046.58 172.14H1046.51Z" fill="url(#paint10_radial_23_2205)"/>
<mask id="mask1_23_2205" style="mask-type:luminance" maskUnits="userSpaceOnUse" x="981" y="172" width="131" height="151">
<path d="M1046.51 172.14C1010.47 172.574 981.44 198.864 981.44 231.268C981.44 242.192 984.757 252.414 990.496 261.166C998.313 274.986 1009.87 293.508 1018.09 306.477C1024.27 316.211 1035.02 322.031 1046.54 322.031V322.031C1058.07 322.031 1068.82 316.211 1074.99 306.477C1083.22 293.508 1094.77 274.986 1102.59 261.166C1108.33 252.38 1111.65 242.192 1111.65 231.268C1111.65 198.864 1082.58 172.574 1046.58 172.14H1046.51Z" fill="white"/>
</mask>
<g mask="url(#mask1_23_2205)">
<path d="M1033.05 168.19C1033.05 168.18 1033.04 168.174 1033.03 168.181C1026.93 173.12 1021.2 178.093 1016.69 183.799C1012.07 189.411 1008.61 195.591 1006.26 202.005C1001.68 214.833 1001.19 228.73 1003.69 242.125C1004.92 248.673 1007.12 255.388 1009.72 262.035C1012.26 268.683 1015.2 275.331 1018.15 281.979V281.979C1021.76 289.669 1014.24 294.468 1009.72 287.27C1009.45 286.832 1009.18 286.393 1008.9 285.954C1004.81 279.573 1001.23 272.859 998.06 265.944C994.856 259.029 992.247 251.813 990.719 244.063L990.197 241.157L989.937 238.284L989.452 232.538C989.303 230.634 989.527 228.663 989.527 226.759C989.638 224.821 989.527 222.884 989.899 220.98C990.794 213.263 993.104 205.613 996.793 198.564C1000.41 191.482 1005.7 185.135 1011.92 179.991C1018.22 174.881 1025.45 170.907 1033.04 168.201C1033.05 168.2 1033.05 168.195 1033.05 168.19V168.19Z" fill="url(#paint11_linear_23_2205)"/>
<path d="M1056.86 167.764C1056.87 167.764 1056.87 167.764 1056.87 167.764C1064.54 170.437 1071.88 174.211 1078.41 179.188C1084.85 184.166 1090.44 190.313 1094.43 197.294C1095.55 198.998 1096.4 200.802 1097.22 202.606C1098.04 204.443 1098.98 206.247 1099.46 208.151L1101.21 213.83L1102.26 219.643C1102.4 220.612 1102.63 221.58 1102.7 222.549L1102.85 225.455L1103.11 231.301C1102.78 235.177 1102.67 239.018 1101.99 242.893C1100.65 250.744 1098.04 257.993 1094.99 265.008C1091.93 272.023 1088.43 278.771 1084.44 285.285C1084.18 285.721 1083.92 286.156 1083.66 286.591C1079.26 293.868 1071.64 289.202 1075.13 281.444V281.444C1078 274.696 1080.86 268.014 1083.25 261.266C1085.71 254.552 1087.95 247.771 1088.99 241.156C1089.62 237.849 1089.73 234.341 1090.14 230.967V225.89C1090.18 224.186 1090.14 222.482 1089.88 220.812C1089.55 213.997 1087.61 207.483 1085.11 201.069C1082.43 194.756 1078.67 188.642 1073.75 183.164C1068.98 177.527 1063.07 172.689 1056.86 167.786C1056.85 167.778 1056.85 167.764 1056.86 167.764V167.764Z" fill="url(#paint12_linear_23_2205)"/>
<path d="M1061 185.102C1059.18 181.229 1062.85 177.805 1065.6 181.088C1065.93 181.488 1066.26 181.891 1066.59 182.295C1071.14 188.141 1074.83 194.622 1077.47 201.437C1080.23 208.218 1081.95 215.367 1082.73 222.583C1083.03 226.224 1083.32 229.765 1083.1 233.54C1083.1 235.444 1082.91 237.281 1082.62 239.052C1082.36 240.856 1082.21 242.693 1081.83 244.43C1079.15 258.527 1074.42 271.856 1068.64 284.784C1068.49 285.126 1068.34 285.467 1068.19 285.807C1064.59 293.89 1056.43 290.449 1058.88 281.945V281.945C1062.57 268.716 1066.37 255.554 1068.87 242.559C1071.36 229.899 1070.62 216.837 1067.67 203.976C1066.07 197.595 1063.98 191.215 1061 185.102V185.102Z" fill="url(#paint13_linear_23_2205)"/>
<path d="M1027.46 181.022C1030.25 177.7 1033.89 181.139 1032.05 185.068V185.068C1029.07 191.181 1026.98 197.528 1025.41 203.909C1022.51 216.77 1021.76 229.865 1024.26 242.526C1026.72 255.521 1030.52 268.683 1034.25 281.911V281.911C1036.69 290.423 1028.53 293.863 1024.92 285.777C1024.78 285.446 1024.63 285.115 1024.48 284.784C1018.71 271.89 1014.01 258.527 1011.29 244.43C1010.92 242.693 1010.77 240.822 1010.51 239.052C1010.21 237.281 1010.06 235.444 1010.02 233.54C1009.8 229.765 1010.1 226.191 1010.4 222.583C1011.14 215.367 1012.86 208.218 1015.58 201.404C1018.22 194.589 1021.87 188.108 1026.46 182.229C1026.79 181.825 1027.12 181.422 1027.46 181.022Z" fill="url(#paint14_linear_23_2205)"/>
<path d="M1046.47 167.263C1046.49 167.263 1046.51 167.278 1046.51 167.299C1049.23 180.182 1050.64 193.064 1051.61 205.947C1052.65 218.841 1053.06 231.736 1053.06 244.63C1053.06 257.525 1052.65 270.42 1051.61 283.314V283.314C1050.94 292.247 1042 292.247 1041.33 283.314V283.314C1040.28 270.42 1039.91 257.525 1039.87 244.63C1039.87 231.736 1040.28 218.841 1041.33 205.947C1042.29 193.064 1043.71 180.182 1046.42 167.299C1046.43 167.278 1046.45 167.263 1046.47 167.263V167.263Z" fill="url(#paint15_linear_23_2205)"/>
</g>
<g opacity="0.51">
<path d="M516.969 340.388L515.131 351.983C515.095 352.206 515.248 352.41 515.472 352.438C515.697 352.467 515.907 352.309 515.942 352.086L517.781 340.492C517.816 340.269 517.663 340.064 517.439 340.036C517.215 340.007 517.005 340.165 516.969 340.388Z" fill="url(#paint16_linear_23_2205)"/>
<path d="M503.885 351.981C503.745 351.928 503.643 351.804 503.62 351.655L501.898 340.659C501.862 340.428 502.024 340.213 502.256 340.185V340.185C502.477 340.158 502.679 340.311 502.714 340.531L504.442 351.527C504.491 351.841 504.184 352.092 503.885 351.981V351.981Z" fill="url(#paint17_linear_23_2205)"/>
<path d="M513.272 357.676H506.303C505.335 357.676 504.515 357.041 504.366 356.172V356.172C503.917 353.516 505.964 351.095 508.658 351.095H510.843C513.537 351.095 515.584 353.516 515.135 356.172V356.172C514.986 357.041 514.167 357.676 513.198 357.676H513.272Z" fill="url(#paint18_linear_23_2205)"/>
<path d="M509.732 276.065C494.267 276.266 481.82 287.524 481.82 301.42C481.82 306.097 483.236 310.473 485.695 314.248C489.039 320.183 493.996 328.14 497.526 333.707C500.17 337.878 504.774 340.372 509.713 340.372V340.372C514.652 340.372 519.256 337.878 521.901 333.707C525.43 328.14 530.388 320.183 533.731 314.248C536.19 310.473 537.607 306.097 537.607 301.42C537.607 287.524 525.16 276.266 509.695 276.065H509.732Z" fill="url(#paint19_radial_23_2205)"/>
<mask id="mask2_23_2205" style="mask-type:luminance" maskUnits="userSpaceOnUse" x="481" y="276" width="57" height="65">
<path d="M509.732 276.065C494.267 276.266 481.82 287.524 481.82 301.42C481.82 306.097 483.236 310.473 485.695 314.248C489.039 320.183 493.996 328.14 497.526 333.707C500.17 337.878 504.774 340.372 509.713 340.372V340.372C514.652 340.372 519.256 337.878 521.901 333.707C525.43 328.14 530.388 320.183 533.731 314.248C536.19 310.473 537.607 306.097 537.607 301.42C537.607 287.524 525.16 276.266 509.695 276.065H509.732Z" fill="white"/>
</mask>
<g mask="url(#mask2_23_2205)">
<path d="M489.444 285.624C491.266 282.694 493.654 285.602 492.515 288.859V288.859C490.54 294.371 490.317 300.318 491.397 306.063C491.882 308.869 492.851 311.742 493.969 314.582C495.012 317.455 496.317 320.261 497.584 323.134V323.134C499.132 326.427 495.908 328.482 493.967 325.404C493.855 325.226 493.744 325.049 493.633 324.871C490.242 319.325 487.224 313.546 485.845 306.899C484.69 300.384 485.249 293.469 488.453 287.39C488.757 286.786 489.088 286.197 489.444 285.624Z" fill="url(#paint20_linear_23_2205)"/>
<path d="M514.202 274.194C514.195 274.194 514.194 274.204 514.2 274.206C520.746 276.447 526.843 280.819 530.266 286.855C533.806 292.835 534.588 299.917 533.508 306.431C532.203 313.112 529.297 318.991 525.98 324.604C525.867 324.792 525.754 324.98 525.64 325.168C523.755 328.279 520.501 326.285 521.993 322.967V322.967C523.222 320.06 524.489 317.221 525.496 314.315C526.576 311.442 527.545 308.535 527.955 305.696V305.696C528.476 302.828 528.74 299.834 528.365 296.944V296.944C528.29 294.004 527.359 291.231 526.315 288.492C524.08 282.981 519.608 278.271 514.206 274.196C514.205 274.195 514.203 274.194 514.202 274.194V274.194Z" fill="url(#paint21_linear_23_2205)"/>
<path d="M511.185 274.055C511.185 274.043 511.199 274.035 511.209 274.041C516.861 277.35 520.729 282.855 523.036 288.626C525.346 294.438 526.054 300.886 524.899 307.066C523.707 313.112 521.732 318.824 519.235 324.37C519.169 324.519 519.102 324.668 519.035 324.817C517.484 328.281 514.002 326.812 515.061 323.167V323.167C516.663 317.488 518.34 311.876 519.347 306.264C520.464 300.819 520.092 295.207 518.825 289.728C517.446 284.285 515.174 278.841 511.189 274.065C511.187 274.062 511.185 274.059 511.185 274.055V274.055Z" fill="url(#paint22_linear_23_2205)"/>
<path d="M508.37 274.042C508.361 274.034 508.347 274.035 508.34 274.044C504.361 278.817 502.054 284.222 500.714 289.695C499.447 295.207 499.112 300.819 500.23 306.264C501.236 311.843 502.913 317.488 504.515 323.167V323.167C505.568 326.814 502.092 328.281 500.541 324.817C500.474 324.668 500.408 324.519 500.342 324.37C497.882 318.824 495.907 313.112 494.677 307.066C493.559 300.852 494.23 294.438 496.54 288.626C498.81 282.855 502.715 277.351 508.366 274.075C508.378 274.068 508.38 274.051 508.37 274.042V274.042Z" fill="url(#paint23_linear_23_2205)"/>
<path d="M507.533 290.597C507.816 286.773 511.648 286.773 511.931 290.597V290.597C512.378 296.142 512.49 301.654 512.564 307.199C512.527 312.745 512.378 318.257 511.931 323.802V323.802C511.652 327.577 507.813 327.577 507.533 323.802V323.802C507.086 318.257 506.975 312.745 506.9 307.199C506.975 301.654 507.086 296.142 507.533 290.597V290.597Z" fill="url(#paint24_linear_23_2205)"/>
</g>
</g>
<path d="M342.055 466.913C342.064 466.928 342.053 466.946 342.036 466.946H339.018C335.143 466.812 330.894 467.313 326.944 467.313H-61.9655C-75.3166 467.313 -88.2995 462.15 -97.3769 452.36C-106.794 442.204 -115.238 431.478 -120.206 419.076C-122.517 413.263 -123.747 407.384 -124.604 401.304C-125.349 396.092 -123.411 390.647 -121.697 385.67C-118.008 374.98 -112.082 364.858 -103.809 356.44C-92.1081 344.547 -75.5249 336.296 -57.9355 335.093C-35.8369 333.59 -14.0738 343.244 1.3169 357.542C16.6703 371.84 26.2849 390.38 33.03 409.288C35.564 416.37 37.7627 424.153 35.8249 431.569C35.0423 434.609 33.4026 437.516 30.8313 439.587C28.409 441.524 24.8688 442.627 21.9248 441.391C18.5336 439.988 17.3411 436.079 17.7511 432.739C20.2478 413.664 36.2721 396.226 55.762 388.944C81.6319 379.267 117.02 386.855 132.179 408.878C132.213 408.927 132.232 408.984 132.275 409.026V409.026C132.292 409.042 132.312 409.064 132.326 409.083C138.872 418.664 142.631 429.509 145.721 440.388C146.392 442.827 147.063 445.399 146.243 447.805C145.423 450.21 142.554 452.214 139.908 451.446C137.448 450.711 136.368 448.105 136.144 445.767C135.436 438.818 139.051 432.037 143.746 426.492C168.043 397.996 223.308 400.168 236.575 437.282C238.14 441.624 240.6 448.606 237.805 452.782C236.649 454.553 234.041 455.722 231.991 454.786C229.308 453.55 229.569 450.076 230.501 447.504C232.997 440.622 237.656 434.142 244.55 430.367C251.444 426.592 260.686 425.89 267.543 429.732C274.4 433.574 277.753 442.226 273.878 448.606C273.319 449.542 272.313 450.544 271.12 450.343C269.369 450.076 269.369 447.805 270.002 446.335C273.058 439.186 280.325 433.607 288.672 432.037C297.02 430.467 306.187 432.939 312.187 438.351C314.684 440.622 316.696 443.395 317.516 446.502C318.336 449.608 317.926 453.016 315.988 455.688C315.168 456.824 313.566 457.926 312.224 457.292C310.845 456.657 310.957 454.82 311.516 453.517C313.603 448.74 319.118 445.466 324.82 445.099C333.242 444.531 343.155 449.976 343.416 458.16C343.416 459.029 343.304 459.964 342.67 460.666C342.074 461.367 340.881 461.701 340.062 461.234C339.279 460.766 339.093 459.73 339.465 458.962C339.838 458.16 340.583 457.592 341.366 457.091C344.832 454.853 349.229 453.784 353.477 454.118C357.726 454.452 361.825 456.156 364.843 458.895C365.472 459.468 366.064 460.127 366.564 460.835C368.869 464.102 365.022 466.879 361.024 466.879H342.075C342.058 466.879 342.047 466.898 342.055 466.913V466.913Z" fill="url(#paint25_linear_23_2205)"/>
<path d="M744.673 419.56C744.664 419.584 744.682 419.61 744.708 419.61C846.91 419.71 949.149 419.81 1051.35 419.81H1273.86C1283.14 419.81 1292.05 421.614 1301.14 421.547C1314.74 421.447 1328.83 418.908 1342.36 417.639C1346.42 417.238 1350.67 416.804 1354.13 414.833C1361.33 410.757 1362.52 401.905 1362.82 394.288C1363.67 371.906 1363.15 349.157 1356.11 327.644C1349.1 306.164 1334.91 285.82 1313.51 274.261C1292.24 262.77 1265.44 260.999 1241.44 266.778C1217.44 272.558 1196.09 285.419 1178.43 301.086C1159.72 317.689 1144.29 338.568 1141.05 361.985C1140.6 365.326 1140.42 368.867 1142.02 371.906C1143.66 374.946 1147.65 377.218 1151.19 376.116C1155.55 374.779 1156.7 369.702 1156.48 365.559C1154.65 330.55 1117.76 313.446 1082.21 315.083C1038.12 317.121 1001.82 348.289 1000.86 388.71C1000.74 393.186 1002.72 399.166 1007.75 398.932C1013.08 398.698 1014.05 391.883 1012.71 387.24C1004.92 360.348 974.696 340.138 943.691 341.106C912.723 342.075 884.14 364.156 878.476 391.482C877.47 396.393 878.848 403.308 884.438 403.442C887.792 403.508 890.475 400.569 890.848 397.562C891.221 394.556 889.804 391.649 888.239 388.977C883.395 380.726 876.165 373.243 866.588 369.668C857.011 366.094 844.862 367.163 837.595 373.811V373.811C829.43 381.356 832.035 381.855 822.145 376.777C817.977 374.636 813.307 373.326 808.491 373.143C793.51 372.575 778.976 382.964 776.219 396.159C775.66 398.765 775.623 401.671 777.411 403.742C779.2 405.847 783.374 406.281 784.864 404.009C786.541 401.437 783.635 398.431 780.877 396.76C773.051 392.084 762.84 389.244 754.232 392.651V392.651C747.964 395.133 733.634 401.294 726.991 402.439V402.439C723.071 403.1 719.513 405.009 716.803 407.633C711.461 412.807 717.483 419.51 724.92 419.51C731.495 419.51 738.074 419.51 744.639 419.51C744.665 419.51 744.682 419.536 744.673 419.56V419.56Z" fill="url(#paint26_linear_23_2205)"/>
<path d="M-64.382 375.782L362 375.123C373.056 375.106 376.085 364.47 365.032 364.708V364.708C357.234 364.876 348.138 361.821 341.954 357.068C338.961 354.769 335.497 352.963 331.752 351.83C328.066 350.715 324.161 350.106 320.289 350.101C313.069 350.092 304.67 344.778 299.964 339.303V339.303C296.461 335.227 290.871 332.455 285.17 332.755C279.468 333.056 273.17 335.394 272.201 340.439C272.909 336.664 267.878 330.885 265.195 328.446C261.655 325.172 257.332 323.068 252.413 321.865C250.845 321.483 249.258 321.214 247.661 321.049C234.394 319.678 196.781 307.899 186.863 298.982V298.982C175.199 288.493 158.243 283.415 141.846 284.851C124.182 286.388 109.462 295.775 98.9906 308.235C92.9535 315.418 88.2581 323.502 84.8669 331.954C82.1465 338.768 80.2087 346.017 81.1403 353.2C81.4385 355.404 81.9974 357.609 83.4881 359.38C84.9414 361.15 87.4755 362.353 89.8605 361.919C92.5063 361.417 94.2951 359.112 94.7795 356.741C96.4192 348.757 90.1959 339.804 83.5253 334.993C76.184 329.682 66.5695 326.876 57.104 327.511C49.5018 328.012 42.1232 330.784 36.2352 335.094C30.6081 339.203 24.5711 345.683 22.5215 351.997C20.77 357.375 22.3351 363.99 27.6269 366.996C29.8628 368.266 33.254 368.6 34.8191 366.729C36.347 364.892 35.1918 362.253 33.962 360.248C33.3285 359.213 32.695 358.177 32.0242 357.141C29.3038 352.866 26.3971 348.69 23.4531 344.547C8.02514 323.134 -16.2348 308.035 -44.2213 302.456V302.456C-50.5318 301.199 -56.2639 306.402 -55.9468 312.829C-55.3325 325.279 -55.9482 337.986 -55.2892 350.293C-54.7688 359.824 -56.2508 369.62 -64.3963 375.737C-64.4154 375.751 -64.4058 375.782 -64.382 375.782V375.782Z" fill="url(#paint27_linear_23_2205)"/>
<path d="M1234.96 526.508L808.576 525.85C797.521 525.833 794.492 515.196 805.545 515.435V515.435C813.342 515.603 822.439 512.547 828.623 507.795C831.616 505.495 835.079 503.69 838.825 502.557C842.511 501.441 846.416 500.833 850.288 500.828C857.508 500.818 865.906 495.505 870.612 490.029V490.029C874.115 485.954 879.705 483.181 885.407 483.482C891.109 483.782 897.407 486.121 898.375 491.165C897.667 487.39 902.698 481.611 905.381 479.172C908.922 475.899 913.244 473.794 918.163 472.592C919.731 472.21 921.319 471.94 922.916 471.775C936.183 470.405 973.795 458.626 983.714 449.709V449.709C995.378 439.219 1012.33 434.141 1028.73 435.578C1046.39 437.115 1061.11 446.502 1071.59 458.962C1077.62 466.144 1082.32 474.228 1085.71 482.68C1088.43 489.495 1090.37 496.744 1089.44 503.926C1089.14 506.131 1088.58 508.336 1087.13 510.106C1085.67 511.877 1083.14 513.079 1080.75 512.645C1078.11 512.144 1076.32 509.839 1075.83 507.467C1074.19 499.483 1080.42 490.53 1087.09 485.72C1094.43 480.408 1104.04 477.602 1113.51 478.237C1121.11 478.738 1128.49 481.511 1134.38 485.82C1140.01 489.929 1146.04 496.41 1148.09 502.724C1149.84 508.102 1148.28 514.716 1142.99 517.723C1140.75 518.992 1137.36 519.326 1135.79 517.455C1134.27 515.618 1135.42 512.979 1136.65 510.975C1137.29 509.939 1137.92 508.904 1138.59 507.868C1141.31 503.592 1144.22 499.416 1147.16 495.274C1162.59 473.861 1186.85 458.762 1214.84 453.183V453.183C1221.15 451.926 1226.88 457.129 1226.56 463.555C1225.95 476.006 1226.56 488.712 1225.9 501.02C1225.38 510.539 1226.86 520.323 1234.98 526.441C1235.01 526.462 1234.99 526.508 1234.96 526.508V526.508Z" fill="url(#paint28_linear_23_2205)"/>
<path d="M387.796 581.763C387.798 581.762 387.8 581.762 387.802 581.762L814.182 581.103C825.237 581.086 828.266 570.45 817.213 570.688V570.688C809.415 570.856 800.319 567.801 794.135 563.048C791.142 560.749 787.678 558.943 783.933 557.81C780.247 556.694 776.342 556.086 772.47 556.081C765.25 556.072 756.852 550.758 752.145 545.283V545.283C748.642 541.207 743.052 538.435 737.351 538.735C731.649 539.036 725.351 541.374 724.382 546.419C725.09 542.644 720.06 536.864 717.376 534.426C713.836 531.152 709.513 529.048 704.594 527.845C703.026 527.463 701.439 527.194 699.842 527.029C686.575 525.658 648.962 513.879 639.044 504.962V504.962C627.38 494.473 610.424 489.395 594.027 490.831C576.363 492.368 561.643 501.755 551.172 514.215C545.135 521.398 540.439 529.482 537.048 537.967C534.328 544.782 532.39 552.031 533.321 559.213C533.62 561.384 534.179 563.623 535.632 565.393C537.085 567.164 539.619 568.366 542.004 567.932C544.65 567.431 546.439 565.126 546.923 562.754C548.563 554.77 542.34 545.817 535.669 541.007C528.328 535.695 518.713 532.889 509.248 533.524C501.646 534.025 494.267 536.798 488.379 541.107C482.752 545.216 476.715 551.697 474.665 558.01C472.914 563.389 474.479 570.003 479.771 573.01C482.007 574.279 485.398 574.613 486.963 572.742C488.491 570.905 487.336 568.266 486.106 566.262C485.472 565.226 484.839 564.19 484.168 563.155C481.448 558.879 478.541 554.703 475.597 550.561C460.169 529.148 435.909 514.048 407.923 508.47V508.47C401.612 507.213 395.88 512.415 396.197 518.842C396.811 531.293 396.196 543.999 396.855 556.307C397.374 565.825 395.897 575.609 387.779 581.726C387.761 581.74 387.775 581.769 387.796 581.763V581.763Z" fill="url(#paint29_linear_23_2205)"/>
<path d="M949.315 707C909.57 707 885.713 662.869 907.482 629.615L1050.01 411.881C1067.7 384.868 1105.96 381.446 1128.16 404.894L1171.53 450.712C1184.31 464.216 1206.4 462.034 1216.29 446.291V446.291C1227.91 427.807 1255.15 428.747 1265.47 447.987L1358.6 621.705C1362.49 628.971 1364.53 637.086 1364.53 645.33V657C1364.53 684.614 1342.15 707 1314.53 707H949.315Z" fill="url(#paint30_linear_23_2205)"/>
<path d="M-211.805 107.433L214.577 106.775C225.633 106.758 228.661 96.1211 217.608 96.3594V96.3594C209.811 96.5274 200.715 93.472 194.53 88.7198C191.537 86.4201 188.074 84.6149 184.328 83.4813C180.653 82.35 176.743 81.7395 172.863 81.7385C165.643 81.7367 157.247 76.4297 152.541 70.9542V70.9542C149.038 66.8787 143.448 64.106 137.746 64.4066C132.045 64.7073 125.747 67.0457 124.778 72.09C125.486 68.3151 120.455 62.5359 117.772 60.0973C114.232 56.8235 109.909 54.719 104.99 53.5163C103.422 53.1349 101.834 52.865 100.238 52.7001C86.9706 51.3299 49.3579 39.5507 39.4396 30.6334V30.6334C27.7755 20.144 10.8196 15.0663 -5.57727 16.5027C-23.2412 18.0394 -37.9611 27.4264 -48.4328 39.8868C-54.4698 47.069 -59.1653 55.1532 -62.5564 63.6049C-65.2768 70.4197 -67.2147 77.6687 -66.283 84.851C-65.9849 87.0558 -65.4259 89.2605 -63.9353 91.031C-62.4819 92.8015 -59.9479 94.0042 -57.5629 93.5699C-54.917 93.0688 -53.1282 90.7638 -52.6438 88.392C-51.0041 80.408 -57.2275 71.4553 -63.898 66.6448C-71.2393 61.3333 -80.8539 58.5272 -90.3194 59.1619C-97.9215 59.663 -105.3 62.4357 -111.188 66.745C-116.815 70.8539 -122.852 77.3347 -124.902 83.6484C-126.653 89.0267 -125.088 95.641 -119.796 98.6476C-117.561 99.917 -114.169 100.251 -112.604 98.3803C-111.076 96.543 -112.232 93.9039 -113.461 91.8996C-114.095 90.864 -114.728 89.8284 -115.399 88.7929C-118.12 84.5169 -121.026 80.3412 -123.97 76.1989C-139.398 54.7858 -163.658 39.6864 -191.645 34.1076V34.1076C-197.955 32.8505 -203.687 38.0535 -203.37 44.4802C-202.756 56.9308 -203.372 69.6373 -202.713 81.9447C-202.192 91.4753 -203.674 101.272 -211.82 107.388C-211.839 107.403 -211.829 107.433 -211.805 107.433V107.433Z" fill="url(#paint31_linear_23_2205)"/>
<path d="M622.217 707.551C662.319 707.317 685.841 662.337 663.155 629.267L499.876 391.26C480.094 362.423 437.579 362.282 417.605 390.986L348.256 490.644C332.801 512.854 299.568 511.687 285.709 488.447V488.447C272.816 466.828 242.633 463.963 225.903 482.772L210.842 499.705C190.047 523.085 153.131 521.837 133.963 497.106L120.381 479.584C100.889 454.436 63.1763 453.65 42.6535 477.964L2.55154 525.475C-5.4839 534.995 -9.676 547.172 -9.20377 559.621L-5.28899 662.822C-4.2659 689.793 17.9777 711.084 44.9674 710.926L622.217 707.551Z" fill="url(#paint32_linear_23_2205)"/>
<path d="M423.691 266.023L417.425 305.536C417.305 306.296 417.826 306.992 418.59 307.089C419.354 307.187 420.072 306.649 420.192 305.888L426.458 266.375C426.578 265.615 426.057 264.919 425.293 264.822C424.528 264.724 423.811 265.262 423.691 266.023Z" fill="url(#paint33_linear_23_2205)"/>
<path d="M379.269 305.715C378.806 305.538 378.472 305.127 378.395 304.637L372.447 266.998C372.324 266.221 372.87 265.498 373.651 265.403V265.403C374.392 265.313 375.072 265.827 375.189 266.565L381.129 304.206C381.295 305.256 380.263 306.093 379.269 305.715V305.715Z" fill="url(#paint34_linear_23_2205)"/>
<path d="M411.276 325.172H387.538C384.221 325.172 381.426 323 380.942 320.094V320.094C379.44 311.052 386.414 302.823 395.58 302.823H403.234C412.401 302.823 419.375 311.052 417.872 320.094V320.094C417.388 323.034 414.593 325.172 411.276 325.172Z" fill="url(#paint35_linear_23_2205)"/>
<path d="M399.202 46.6348C346.471 47.2695 303.951 85.7529 303.951 133.156C303.951 149.124 308.796 164.089 317.218 176.917C328.642 197.165 345.56 224.288 357.605 243.269C366.639 257.503 382.355 266.011 399.213 266.011V266.011C416.08 266.011 431.803 257.494 440.836 243.251C452.874 224.271 469.781 197.158 481.224 176.917C489.646 164.089 494.49 149.124 494.49 133.156C494.49 85.7529 451.97 47.2695 399.239 46.6348H399.202Z" fill="url(#paint36_radial_23_2205)"/>
<mask id="mask3_23_2205" style="mask-type:luminance" maskUnits="userSpaceOnUse" x="303" y="46" width="192" height="221">
<path d="M399.202 46.6348C346.471 47.2695 303.951 85.7529 303.951 133.156C303.951 149.124 308.796 164.089 317.218 176.917C328.642 197.165 345.56 224.288 357.605 243.269C366.639 257.503 382.355 266.011 399.213 266.011V266.011C416.08 266.011 431.803 257.494 440.836 243.251C452.874 224.271 469.781 197.158 481.224 176.917C489.646 164.089 494.49 149.124 494.49 133.156C494.49 85.7529 451.97 47.2695 399.239 46.6348H399.202Z" fill="white"/>
</mask>
<g mask="url(#mask3_23_2205)">
<path d="M379.566 40.8182C379.564 40.8211 379.562 40.8238 379.56 40.8259C370.617 48.0739 362.234 55.3554 355.639 63.7056C348.857 71.8901 343.826 80.9764 340.435 90.3635C333.578 109.104 332.982 129.448 336.596 149.057C338.385 158.645 341.627 168.466 345.428 178.154C349.155 187.908 353.366 197.629 357.838 207.317V207.317C363.143 219.067 352.331 225.992 345.411 215.115C345.005 214.476 344.601 213.837 344.198 213.197C338.273 203.809 333.019 194.022 328.361 183.9C323.702 173.778 319.827 163.221 317.628 151.864L316.845 147.621L316.473 143.412L315.765 134.994C315.504 132.187 315.839 129.348 315.877 126.509C316.063 123.669 315.877 120.863 316.436 118.023L317.777 109.572C318.15 106.766 319.23 104.026 319.976 101.254L321.206 97.1114C321.69 95.7418 322.286 94.4055 322.845 93.0693C324.075 90.4303 324.932 87.691 326.497 85.1855C331.826 74.8298 339.577 65.5764 348.67 58.0266C357.894 50.5588 368.416 44.7545 379.534 40.7798C379.557 40.7715 379.578 40.7965 379.566 40.8182V40.8182Z" fill="url(#paint37_linear_23_2205)"/>
<path d="M414.44 40.2207C414.427 40.2207 414.423 40.2395 414.436 40.2439C425.629 44.1511 436.375 49.6889 445.896 56.9236C455.325 64.2395 463.523 73.1922 469.374 83.381C470.119 84.6504 470.939 85.8864 471.61 87.1892L473.436 91.1645C474.591 93.837 475.97 96.476 476.715 99.2821L479.286 107.6L480.814 116.085C481.038 117.522 481.373 118.925 481.485 120.361L481.671 124.637L482.044 133.222L481.373 141.707C481.075 144.547 481.075 147.353 480.404 150.193C479.808 152.999 479.361 155.905 478.578 158.644L476.231 166.829C474.293 172.107 472.467 177.452 470.156 182.529C465.684 192.785 460.504 202.673 454.766 212.227C454.384 212.86 454 213.491 453.615 214.121C446.88 225.134 435.942 218.402 441.052 206.548V206.548C445.337 196.727 449.474 186.905 453.014 177.017C456.592 167.196 459.871 157.275 461.436 147.62C462.07 145.248 462.07 142.676 462.368 140.204L463.113 132.721V125.272V121.53C463.039 120.294 462.852 119.058 462.74 117.856L461.995 110.473C461.436 108.068 460.952 105.629 460.43 103.224C460.057 100.752 459.051 98.447 458.343 96.0752L457.225 92.5008C456.815 91.3316 456.219 90.1958 455.735 89.0266C451.822 79.7397 446.344 70.8204 439.189 62.7696C432.221 54.5194 423.539 47.438 414.447 40.2233C414.445 40.2216 414.443 40.2207 414.44 40.2207V40.2207Z" fill="url(#paint38_linear_23_2205)"/>
<path d="M404.122 39.6808C404.122 39.6844 404.124 39.6878 404.127 39.6896C413.962 45.0679 421.749 53.0505 428.605 61.4673C435.387 69.9858 440.605 79.5064 444.592 89.4613C448.505 99.4163 451.114 109.872 452.194 120.429C452.641 125.74 453.089 130.951 452.753 136.463L452.567 140.572L452.045 144.547C451.673 147.153 451.449 149.859 450.89 152.431C446.977 173.076 439.971 192.552 431.661 211.493C431.441 211.987 431.219 212.48 430.997 212.973C425.684 224.764 413.758 219.729 417.276 207.284V207.284C422.829 187.975 428.27 168.7 431.922 149.659C433.673 140.071 434.456 131.219 434.046 121.531C433.748 112.01 432.332 102.556 430.096 93.1694C427.823 83.8158 424.655 74.529 420.407 65.5428C416.162 56.531 411.025 47.786 404.139 39.6743C404.133 39.6671 404.122 39.6714 404.122 39.6808V39.6808Z" fill="url(#paint39_linear_23_2205)"/>
<path d="M394.47 39.6749C394.47 39.6827 394.467 39.6902 394.462 39.6961C387.572 47.8111 382.32 56.5268 378.073 65.5096C373.788 74.4958 370.62 83.7492 368.421 93.1028C366.223 102.49 364.881 111.944 364.546 121.464C364.136 131.152 364.881 140.038 366.67 149.592C370.322 168.6 375.763 187.908 381.315 207.217V207.217C384.82 219.614 372.888 224.653 367.595 212.907C367.373 212.414 367.151 211.92 366.931 211.426C358.583 192.518 351.615 173.009 347.702 152.365C347.18 149.792 346.956 147.12 346.546 144.481L346.025 140.506L345.838 136.397C345.503 130.851 345.95 125.673 346.36 120.362C347.441 109.806 349.975 99.3497 353.888 89.3613C357.838 79.4064 363.092 69.8524 369.875 61.3339C376.72 52.9293 384.569 44.991 394.422 39.6463C394.444 39.6345 394.47 39.6502 394.47 39.6749V39.6749Z" fill="url(#paint40_linear_23_2205)"/>
<path d="M391.675 96.1423C392.703 83.1276 405.702 83.1276 406.73 96.1423V96.1423C408.146 115.017 408.78 133.891 408.817 152.765C408.817 171.639 408.184 190.514 406.768 209.388V209.388C405.736 222.452 392.669 222.452 391.638 209.388V209.388C390.222 190.514 389.588 171.639 389.588 152.765C389.588 133.891 390.259 115.017 391.675 96.1423V96.1423Z" fill="url(#paint41_linear_23_2205)"/>
</g>
<g filter="url(#filter1_d_23_2205)">
<path opacity="0.77" d="M338.124 293.904C335.739 293.904 335.739 297.211 338.124 297.211C340.509 297.211 340.509 293.904 338.124 293.904Z" fill="#F2F2F2"/>
<path opacity="0.77" d="M222.563 168.098C220.178 168.098 220.178 171.405 222.563 171.405C224.948 171.405 224.948 168.098 222.563 168.098Z" fill="#F2F2F2"/>
<path opacity="0.77" d="M272.648 66.9785C270.263 66.9785 270.263 70.2857 272.648 70.2857C275.033 70.2857 275.033 66.9785 272.648 66.9785Z" fill="#F2F2F2"/>
<path opacity="0.77" d="M163.684 25.5215C161.299 25.5215 161.299 28.8287 163.684 28.8287C166.069 28.8287 166.069 25.5215 163.684 25.5215Z" fill="#F2F2F2"/>
<path opacity="0.77" d="M63.5136 270.219C61.1286 270.219 61.1286 273.526 63.5136 273.526C65.8986 273.526 65.8986 270.219 63.5136 270.219Z" fill="#F2F2F2"/>
<path opacity="0.77" d="M136.144 157.241C133.759 157.241 133.759 160.548 136.144 160.548C138.529 160.548 138.529 157.241 136.144 157.241Z" fill="#F2F2F2"/>
<path opacity="0.77" d="M559.929 272.691C557.544 272.691 557.544 275.999 559.929 275.999C562.314 275.999 562.314 272.691 559.929 272.691Z" fill="#F2F2F2"/>
<path opacity="0.77" d="M654.584 284.049C652.199 284.049 652.199 287.356 654.584 287.356C656.969 287.356 656.969 284.049 654.584 284.049Z" fill="#F2F2F2"/>
<path opacity="0.77" d="M578.078 59.0615C575.693 59.0615 575.693 62.3687 578.078 62.3687C580.463 62.3687 580.463 59.0615 578.078 59.0615Z" fill="#F2F2F2"/>
<path opacity="0.77" d="M657.901 22.0811C655.516 22.0811 655.516 25.3882 657.901 25.3882C660.286 25.3882 660.286 22.0811 657.901 22.0811Z" fill="#F2F2F2"/>
<path opacity="0.77" d="M949.578 31.4346C947.193 31.4346 947.193 34.7417 949.578 34.7417C951.963 34.7417 951.963 31.4346 949.578 31.4346Z" fill="#F2F2F2"/>
<path opacity="0.77" d="M973.242 48.2041C970.857 48.2041 970.857 51.5113 973.242 51.5113C975.627 51.5113 975.627 48.2041 973.242 48.2041Z" fill="#F2F2F2"/>
<path opacity="0.77" d="M1000.74 24.0518C998.359 24.0518 998.359 27.3589 1000.74 27.3589C1003.13 27.3589 1003.13 24.0518 1000.74 24.0518Z" fill="#F2F2F2"/>
<path opacity="0.77" d="M1159.24 234.709C1156.85 234.709 1156.85 238.016 1159.24 238.016C1161.62 238.016 1161.62 234.709 1159.24 234.709Z" fill="#F2F2F2"/>
<path opacity="0.77" d="M1137.77 279.606C1135.39 279.606 1135.39 282.914 1137.77 282.914C1140.16 282.914 1140.16 279.606 1137.77 279.606Z" fill="#F2F2F2"/>
<path opacity="0.77" d="M1217.03 242.092C1214.65 242.092 1214.65 245.399 1217.03 245.399C1219.42 245.399 1219.42 242.092 1217.03 242.092Z" fill="#F2F2F2"/>
<path opacity="0.77" d="M947.902 221.38C945.517 221.38 945.517 224.687 947.902 224.687C950.287 224.687 950.287 221.38 947.902 221.38Z" fill="#F2F2F2"/>
<path opacity="0.77" d="M991.949 297.846C989.564 297.846 989.564 301.153 991.949 301.153C994.334 301.153 994.334 297.846 991.949 297.846Z" fill="#F2F2F2"/>
<path opacity="0.77" d="M960.013 281.076C957.628 281.076 957.628 284.383 960.013 284.383C962.398 284.383 962.398 281.076 960.013 281.076Z" fill="#F2F2F2"/>
<path opacity="0.77" d="M910.487 237.648C908.102 237.648 908.102 240.956 910.487 240.956C912.872 240.956 912.872 237.648 910.487 237.648Z" fill="#F2F2F2"/>
<path opacity="0.77" d="M541.78 319.059C539.395 319.059 539.395 322.366 541.78 322.366C544.165 322.366 544.165 319.059 541.78 319.059Z" fill="#F2F2F2"/>
<path opacity="0.77" d="M617.169 259.362C614.784 259.362 614.784 262.669 617.169 262.669C619.554 262.669 619.554 259.362 617.169 259.362Z" fill="#F2F2F2"/>
<path opacity="0.77" d="M487.82 251.979C485.435 251.979 485.435 255.287 487.82 255.287C490.205 255.287 490.205 251.979 487.82 251.979Z" fill="#F2F2F2"/>
<path opacity="0.77" d="M454.244 299.816C451.859 299.816 451.859 303.124 454.244 303.124C456.629 303.124 456.629 299.816 454.244 299.816Z" fill="#F2F2F2"/>
<path opacity="0.77" d="M279.244 252.447C276.859 252.447 276.859 255.754 279.244 255.754C281.629 255.754 281.629 252.447 279.244 252.447Z" fill="#F2F2F2"/>
<path opacity="0.77" d="M240.19 283.047C237.805 283.047 237.805 286.354 240.19 286.354C242.575 286.354 242.575 283.047 240.19 283.047Z" fill="#F2F2F2"/>
<path opacity="0.77" d="M149.373 255.922C146.988 255.922 146.988 259.229 149.373 259.229C151.758 259.229 151.758 255.922 149.373 255.922Z" fill="#F2F2F2"/>
<path opacity="0.77" d="M144.417 397.495C142.032 397.495 142.032 400.802 144.417 400.802C146.802 400.802 146.802 397.495 144.417 397.495Z" fill="#F2F2F2"/>
<path opacity="0.77" d="M52.5197 302.289C50.1347 302.289 50.1347 305.596 52.5197 305.596C54.9047 305.596 54.9047 302.289 52.5197 302.289Z" fill="#F2F2F2"/>
<path opacity="0.77" d="M25.5395 264.307C23.1545 264.307 23.1545 267.614 25.5395 267.614C27.9245 267.614 27.9245 264.307 25.5395 264.307Z" fill="#F2F2F2"/>
<path opacity="0.77" d="M176.353 139.97C173.968 139.97 173.968 143.277 176.353 143.277C178.738 143.277 178.738 139.97 176.353 139.97Z" fill="#F2F2F2"/>
<path opacity="0.77" d="M243.469 130.115C241.084 130.115 241.084 133.422 243.469 133.422C245.854 133.422 245.854 130.115 243.469 130.115Z" fill="#F2F2F2"/>
<path opacity="0.77" d="M215.408 54.1504C213.023 54.1504 213.023 57.4576 215.408 57.4576C217.793 57.4576 217.793 54.1504 215.408 54.1504Z" fill="#F2F2F2"/>
<path opacity="0.77" d="M404.717 22.5488C402.332 22.5488 402.332 25.856 404.717 25.856C407.102 25.856 407.102 22.5488 404.717 22.5488Z" fill="#F2F2F2"/>
<path opacity="0.77" d="M686.52 46.2334C684.135 46.2334 684.135 49.5406 686.52 49.5406C688.905 49.5406 688.905 46.2334 686.52 46.2334Z" fill="#F2F2F2"/>
<path opacity="0.77" d="M1262.16 209.054C1259.78 209.054 1259.78 212.361 1262.16 212.361C1264.55 212.361 1264.55 209.054 1262.16 209.054Z" fill="#F2F2F2"/>
<path opacity="0.77" d="M1257.39 225.99C1257.39 225.552 1257.2 225.114 1256.87 224.821V224.821C1256.72 224.654 1256.5 224.554 1256.27 224.487C1256.05 224.387 1255.83 224.32 1255.57 224.353C1255.42 224.353 1255.23 224.387 1255.08 224.42C1254.78 224.487 1254.49 224.654 1254.26 224.854V224.854C1254.04 225.053 1253.87 225.314 1253.78 225.595C1253.73 225.733 1253.7 225.874 1253.7 226.024V227.026V227.026C1253.7 227.464 1253.9 227.902 1254.22 228.195V228.195C1254.37 228.362 1254.6 228.462 1254.82 228.529C1255.04 228.629 1255.27 228.696 1255.53 228.663C1255.68 228.663 1255.86 228.629 1256.01 228.596C1256.31 228.529 1256.61 228.362 1256.83 228.162V228.162C1257.05 227.964 1257.22 227.702 1257.32 227.421C1257.36 227.284 1257.39 227.142 1257.39 226.992V225.99V225.99Z" fill="#F2F2F2"/>
<path opacity="0.77" d="M1147.12 215.968C1144.74 215.968 1144.74 219.275 1147.12 219.275C1149.51 219.275 1149.51 215.968 1147.12 215.968Z" fill="#F2F2F2"/>
<path opacity="0.77" d="M1197.77 230.767C1195.38 230.767 1195.38 234.074 1197.77 234.074C1200.15 234.074 1200.15 230.767 1197.77 230.767Z" fill="#F2F2F2"/>
<path opacity="0.77" d="M580.239 257.725C580.09 257.491 579.866 257.291 579.568 257.124C579.195 256.957 578.823 256.79 578.45 256.623C578.227 256.489 578.003 256.423 577.779 256.423C577.765 256.421 577.751 256.419 577.736 256.417C577.271 256.363 576.781 256.45 576.4 256.723V256.723C576.214 256.823 576.028 256.99 575.916 257.191V257.191C575.792 257.457 575.675 257.735 575.674 258.029C575.674 258.04 575.674 258.051 575.674 258.062C575.678 258.33 575.787 258.583 575.9 258.826L575.916 258.861C576.065 259.095 576.289 259.295 576.587 259.462C576.959 259.629 577.332 259.796 577.705 259.964C577.928 260.097 578.152 260.164 578.376 260.164C578.39 260.166 578.404 260.168 578.418 260.169C578.884 260.223 579.373 260.137 579.754 259.863V259.863C579.941 259.73 580.127 259.596 580.239 259.396V259.396C580.382 259.139 580.48 258.851 580.481 258.557C580.481 258.55 580.481 258.542 580.481 258.535C580.479 258.26 580.38 257.994 580.253 257.751C580.248 257.742 580.244 257.734 580.239 257.725Z" fill="#F2F2F2"/>
<path opacity="0.77" d="M526.352 382.195C523.967 382.195 523.967 385.502 526.352 385.502C528.737 385.502 528.737 382.195 526.352 382.195Z" fill="#F2F2F2"/>
<path opacity="0.77" d="M388.954 398.163C388.954 397.725 388.759 397.287 388.433 396.994V396.994C388.284 396.827 388.06 396.727 387.836 396.66C387.613 396.56 387.389 396.493 387.128 396.526C386.979 396.526 386.793 396.56 386.644 396.593C386.346 396.66 386.048 396.827 385.824 397.027V397.027C385.603 397.225 385.434 397.487 385.339 397.768C385.293 397.905 385.265 398.047 385.265 398.197V398.698V398.698C385.265 399.136 385.46 399.574 385.787 399.867V399.867C385.936 400.034 386.16 400.134 386.383 400.201C386.607 400.301 386.83 400.368 387.091 400.335C387.24 400.335 387.427 400.301 387.576 400.268C387.874 400.201 388.172 400.034 388.395 399.833V399.833C388.616 399.635 388.786 399.374 388.881 399.093C388.927 398.955 388.954 398.814 388.954 398.664V398.163V398.163Z" fill="#F2F2F2"/>
<path opacity="0.77" d="M403.078 355.571C400.693 355.571 400.693 358.878 403.078 358.878C405.463 358.878 405.463 355.571 403.078 355.571Z" fill="#F2F2F2"/>
<path opacity="0.77" d="M86.0961 121.73C83.7111 121.73 83.7111 125.038 86.0961 125.038C88.4811 125.038 88.4811 121.73 86.0961 121.73Z" fill="#F2F2F2"/>
<path opacity="0.77" d="M96.5307 136.529C94.1457 136.529 94.1457 139.836 96.5307 139.836C98.9157 139.836 98.9157 136.529 96.5307 136.529Z" fill="#F2F2F2"/>
<path opacity="0.77" d="M109.947 131.752C109.947 131.314 109.751 130.875 109.425 130.583V130.583C109.239 130.416 109.052 130.316 108.829 130.249C108.605 130.149 108.381 130.082 108.121 130.115C107.972 130.115 107.785 130.149 107.636 130.182C107.338 130.249 107.04 130.416 106.816 130.616V130.616C106.595 130.814 106.426 131.076 106.331 131.357C106.285 131.494 106.257 131.636 106.257 131.785V132.287V132.287C106.257 132.725 106.453 133.163 106.779 133.456V133.456C106.928 133.623 107.152 133.723 107.375 133.79C107.599 133.89 107.822 133.957 108.083 133.923C108.232 133.923 108.419 133.89 108.568 133.857C108.866 133.79 109.164 133.623 109.388 133.422V133.422C109.609 133.224 109.778 132.963 109.873 132.681C109.919 132.544 109.947 132.403 109.947 132.253V131.752V131.752Z" fill="#F2F2F2"/>
<path opacity="0.77" d="M292.473 261.333C290.088 261.333 290.088 264.64 292.473 264.64C294.858 264.64 294.858 261.333 292.473 261.333Z" fill="#F2F2F2"/>
<path opacity="0.77" d="M345.279 303.291C342.894 303.291 342.894 306.598 345.279 306.598C347.664 306.598 347.664 303.291 345.279 303.291Z" fill="#F2F2F2"/>
<path opacity="0.77" d="M553.855 262.837C551.47 262.837 551.47 266.144 553.855 266.144C556.24 266.144 556.24 262.837 553.855 262.837Z" fill="#F2F2F2"/>
</g>
</g>
<g filter="url(#filter2_d_23_2205)">
<path d="M1077 707L664.501 0H54C26.3858 0 4 22.3858 4 50V657C4 684.614 26.3858 707 54 707H1077Z" fill="#2C3E50"/>
</g>
<defs>
<filter id="filter0_d_23_2205" x="0" y="0" width="1300" height="715" filterUnits="userSpaceOnUse" color-interpolation-filters="sRGB">
<feFlood flood-opacity="0" result="BackgroundImageFix"/>
<feColorMatrix in="SourceAlpha" type="matrix" values="0 0 0 0 0 0 0 0 0 0 0 0 0 0 0 0 0 0 127 0" result="hardAlpha"/>
<feOffset dy="4"/>
<feGaussianBlur stdDeviation="2"/>
<feComposite in2="hardAlpha" operator="out"/>
<feColorMatrix type="matrix" values="0 0 0 0 0 0 0 0 0 0 0 0 0 0 0 0 0 0 0.25 0"/>
<feBlend mode="normal" in2="BackgroundImageFix" result="effect1_dropShadow_23_2205"/>
<feBlend mode="normal" in="SourceGraphic" in2="effect1_dropShadow_23_2205" result="shape"/>
</filter>
<filter id="filter1_d_23_2205" x="21.7507" y="20.0811" width="1244.2" height="382.721" filterUnits="userSpaceOnUse" color-interpolation-filters="sRGB">
<feFlood flood-opacity="0" result="BackgroundImageFix"/>
<feColorMatrix in="SourceAlpha" type="matrix" values="0 0 0 0 0 0 0 0 0 0 0 0 0 0 0 0 0 0 127 0" result="hardAlpha"/>
<feOffset/>
<feGaussianBlur stdDeviation="1"/>
<feColorMatrix type="matrix" values="0 0 0 0 1 0 0 0 0 1 0 0 0 0 1 0 0 0 0.9 0"/>
<feBlend mode="normal" in2="BackgroundImageFix" result="effect1_dropShadow_23_2205"/>
<feBlend mode="normal" in="SourceGraphic" in2="effect1_dropShadow_23_2205" result="shape"/>
</filter>
<filter id="filter2_d_23_2205" x="0" y="0" width="1081" height="715" filterUnits="userSpaceOnUse" color-interpolation-filters="sRGB">
<feFlood flood-opacity="0" result="BackgroundImageFix"/>
<feColorMatrix in="SourceAlpha" type="matrix" values="0 0 0 0 0 0 0 0 0 0 0 0 0 0 0 0 0 0 127 0" result="hardAlpha"/>
<feOffset dy="4"/>
<feGaussianBlur stdDeviation="2"/>
<feComposite in2="hardAlpha" operator="out"/>
<feColorMatrix type="matrix" values="0 0 0 0 0 0 0 0 0 0 0 0 0 0 0 0 0 0 0.25 0"/>
<feBlend mode="normal" in2="BackgroundImageFix" result="effect1_dropShadow_23_2205"/>
<feBlend mode="normal" in="SourceGraphic" in2="effect1_dropShadow_23_2205" result="shape"/>
</filter>
<linearGradient id="paint0_linear_23_2205" x1="643.18" y1="579.223" x2="643.18" y2="-26.2903" gradientUnits="userSpaceOnUse">
<stop stop-color="#975AE7"/>
<stop offset="0.44" stop-color="#662D91"/>
<stop offset="0.97" stop-color="#1B1464"/>
</linearGradient>
<linearGradient id="paint1_linear_23_2205" x1="1305.39" y1="152.264" x2="1308.03" y2="-15.7442" gradientUnits="userSpaceOnUse">
<stop offset="0.24" stop-color="#01F0FF" stop-opacity="0"/>
<stop offset="1" stop-color="white"/>
</linearGradient>
<linearGradient id="paint2_linear_23_2205" x1="652.721" y1="200.835" x2="642.952" y2="11.1347" gradientUnits="userSpaceOnUse">
<stop offset="0.09" stop-color="#01F0FF" stop-opacity="0"/>
<stop offset="0.97" stop-color="white"/>
</linearGradient>
<linearGradient id="paint3_linear_23_2205" x1="1072.07" y1="208.285" x2="1065.72" y2="84.6374" gradientUnits="userSpaceOnUse">
<stop offset="0.01" stop-color="#01F0FF" stop-opacity="0"/>
<stop offset="0.97" stop-color="white"/>
</linearGradient>
<linearGradient id="paint4_linear_23_2205" x1="595.294" y1="254.553" x2="601.646" y2="130.905" gradientUnits="userSpaceOnUse">
<stop offset="0.01" stop-color="#01F0FF" stop-opacity="0"/>
<stop offset="0.97" stop-color="white"/>
</linearGradient>
<linearGradient id="paint5_linear_23_2205" x1="85.9473" y1="254.553" x2="92.2999" y2="130.905" gradientUnits="userSpaceOnUse">
<stop offset="0.01" stop-color="#01F0FF" stop-opacity="0"/>
<stop offset="0.97" stop-color="white"/>
</linearGradient>
<linearGradient id="paint6_linear_23_2205" x1="580.239" y1="821.448" x2="580.239" y2="267.146" gradientUnits="userSpaceOnUse">
<stop offset="0.31" stop-color="#662D91" stop-opacity="0.9"/>
<stop offset="0.97" stop-color="#1B1464"/>
</linearGradient>
<linearGradient id="paint7_linear_23_2205" x1="1061.78" y1="358.259" x2="1062.08" y2="321.846" gradientUnits="userSpaceOnUse">
<stop offset="0.1" stop-color="#FFEB69"/>
<stop offset="0.21" stop-color="#F8E270"/>
<stop offset="0.4" stop-color="#E7CA85"/>
<stop offset="0.63" stop-color="#CCA4A6"/>
<stop offset="0.9" stop-color="#A66FD4"/>
<stop offset="1" stop-color="#975AE7"/>
</linearGradient>
<linearGradient id="paint8_linear_23_2205" x1="1031" y1="357.642" x2="1031.3" y2="321.563" gradientUnits="userSpaceOnUse">
<stop offset="0.1" stop-color="#FFEB69"/>
<stop offset="0.21" stop-color="#F8E270"/>
<stop offset="0.4" stop-color="#E7CA85"/>
<stop offset="0.63" stop-color="#CCA4A6"/>
<stop offset="0.9" stop-color="#A66FD4"/>
<stop offset="1" stop-color="#975AE7"/>
</linearGradient>
<linearGradient id="paint9_linear_23_2205" x1="1046.62" y1="333.958" x2="1046.62" y2="361.484" gradientUnits="userSpaceOnUse">
<stop offset="0.1" stop-color="#FFEB69"/>
<stop offset="0.21" stop-color="#F8E270"/>
<stop offset="0.4" stop-color="#E7CA85"/>
<stop offset="0.63" stop-color="#CCA4A6"/>
<stop offset="0.9" stop-color="#A66FD4"/>
<stop offset="1" stop-color="#975AE7"/>
</linearGradient>
<radialGradient id="paint10_radial_23_2205" cx="0" cy="0" r="1" gradientUnits="userSpaceOnUse" gradientTransform="translate(1009.46 187.327) rotate(71.4191) scale(122.153 96.1558)">
<stop stop-color="#FFEB69"/>
<stop offset="0.13" stop-color="#F8E270"/>
<stop offset="0.33" stop-color="#E7CA85"/>
<stop offset="0.59" stop-color="#CCA4A6"/>
<stop offset="0.89" stop-color="#A66FD4"/>
<stop offset="1" stop-color="#975AE7"/>
</radialGradient>
<linearGradient id="paint11_linear_23_2205" x1="1013.23" y1="325.206" x2="1013.23" y2="163.455" gradientUnits="userSpaceOnUse">
<stop stop-color="#FFEB69" stop-opacity="0"/>
<stop offset="0.09" stop-color="#FBE56D" stop-opacity="0.04"/>
<stop offset="0.24" stop-color="#F0D67A" stop-opacity="0.14"/>
<stop offset="0.42" stop-color="#DFBE8F" stop-opacity="0.31"/>
<stop offset="0.64" stop-color="#C69CAD" stop-opacity="0.54"/>
<stop offset="0.87" stop-color="#A872D1" stop-opacity="0.83"/>
<stop offset="1" stop-color="#975AE7"/>
</linearGradient>
<linearGradient id="paint12_linear_23_2205" x1="1079.97" y1="325.138" x2="1079.97" y2="163.02" gradientUnits="userSpaceOnUse">
<stop stop-color="#FFEB69" stop-opacity="0"/>
<stop offset="0.09" stop-color="#FBE56D" stop-opacity="0.04"/>
<stop offset="0.24" stop-color="#F0D67A" stop-opacity="0.14"/>
<stop offset="0.42" stop-color="#DFBE8F" stop-opacity="0.31"/>
<stop offset="0.64" stop-color="#C69CAD" stop-opacity="0.54"/>
<stop offset="0.87" stop-color="#A872D1" stop-opacity="0.83"/>
<stop offset="1" stop-color="#975AE7"/>
</linearGradient>
<linearGradient id="paint13_linear_23_2205" x1="1065.55" y1="324.303" x2="1065.55" y2="162.92" gradientUnits="userSpaceOnUse">
<stop stop-color="#FFEB69" stop-opacity="0"/>
<stop offset="0.09" stop-color="#FBE56D" stop-opacity="0.04"/>
<stop offset="0.24" stop-color="#F0D67A" stop-opacity="0.14"/>
<stop offset="0.42" stop-color="#DFBE8F" stop-opacity="0.31"/>
<stop offset="0.64" stop-color="#C69CAD" stop-opacity="0.54"/>
<stop offset="0.87" stop-color="#A872D1" stop-opacity="0.83"/>
<stop offset="1" stop-color="#975AE7"/>
</linearGradient>
<linearGradient id="paint14_linear_23_2205" x1="1027.54" y1="324.303" x2="1027.54" y2="162.92" gradientUnits="userSpaceOnUse">
<stop stop-color="#FFEB69" stop-opacity="0"/>
<stop offset="0.09" stop-color="#FBE56D" stop-opacity="0.04"/>
<stop offset="0.24" stop-color="#F0D67A" stop-opacity="0.14"/>
<stop offset="0.42" stop-color="#DFBE8F" stop-opacity="0.31"/>
<stop offset="0.64" stop-color="#C69CAD" stop-opacity="0.54"/>
<stop offset="0.87" stop-color="#A872D1" stop-opacity="0.83"/>
<stop offset="1" stop-color="#975AE7"/>
</linearGradient>
<linearGradient id="paint15_linear_23_2205" x1="1046.51" y1="322.065" x2="1046.51" y2="167.263" gradientUnits="userSpaceOnUse">
<stop stop-color="#FFEB69" stop-opacity="0"/>
<stop offset="0.09" stop-color="#FBE56D" stop-opacity="0.04"/>
<stop offset="0.24" stop-color="#F0D67A" stop-opacity="0.14"/>
<stop offset="0.42" stop-color="#DFBE8F" stop-opacity="0.31"/>
<stop offset="0.64" stop-color="#C69CAD" stop-opacity="0.54"/>
<stop offset="0.87" stop-color="#A872D1" stop-opacity="0.83"/>
<stop offset="1" stop-color="#975AE7"/>
</linearGradient>
<linearGradient id="paint16_linear_23_2205" x1="516.356" y1="355.856" x2="516.505" y2="340.255" gradientUnits="userSpaceOnUse">
<stop offset="0.1" stop-color="#FFEB69"/>
<stop offset="0.21" stop-color="#F8E270"/>
<stop offset="0.4" stop-color="#E7CA85"/>
<stop offset="0.63" stop-color="#CCA4A6"/>
<stop offset="0.9" stop-color="#A66FD4"/>
<stop offset="1" stop-color="#975AE7"/>
</linearGradient>
<linearGradient id="paint17_linear_23_2205" x1="503.099" y1="355.604" x2="503.219" y2="340.136" gradientUnits="userSpaceOnUse">
<stop offset="0.1" stop-color="#FFEB69"/>
<stop offset="0.21" stop-color="#F8E270"/>
<stop offset="0.4" stop-color="#E7CA85"/>
<stop offset="0.63" stop-color="#CCA4A6"/>
<stop offset="0.9" stop-color="#A66FD4"/>
<stop offset="1" stop-color="#975AE7"/>
</linearGradient>
<linearGradient id="paint18_linear_23_2205" x1="509.806" y1="345.483" x2="509.806" y2="357.275" gradientUnits="userSpaceOnUse">
<stop offset="0.1" stop-color="#FFEB69"/>
<stop offset="0.21" stop-color="#F8E270"/>
<stop offset="0.4" stop-color="#E7CA85"/>
<stop offset="0.63" stop-color="#CCA4A6"/>
<stop offset="0.9" stop-color="#A66FD4"/>
<stop offset="1" stop-color="#975AE7"/>
</linearGradient>
<radialGradient id="paint19_radial_23_2205" cx="0" cy="0" r="1" gradientUnits="userSpaceOnUse" gradientTransform="translate(493.346 282.755) rotate(71.4191) scale(52.4044 41.2513)">
<stop stop-color="#FFEB69"/>
<stop offset="0.13" stop-color="#F8E270"/>
<stop offset="0.33" stop-color="#E7CA85"/>
<stop offset="0.59" stop-color="#CCA4A6"/>
<stop offset="0.89" stop-color="#A66FD4"/>
<stop offset="1" stop-color="#975AE7"/>
</radialGradient>
<linearGradient id="paint20_linear_23_2205" x1="495.459" y1="341.707" x2="495.459" y2="272.357" gradientUnits="userSpaceOnUse">
<stop stop-color="#FFEB69" stop-opacity="0"/>
<stop offset="0.09" stop-color="#FBE56D" stop-opacity="0.04"/>
<stop offset="0.24" stop-color="#F0D67A" stop-opacity="0.14"/>
<stop offset="0.42" stop-color="#DFBE8F" stop-opacity="0.31"/>
<stop offset="0.64" stop-color="#C69CAD" stop-opacity="0.54"/>
<stop offset="0.87" stop-color="#A872D1" stop-opacity="0.83"/>
<stop offset="1" stop-color="#975AE7"/>
</linearGradient>
<linearGradient id="paint21_linear_23_2205" x1="524.079" y1="341.674" x2="524.079" y2="272.157" gradientUnits="userSpaceOnUse">
<stop stop-color="#FFEB69" stop-opacity="0"/>
<stop offset="0.09" stop-color="#FBE56D" stop-opacity="0.04"/>
<stop offset="0.24" stop-color="#F0D67A" stop-opacity="0.14"/>
<stop offset="0.42" stop-color="#DFBE8F" stop-opacity="0.31"/>
<stop offset="0.64" stop-color="#C69CAD" stop-opacity="0.54"/>
<stop offset="0.87" stop-color="#A872D1" stop-opacity="0.83"/>
<stop offset="1" stop-color="#975AE7"/>
</linearGradient>
<linearGradient id="paint22_linear_23_2205" x1="517.893" y1="341.34" x2="517.893" y2="272.123" gradientUnits="userSpaceOnUse">
<stop stop-color="#FFEB69" stop-opacity="0"/>
<stop offset="0.09" stop-color="#FBE56D" stop-opacity="0.04"/>
<stop offset="0.24" stop-color="#F0D67A" stop-opacity="0.14"/>
<stop offset="0.42" stop-color="#DFBE8F" stop-opacity="0.31"/>
<stop offset="0.64" stop-color="#C69CAD" stop-opacity="0.54"/>
<stop offset="0.87" stop-color="#A872D1" stop-opacity="0.83"/>
<stop offset="1" stop-color="#975AE7"/>
</linearGradient>
<linearGradient id="paint23_linear_23_2205" x1="501.646" y1="341.34" x2="501.646" y2="272.123" gradientUnits="userSpaceOnUse">
<stop stop-color="#FFEB69" stop-opacity="0"/>
<stop offset="0.09" stop-color="#FBE56D" stop-opacity="0.04"/>
<stop offset="0.24" stop-color="#F0D67A" stop-opacity="0.14"/>
<stop offset="0.42" stop-color="#DFBE8F" stop-opacity="0.31"/>
<stop offset="0.64" stop-color="#C69CAD" stop-opacity="0.54"/>
<stop offset="0.87" stop-color="#A872D1" stop-opacity="0.83"/>
<stop offset="1" stop-color="#975AE7"/>
</linearGradient>
<linearGradient id="paint24_linear_23_2205" x1="509.732" y1="340.371" x2="509.732" y2="273.994" gradientUnits="userSpaceOnUse">
<stop stop-color="#FFEB69" stop-opacity="0"/>
<stop offset="0.09" stop-color="#FBE56D" stop-opacity="0.04"/>
<stop offset="0.24" stop-color="#F0D67A" stop-opacity="0.14"/>
<stop offset="0.42" stop-color="#DFBE8F" stop-opacity="0.31"/>
<stop offset="0.64" stop-color="#C69CAD" stop-opacity="0.54"/>
<stop offset="0.87" stop-color="#A872D1" stop-opacity="0.83"/>
<stop offset="1" stop-color="#975AE7"/>
</linearGradient>
<linearGradient id="paint25_linear_23_2205" x1="118.182" y1="485.887" x2="126.362" y2="327.341" gradientUnits="userSpaceOnUse">
<stop offset="0.01" stop-color="#01F0FF" stop-opacity="0"/>
<stop offset="0.97" stop-color="white"/>
</linearGradient>
<linearGradient id="paint26_linear_23_2205" x1="1040.47" y1="444.831" x2="1030.73" y2="255.632" gradientUnits="userSpaceOnUse">
<stop offset="0.01" stop-color="#01F0FF" stop-opacity="0"/>
<stop offset="0.97" stop-color="white"/>
</linearGradient>
<linearGradient id="paint27_linear_23_2205" x1="-64.382" y1="330.216" x2="389.812" y2="330.216" gradientUnits="userSpaceOnUse">
<stop offset="0.01" stop-color="#01F0FF" stop-opacity="0"/>
<stop offset="0.98" stop-color="white"/>
</linearGradient>
<linearGradient id="paint28_linear_23_2205" x1="1234.96" y1="480.91" x2="780.728" y2="480.91" gradientUnits="userSpaceOnUse">
<stop offset="0.01" stop-color="#01F0FF" stop-opacity="0"/>
<stop offset="0.97" stop-color="white"/>
</linearGradient>
<linearGradient id="paint29_linear_23_2205" x1="387.799" y1="536.163" x2="842.03" y2="536.163" gradientUnits="userSpaceOnUse">
<stop offset="0.01" stop-color="#01F0FF" stop-opacity="0"/>
<stop offset="0.97" stop-color="white"/>
</linearGradient>
<linearGradient id="paint30_linear_23_2205" x1="1171.91" y1="782.43" x2="1004.46" y2="396.569" gradientUnits="userSpaceOnUse">
<stop offset="0.31" stop-color="#662D91" stop-opacity="0.9"/>
<stop offset="0.97" stop-color="#1B1464"/>
</linearGradient>
<linearGradient id="paint31_linear_23_2205" x1="13.7263" y1="130.082" x2="21.6679" y2="-12.8682" gradientUnits="userSpaceOnUse">
<stop offset="0.12" stop-color="#01F0FF" stop-opacity="0"/>
<stop offset="0.97" stop-color="white"/>
</linearGradient>
<linearGradient id="paint32_linear_23_2205" x1="354.893" y1="775.415" x2="352.018" y2="441.284" gradientUnits="userSpaceOnUse">
<stop offset="0.31" stop-color="#662D91" stop-opacity="0.9"/>
<stop offset="0.97" stop-color="#1B1464"/>
</linearGradient>
<linearGradient id="paint33_linear_23_2205" x1="421.648" y1="318.931" x2="422.068" y2="265.648" gradientUnits="userSpaceOnUse">
<stop offset="0.1" stop-color="#FFEB69"/>
<stop offset="0.21" stop-color="#F8E270"/>
<stop offset="0.4" stop-color="#E7CA85"/>
<stop offset="0.63" stop-color="#CCA4A6"/>
<stop offset="0.9" stop-color="#A66FD4"/>
<stop offset="1" stop-color="#975AE7"/>
</linearGradient>
<linearGradient id="paint34_linear_23_2205" x1="376.545" y1="318.09" x2="376.964" y2="265.308" gradientUnits="userSpaceOnUse">
<stop offset="0.1" stop-color="#FFEB69"/>
<stop offset="0.21" stop-color="#F8E270"/>
<stop offset="0.4" stop-color="#E7CA85"/>
<stop offset="0.63" stop-color="#CCA4A6"/>
<stop offset="0.9" stop-color="#A66FD4"/>
<stop offset="1" stop-color="#975AE7"/>
</linearGradient>
<linearGradient id="paint35_linear_23_2205" x1="399.426" y1="283.481" x2="399.426" y2="323.735" gradientUnits="userSpaceOnUse">
<stop offset="0.1" stop-color="#FFEB69"/>
<stop offset="0.21" stop-color="#F8E270"/>
<stop offset="0.4" stop-color="#E7CA85"/>
<stop offset="0.63" stop-color="#CCA4A6"/>
<stop offset="0.9" stop-color="#A66FD4"/>
<stop offset="1" stop-color="#975AE7"/>
</linearGradient>
<radialGradient id="paint36_radial_23_2205" cx="0" cy="0" r="1" gradientUnits="userSpaceOnUse" gradientTransform="translate(345.504 68.7029) rotate(71.4191) scale(178.776 140.727)">
<stop stop-color="#FFEB69"/>
<stop offset="0.13" stop-color="#F8E270"/>
<stop offset="0.33" stop-color="#E7CA85"/>
<stop offset="0.59" stop-color="#CCA4A6"/>
<stop offset="0.89" stop-color="#A66FD4"/>
<stop offset="1" stop-color="#975AE7"/>
</radialGradient>
<linearGradient id="paint37_linear_23_2205" x1="350.496" y1="270.654" x2="350.496" y2="33.9411" gradientUnits="userSpaceOnUse">
<stop stop-color="#FFEB69" stop-opacity="0"/>
<stop offset="0.09" stop-color="#FBE56D" stop-opacity="0.04"/>
<stop offset="0.24" stop-color="#F0D67A" stop-opacity="0.14"/>
<stop offset="0.42" stop-color="#DFBE8F" stop-opacity="0.31"/>
<stop offset="0.64" stop-color="#C69CAD" stop-opacity="0.54"/>
<stop offset="0.87" stop-color="#A872D1" stop-opacity="0.83"/>
<stop offset="1" stop-color="#975AE7"/>
</linearGradient>
<linearGradient id="paint38_linear_23_2205" x1="448.17" y1="270.52" x2="448.17" y2="33.3057" gradientUnits="userSpaceOnUse">
<stop stop-color="#FFEB69" stop-opacity="0"/>
<stop offset="0.09" stop-color="#FBE56D" stop-opacity="0.04"/>
<stop offset="0.24" stop-color="#F0D67A" stop-opacity="0.14"/>
<stop offset="0.42" stop-color="#DFBE8F" stop-opacity="0.31"/>
<stop offset="0.64" stop-color="#C69CAD" stop-opacity="0.54"/>
<stop offset="0.87" stop-color="#A872D1" stop-opacity="0.83"/>
<stop offset="1" stop-color="#975AE7"/>
</linearGradient>
<linearGradient id="paint39_linear_23_2205" x1="427.114" y1="269.318" x2="427.114" y2="33.1726" gradientUnits="userSpaceOnUse">
<stop stop-color="#FFEB69" stop-opacity="0"/>
<stop offset="0.09" stop-color="#FBE56D" stop-opacity="0.04"/>
<stop offset="0.24" stop-color="#F0D67A" stop-opacity="0.14"/>
<stop offset="0.42" stop-color="#DFBE8F" stop-opacity="0.31"/>
<stop offset="0.64" stop-color="#C69CAD" stop-opacity="0.54"/>
<stop offset="0.87" stop-color="#A872D1" stop-opacity="0.83"/>
<stop offset="1" stop-color="#975AE7"/>
</linearGradient>
<linearGradient id="paint40_linear_23_2205" x1="371.477" y1="269.318" x2="371.477" y2="33.1728" gradientUnits="userSpaceOnUse">
<stop stop-color="#FFEB69" stop-opacity="0"/>
<stop offset="0.09" stop-color="#FBE56D" stop-opacity="0.04"/>
<stop offset="0.24" stop-color="#F0D67A" stop-opacity="0.14"/>
<stop offset="0.42" stop-color="#DFBE8F" stop-opacity="0.31"/>
<stop offset="0.64" stop-color="#C69CAD" stop-opacity="0.54"/>
<stop offset="0.87" stop-color="#A872D1" stop-opacity="0.83"/>
<stop offset="1" stop-color="#975AE7"/>
</linearGradient>
<linearGradient id="paint41_linear_23_2205" x1="399.203" y1="266.011" x2="399.203" y2="39.5195" gradientUnits="userSpaceOnUse">
<stop stop-color="#FFEB69" stop-opacity="0"/>
<stop offset="0.09" stop-color="#FBE56D" stop-opacity="0.04"/>
<stop offset="0.24" stop-color="#F0D67A" stop-opacity="0.14"/>
<stop offset="0.42" stop-color="#DFBE8F" stop-opacity="0.31"/>
<stop offset="0.64" stop-color="#C69CAD" stop-opacity="0.54"/>
<stop offset="0.87" stop-color="#A872D1" stop-opacity="0.83"/>
<stop offset="1" stop-color="#975AE7"/>
</linearGradient>
</defs>
</svg>
