<svg width="40" height="40" viewBox="0 0 40 40" fill="none" xmlns="http://www.w3.org/2000/svg">
<path d="M18.3333 28.3335H21.6667V18.3335H18.3333V28.3335ZM20 15.0002C20.4722 15.0002 20.8683 14.8402 21.1883 14.5202C21.5083 14.2002 21.6678 13.8046 21.6667 13.3335C21.6667 12.8613 21.5067 12.4652 21.1867 12.1452C20.8667 11.8252 20.4711 11.6657 20 11.6668C19.5278 11.6668 19.1317 11.8268 18.8117 12.1468C18.4917 12.4668 18.3322 12.8624 18.3333 13.3335C18.3333 13.8057 18.4933 14.2018 18.8133 14.5218C19.1333 14.8418 19.5289 15.0013 20 15.0002ZM20 36.6668C17.6945 36.6668 15.5278 36.2291 13.5 35.3535C11.4722 34.4779 9.70834 33.2907 8.20834 31.7918C6.70834 30.2918 5.52112 28.5279 4.64668 26.5002C3.77223 24.4724 3.33445 22.3057 3.33334 20.0002C3.33334 17.6946 3.77112 15.5279 4.64668 13.5002C5.52223 11.4724 6.70945 9.7085 8.20834 8.2085C9.70834 6.7085 11.4722 5.52127 13.5 4.64683C15.5278 3.77239 17.6945 3.33461 20 3.3335C22.3056 3.3335 24.4722 3.77127 26.5 4.64683C28.5278 5.52239 30.2917 6.70961 31.7917 8.2085C33.2917 9.7085 34.4795 11.4724 35.355 13.5002C36.2306 15.5279 36.6678 17.6946 36.6667 20.0002C36.6667 22.3057 36.2289 24.4724 35.3533 26.5002C34.4778 28.5279 33.2906 30.2918 31.7917 31.7918C30.2917 33.2918 28.5278 34.4796 26.5 35.3552C24.4722 36.2307 22.3056 36.6679 20 36.6668Z" fill="white"/>
</svg>
