<svg width="25" height="24" viewBox="0 0 25 24" fill="none" xmlns="http://www.w3.org/2000/svg">
<path d="M11.7392 17.0062H13.7166V11.0742H11.7392V17.0062ZM12.7279 9.09691C13.008 9.09691 13.243 9.002 13.4328 8.81217C13.6226 8.62235 13.7172 8.38771 13.7166 8.10825C13.7166 7.82812 13.6217 7.59315 13.4318 7.40333C13.242 7.21351 13.0074 7.11892 12.7279 7.11958C12.4478 7.11958 12.2128 7.21449 12.023 7.40432C11.8332 7.59414 11.7386 7.82878 11.7392 8.10825C11.7392 8.38837 11.8342 8.62334 12.024 8.81316C12.2138 9.00299 12.4484 9.09757 12.7279 9.09691ZM12.7279 21.9495C11.3603 21.9495 10.075 21.6898 8.87212 21.1705C7.66925 20.6511 6.62291 19.9468 5.73312 19.0577C4.84332 18.1679 4.13906 17.1216 3.62034 15.9187C3.10163 14.7158 2.84194 13.4305 2.84128 12.0629C2.84128 10.6952 3.10097 9.40999 3.62034 8.20711C4.13972 7.00424 4.84398 5.9579 5.73312 5.06811C6.62291 4.17831 7.66925 3.47405 8.87212 2.95534C10.075 2.43662 11.3603 2.17693 12.7279 2.17627C14.0956 2.17627 15.3808 2.43596 16.5837 2.95534C17.7866 3.47471 18.8329 4.17897 19.7227 5.06811C20.6125 5.9579 21.3171 7.00424 21.8365 8.20711C22.3558 9.40999 22.6152 10.6952 22.6145 12.0629C22.6145 13.4305 22.3548 14.7158 21.8355 15.9187C21.3161 17.1216 20.6118 18.1679 19.7227 19.0577C18.8329 19.9475 17.7866 20.6521 16.5837 21.1714C15.3808 21.6908 14.0956 21.9502 12.7279 21.9495Z" fill="white"/>
</svg>
