<svg width="76" height="76" viewBox="0 0 76 76" fill="none" xmlns="http://www.w3.org/2000/svg">
<path d="M9.5 19H66.5V57H9.5V19ZM38 28.5C40.5196 28.5 42.9359 29.5009 44.7175 31.2825C46.4991 33.0641 47.5 35.4804 47.5 38C47.5 40.5196 46.4991 42.9359 44.7175 44.7175C42.9359 46.4991 40.5196 47.5 38 47.5C35.4804 47.5 33.0641 46.4991 31.2825 44.7175C29.5009 42.9359 28.5 40.5196 28.5 38C28.5 35.4804 29.5009 33.0641 31.2825 31.2825C33.0641 29.5009 35.4804 28.5 38 28.5ZM22.1667 25.3333C22.1667 27.013 21.4994 28.6239 20.3117 29.8117C19.1239 30.9994 17.513 31.6667 15.8333 31.6667V44.3333C17.513 44.3333 19.1239 45.0006 20.3117 46.1883C21.4994 47.3761 22.1667 48.987 22.1667 50.6667H53.8333C53.8333 48.987 54.5006 47.3761 55.6883 46.1883C56.8761 45.0006 58.487 44.3333 60.1667 44.3333V31.6667C58.487 31.6667 56.8761 30.9994 55.6883 29.8117C54.5006 28.6239 53.8333 27.013 53.8333 25.3333H22.1667Z" fill="#975AE7"/>
</svg>
