<svg width="40" height="40" viewBox="0 0 40 40" fill="none" xmlns="http://www.w3.org/2000/svg">
<path d="M19.9998 28.3334C20.8839 28.3334 21.7317 27.9822 22.3569 27.3571C22.982 26.732 23.3332 25.8841 23.3332 25.0001C23.3332 24.116 22.982 23.2682 22.3569 22.6431C21.7317 22.0179 20.8839 21.6668 19.9998 21.6668C19.1158 21.6668 18.2679 22.0179 17.6428 22.6431C17.0177 23.2682 16.6665 24.116 16.6665 25.0001C16.6665 25.8841 17.0177 26.732 17.6428 27.3571C18.2679 27.9822 19.1158 28.3334 19.9998 28.3334ZM29.9998 13.3334C30.8839 13.3334 31.7317 13.6846 32.3569 14.3097C32.982 14.9348 33.3332 15.7827 33.3332 16.6667V33.3334C33.3332 34.2175 32.982 35.0653 32.3569 35.6904C31.7317 36.3156 30.8839 36.6668 29.9998 36.6668H9.99984C9.11578 36.6668 8.26794 36.3156 7.64281 35.6904C7.01769 35.0653 6.6665 34.2175 6.6665 33.3334V16.6667C6.6665 15.7827 7.01769 14.9348 7.64281 14.3097C8.26794 13.6846 9.11578 13.3334 9.99984 13.3334H11.6665V10.0001C11.6665 7.78994 12.5445 5.67033 14.1073 4.10753C15.6701 2.54472 17.7897 1.66675 19.9998 1.66675C21.0942 1.66675 22.1778 1.8823 23.1889 2.30109C24.1999 2.71987 25.1186 3.3337 25.8924 4.10753C26.6662 4.88135 27.28 5.80001 27.6988 6.81105C28.1176 7.8221 28.3332 8.90573 28.3332 10.0001V13.3334H29.9998ZM19.9998 5.00008C18.6738 5.00008 17.402 5.52687 16.4643 6.46455C15.5266 7.40223 14.9998 8.674 14.9998 10.0001V13.3334H24.9998V10.0001C24.9998 8.674 24.4731 7.40223 23.5354 6.46455C22.5977 5.52687 21.3259 5.00008 19.9998 5.00008Z" fill="white"/>
</svg>
