<svg width="22" height="22" viewBox="0 0 22 22" fill="none" xmlns="http://www.w3.org/2000/svg">
<path d="M11.0673 15.777C11.532 15.777 11.9777 15.5925 12.3063 15.2641C12.6349 14.9357 12.8195 14.4902 12.8195 14.0258C12.8195 13.5613 12.6349 13.1159 12.3063 12.7875C11.9777 12.459 11.532 12.2745 11.0673 12.2745C10.6026 12.2745 10.1569 12.459 9.82827 12.7875C9.49967 13.1159 9.31506 13.5613 9.31506 14.0258C9.31506 14.4902 9.49967 14.9357 9.82827 15.2641C10.1569 15.5925 10.6026 15.777 11.0673 15.777ZM16.324 7.89643C16.7887 7.89643 17.2344 8.08094 17.563 8.40936C17.8916 8.73778 18.0762 9.18321 18.0762 9.64767V18.4039C18.0762 18.8683 17.8916 19.3138 17.563 19.6422C17.2344 19.9706 16.7887 20.1551 16.324 20.1551H5.81058C5.34586 20.1551 4.90018 19.9706 4.57157 19.6422C4.24296 19.3138 4.05835 18.8683 4.05835 18.4039V9.64767C4.05835 9.18321 4.24296 8.73778 4.57157 8.40936C4.90018 8.08094 5.34586 7.89643 5.81058 7.89643H6.6867V6.14519C6.6867 4.98405 7.14823 3.87046 7.96975 3.04941C8.79127 2.22835 9.90549 1.76709 11.0673 1.76709C11.6426 1.76709 12.2122 1.88033 12.7437 2.10035C13.2751 2.32037 13.7581 2.64286 14.1648 3.04941C14.5716 3.45595 14.8943 3.93859 15.1144 4.46976C15.3346 5.00094 15.4479 5.57025 15.4479 6.14519V7.89643H16.324ZM11.0673 3.51833C10.3702 3.51833 9.70168 3.79509 9.20876 4.28772C8.71585 4.78035 8.43894 5.4485 8.43894 6.14519V7.89643H13.6956V6.14519C13.6956 5.4485 13.4187 4.78035 12.9258 4.28772C12.4329 3.79509 11.7644 3.51833 11.0673 3.51833Z" fill="white"/>
</svg>
