<svg width="22" height="22" viewBox="0 0 22 22" fill="none" xmlns="http://www.w3.org/2000/svg">
<path d="M11.0672 15.7775C11.5319 15.7775 11.9776 15.593 12.3062 15.2646C12.6348 14.9362 12.8194 14.4907 12.8194 14.0263C12.8194 13.5618 12.6348 13.1164 12.3062 12.7879C11.9776 12.4595 11.5319 12.275 11.0672 12.275C10.6025 12.275 10.1568 12.4595 9.82818 12.7879C9.49957 13.1164 9.31496 13.5618 9.31496 14.0263C9.31496 14.4907 9.49957 14.9362 9.82818 15.2646C10.1568 15.593 10.6025 15.7775 11.0672 15.7775ZM16.3239 7.89692C16.7886 7.89692 17.2343 8.08142 17.5629 8.40985C17.8915 8.73827 18.0761 9.1837 18.0761 9.64816V18.4044C18.0761 18.8688 17.8915 19.3143 17.5629 19.6427C17.2343 19.9711 16.7886 20.1556 16.3239 20.1556H5.81049C5.34577 20.1556 4.90008 19.9711 4.57148 19.6427C4.24287 19.3143 4.05826 18.8688 4.05826 18.4044V9.64816C4.05826 9.1837 4.24287 8.73827 4.57148 8.40985C4.90008 8.08142 5.34577 7.89692 5.81049 7.89692H6.68661V6.14568C6.68661 4.98453 7.14814 3.87095 7.96966 3.04989C8.79118 2.22884 9.90539 1.76758 11.0672 1.76758C11.6425 1.76758 12.2121 1.88082 12.7436 2.10084C13.2751 2.32086 13.758 2.64335 14.1647 3.04989C14.5715 3.45644 14.8942 3.93908 15.1143 4.47025C15.3345 5.00143 15.4478 5.57074 15.4478 6.14568V7.89692H16.3239ZM11.0672 3.51882C10.3701 3.51882 9.70158 3.79558 9.20867 4.28821C8.71576 4.78084 8.43885 5.44899 8.43885 6.14568V7.89692H13.6956V6.14568C13.6956 5.44899 13.4186 4.78084 12.9257 4.28821C12.4328 3.79558 11.7643 3.51882 11.0672 3.51882Z" fill="white"/>
</svg>
