<svg width="716" height="315" viewBox="0 0 716 315" fill="none" xmlns="http://www.w3.org/2000/svg">
<mask id="mask0_19_1766" style="mask-type:luminance" maskUnits="userSpaceOnUse" x="113" y="0" width="491" height="300">
<path d="M603.586 0H113.164V299.719H603.586V0Z" fill="white"/>
</mask>
<g mask="url(#mask0_19_1766)">
<path d="M603.926 0H107.647V299.719H603.926V0Z" fill="url(#paint0_linear_19_1766)"/>
<path d="M470.888 51.9455H472.826C479.191 51.9455 485.571 52.0021 491.936 52.0021H644.283C648.526 52.0021 652.897 52.2853 657.141 52.0021C665.359 51.4356 673.507 51.1099 681.768 51.6905C681.796 51.209 681.811 50.7134 681.839 50.2319H745.267C746.583 44.6663 747.884 38.9025 746.88 33.2803C745.875 27.6439 742.396 22.1491 737.02 20.1948C731.645 18.2405 724.601 21.0587 723.257 26.6242C723.03 27.5447 723.002 28.6352 723.667 29.315C724.714 30.3913 726.567 29.6407 727.614 28.5785C730.23 25.902 730.839 21.611 729.566 18.0847C728.293 14.5584 725.336 11.811 721.941 10.2107C714.303 6.64198 703.368 9.4885 700.143 17.8439C699.719 18.9344 699.45 20.1098 699.69 21.2569C699.917 22.3899 700.751 23.4662 701.883 23.7069C703.114 23.976 704.387 23.1971 705.066 22.1208C705.731 21.0587 705.914 19.7558 705.999 18.4954C706.593 8.79457 701.572 -0.877909 693.792 -6.67007C685.998 -12.4622 675.728 -14.5157 666.137 -13.0145C652.911 -10.9469 640.973 -2.69061 633.461 8.28475C631.948 10.494 630.689 12.8448 629.741 15.3515C627.492 21.2569 627.068 27.9696 629.274 33.8892C629.741 35.1496 630.816 36.5799 632.075 36.1693C633.15 35.8152 633.377 34.4132 633.362 33.2803C633.306 30.1647 632.782 27.0774 631.806 24.1176C630.986 21.6251 629.628 19.7274 628.157 17.6032C620.476 6.50036 606.472 1.81282 593.769 6.65615C581.604 11.3012 574.008 23.5794 572.198 36.1126C572.056 37.0473 571.971 38.0528 572.381 38.9025C572.806 39.7522 573.923 40.3045 574.73 39.7947C575.479 39.3132 575.522 38.2652 575.437 37.3872C574.687 29.145 569.75 21.4835 562.324 17.7448C551.333 12.1934 538.97 16.4278 530.072 23.8768C526.154 27.1624 522.872 31.2268 520.595 35.8152C520.057 36.8915 519.562 38.0811 519.704 39.2707C519.845 40.4603 520.864 41.6499 522.066 41.5224C523.198 41.4091 523.947 40.2762 524.287 39.1857C527.328 29.6124 515.616 24.5566 507.963 24.4433C498.599 24.3017 486.717 30.9577 485.67 41.14C485.472 43.0944 485.939 45.4169 487.693 46.3091C489.291 47.1305 491.413 46.2666 492.304 44.7088C493.195 43.151 492.997 41.1259 492.148 39.5398C491.031 37.4721 489.093 35.9568 486.844 35.3904C484.878 34.8947 482.77 35.008 480.804 35.4895C477.154 36.3817 473.816 38.5343 471.482 41.4941C469.148 44.4539 467.748 48.2067 467.733 51.9738H470.888V51.9455Z" fill="url(#paint1_linear_19_1766)"/>
<path d="M221.787 74.8449H223.724C230.09 74.8449 236.469 74.9015 242.835 74.9015H395.181C399.425 74.9015 403.796 75.1847 408.04 74.9015C416.258 74.335 424.406 74.0093 432.667 74.59C432.695 74.1085 432.709 73.6128 432.738 73.1313H496.166C497.481 67.5657 498.783 61.8019 497.778 56.1797C496.774 50.5433 493.294 45.0485 487.919 43.0942C482.544 41.1399 475.499 43.9581 474.155 49.5236C473.929 50.4442 473.901 51.5346 474.566 52.2144C475.612 53.2907 477.465 52.5401 478.512 51.478C481.129 48.8014 481.737 44.5104 480.464 40.9841C479.177 37.4578 476.235 34.7104 472.84 33.1102C465.201 29.5414 454.267 32.3879 451.042 40.7433C450.617 41.8338 450.349 43.0092 450.589 44.1563C450.815 45.2893 451.65 46.3656 452.782 46.6063C454.012 46.8754 455.285 46.0965 455.964 45.0202C456.629 43.9581 456.813 42.6552 456.898 41.3948C457.492 31.694 452.47 22.0215 444.69 16.2293C436.896 10.4372 426.627 8.38373 417.036 9.88488C403.81 11.9525 391.871 20.2088 384.36 31.1842C382.847 33.3934 381.588 35.7442 380.64 38.2509C378.391 44.1563 377.966 50.869 380.173 56.7886C380.64 58.049 381.715 59.4794 382.974 59.0687C384.049 58.7146 384.275 57.3126 384.261 56.1797C384.205 53.0641 383.681 49.9768 382.705 47.017C381.885 44.5245 380.527 42.6269 379.056 40.5026C371.375 29.3998 357.371 24.7122 344.668 29.5556C332.503 34.2006 324.907 46.4789 323.096 59.012C322.955 59.9467 322.87 60.9522 323.28 61.8019C323.69 62.6516 324.822 63.2039 325.628 62.6941C326.378 62.2126 326.42 61.1646 326.336 60.2866C325.586 52.0444 320.649 44.3829 313.223 40.6442C302.232 35.0928 289.869 39.3272 280.971 46.7763C277.053 50.0618 273.771 54.1262 271.494 58.7146C270.956 59.7909 270.461 60.9805 270.602 62.1701C270.744 63.3738 271.762 64.5493 272.965 64.4218C274.096 64.3085 274.846 63.1756 275.186 62.0851C278.227 52.5118 266.514 47.456 258.862 47.3427C249.497 47.2011 237.615 53.8571 236.568 64.0394C236.37 65.9938 236.837 68.3163 238.591 69.2085C240.19 70.0299 242.312 69.166 243.203 67.6082C244.094 66.0504 243.896 64.0253 243.047 62.4392C241.93 60.3715 239.992 58.8562 237.743 58.2898C235.776 57.7941 233.669 57.9074 231.702 58.3889C228.053 59.2811 224.715 61.4337 222.381 64.3935C220.047 67.3533 218.646 71.1062 218.632 74.8732H221.787V74.8449Z" fill="url(#paint2_linear_19_1766)"/>
<path d="M423.288 80.9349C425.325 79.7877 428.947 80.949 431.21 80.949H529.69C540.922 80.949 552.068 80.5242 563.258 80.5242H606.217C610.758 80.5242 612.441 75.256 612.498 71.5173C612.583 65.9659 609.216 61.5049 604.11 59.3948C596.16 56.0951 583.259 60.6694 582.708 70.4127C582.665 71.0924 582.835 71.9563 583.5 72.0979C584.164 72.2537 584.688 71.5173 584.942 70.88C586.64 66.504 585.197 61.1792 581.717 58.0211C578.238 54.863 573.032 53.8859 568.548 55.2596C564.361 56.5483 560.57 60.3578 560.895 64.7338C560.966 65.7393 561.291 66.7873 562.055 67.4387C562.819 68.0901 564.106 68.1893 564.785 67.4387C565.125 67.0705 565.266 66.5748 565.379 66.0933C567.119 58.7575 564.248 50.6428 558.589 45.6721C552.931 40.7013 544.812 38.8603 537.456 40.4605C530.101 42.0608 523.608 46.9041 519.534 53.2344C516.295 58.276 514.526 64.6063 516.224 70.356C516.351 70.8092 516.549 71.2907 516.988 71.489C517.879 71.8713 518.629 70.5826 518.53 69.6196C518.431 68.6566 518.233 67.9202 518.459 66.9714C518.657 66.1641 518.855 65.8951 518.629 64.9887C518.218 63.2751 517.285 61.6607 516.181 60.3012C514.003 57.6104 510.891 55.6561 507.609 54.594C502.135 52.8379 495.883 53.5602 491.201 57.0015C489.772 58.0494 489.008 59.2674 487.891 60.5702C485.458 63.3884 483.831 66.6456 483.689 70.4268C483.647 71.6022 483.93 73.0468 485.033 73.4291C485.684 73.6557 486.419 73.415 486.929 72.9335C487.424 72.4661 487.707 71.8005 487.862 71.1349C488.612 67.906 486.561 64.5497 483.774 62.737C476.334 57.8937 465.937 58.7717 459.274 64.5639C457.294 66.2916 455.724 68.6708 455.512 71.2907C455.413 72.3811 455.837 73.7973 456.926 73.8823C457.69 73.9531 458.369 73.2309 458.482 72.4661C458.595 71.7014 458.298 70.9366 457.916 70.2569C455.993 66.8297 451.707 64.9321 447.887 65.7959C444.068 66.6598 441.013 70.2286 440.744 74.1372C440.716 74.5337 440.716 74.9444 440.899 75.2985C441.069 75.6525 441.479 75.9216 441.861 75.8225C442.583 75.6525 442.512 74.5621 442.144 73.9248C440.687 71.4181 437.405 70.4268 434.562 70.9508C431.719 71.4748 429.258 73.2309 427.108 75.171C426.146 76.049 425.198 76.9979 424.505 78.1167C423.981 78.9664 423.925 80.1843 423.302 80.9065L423.288 80.9349Z" fill="url(#paint3_linear_19_1766)"/>
<path d="M432.921 100.548C430.884 99.401 427.263 100.562 425 100.562H326.519C315.288 100.562 304.141 100.137 292.952 100.137H249.992C245.452 100.137 243.768 94.8693 243.712 91.1306C243.627 85.5791 246.994 81.1182 252.1 79.0081C260.05 75.7084 272.95 80.2827 273.502 90.0259C273.545 90.7057 273.375 91.5696 272.71 91.7112C272.045 91.867 271.522 91.1306 271.267 90.4933C269.57 86.1173 271.012 80.7925 274.492 77.6344C277.972 74.4763 283.178 73.4992 287.662 74.8729C291.849 76.1616 295.64 79.9711 295.314 84.3471C295.244 85.3526 294.918 86.4005 294.154 87.052C293.391 87.7034 292.103 87.8025 291.424 87.052C291.085 86.6838 290.943 86.1881 290.83 85.7066C289.09 78.3708 291.962 70.2561 297.62 65.2853C303.278 60.3146 311.398 58.4735 318.753 60.0738C326.109 61.6741 332.602 66.5174 336.676 72.8477C339.915 77.8893 341.683 84.2196 339.986 89.9693C339.858 90.4225 339.66 90.904 339.222 91.1022C338.331 91.4846 337.581 90.1959 337.68 89.2329C337.779 88.2699 337.977 87.5335 337.751 86.5846C337.553 85.7774 337.355 85.5083 337.581 84.602C337.991 82.8884 338.925 81.274 340.028 79.9144C342.207 77.2237 345.319 75.2694 348.6 74.2073C354.075 72.4512 360.327 73.1734 365.009 76.6148C366.438 77.6627 367.202 78.8806 368.319 80.1835C370.752 83.0017 372.379 86.2589 372.52 90.0401C372.563 91.2155 372.28 92.66 371.176 93.0424C370.526 93.269 369.79 93.0282 369.281 92.5467C368.786 92.0794 368.503 91.4138 368.347 90.7482C367.598 87.5193 369.649 84.163 372.435 82.3503C379.876 77.5069 390.273 78.385 396.935 84.1771C398.916 85.9049 400.486 88.284 400.698 90.904C400.797 91.9944 400.373 93.4106 399.283 93.4956C398.52 93.5664 397.841 92.8441 397.727 92.0794C397.6 91.3147 397.911 90.5499 398.293 89.8702C400.217 86.443 404.503 84.5453 408.322 85.4092C412.142 86.2731 415.197 89.8418 415.466 93.7505C415.494 94.147 415.494 94.5577 415.31 94.9118C415.14 95.2658 414.73 95.5349 414.348 95.4357C413.627 95.2658 413.698 94.1753 414.065 93.5381C415.522 91.0314 418.804 90.0401 421.647 90.5641C424.491 91.0881 426.952 92.8441 429.102 94.7843C430.064 95.6623 431.012 96.6112 431.705 97.7299C432.228 98.5796 432.285 99.7976 432.907 100.52L432.921 100.548Z" fill="url(#paint4_linear_19_1766)"/>
<path d="M239.581 100.548C237.544 99.401 233.923 100.562 231.66 100.562H133.179C121.948 100.562 110.801 100.137 99.6122 100.137H56.6667C52.126 100.137 50.4427 94.8693 50.3861 91.1306C50.3012 85.5791 53.6678 81.1182 58.7743 79.0081C66.7241 75.7084 79.6247 80.2827 80.1764 90.0259C80.2188 90.7057 80.0491 91.5696 79.3843 91.7112C78.7194 91.867 78.196 91.1306 77.9414 90.4933C76.244 86.1173 77.6868 80.7925 81.1666 77.6344C84.6464 74.4763 89.8519 73.4992 94.336 74.8729C98.523 76.1616 102.314 79.9711 101.989 84.3471C101.918 85.3526 101.593 86.4005 100.829 87.052C100.065 87.7034 98.7777 87.8025 98.0987 87.052C97.7592 86.6838 97.6177 86.1881 97.5046 85.7066C95.7647 78.3708 98.6362 70.2561 104.294 65.2853C109.953 60.3146 118.072 58.4735 125.428 60.0738C132.783 61.6741 139.276 66.5174 143.35 72.8477C146.589 77.8893 148.357 84.2196 146.66 89.9693C146.533 90.4225 146.335 90.904 145.896 91.1022C145.005 91.4846 144.255 90.1959 144.354 89.2329C144.453 88.2699 144.651 87.5335 144.425 86.5846C144.227 85.7774 144.029 85.5083 144.255 84.602C144.665 82.8884 145.599 81.274 146.702 79.9144C148.881 77.2237 151.993 75.2694 155.275 74.2073C160.749 72.4512 167.001 73.1734 171.683 76.6148C173.112 77.6627 173.876 78.8806 174.993 80.1835C177.426 83.0017 179.053 86.2589 179.195 90.0401C179.237 91.2155 178.954 92.66 177.851 93.0424C177.2 93.269 176.464 93.0282 175.955 92.5467C175.46 92.0794 175.177 91.4138 175.022 90.7482C174.272 87.5193 176.323 84.163 179.11 82.3503C186.55 77.5069 196.947 78.385 203.61 84.1771C205.59 85.9049 207.16 88.284 207.372 90.904C207.471 91.9944 207.047 93.4106 205.958 93.4956C205.194 93.5664 204.515 92.8441 204.402 92.0794C204.289 91.3147 204.586 90.5499 204.968 89.8702C206.891 86.443 211.177 84.5453 214.997 85.4092C218.816 86.2731 221.871 89.8418 222.14 93.7505C222.168 94.147 222.168 94.5577 221.984 94.9118C221.815 95.2658 221.405 95.5349 221.023 95.4357C220.301 95.2658 220.372 94.1753 220.74 93.5381C222.197 91.0314 225.478 90.0401 228.322 90.5641C231.165 91.0881 233.626 92.8441 235.776 94.7843C236.738 95.6623 237.686 96.6112 238.379 97.7299C238.902 98.5796 238.959 99.7976 239.581 100.52V100.548Z" fill="url(#paint5_linear_19_1766)"/>
<path d="M110.334 281.182L215.647 122.683L275.497 226.517L341.641 119.851C341.641 119.851 362.916 147.778 363.863 148.09C364.797 148.401 424.66 51.7754 424.66 51.7754L511.457 223.062L553.441 299.705H113.164L110.334 281.168V281.182Z" fill="url(#paint6_linear_19_1766)"/>
<path d="M515.271 136.14L513.533 148.38L514.247 148.482L515.985 136.241L515.271 136.14Z" fill="url(#paint7_linear_19_1766)"/>
<path d="M503.507 147.948L501.88 136.392L502.602 136.293L504.285 148.274L503.507 147.948Z" fill="url(#paint8_linear_19_1766)"/>
<path d="M512.009 153.656H505.855C505.007 153.656 504.271 153.033 504.144 152.183L503.394 147.17H514.456L513.706 152.183C513.579 153.033 512.857 153.656 511.994 153.656H512.009Z" fill="url(#paint9_linear_19_1766)"/>
<path d="M508.882 72.9756C495.204 73.1597 484.184 84.305 484.184 98.0419C484.184 102.673 485.443 107.006 487.622 110.717C492.686 120.715 501.88 136.519 501.88 136.519H515.913C515.913 136.519 525.107 120.715 530.171 110.717C532.35 106.992 533.609 102.673 533.609 98.0419C533.609 84.305 522.575 73.1597 508.911 72.9756H508.882Z" fill="url(#paint10_radial_19_1766)"/>
<mask id="mask1_19_1766" style="mask-type:luminance" maskUnits="userSpaceOnUse" x="484" y="72" width="50" height="65">
<path d="M508.882 72.9756C495.204 73.1597 484.184 84.305 484.184 98.0419C484.184 102.673 485.443 107.006 487.622 110.717C492.686 120.715 501.88 136.519 501.88 136.519H515.913C515.913 136.519 525.107 120.715 530.171 110.717C532.35 106.992 533.609 102.673 533.609 98.0419C533.609 84.305 522.575 73.1597 508.911 72.9756H508.882Z" fill="white"/>
</mask>
<g mask="url(#mask1_19_1766)">
<path d="M503.776 71.291C501.456 73.387 499.277 75.4971 497.566 77.9187C495.812 80.2979 494.496 82.9178 493.605 85.6369C491.865 91.075 491.681 96.9663 492.629 102.645C493.096 105.421 493.93 108.267 494.921 111.086C495.883 113.904 497 116.722 498.117 119.54L505.275 136.534C501.145 131.847 497.637 126.692 494.609 121.225C493.053 118.52 491.695 115.674 490.493 112.742C489.277 109.811 488.286 106.752 487.706 103.467L487.508 102.234L487.409 101.017L487.226 98.5807C487.169 97.7735 487.254 96.938 487.254 96.1307C487.296 95.3094 487.254 94.488 487.395 93.6808C487.735 90.4094 488.612 87.1664 490.012 84.1782C491.384 81.1759 493.393 78.4852 495.755 76.3043C498.146 74.1375 500.89 72.4523 503.776 71.3052V71.291Z" fill="url(#paint11_linear_19_1766)"/>
<path d="M512.815 71.1211C515.729 72.254 518.515 73.8543 520.991 75.9644C523.438 78.0745 525.56 80.6803 527.073 83.6401C527.498 84.3623 527.823 85.1271 528.134 85.8918C528.445 86.6707 528.799 87.4354 528.983 88.2427L529.648 90.6502L530.044 93.1143C530.1 93.525 530.185 93.9357 530.214 94.3464L530.27 95.5784L530.369 98.0568C530.242 99.6995 530.199 101.328 529.945 102.971C529.436 106.299 528.445 109.372 527.286 112.346C526.126 115.32 524.796 118.181 523.282 120.942C520.326 126.479 516.889 131.733 512.829 136.52L519.746 119.314C520.835 116.453 521.924 113.621 522.83 110.76C523.763 107.913 524.612 105.039 525.008 102.234C525.249 100.832 525.291 99.3455 525.447 97.9151V95.7626C525.461 95.0403 525.447 94.3181 525.348 93.61C525.22 90.721 524.485 87.9594 523.537 85.2404C522.518 82.5638 521.09 79.9722 519.223 77.6497C517.412 75.2563 515.163 73.2029 512.801 71.1211H512.815Z" fill="url(#paint12_linear_19_1766)"/>
<path d="M510.155 70.9648C512.701 72.5226 514.724 74.831 516.507 77.281C518.232 79.7593 519.633 82.5067 520.637 85.3957C521.684 88.2705 522.335 91.3011 522.632 94.3601C522.745 95.9037 522.858 97.4049 522.773 99.0051C522.773 99.8123 522.702 100.591 522.589 101.342C522.49 102.107 522.434 102.885 522.292 103.622C521.274 109.598 519.477 115.249 517.285 120.729C515.12 126.21 512.588 131.521 509.434 136.534C510.65 130.742 512.136 125.119 513.578 119.526C514.979 113.917 516.422 108.338 517.369 102.829C518.317 97.4615 518.034 91.9242 516.917 86.472C516.309 83.7671 515.516 81.0622 514.385 78.4706C513.281 75.8507 511.952 73.3157 510.155 70.9648Z" fill="url(#paint13_linear_19_1766)"/>
<path d="M507.652 70.9648C505.855 73.3157 504.497 75.8365 503.394 78.4564C502.262 81.048 501.47 83.7388 500.876 86.4436C499.773 91.8959 499.49 97.4473 500.437 102.815C501.371 108.324 502.814 113.903 504.228 119.511C505.671 125.119 507.156 130.742 508.373 136.534C505.218 131.521 502.686 126.196 500.522 120.729C498.33 115.263 496.547 109.598 495.515 103.622C495.373 102.885 495.317 102.092 495.218 101.342C495.105 100.591 495.048 99.8123 495.034 99.0051C494.949 97.4049 495.062 95.8895 495.175 94.3601C495.458 91.3011 496.109 88.2705 497.141 85.3815C498.146 82.4925 499.532 79.7451 501.272 77.2527C503.054 74.8168 505.091 72.5085 507.652 70.9648Z" fill="url(#paint14_linear_19_1766)"/>
<path d="M508.882 70.9082C509.915 76.3746 510.452 81.8411 510.82 87.3075C511.216 92.774 511.372 98.2404 511.372 103.707C511.372 109.173 511.216 114.64 510.82 120.106C510.452 125.573 509.915 131.039 508.868 136.505C507.835 131.039 507.284 125.573 506.916 120.106C506.52 114.64 506.378 109.173 506.364 103.707C506.364 98.2404 506.52 92.774 506.916 87.3075C507.284 81.8411 507.821 76.3746 508.854 70.9082H508.882Z" fill="url(#paint15_linear_19_1766)"/>
</g>
<g opacity="0.51">
<path d="M307.903 144.131L307.156 149.389L307.464 149.433L308.211 144.175L307.903 144.131Z" fill="url(#paint16_linear_19_1766)"/>
<path d="M302.826 149.18L302.133 144.238L302.444 144.195L303.165 149.322L302.826 149.18Z" fill="url(#paint17_linear_19_1766)"/>
<path d="M306.475 151.631H303.83C303.462 151.631 303.151 151.362 303.094 150.993L302.769 148.841H307.508L307.182 150.993C307.126 151.362 306.815 151.631 306.447 151.631H306.475Z" fill="url(#paint18_linear_19_1766)"/>
<path d="M305.131 117.033C299.261 117.118 294.536 121.891 294.536 127.782C294.536 129.765 295.074 131.62 296.007 133.22C298.172 137.511 302.118 144.295 302.118 144.295H308.13C308.13 144.295 312.077 137.511 314.241 133.22C315.175 131.62 315.712 129.765 315.712 127.782C315.712 121.891 310.988 117.118 305.117 117.033H305.131Z" fill="url(#paint19_radial_19_1766)"/>
<mask id="mask2_19_1766" style="mask-type:luminance" maskUnits="userSpaceOnUse" x="294" y="117" width="22" height="28">
<path d="M305.131 117.033C299.261 117.118 294.536 121.891 294.536 127.782C294.536 129.765 295.074 131.62 296.007 133.22C298.172 137.511 302.118 144.295 302.118 144.295H308.13C308.13 144.295 312.077 137.511 314.241 133.22C315.175 131.62 315.712 129.765 315.712 127.782C315.712 121.891 310.988 117.118 305.117 117.033H305.131Z" fill="white"/>
</mask>
<g mask="url(#mask2_19_1766)">
<path d="M302.953 116.312C300.93 118.053 299.332 120.107 298.596 122.458C297.846 124.794 297.762 127.315 298.172 129.751C298.356 130.941 298.724 132.159 299.148 133.362C299.544 134.58 300.039 135.77 300.52 136.988L303.59 144.281C301.821 142.27 300.322 140.061 299.021 137.724C297.733 135.373 296.588 132.923 296.064 130.105C295.626 127.344 295.838 124.412 297.054 121.835C298.228 119.229 300.478 117.275 302.953 116.312Z" fill="url(#paint20_linear_19_1766)"/>
<path d="M306.815 116.24C309.304 117.189 311.624 119.044 312.926 121.608C314.269 124.142 314.566 127.145 314.156 129.906C313.661 132.739 312.558 135.231 311.299 137.61C310.026 139.989 308.555 142.241 306.815 144.295L309.785 136.916C310.252 135.684 310.733 134.481 311.115 133.249C311.525 132.031 311.893 130.799 312.049 129.595C312.148 128.986 312.176 128.363 312.247 127.74C312.218 127.131 312.275 126.493 312.204 125.884C312.176 124.638 311.822 123.463 311.426 122.301C310.577 119.965 308.88 117.968 306.829 116.24H306.815Z" fill="url(#paint21_linear_19_1766)"/>
<path d="M305.683 116.169C307.833 117.571 309.304 119.908 310.181 122.358C311.058 124.822 311.327 127.555 310.889 130.175C310.436 132.738 309.686 135.16 308.738 137.511C307.805 139.862 306.73 142.142 305.372 144.294C305.895 141.816 306.532 139.394 307.154 137.001C307.762 134.593 308.399 132.214 308.781 129.835C309.205 127.527 309.064 125.148 308.583 122.825C308.059 120.517 307.197 118.208 305.683 116.183V116.169Z" fill="url(#paint22_linear_19_1766)"/>
<path d="M304.608 116.169C303.095 118.194 302.218 120.488 301.708 122.811C301.227 125.148 301.1 127.527 301.524 129.835C301.906 132.2 302.543 134.593 303.151 137.001C303.774 139.408 304.41 141.816 304.933 144.294C303.575 142.142 302.5 139.862 301.567 137.511C300.633 135.16 299.884 132.738 299.417 130.175C298.992 127.541 299.247 124.822 300.124 122.358C300.987 119.908 302.472 117.571 304.622 116.183L304.608 116.169Z" fill="url(#paint23_linear_19_1766)"/>
<path d="M305.131 116.155C305.57 118.506 305.81 120.843 305.966 123.194C306.136 125.545 306.178 127.881 306.207 130.232C306.192 132.583 306.136 134.92 305.966 137.27C305.81 139.621 305.57 141.958 305.131 144.309C304.693 141.958 304.452 139.621 304.297 137.27C304.127 134.92 304.085 132.583 304.056 130.232C304.085 127.881 304.127 125.545 304.297 123.194C304.452 120.843 304.679 118.506 305.131 116.155Z" fill="url(#paint24_linear_19_1766)"/>
</g>
</g>
<path d="M241.491 197.953H240.331C238.86 197.896 237.247 198.109 235.748 198.109H80.2046C74.6455 191.835 68.8458 185.547 66.0167 177.659C65.1397 175.195 64.6729 172.703 64.3476 170.125C64.0647 167.916 64.8002 165.607 65.4509 163.497C66.8513 158.966 69.1004 154.675 72.2407 151.106C76.6824 146.064 82.9771 142.566 89.6538 142.056C98.042 141.419 106.303 145.512 112.145 151.573C117.973 157.634 121.622 165.494 124.183 173.51C125.145 176.512 125.979 179.812 125.244 182.956C124.947 184.244 124.324 185.476 123.348 186.354C122.429 187.176 121.085 187.643 119.967 187.119C118.68 186.524 118.228 184.867 118.383 183.451C119.331 175.365 125.413 167.972 132.812 164.885C142.643 160.778 156.095 164.007 161.838 173.368C161.838 173.382 161.852 173.396 161.866 173.411C164.356 177.475 165.785 182.078 166.959 186.694C167.213 187.728 167.468 188.819 167.157 189.838C166.845 190.858 165.756 191.708 164.752 191.382C163.818 191.07 163.408 189.966 163.323 188.974C163.054 186.029 164.427 183.154 166.209 180.803C175.432 168.723 196.409 169.644 201.445 185.377C202.039 187.218 202.973 190.178 201.912 191.948C201.474 192.699 200.483 193.195 199.705 192.798C198.687 192.274 198.786 190.801 199.14 189.711C200.087 186.793 201.855 184.046 204.472 182.446C207.089 180.846 210.597 180.548 213.2 182.177C215.803 183.805 217.076 187.473 215.605 190.178C215.393 190.575 215.011 191 214.558 190.915C213.893 190.801 213.893 189.838 214.134 189.215C215.294 186.185 218.052 183.82 221.221 183.154C224.389 182.488 227.869 183.536 230.146 185.83C231.094 186.793 231.858 187.969 232.169 189.286C232.48 190.603 232.325 192.047 231.589 193.18C231.278 193.662 230.67 194.129 230.16 193.86C229.637 193.591 229.68 192.812 229.892 192.26C230.684 190.235 232.777 188.847 234.942 188.691C238.139 188.45 241.901 190.759 242 194.228C242 194.597 241.958 194.993 241.717 195.291C241.491 195.588 241.038 195.73 240.727 195.531C240.43 195.333 240.359 194.894 240.501 194.568C240.642 194.228 240.925 193.988 241.222 193.775C242.538 192.826 244.207 192.373 245.819 192.515C247.432 192.656 248.988 193.379 250.134 194.54C251.011 195.432 251.704 196.82 251.138 197.925H241.477L241.491 197.953Z" fill="url(#paint25_linear_19_1766)"/>
<path d="M394.304 177.886C433.105 177.929 471.92 177.971 510.721 177.971H595.184C598.706 177.971 602.087 178.736 605.538 178.708C610.701 178.665 616.048 177.589 621.183 177.051C622.725 176.881 624.338 176.697 625.653 175.861C628.383 174.133 628.836 170.38 628.949 167.152C629.274 157.663 629.076 148.019 626.403 138.899C623.743 129.793 618.354 121.168 610.235 116.268C602.158 111.397 591.987 110.646 582.877 113.096C573.768 115.546 565.662 120.998 558.957 127.64C551.856 134.679 546 143.53 544.769 153.457C544.6 154.873 544.529 156.374 545.137 157.663C545.76 158.952 547.273 159.915 548.617 159.448C550.272 158.881 550.711 156.728 550.626 154.972C549.933 140.131 535.929 132.88 522.434 133.574C505.7 134.438 491.922 147.651 491.554 164.787C491.512 166.684 492.262 169.219 494.171 169.12C496.194 169.021 496.562 166.132 496.053 164.163C493.096 152.763 481.624 144.195 469.855 144.606C458.1 145.017 447.251 154.378 445.101 165.962C444.719 168.044 445.242 170.975 447.364 171.032C448.637 171.06 449.656 169.814 449.797 168.539C449.938 167.265 449.401 166.033 448.807 164.9C446.968 161.402 444.224 158.23 440.588 156.714C436.953 155.199 432.341 155.652 429.583 158.47C426.839 161.303 426.768 166.557 429.923 168.936C429.343 163.271 424.208 158.428 418.536 158.187C412.849 157.946 407.332 162.351 406.286 167.945C406.073 169.049 406.059 170.281 406.738 171.159C407.417 172.052 409.001 172.236 409.567 171.273C410.204 170.182 409.101 168.908 408.054 168.2C405.083 166.217 401.207 165.013 397.94 166.458C394.672 167.902 393.06 172.802 395.691 175.21C394.531 172.037 390.909 169.97 387.599 170.607C384.289 171.23 381.658 174.473 381.743 177.844C385.93 177.844 390.131 177.844 394.319 177.844L394.304 177.886Z" fill="url(#paint26_linear_19_1766)"/>
<path d="M87.2066 159.306L259.625 159.009C256.315 154.59 249.511 153.216 244.858 156.19C243.613 152.933 240.883 150.271 237.573 149.152C234.263 148.033 230.486 148.118 227.515 149.945C227.416 147.778 226.836 145.569 225.507 143.841C224.177 142.114 222.055 140.938 219.891 141.066C217.727 141.193 215.336 142.184 214.968 144.323C215.237 142.722 213.327 140.272 212.309 139.239C210.965 137.851 209.324 136.959 207.457 136.449C200.681 134.608 192.944 138.899 190.044 145.158C189.789 138.389 187.356 131.549 182.575 126.748C178.148 122.301 171.712 120.149 165.488 120.758C158.783 121.409 153.195 125.388 149.22 130.671C146.929 133.716 145.146 137.143 143.859 140.726C142.827 143.615 142.091 146.688 142.445 149.733C142.558 150.667 142.77 151.602 143.336 152.352C143.887 153.103 144.849 153.613 145.755 153.429C146.759 153.216 147.438 152.239 147.622 151.234C148.244 147.849 145.882 144.054 143.35 142.014C140.563 139.763 136.914 138.573 133.321 138.842C130.435 139.055 127.634 140.23 125.399 142.057C123.263 143.799 120.972 146.546 120.194 149.223C119.529 151.503 120.123 154.307 122.132 155.581C122.98 156.12 124.268 156.261 124.862 155.468C125.442 154.689 125.003 153.57 124.536 152.721C124.296 152.282 124.056 151.843 123.801 151.404C122.768 149.591 121.665 147.821 120.547 146.065C114.691 136.987 105.483 130.586 94.8593 128.221C93.2043 127.853 91.5634 127.399 89.9367 127.017C90.8703 134.027 90.3186 141.42 90.6581 148.5C90.8562 152.551 90.2903 156.714 87.1783 159.306H87.2066Z" fill="url(#paint27_linear_19_1766)"/>
<path d="M580.416 223.203L407.997 222.906C411.307 218.487 418.111 217.114 422.765 220.088C424.01 216.831 426.74 214.168 430.05 213.049C433.36 211.931 437.137 212.016 440.107 213.842C440.206 211.676 440.786 209.466 442.116 207.739C443.446 206.011 445.567 204.836 447.732 204.963C449.896 205.09 452.286 206.082 452.654 208.22C452.385 206.62 454.295 204.17 455.314 203.136C456.657 201.748 458.298 200.856 460.165 200.346C466.941 198.505 474.679 202.796 477.579 209.056C477.833 202.286 480.266 195.446 485.047 190.645C489.475 186.199 495.911 184.046 502.135 184.655C508.84 185.306 514.427 189.286 518.402 194.568C520.694 197.613 522.476 201.04 523.763 204.623C524.796 207.512 525.532 210.585 525.178 213.63C525.065 214.565 524.853 215.499 524.301 216.25C523.749 217.001 522.787 217.51 521.882 217.326C520.878 217.114 520.199 216.137 520.015 215.131C519.392 211.747 521.755 207.951 524.287 205.912C527.073 203.66 530.723 202.471 534.316 202.74C537.202 202.952 540.002 204.127 542.237 205.954C544.373 207.696 546.665 210.444 547.443 213.12C548.108 215.4 547.514 218.204 545.505 219.479C544.656 220.017 543.369 220.159 542.775 219.366C542.195 218.587 542.633 217.468 543.1 216.618C543.341 216.179 543.581 215.74 543.836 215.301C544.868 213.488 545.972 211.718 547.089 209.962C552.945 200.884 562.154 194.483 572.777 192.118C574.432 191.75 576.073 191.297 577.7 190.915C576.766 197.925 577.318 205.317 576.979 212.398C576.781 216.448 577.346 220.612 580.458 223.203H580.416Z" fill="url(#paint28_linear_19_1766)"/>
<path d="M258.848 246.627L431.266 246.33C427.956 241.911 421.152 240.538 416.499 243.512C415.254 240.254 412.524 237.592 409.214 236.473C405.904 235.354 402.127 235.439 399.156 237.266C399.057 235.1 398.477 232.89 397.148 231.163C395.818 229.435 393.696 228.259 391.532 228.387C389.368 228.514 386.977 229.506 386.609 231.644C386.878 230.044 384.968 227.594 383.95 226.56C382.606 225.172 380.965 224.28 379.098 223.77C372.322 221.929 364.585 226.22 361.685 232.48C361.43 225.71 358.997 218.87 354.216 214.069C349.789 209.623 343.353 207.47 337.129 208.079C330.424 208.73 324.836 212.71 320.861 217.992C318.57 221.037 316.787 224.464 315.5 228.061C314.468 230.95 313.732 234.023 314.086 237.068C314.199 237.989 314.411 238.937 314.963 239.688C315.514 240.438 316.476 240.948 317.381 240.764C318.386 240.552 319.065 239.575 319.249 238.569C319.871 235.184 317.509 231.389 314.977 229.35C312.19 227.098 308.541 225.909 304.948 226.178C302.062 226.39 299.261 227.565 297.026 229.392C294.89 231.134 292.599 233.882 291.821 236.558C291.156 238.838 291.75 241.642 293.759 242.917C294.607 243.455 295.895 243.597 296.489 242.804C297.069 242.025 296.63 240.906 296.163 240.056C295.923 239.617 295.682 239.178 295.428 238.739C294.395 236.926 293.292 235.156 292.174 233.4C286.318 224.322 277.109 217.921 266.486 215.556C264.831 215.188 263.19 214.735 261.564 214.353C262.497 221.363 261.945 228.755 262.285 235.836C262.483 239.886 261.917 244.05 258.805 246.641L258.848 246.627Z" fill="url(#paint29_linear_19_1766)"/>
<path d="M436.882 299.719L523.367 152.168L565.917 202.371L583.217 171.626L629.6 268.252V299.719H436.882Z" fill="url(#paint30_linear_19_1766)"/>
<path d="M31.2473 45.5442L203.666 45.2468C200.356 40.8283 193.552 39.4546 188.898 42.4286C187.653 39.1714 184.923 36.509 181.613 35.3902C178.317 34.2573 174.526 34.3564 171.556 36.1833C171.457 34.0165 170.877 31.8073 169.547 30.0795C168.218 28.3518 166.096 27.1764 163.932 27.3038C161.767 27.4313 159.377 28.4226 159.009 30.561C159.278 28.9608 157.368 26.5108 156.35 25.477C155.006 24.0891 153.365 23.1969 151.498 22.6871C144.722 20.8461 136.984 25.1371 134.085 31.3966C133.83 24.6273 131.397 17.7871 126.616 12.9863C122.188 8.53951 115.752 6.38692 109.528 6.99588C102.823 7.64732 97.2358 11.6268 93.2609 16.9091C90.9693 19.9539 89.187 23.381 87.8998 26.964C86.8672 29.853 86.1316 32.9261 86.4852 35.9708C86.5984 36.9055 86.8106 37.8402 87.3764 38.5908C87.9281 39.3413 88.89 39.8512 89.7953 39.6671C90.7996 39.4546 91.4786 38.4775 91.6625 37.472C92.2849 34.0873 89.9226 30.292 87.3905 28.2527C84.6039 26.001 80.9544 24.8114 77.3614 25.0804C74.4758 25.2929 71.675 26.4683 69.44 28.2952C67.304 30.0371 65.0125 32.7844 64.2345 35.461C63.5696 37.7411 64.1637 40.5451 66.1724 41.8197C67.0211 42.3578 68.3083 42.4994 68.9025 41.7064C69.4824 40.9275 69.0439 39.8087 68.5771 38.959C68.3366 38.52 68.0962 38.0809 67.8415 37.6419C66.8089 35.8292 65.7056 34.059 64.5881 32.3029C58.7319 23.2253 49.5232 16.8241 38.9 14.4591C37.245 14.0909 35.6041 13.6377 33.9774 13.2554C34.911 20.2654 34.3593 27.6579 34.6988 34.7388C34.8968 38.789 34.331 42.9526 31.219 45.5442H31.2473Z" fill="url(#paint31_linear_19_1766)"/>
<path d="M383.61 299.719L285.851 140.569L231.32 228.089L210.215 188.564L176.493 230.907L142.968 182.601L107.873 229.038L110.334 301.504L383.61 299.719Z" fill="url(#paint32_linear_19_1766)"/>
<path d="M272.554 112.192L270.01 130.11L271.061 130.26L273.605 112.341L272.554 112.192Z" fill="url(#paint33_linear_19_1766)"/>
<path d="M255.325 129.481L252.935 112.586L253.982 112.444L256.457 129.962L255.325 129.481Z" fill="url(#paint34_linear_19_1766)"/>
<path d="M267.759 137.85H258.748C257.49 137.85 256.429 136.93 256.245 135.698L255.156 128.376H271.352L270.263 135.698C270.079 136.944 269.018 137.85 267.759 137.85Z" fill="url(#paint35_linear_19_1766)"/>
<path d="M263.176 19.7695C243.16 20.0386 227.02 36.353 227.02 56.4485C227.02 63.2178 228.859 69.5623 232.056 75.0004C239.454 89.6437 252.921 112.77 252.921 112.77H273.446C273.446 112.77 286.898 89.6437 294.31 75.0004C297.507 69.5623 299.346 63.2178 299.346 56.4485C299.346 36.353 283.206 20.0386 263.19 19.7695H263.176Z" fill="url(#paint36_radial_19_1766)"/>
<mask id="mask3_19_1766" style="mask-type:luminance" maskUnits="userSpaceOnUse" x="227" y="19" width="73" height="94">
<path d="M263.176 19.7695C243.16 20.0386 227.02 36.353 227.02 56.4485C227.02 63.2178 228.859 69.5623 232.056 75.0004C239.454 89.6437 252.921 112.77 252.921 112.77H273.446C273.446 112.77 286.898 89.6437 294.31 75.0004C297.507 69.5623 299.346 63.2178 299.346 56.4485C299.346 36.353 283.206 20.0386 263.19 19.7695H263.176Z" fill="white"/>
</mask>
<g mask="url(#mask3_19_1766)">
<path d="M255.721 17.3057C252.327 20.3788 249.144 23.466 246.64 27.0065C244.066 30.4761 242.156 34.3281 240.869 38.3076C238.266 46.2523 238.04 54.8768 239.412 63.1898C240.091 67.2542 241.321 71.4177 242.764 75.5247C244.179 79.6599 245.777 83.781 247.475 87.8879C250.813 96.1442 254.491 104.316 257.928 112.77C251.874 105.916 246.782 98.3534 242.297 90.3803C240.048 86.4009 238.054 82.2515 236.286 77.9605C234.517 73.6695 233.046 69.1944 232.212 64.3794L231.915 62.5808L231.773 60.7964L231.504 57.2277C231.405 56.0381 231.533 54.8343 231.547 53.6306C231.618 52.4268 231.547 51.2372 231.759 50.0335L232.268 46.4506C232.41 45.261 232.82 44.0997 233.103 42.9243L233.57 41.1682C233.754 40.5876 233.98 40.0211 234.192 39.4547C234.659 38.3359 234.984 37.1746 235.578 36.1125C237.601 31.7223 240.543 27.7995 243.995 24.599C247.503 21.4267 251.506 18.9626 255.736 17.2773L255.721 17.3057Z" fill="url(#paint37_linear_19_1766)"/>
<path d="M268.933 17.0508C273.191 18.7077 277.279 21.0586 280.9 24.1317C284.479 27.2331 287.591 31.0284 289.812 35.3478C290.095 35.8859 290.406 36.4099 290.661 36.9622L291.354 38.6475C291.792 39.7804 292.316 40.8992 292.599 42.0888L293.575 45.6151L294.155 49.2121C294.24 49.8211 294.367 50.4159 294.409 51.0248L294.48 52.8375L294.621 56.4771L294.367 60.0742C294.254 61.278 294.254 62.4675 293.999 63.6713C293.773 64.8609 293.603 66.093 293.306 67.2542L292.415 70.7238C291.679 72.9614 290.986 75.2273 290.109 77.3799C288.412 81.7275 286.445 85.9194 284.267 89.9697C279.896 98.056 274.889 105.76 268.947 112.756C272.258 104.202 275.836 95.9176 279.061 87.5622C280.688 83.3986 282.258 79.2351 283.602 75.0432C284.96 70.8796 286.205 66.6736 286.799 62.5808C287.04 61.5754 287.04 60.4849 287.153 59.4369L287.436 56.2647V53.1066V51.5205C287.407 50.9965 287.337 50.4725 287.294 49.9627L287.011 46.833C286.799 45.8133 286.615 44.7795 286.417 43.7599C286.276 42.7119 285.894 41.7347 285.625 40.7292L285.201 39.2139C285.045 38.7183 284.819 38.2368 284.635 37.7411C283.15 33.8041 281.07 30.023 278.354 26.61C275.709 23.112 272.413 20.1097 268.962 17.0508H268.933Z" fill="url(#paint38_linear_19_1766)"/>
<path d="M265.043 16.8237C268.778 19.1038 271.734 22.4884 274.337 26.0572C276.911 29.6684 278.892 33.7046 280.405 37.9248C281.891 42.145 282.881 46.5776 283.291 51.0527C283.461 53.3044 283.63 55.5137 283.503 57.8503L283.432 59.5922L283.234 61.2775C283.093 62.3821 283.008 63.5292 282.796 64.6197C281.311 73.3716 278.651 81.6279 275.497 89.6576C272.3 97.659 268.594 105.448 263.982 112.784C265.765 104.315 267.957 96.0871 270.037 87.8733C272.144 79.6878 274.21 71.5164 275.596 63.4442C276.261 59.3798 276.558 55.627 276.402 51.52C276.289 47.4839 275.751 43.4762 274.903 39.4967C274.04 35.5314 272.837 31.5944 271.225 27.7849C269.612 23.9613 267.66 20.2509 265.043 16.8096V16.8237Z" fill="url(#paint39_linear_19_1766)"/>
<path d="M261.38 16.8242C258.763 20.2655 256.768 23.9617 255.156 27.7713C253.529 31.5808 252.327 35.5036 251.492 39.4689C250.657 43.4483 250.148 47.4561 250.021 51.4922C249.865 55.5991 250.148 59.3662 250.827 63.4164C252.213 71.4745 254.279 79.6599 256.386 87.8454C258.466 96.0593 260.644 104.287 262.441 112.756C257.829 105.42 254.123 97.6312 250.926 89.6298C247.758 81.6143 245.112 73.3438 243.627 64.5918C243.429 63.5014 243.344 62.3684 243.189 61.2497L242.991 59.5644L242.92 57.8225C242.793 55.4717 242.962 53.2766 243.118 51.0249C243.528 46.5498 244.49 42.1171 245.975 37.8828C247.475 33.6626 249.469 29.6123 252.044 26.001C254.646 22.4323 257.631 19.0618 261.38 16.7959V16.8242Z" fill="url(#paint40_linear_19_1766)"/>
<path d="M263.176 16.7529C264.69 24.7543 265.468 32.7557 266.034 40.7571C266.571 48.7585 266.811 56.7599 266.826 64.7613C266.826 72.7627 266.585 80.7641 266.048 88.7655C265.482 96.7669 264.704 104.768 263.176 112.77C261.663 104.768 260.87 96.7669 260.305 88.7655C259.767 80.7641 259.527 72.7627 259.527 64.7613C259.527 56.7599 259.781 48.7585 260.319 40.7571C260.885 32.7557 261.663 24.7543 263.176 16.7529Z" fill="url(#paint41_linear_19_1766)"/>
</g>
<g filter="url(#filter0_d_19_1766)">
<path opacity="0.77" d="M239.992 124.596C239.086 124.596 239.086 125.998 239.992 125.998C240.897 125.998 240.897 124.596 239.992 124.596Z" fill="#F2F2F2"/>
<path opacity="0.77" d="M196.126 71.2627C195.221 71.2627 195.221 72.6647 196.126 72.6647C197.032 72.6647 197.032 71.2627 196.126 71.2627Z" fill="#F2F2F2"/>
<path opacity="0.77" d="M215.138 28.3945C214.233 28.3945 214.233 29.7965 215.138 29.7965C216.043 29.7965 216.043 28.3945 215.138 28.3945Z" fill="#F2F2F2"/>
<path opacity="0.77" d="M173.777 10.8203C172.872 10.8203 172.872 12.2223 173.777 12.2223C174.682 12.2223 174.682 10.8203 173.777 10.8203Z" fill="#F2F2F2"/>
<path opacity="0.77" d="M135.754 114.555C134.849 114.555 134.849 115.957 135.754 115.957C136.659 115.957 136.659 114.555 135.754 114.555Z" fill="#F2F2F2"/>
<path opacity="0.77" d="M163.323 66.6602C162.418 66.6602 162.418 68.0622 163.323 68.0622C164.229 68.0622 164.229 66.6602 163.323 66.6602Z" fill="#F2F2F2"/>
<path opacity="0.77" d="M324.185 115.603C323.28 115.603 323.28 117.005 324.185 117.005C325.091 117.005 325.091 115.603 324.185 115.603Z" fill="#F2F2F2"/>
<path opacity="0.77" d="M360.115 120.418C359.209 120.418 359.209 121.82 360.115 121.82C361.02 121.82 361.02 120.418 360.115 120.418Z" fill="#F2F2F2"/>
<path opacity="0.77" d="M331.074 25.0381C330.169 25.0381 330.169 26.4401 331.074 26.4401C331.98 26.4401 331.98 25.0381 331.074 25.0381Z" fill="#F2F2F2"/>
<path opacity="0.77" d="M361.374 9.36133C360.468 9.36133 360.468 10.7633 361.374 10.7633C362.279 10.7633 362.279 9.36133 361.374 9.36133Z" fill="#F2F2F2"/>
<path opacity="0.77" d="M472.09 13.3262C471.185 13.3262 471.185 14.7282 472.09 14.7282C472.995 14.7282 472.995 13.3262 472.09 13.3262Z" fill="#F2F2F2"/>
<path opacity="0.77" d="M481.073 20.4355C480.167 20.4355 480.167 21.8376 481.073 21.8376C481.978 21.8376 481.978 20.4355 481.073 20.4355Z" fill="#F2F2F2"/>
<path opacity="0.77" d="M491.512 10.1973C490.606 10.1973 490.606 11.5993 491.512 11.5993C492.417 11.5993 492.417 10.1973 491.512 10.1973Z" fill="#F2F2F2"/>
<path opacity="0.77" d="M551.672 99.501C550.767 99.501 550.767 100.903 551.672 100.903C552.578 100.903 552.578 99.501 551.672 99.501Z" fill="#F2F2F2"/>
<path opacity="0.77" d="M543.525 118.534C542.619 118.534 542.619 119.936 543.525 119.936C544.43 119.936 544.43 118.534 543.525 118.534Z" fill="#F2F2F2"/>
<path opacity="0.77" d="M573.612 102.631C572.707 102.631 572.707 104.033 573.612 104.033C574.517 104.033 574.517 102.631 573.612 102.631Z" fill="#F2F2F2"/>
<path opacity="0.77" d="M471.454 93.8506C470.548 93.8506 470.548 95.2526 471.454 95.2526C472.359 95.2526 472.359 93.8506 471.454 93.8506Z" fill="#F2F2F2"/>
<path opacity="0.77" d="M488.173 126.267C487.268 126.267 487.268 127.669 488.173 127.669C489.079 127.669 489.079 126.267 488.173 126.267Z" fill="#F2F2F2"/>
<path opacity="0.77" d="M476.051 119.157C475.145 119.157 475.145 120.559 476.051 120.559C476.956 120.559 476.956 119.157 476.051 119.157Z" fill="#F2F2F2"/>
<path opacity="0.77" d="M457.251 100.747C456.346 100.747 456.346 102.149 457.251 102.149C458.157 102.149 458.157 100.747 457.251 100.747Z" fill="#F2F2F2"/>
<path opacity="0.77" d="M317.296 135.26C316.391 135.26 316.391 136.662 317.296 136.662C318.202 136.662 318.202 135.26 317.296 135.26Z" fill="#F2F2F2"/>
<path opacity="0.77" d="M345.913 109.952C345.007 109.952 345.007 111.354 345.913 111.354C346.818 111.354 346.818 109.952 345.913 109.952Z" fill="#F2F2F2"/>
<path opacity="0.77" d="M296.814 106.822C295.909 106.822 295.909 108.224 296.814 108.224C297.719 108.224 297.719 106.822 296.814 106.822Z" fill="#F2F2F2"/>
<path opacity="0.77" d="M284.069 127.103C283.164 127.103 283.164 128.505 284.069 128.505C284.974 128.505 284.974 127.103 284.069 127.103Z" fill="#F2F2F2"/>
<path opacity="0.77" d="M217.642 107.021C216.737 107.021 216.737 108.423 217.642 108.423C218.547 108.423 218.547 107.021 217.642 107.021Z" fill="#F2F2F2"/>
<path opacity="0.77" d="M202.817 119.993C201.912 119.993 201.912 121.395 202.817 121.395C203.723 121.395 203.723 119.993 202.817 119.993Z" fill="#F2F2F2"/>
<path opacity="0.77" d="M168.345 108.493C167.44 108.493 167.44 109.895 168.345 109.895C169.25 109.895 169.25 108.493 168.345 108.493Z" fill="#F2F2F2"/>
<path opacity="0.77" d="M166.464 168.511C165.558 168.511 165.558 169.913 166.464 169.913C167.369 169.913 167.369 168.511 166.464 168.511Z" fill="#F2F2F2"/>
<path opacity="0.77" d="M131.581 128.15C130.676 128.15 130.676 129.552 131.581 129.552C132.486 129.552 132.486 128.15 131.581 128.15Z" fill="#F2F2F2"/>
<path opacity="0.77" d="M121.34 112.048C120.434 112.048 120.434 113.45 121.34 113.45C122.245 113.45 122.245 112.048 121.34 112.048Z" fill="#F2F2F2"/>
<path opacity="0.77" d="M178.586 59.3379C177.681 59.3379 177.681 60.7399 178.586 60.7399C179.492 60.7399 179.492 59.3379 178.586 59.3379Z" fill="#F2F2F2"/>
<path opacity="0.77" d="M204.062 55.1602C203.157 55.1602 203.157 56.5622 204.062 56.5622C204.968 56.5622 204.968 55.1602 204.062 55.1602Z" fill="#F2F2F2"/>
<path opacity="0.77" d="M193.411 22.957C192.505 22.957 192.505 24.359 193.411 24.359C194.316 24.359 194.316 22.957 193.411 22.957Z" fill="#F2F2F2"/>
<path opacity="0.77" d="M265.27 9.55957C264.364 9.55957 264.364 10.9616 265.27 10.9616C266.175 10.9616 266.175 9.55957 265.27 9.55957Z" fill="#F2F2F2"/>
<path opacity="0.77" d="M372.237 19.6006C371.332 19.6006 371.332 21.0026 372.237 21.0026C373.143 21.0026 373.143 19.6006 372.237 19.6006Z" fill="#F2F2F2"/>
<path opacity="0.77" d="M590.742 88.625C589.837 88.625 589.837 90.027 590.742 90.027C591.647 90.027 591.647 88.625 590.742 88.625Z" fill="#F2F2F2"/>
<path opacity="0.77" d="M588.875 95.536C588.847 95.451 588.804 95.3802 588.733 95.3094C588.677 95.2386 588.592 95.1961 588.507 95.1678C588.422 95.1253 588.337 95.0969 588.238 95.1111C588.182 95.1111 588.111 95.1253 588.054 95.1394C587.941 95.1677 587.828 95.2386 587.743 95.3235C587.701 95.366 587.672 95.4227 587.63 95.4651C587.573 95.5784 587.531 95.6917 587.531 95.8192V96.244C587.531 96.3432 587.545 96.4281 587.588 96.5131C587.616 96.5981 587.658 96.6689 587.729 96.7397C587.786 96.8105 587.87 96.853 587.955 96.8813C588.04 96.9238 588.125 96.9521 588.224 96.938C588.281 96.938 588.351 96.9238 588.408 96.9096C588.521 96.8813 588.634 96.8105 588.719 96.7255C588.762 96.6831 588.79 96.6264 588.832 96.5839C588.889 96.4706 588.931 96.3573 588.931 96.2299V95.805C588.931 95.7059 588.917 95.6209 588.875 95.536Z" fill="#F2F2F2"/>
<path opacity="0.77" d="M547.075 91.5566C546.17 91.5566 546.17 92.9587 547.075 92.9587C547.98 92.9587 547.98 91.5566 547.075 91.5566Z" fill="#F2F2F2"/>
<path opacity="0.77" d="M566.299 97.8301C565.393 97.8301 565.393 99.2321 566.299 99.2321C567.204 99.2321 567.204 97.8301 566.299 97.8301Z" fill="#F2F2F2"/>
<path opacity="0.77" d="M331.895 109.258C331.838 109.159 331.753 109.074 331.64 109.003C331.499 108.933 331.357 108.862 331.216 108.791C331.131 108.734 331.046 108.706 330.961 108.706C330.862 108.692 330.777 108.692 330.678 108.706C330.593 108.734 330.508 108.777 330.438 108.833C330.367 108.876 330.296 108.947 330.254 109.032L330.183 109.202C330.155 109.329 330.155 109.457 330.183 109.57L330.254 109.74C330.31 109.839 330.395 109.924 330.508 109.995C330.65 110.065 330.791 110.136 330.933 110.207C331.018 110.264 331.103 110.292 331.187 110.292C331.286 110.306 331.371 110.306 331.47 110.292C331.555 110.264 331.64 110.221 331.711 110.165C331.782 110.108 331.852 110.051 331.895 109.966C331.923 109.91 331.937 109.853 331.965 109.796C331.994 109.669 331.994 109.541 331.965 109.428C331.937 109.372 331.923 109.315 331.895 109.258Z" fill="#F2F2F2"/>
<path opacity="0.77" d="M311.44 162.025C310.535 162.025 310.535 163.427 311.44 163.427C312.346 163.427 312.346 162.025 311.44 162.025Z" fill="#F2F2F2"/>
<path opacity="0.77" d="M259.23 168.525C259.201 168.44 259.159 168.369 259.088 168.299C259.032 168.228 258.947 168.185 258.862 168.157C258.777 168.115 258.692 168.086 258.593 168.1C258.536 168.1 258.466 168.115 258.409 168.129C258.296 168.157 258.183 168.228 258.098 168.313C258.055 168.355 258.027 168.412 257.985 168.454C257.928 168.568 257.886 168.681 257.886 168.808V169.021C257.886 169.12 257.9 169.205 257.942 169.29C257.971 169.375 258.013 169.446 258.084 169.517C258.14 169.587 258.225 169.63 258.31 169.658C258.395 169.701 258.48 169.729 258.579 169.715C258.635 169.715 258.706 169.701 258.763 169.686C258.876 169.658 258.989 169.587 259.074 169.502C259.116 169.46 259.145 169.403 259.187 169.361C259.244 169.247 259.286 169.134 259.286 169.007V168.794C259.286 168.695 259.272 168.61 259.23 168.525Z" fill="#F2F2F2"/>
<path opacity="0.77" d="M264.647 150.738C263.742 150.738 263.742 152.14 264.647 152.14C265.553 152.14 265.553 150.738 264.647 150.738Z" fill="#F2F2F2"/>
<path opacity="0.77" d="M144.326 51.6055C143.421 51.6055 143.421 53.0075 144.326 53.0075C145.231 53.0075 145.231 51.6055 144.326 51.6055Z" fill="#F2F2F2"/>
<path opacity="0.77" d="M148.287 57.8799C147.381 57.8799 147.381 59.2819 148.287 59.2819C149.192 59.2819 149.192 57.8799 148.287 57.8799Z" fill="#F2F2F2"/>
<path opacity="0.77" d="M153.323 55.5858C153.294 55.5008 153.252 55.43 153.181 55.3592C153.11 55.2884 153.04 55.2459 152.955 55.2176C152.87 55.1751 152.785 55.1467 152.686 55.1609C152.629 55.1609 152.559 55.1751 152.502 55.1892C152.389 55.2176 152.276 55.2884 152.191 55.3733C152.149 55.4158 152.12 55.4725 152.078 55.515C152.021 55.6282 151.979 55.7415 151.979 55.869V56.0814C151.979 56.1806 151.993 56.2655 152.035 56.3505C152.064 56.4355 152.106 56.5063 152.177 56.5771C152.233 56.6479 152.318 56.6904 152.403 56.7187C152.488 56.7612 152.573 56.7895 152.672 56.7754C152.728 56.7754 152.799 56.7612 152.856 56.747C152.969 56.7187 153.082 56.6479 153.167 56.5629C153.209 56.5204 153.238 56.4638 153.28 56.4213C153.337 56.308 153.379 56.1947 153.379 56.0673V55.8548C153.379 55.7557 153.365 55.6707 153.323 55.5858Z" fill="#F2F2F2"/>
<path opacity="0.77" d="M222.663 110.788C221.758 110.788 221.758 112.19 222.663 112.19C223.569 112.19 223.569 110.788 222.663 110.788Z" fill="#F2F2F2"/>
<path opacity="0.77" d="M242.708 128.575C241.802 128.575 241.802 129.977 242.708 129.977C243.613 129.977 243.613 128.575 242.708 128.575Z" fill="#F2F2F2"/>
<path opacity="0.77" d="M321.88 111.425C320.974 111.425 320.974 112.827 321.88 112.827C322.785 112.827 322.785 111.425 321.88 111.425Z" fill="#F2F2F2"/>
</g>
</g>
<defs>
<filter id="filter0_d_19_1766" x="118.661" y="7.36133" width="474.76" height="164.552" filterUnits="userSpaceOnUse" color-interpolation-filters="sRGB">
<feFlood flood-opacity="0" result="BackgroundImageFix"/>
<feColorMatrix in="SourceAlpha" type="matrix" values="0 0 0 0 0 0 0 0 0 0 0 0 0 0 0 0 0 0 127 0" result="hardAlpha"/>
<feOffset/>
<feGaussianBlur stdDeviation="1"/>
<feColorMatrix type="matrix" values="0 0 0 0 1 0 0 0 0 1 0 0 0 0 1 0 0 0 0.9 0"/>
<feBlend mode="normal" in2="BackgroundImageFix" result="effect1_dropShadow_19_1766"/>
<feBlend mode="normal" in="SourceGraphic" in2="effect1_dropShadow_19_1766" result="shape"/>
</filter>
<linearGradient id="paint0_linear_19_1766" x1="355.786" y1="245.551" x2="355.786" y2="-11.1453" gradientUnits="userSpaceOnUse">
<stop stop-color="#975AE7"/>
<stop offset="0.44" stop-color="#662D91"/>
<stop offset="0.97" stop-color="#1B1464"/>
</linearGradient>
<linearGradient id="paint1_linear_19_1766" x1="607.151" y1="64.5494" x2="608.399" y2="-6.67002" gradientUnits="userSpaceOnUse">
<stop offset="0.24" stop-color="#01F0FF" stop-opacity="0"/>
<stop offset="1" stop-color="white"/>
</linearGradient>
<linearGradient id="paint2_linear_19_1766" x1="359.408" y1="85.1405" x2="354.786" y2="4.77309" gradientUnits="userSpaceOnUse">
<stop offset="0.09" stop-color="#01F0FF" stop-opacity="0"/>
<stop offset="0.97" stop-color="white"/>
</linearGradient>
<linearGradient id="paint3_linear_19_1766" x1="518.586" y1="88.299" x2="515.58" y2="35.915" gradientUnits="userSpaceOnUse">
<stop offset="0.01" stop-color="#01F0FF" stop-opacity="0"/>
<stop offset="0.97" stop-color="white"/>
</linearGradient>
<linearGradient id="paint4_linear_19_1766" x1="337.609" y1="107.912" x2="340.615" y2="55.5283" gradientUnits="userSpaceOnUse">
<stop offset="0.01" stop-color="#01F0FF" stop-opacity="0"/>
<stop offset="0.97" stop-color="white"/>
</linearGradient>
<linearGradient id="paint5_linear_19_1766" x1="144.269" y1="107.912" x2="147.275" y2="55.5283" gradientUnits="userSpaceOnUse">
<stop offset="0.01" stop-color="#01F0FF" stop-opacity="0"/>
<stop offset="0.97" stop-color="white"/>
</linearGradient>
<linearGradient id="paint6_linear_19_1766" x1="331.895" y1="348.238" x2="331.895" y2="113.252" gradientUnits="userSpaceOnUse">
<stop offset="0.31" stop-color="#662D91" stop-opacity="0.9"/>
<stop offset="0.97" stop-color="#1B1464"/>
</linearGradient>
<linearGradient id="paint7_linear_19_1766" x1="514.68" y1="151.878" x2="514.822" y2="136.441" gradientUnits="userSpaceOnUse">
<stop offset="0.1" stop-color="#FFEB69"/>
<stop offset="0.21" stop-color="#F8E270"/>
<stop offset="0.4" stop-color="#E7CA85"/>
<stop offset="0.63" stop-color="#CCA4A6"/>
<stop offset="0.9" stop-color="#A66FD4"/>
<stop offset="1" stop-color="#975AE7"/>
</linearGradient>
<linearGradient id="paint8_linear_19_1766" x1="502.998" y1="151.616" x2="503.14" y2="136.321" gradientUnits="userSpaceOnUse">
<stop offset="0.1" stop-color="#FFEB69"/>
<stop offset="0.21" stop-color="#F8E270"/>
<stop offset="0.4" stop-color="#E7CA85"/>
<stop offset="0.63" stop-color="#CCA4A6"/>
<stop offset="0.9" stop-color="#A66FD4"/>
<stop offset="1" stop-color="#975AE7"/>
</linearGradient>
<linearGradient id="paint9_linear_19_1766" x1="508.925" y1="141.576" x2="508.925" y2="153.245" gradientUnits="userSpaceOnUse">
<stop offset="0.1" stop-color="#FFEB69"/>
<stop offset="0.21" stop-color="#F8E270"/>
<stop offset="0.4" stop-color="#E7CA85"/>
<stop offset="0.63" stop-color="#CCA4A6"/>
<stop offset="0.9" stop-color="#A66FD4"/>
<stop offset="1" stop-color="#975AE7"/>
</linearGradient>
<radialGradient id="paint10_radial_19_1766" cx="0" cy="0" r="1" gradientUnits="userSpaceOnUse" gradientTransform="translate(494.82 79.414) rotate(73.2482) scale(51.2607 36.8722)">
<stop stop-color="#FFEB69"/>
<stop offset="0.13" stop-color="#F8E270"/>
<stop offset="0.33" stop-color="#E7CA85"/>
<stop offset="0.59" stop-color="#CCA4A6"/>
<stop offset="0.89" stop-color="#A66FD4"/>
<stop offset="1" stop-color="#975AE7"/>
</radialGradient>
<linearGradient id="paint11_linear_19_1766" x1="496.25" y1="137.865" x2="496.25" y2="69.2942" gradientUnits="userSpaceOnUse">
<stop stop-color="#FFEB69" stop-opacity="0"/>
<stop offset="0.09" stop-color="#FBE56D" stop-opacity="0.04"/>
<stop offset="0.24" stop-color="#F0D67A" stop-opacity="0.14"/>
<stop offset="0.42" stop-color="#DFBE8F" stop-opacity="0.31"/>
<stop offset="0.64" stop-color="#C69CAD" stop-opacity="0.54"/>
<stop offset="0.87" stop-color="#A872D1" stop-opacity="0.83"/>
<stop offset="1" stop-color="#975AE7"/>
</linearGradient>
<linearGradient id="paint12_linear_19_1766" x1="521.585" y1="137.837" x2="521.585" y2="69.1101" gradientUnits="userSpaceOnUse">
<stop stop-color="#FFEB69" stop-opacity="0"/>
<stop offset="0.09" stop-color="#FBE56D" stop-opacity="0.04"/>
<stop offset="0.24" stop-color="#F0D67A" stop-opacity="0.14"/>
<stop offset="0.42" stop-color="#DFBE8F" stop-opacity="0.31"/>
<stop offset="0.64" stop-color="#C69CAD" stop-opacity="0.54"/>
<stop offset="0.87" stop-color="#A872D1" stop-opacity="0.83"/>
<stop offset="1" stop-color="#975AE7"/>
</linearGradient>
<linearGradient id="paint13_linear_19_1766" x1="516.111" y1="137.483" x2="516.111" y2="69.0672" gradientUnits="userSpaceOnUse">
<stop stop-color="#FFEB69" stop-opacity="0"/>
<stop offset="0.09" stop-color="#FBE56D" stop-opacity="0.04"/>
<stop offset="0.24" stop-color="#F0D67A" stop-opacity="0.14"/>
<stop offset="0.42" stop-color="#DFBE8F" stop-opacity="0.31"/>
<stop offset="0.64" stop-color="#C69CAD" stop-opacity="0.54"/>
<stop offset="0.87" stop-color="#A872D1" stop-opacity="0.83"/>
<stop offset="1" stop-color="#975AE7"/>
</linearGradient>
<linearGradient id="paint14_linear_19_1766" x1="501.682" y1="137.483" x2="501.682" y2="69.0672" gradientUnits="userSpaceOnUse">
<stop stop-color="#FFEB69" stop-opacity="0"/>
<stop offset="0.09" stop-color="#FBE56D" stop-opacity="0.04"/>
<stop offset="0.24" stop-color="#F0D67A" stop-opacity="0.14"/>
<stop offset="0.42" stop-color="#DFBE8F" stop-opacity="0.31"/>
<stop offset="0.64" stop-color="#C69CAD" stop-opacity="0.54"/>
<stop offset="0.87" stop-color="#A872D1" stop-opacity="0.83"/>
<stop offset="1" stop-color="#975AE7"/>
</linearGradient>
<linearGradient id="paint15_linear_19_1766" x1="508.882" y1="136.534" x2="508.882" y2="70.9082" gradientUnits="userSpaceOnUse">
<stop stop-color="#FFEB69" stop-opacity="0"/>
<stop offset="0.09" stop-color="#FBE56D" stop-opacity="0.04"/>
<stop offset="0.24" stop-color="#F0D67A" stop-opacity="0.14"/>
<stop offset="0.42" stop-color="#DFBE8F" stop-opacity="0.31"/>
<stop offset="0.64" stop-color="#C69CAD" stop-opacity="0.54"/>
<stop offset="0.87" stop-color="#A872D1" stop-opacity="0.83"/>
<stop offset="1" stop-color="#975AE7"/>
</linearGradient>
<linearGradient id="paint16_linear_19_1766" x1="307.645" y1="150.859" x2="307.716" y2="144.246" gradientUnits="userSpaceOnUse">
<stop offset="0.1" stop-color="#FFEB69"/>
<stop offset="0.21" stop-color="#F8E270"/>
<stop offset="0.4" stop-color="#E7CA85"/>
<stop offset="0.63" stop-color="#CCA4A6"/>
<stop offset="0.9" stop-color="#A66FD4"/>
<stop offset="1" stop-color="#975AE7"/>
</linearGradient>
<linearGradient id="paint17_linear_19_1766" x1="302.614" y1="150.752" x2="302.67" y2="144.195" gradientUnits="userSpaceOnUse">
<stop offset="0.1" stop-color="#FFEB69"/>
<stop offset="0.21" stop-color="#F8E270"/>
<stop offset="0.4" stop-color="#E7CA85"/>
<stop offset="0.63" stop-color="#CCA4A6"/>
<stop offset="0.9" stop-color="#A66FD4"/>
<stop offset="1" stop-color="#975AE7"/>
</linearGradient>
<linearGradient id="paint18_linear_19_1766" x1="305.16" y1="146.462" x2="305.16" y2="151.461" gradientUnits="userSpaceOnUse">
<stop offset="0.1" stop-color="#FFEB69"/>
<stop offset="0.21" stop-color="#F8E270"/>
<stop offset="0.4" stop-color="#E7CA85"/>
<stop offset="0.63" stop-color="#CCA4A6"/>
<stop offset="0.9" stop-color="#A66FD4"/>
<stop offset="1" stop-color="#975AE7"/>
</linearGradient>
<radialGradient id="paint19_radial_19_1766" cx="0" cy="0" r="1" gradientUnits="userSpaceOnUse" gradientTransform="translate(298.911 119.869) rotate(73.2482) scale(21.9911 15.8184)">
<stop stop-color="#FFEB69"/>
<stop offset="0.13" stop-color="#F8E270"/>
<stop offset="0.33" stop-color="#E7CA85"/>
<stop offset="0.59" stop-color="#CCA4A6"/>
<stop offset="0.89" stop-color="#A66FD4"/>
<stop offset="1" stop-color="#975AE7"/>
</radialGradient>
<linearGradient id="paint20_linear_19_1766" x1="299.714" y1="144.862" x2="299.714" y2="115.462" gradientUnits="userSpaceOnUse">
<stop stop-color="#FFEB69" stop-opacity="0"/>
<stop offset="0.09" stop-color="#FBE56D" stop-opacity="0.04"/>
<stop offset="0.24" stop-color="#F0D67A" stop-opacity="0.14"/>
<stop offset="0.42" stop-color="#DFBE8F" stop-opacity="0.31"/>
<stop offset="0.64" stop-color="#C69CAD" stop-opacity="0.54"/>
<stop offset="0.87" stop-color="#A872D1" stop-opacity="0.83"/>
<stop offset="1" stop-color="#975AE7"/>
</linearGradient>
<linearGradient id="paint21_linear_19_1766" x1="310.577" y1="144.847" x2="310.577" y2="115.376" gradientUnits="userSpaceOnUse">
<stop stop-color="#FFEB69" stop-opacity="0"/>
<stop offset="0.09" stop-color="#FBE56D" stop-opacity="0.04"/>
<stop offset="0.24" stop-color="#F0D67A" stop-opacity="0.14"/>
<stop offset="0.42" stop-color="#DFBE8F" stop-opacity="0.31"/>
<stop offset="0.64" stop-color="#C69CAD" stop-opacity="0.54"/>
<stop offset="0.87" stop-color="#A872D1" stop-opacity="0.83"/>
<stop offset="1" stop-color="#975AE7"/>
</linearGradient>
<linearGradient id="paint22_linear_19_1766" x1="308.229" y1="144.705" x2="308.229" y2="115.362" gradientUnits="userSpaceOnUse">
<stop stop-color="#FFEB69" stop-opacity="0"/>
<stop offset="0.09" stop-color="#FBE56D" stop-opacity="0.04"/>
<stop offset="0.24" stop-color="#F0D67A" stop-opacity="0.14"/>
<stop offset="0.42" stop-color="#DFBE8F" stop-opacity="0.31"/>
<stop offset="0.64" stop-color="#C69CAD" stop-opacity="0.54"/>
<stop offset="0.87" stop-color="#A872D1" stop-opacity="0.83"/>
<stop offset="1" stop-color="#975AE7"/>
</linearGradient>
<linearGradient id="paint23_linear_19_1766" x1="302.062" y1="144.705" x2="302.062" y2="115.362" gradientUnits="userSpaceOnUse">
<stop stop-color="#FFEB69" stop-opacity="0"/>
<stop offset="0.09" stop-color="#FBE56D" stop-opacity="0.04"/>
<stop offset="0.24" stop-color="#F0D67A" stop-opacity="0.14"/>
<stop offset="0.42" stop-color="#DFBE8F" stop-opacity="0.31"/>
<stop offset="0.64" stop-color="#C69CAD" stop-opacity="0.54"/>
<stop offset="0.87" stop-color="#A872D1" stop-opacity="0.83"/>
<stop offset="1" stop-color="#975AE7"/>
</linearGradient>
<linearGradient id="paint24_linear_19_1766" x1="305.131" y1="144.295" x2="305.131" y2="116.155" gradientUnits="userSpaceOnUse">
<stop stop-color="#FFEB69" stop-opacity="0"/>
<stop offset="0.09" stop-color="#FBE56D" stop-opacity="0.04"/>
<stop offset="0.24" stop-color="#F0D67A" stop-opacity="0.14"/>
<stop offset="0.42" stop-color="#DFBE8F" stop-opacity="0.31"/>
<stop offset="0.64" stop-color="#C69CAD" stop-opacity="0.54"/>
<stop offset="0.87" stop-color="#A872D1" stop-opacity="0.83"/>
<stop offset="1" stop-color="#975AE7"/>
</linearGradient>
<linearGradient id="paint25_linear_19_1766" x1="156.505" y1="205.983" x2="160.376" y2="138.814" gradientUnits="userSpaceOnUse">
<stop offset="0.01" stop-color="#01F0FF" stop-opacity="0"/>
<stop offset="0.97" stop-color="white"/>
</linearGradient>
<linearGradient id="paint26_linear_19_1766" x1="506.591" y1="188.578" x2="501.983" y2="108.423" gradientUnits="userSpaceOnUse">
<stop offset="0.01" stop-color="#01F0FF" stop-opacity="0"/>
<stop offset="0.97" stop-color="white"/>
</linearGradient>
<linearGradient id="paint27_linear_19_1766" x1="87.2066" y1="139.989" x2="259.611" y2="139.989" gradientUnits="userSpaceOnUse">
<stop offset="0.01" stop-color="#01F0FF" stop-opacity="0"/>
<stop offset="0.98" stop-color="white"/>
</linearGradient>
<linearGradient id="paint28_linear_19_1766" x1="580.416" y1="203.873" x2="407.997" y2="203.873" gradientUnits="userSpaceOnUse">
<stop offset="0.01" stop-color="#01F0FF" stop-opacity="0"/>
<stop offset="0.97" stop-color="white"/>
</linearGradient>
<linearGradient id="paint29_linear_19_1766" x1="258.848" y1="227.296" x2="431.266" y2="227.296" gradientUnits="userSpaceOnUse">
<stop offset="0.01" stop-color="#01F0FF" stop-opacity="0"/>
<stop offset="0.97" stop-color="white"/>
</linearGradient>
<linearGradient id="paint30_linear_19_1766" x1="556.482" y1="331.697" x2="480.195" y2="174.287" gradientUnits="userSpaceOnUse">
<stop offset="0.31" stop-color="#662D91" stop-opacity="0.9"/>
<stop offset="0.97" stop-color="#1B1464"/>
</linearGradient>
<linearGradient id="paint31_linear_19_1766" x1="116.856" y1="55.1459" x2="120.613" y2="-5.40929" gradientUnits="userSpaceOnUse">
<stop offset="0.12" stop-color="#01F0FF" stop-opacity="0"/>
<stop offset="0.97" stop-color="white"/>
</linearGradient>
<linearGradient id="paint32_linear_19_1766" x1="246.357" y1="328.722" x2="244.996" y2="187.077" gradientUnits="userSpaceOnUse">
<stop offset="0.31" stop-color="#662D91" stop-opacity="0.9"/>
<stop offset="0.97" stop-color="#1B1464"/>
</linearGradient>
<linearGradient id="paint33_linear_19_1766" x1="271.696" y1="135.205" x2="271.895" y2="112.617" gradientUnits="userSpaceOnUse">
<stop offset="0.1" stop-color="#FFEB69"/>
<stop offset="0.21" stop-color="#F8E270"/>
<stop offset="0.4" stop-color="#E7CA85"/>
<stop offset="0.63" stop-color="#CCA4A6"/>
<stop offset="0.9" stop-color="#A66FD4"/>
<stop offset="1" stop-color="#975AE7"/>
</linearGradient>
<linearGradient id="paint34_linear_19_1766" x1="254.576" y1="134.848" x2="254.774" y2="112.473" gradientUnits="userSpaceOnUse">
<stop offset="0.1" stop-color="#FFEB69"/>
<stop offset="0.21" stop-color="#F8E270"/>
<stop offset="0.4" stop-color="#E7CA85"/>
<stop offset="0.63" stop-color="#CCA4A6"/>
<stop offset="0.9" stop-color="#A66FD4"/>
<stop offset="1" stop-color="#975AE7"/>
</linearGradient>
<linearGradient id="paint35_linear_19_1766" x1="263.261" y1="120.176" x2="263.261" y2="137.241" gradientUnits="userSpaceOnUse">
<stop offset="0.1" stop-color="#FFEB69"/>
<stop offset="0.21" stop-color="#F8E270"/>
<stop offset="0.4" stop-color="#E7CA85"/>
<stop offset="0.63" stop-color="#CCA4A6"/>
<stop offset="0.9" stop-color="#A66FD4"/>
<stop offset="1" stop-color="#975AE7"/>
</linearGradient>
<radialGradient id="paint36_radial_19_1766" cx="0" cy="0" r="1" gradientUnits="userSpaceOnUse" gradientTransform="translate(242.793 29.1249) rotate(73.2482) scale(75.0218 53.9638)">
<stop stop-color="#FFEB69"/>
<stop offset="0.13" stop-color="#F8E270"/>
<stop offset="0.33" stop-color="#E7CA85"/>
<stop offset="0.59" stop-color="#CCA4A6"/>
<stop offset="0.89" stop-color="#A66FD4"/>
<stop offset="1" stop-color="#975AE7"/>
</radialGradient>
<linearGradient id="paint37_linear_19_1766" x1="244.688" y1="114.739" x2="244.688" y2="14.3883" gradientUnits="userSpaceOnUse">
<stop stop-color="#FFEB69" stop-opacity="0"/>
<stop offset="0.09" stop-color="#FBE56D" stop-opacity="0.04"/>
<stop offset="0.24" stop-color="#F0D67A" stop-opacity="0.14"/>
<stop offset="0.42" stop-color="#DFBE8F" stop-opacity="0.31"/>
<stop offset="0.64" stop-color="#C69CAD" stop-opacity="0.54"/>
<stop offset="0.87" stop-color="#A872D1" stop-opacity="0.83"/>
<stop offset="1" stop-color="#975AE7"/>
</linearGradient>
<linearGradient id="paint38_linear_19_1766" x1="281.763" y1="114.682" x2="281.763" y2="14.1193" gradientUnits="userSpaceOnUse">
<stop stop-color="#FFEB69" stop-opacity="0"/>
<stop offset="0.09" stop-color="#FBE56D" stop-opacity="0.04"/>
<stop offset="0.24" stop-color="#F0D67A" stop-opacity="0.14"/>
<stop offset="0.42" stop-color="#DFBE8F" stop-opacity="0.31"/>
<stop offset="0.64" stop-color="#C69CAD" stop-opacity="0.54"/>
<stop offset="0.87" stop-color="#A872D1" stop-opacity="0.83"/>
<stop offset="1" stop-color="#975AE7"/>
</linearGradient>
<linearGradient id="paint39_linear_19_1766" x1="273.771" y1="114.172" x2="273.771" y2="14.0622" gradientUnits="userSpaceOnUse">
<stop stop-color="#FFEB69" stop-opacity="0"/>
<stop offset="0.09" stop-color="#FBE56D" stop-opacity="0.04"/>
<stop offset="0.24" stop-color="#F0D67A" stop-opacity="0.14"/>
<stop offset="0.42" stop-color="#DFBE8F" stop-opacity="0.31"/>
<stop offset="0.64" stop-color="#C69CAD" stop-opacity="0.54"/>
<stop offset="0.87" stop-color="#A872D1" stop-opacity="0.83"/>
<stop offset="1" stop-color="#975AE7"/>
</linearGradient>
<linearGradient id="paint40_linear_19_1766" x1="252.652" y1="114.172" x2="252.652" y2="14.0627" gradientUnits="userSpaceOnUse">
<stop stop-color="#FFEB69" stop-opacity="0"/>
<stop offset="0.09" stop-color="#FBE56D" stop-opacity="0.04"/>
<stop offset="0.24" stop-color="#F0D67A" stop-opacity="0.14"/>
<stop offset="0.42" stop-color="#DFBE8F" stop-opacity="0.31"/>
<stop offset="0.64" stop-color="#C69CAD" stop-opacity="0.54"/>
<stop offset="0.87" stop-color="#A872D1" stop-opacity="0.83"/>
<stop offset="1" stop-color="#975AE7"/>
</linearGradient>
<linearGradient id="paint41_linear_19_1766" x1="263.176" y1="112.77" x2="263.176" y2="16.7529" gradientUnits="userSpaceOnUse">
<stop stop-color="#FFEB69" stop-opacity="0"/>
<stop offset="0.09" stop-color="#FBE56D" stop-opacity="0.04"/>
<stop offset="0.24" stop-color="#F0D67A" stop-opacity="0.14"/>
<stop offset="0.42" stop-color="#DFBE8F" stop-opacity="0.31"/>
<stop offset="0.64" stop-color="#C69CAD" stop-opacity="0.54"/>
<stop offset="0.87" stop-color="#A872D1" stop-opacity="0.83"/>
<stop offset="1" stop-color="#975AE7"/>
</linearGradient>
</defs>
</svg>
