<svg width="46" height="44" viewBox="0 0 46 44" fill="none" xmlns="http://www.w3.org/2000/svg">
<path d="M23 0L28.3883 16.5836H45.8254L31.7185 26.8328L37.1068 43.4164L23 33.1672L8.89315 43.4164L14.2815 26.8328L0.174644 16.5836H17.6117L23 0Z" fill="#2C3E50"/>
<path d="M23 0.809018L28.1506 16.6608L28.2067 16.8336H28.3883H45.0559L31.5716 26.6306L31.4246 26.7373L31.4807 26.9101L36.6313 42.7619L23.1469 32.9649L23 32.8582L22.8531 32.9649L9.36868 42.7619L14.5193 26.9101L14.5754 26.7373L14.4284 26.6306L0.944064 16.8336H17.6117H17.7933L17.8494 16.6608L23 0.809018Z" stroke="white" stroke-opacity="0.37" stroke-width="0.5"/>
</svg>
