<svg width="24" height="4" viewBox="0 0 24 4" fill="none" xmlns="http://www.w3.org/2000/svg">
<path d="M8.9336 2.75029V2.5994L9.28145 2.54592C10.7965 2.73957 12.7307 2.846 14.7312 2.84579C16.3874 2.84579 18.0065 2.77298 19.3836 2.63656C20.7608 2.50014 21.8341 2.30625 22.468 2.07939C23.1018 1.85254 23.2676 1.60291 22.9445 1.36209C22.6214 1.12126 21.8238 0.900047 20.6526 0.72642C19.4815 0.552793 17.9893 0.434552 16.3649 0.386649C14.7404 0.338745 13.0567 0.363331 11.5265 0.457297C9.99627 0.551263 8.68839 0.710389 7.76822 0.914552C6.84805 1.11872 6.3569 1.35875 6.3569 1.60429C6.3569 1.9118 7.11703 2.19448 8.37961 2.41222L8.01887 2.46379H7.00108L0.572229 3.41879L2.49186 3.70338L8.9336 2.75029ZM8.9336 1.60429C8.9336 1.1287 11.5232 0.744793 14.7312 0.744793C17.9391 0.744793 20.5287 1.1287 20.5287 1.60429C20.5287 2.07988 17.9391 2.46379 14.7312 2.46379C11.5232 2.46379 8.9336 2.07988 8.9336 1.60429Z" fill="black"/>
</svg>
