<svg width="18" height="19" viewBox="0 0 18 19" fill="none" xmlns="http://www.w3.org/2000/svg">
<path d="M3.78169 8.66506C5.20537 11.463 7.49906 13.7567 10.297 15.1803L12.472 13.0053C12.7489 12.7285 13.1344 12.6494 13.4805 12.7581C14.5878 13.1239 15.7742 13.3217 17.01 13.3217C17.2722 13.3217 17.5237 13.4258 17.7091 13.6112C17.8945 13.7966 17.9987 14.0481 17.9987 14.3103V17.7706C17.9987 18.0329 17.8945 18.2843 17.7091 18.4697C17.5237 18.6551 17.2722 18.7593 17.01 18.7593C12.5524 18.7593 8.27744 16.9885 5.12547 13.8366C1.97349 10.6846 0.202732 6.40961 0.202732 1.95204C0.202732 1.68983 0.306894 1.43836 0.492305 1.25295C0.677715 1.06754 0.929185 0.963379 1.19139 0.963379H4.65171C4.91392 0.963379 5.16539 1.06754 5.3508 1.25295C5.53621 1.43836 5.64038 1.68983 5.64038 1.95204C5.64038 3.18787 5.83811 4.37427 6.20391 5.48157C6.31267 5.8276 6.23357 6.21318 5.95675 6.49L3.78169 8.66506Z" fill="white"/>
</svg>
