<svg width="24" height="4" viewBox="0 0 24 4" fill="none" xmlns="http://www.w3.org/2000/svg">
<path d="M8.93366 2.75078V2.59989L9.28151 2.54641C10.7966 2.74006 12.7308 2.84649 14.7312 2.84628C16.3875 2.84628 18.0066 2.77347 19.3837 2.63705C20.7608 2.50063 21.8342 2.30673 22.468 2.07988C23.1018 1.85303 23.2677 1.6034 22.9446 1.36258C22.6214 1.12175 21.8239 0.900535 20.6527 0.726908C19.4815 0.553282 17.9894 0.43504 16.365 0.387137C14.7405 0.339233 13.0567 0.363819 11.5265 0.457785C9.99633 0.551751 8.68845 0.710877 7.76828 0.915041C6.84811 1.1192 6.35696 1.35923 6.35696 1.60478C6.35696 1.91229 7.11709 2.19497 8.37967 2.41271L8.01893 2.46428H7.00114L0.57229 3.41928L2.49192 3.70387L8.93366 2.75078ZM8.93366 1.60478C8.93366 1.12919 11.5232 0.745281 14.7312 0.745281C17.9392 0.745281 20.5288 1.12919 20.5288 1.60478C20.5288 2.08037 17.9392 2.46428 14.7312 2.46428C11.5232 2.46428 8.93366 2.08037 8.93366 1.60478Z" fill="black"/>
</svg>
