<svg width="23" height="24" viewBox="0 0 23 24" fill="none" xmlns="http://www.w3.org/2000/svg">
<path d="M8.36139 17.1527V16.0686L8.70925 15.6844C10.2243 17.0756 12.1585 17.8403 14.1589 17.8388C15.8152 17.8388 17.4343 17.3157 18.8114 16.3356C20.1886 15.3555 21.2619 13.9625 21.8957 12.3327C22.5296 10.7029 22.6954 8.90949 22.3723 7.1793C22.0492 5.44911 21.2516 3.85983 20.0804 2.61243C18.9093 1.36503 17.4171 0.515544 15.7927 0.171387C14.1682 -0.172769 12.4845 0.00386463 10.9543 0.678951C9.42407 1.35404 8.11619 2.49726 7.19601 3.96404C6.27584 5.43083 5.7847 7.1553 5.7847 8.91938C5.7847 11.1286 6.54482 13.1595 7.8074 14.7238L7.44667 15.0943H6.42887L2.47955e-05 21.9554L1.91966 24L8.36139 17.1527ZM8.36139 8.91938C8.36139 5.50258 10.951 2.74443 14.1589 2.74443C17.3669 2.74443 19.9565 5.50258 19.9565 8.91938C19.9565 12.3362 17.3669 15.0943 14.1589 15.0943C10.951 15.0943 8.36139 12.3362 8.36139 8.91938Z" fill="black"/>
</svg>
