<svg width="18" height="18" viewBox="0 0 18 18" fill="none" xmlns="http://www.w3.org/2000/svg">
<path d="M9.16988 0.46582C10.2852 0.46582 11.3549 0.908633 12.1435 1.69684C12.9322 2.48505 13.3752 3.5541 13.3752 4.6688C13.3752 5.7835 12.9322 6.85254 12.1435 7.64075C11.3549 8.42896 10.2852 8.87177 9.16988 8.87177C8.05455 8.87177 6.9849 8.42896 6.19624 7.64075C5.40758 6.85254 4.96452 5.7835 4.96452 4.6688C4.96452 3.5541 5.40758 2.48505 6.19624 1.69684C6.9849 0.908633 8.05455 0.46582 9.16988 0.46582ZM9.16988 10.9733C13.8168 10.9733 17.5806 12.8541 17.5806 15.1762V17.2777H0.759155V15.1762C0.759155 12.8541 4.52296 10.9733 9.16988 10.9733Z" fill="white"/>
</svg>
