<svg width="31" height="32" viewBox="0 0 31 32" fill="none" xmlns="http://www.w3.org/2000/svg">
<path d="M30.5014 0.968137C30.4087 0.744211 30.2306 0.56357 30.004 0.463794C29.7775 0.364017 29.52 0.352786 29.2851 0.432438C29.0503 0.51209 28.8561 0.676492 28.7431 0.891443C28.63 1.10639 28.6068 1.35534 28.6781 1.5865C30.1626 5.72442 27.216 8.81469 24.9693 10.4699L24.0616 9.20834C23.7564 8.78525 23.0741 8.43345 22.5436 8.42725L17.4493 8.44894C16.827 8.46717 16.2213 8.64816 15.6963 8.97277L0.685132 19.1812C0.33597 19.4195 0.0983926 19.7823 0.0244172 20.1901C-0.0495583 20.5979 0.0460958 21.0175 0.290436 21.3571L7.11211 30.8232C7.62346 31.5283 8.44002 31.4431 9.16869 30.9503L24.1799 20.7403C24.6113 20.4443 25.1099 19.8058 25.2857 19.3176L26.8804 14.4435C27.0562 13.9569 26.9492 13.2145 26.6439 12.7914L26.0911 12.0227C29.108 9.78021 32.24 5.81741 30.5014 0.968137ZM23.5167 15.471C23.2402 15.6588 22.9282 15.7918 22.5986 15.8626C22.2691 15.9333 21.9283 15.9404 21.5959 15.8834C21.2635 15.8264 20.9459 15.7065 20.6614 15.5304C20.3768 15.3543 20.1307 15.1256 19.9373 14.8573C19.5457 14.3143 19.3922 13.6429 19.5106 12.9903C19.6289 12.3377 20.0094 11.7573 20.5685 11.3765C21.0068 11.0786 21.5302 10.9211 22.0654 10.9258C22.6005 10.9305 23.1208 11.0973 23.5535 11.4028C23.1189 11.657 22.82 11.8058 22.7641 11.829C22.566 11.9206 22.4059 12.0748 22.31 12.2662C22.214 12.4576 22.188 12.6749 22.2361 12.8826C22.2842 13.0903 22.4035 13.2759 22.5747 13.4091C22.7458 13.5424 22.9585 13.6153 23.178 13.6159C23.3154 13.6159 23.456 13.5849 23.5887 13.5245C23.8987 13.3819 24.231 13.213 24.5778 13.0131C24.6576 13.4781 24.6003 13.9555 24.4126 14.3904C24.2248 14.8252 23.9143 15.1998 23.5167 15.471Z" fill="white"/>
</svg>
