<svg width="31" height="32" viewBox="0 0 31 32" fill="none" xmlns="http://www.w3.org/2000/svg">
<path d="M30.5014 0.968198C30.4087 0.744272 30.2306 0.563631 30.004 0.463855C29.7775 0.364078 29.52 0.352847 29.2851 0.432499C29.0503 0.512151 28.8561 0.676553 28.7431 0.891504C28.63 1.10645 28.6068 1.3554 28.6781 1.58656C30.1626 5.72449 27.216 8.81475 24.9693 10.4699L24.0616 9.2084C23.7564 8.78531 23.0741 8.43351 22.5436 8.42731L17.4493 8.44901C16.827 8.46723 16.2213 8.64822 15.6963 8.97283L0.685132 19.1813C0.33597 19.4196 0.0983926 19.7823 0.0244172 20.1901C-0.0495583 20.598 0.0460958 21.0176 0.290436 21.3572L7.11211 30.8232C7.62346 31.5284 8.44002 31.4431 9.16869 30.9503L24.1799 20.7403C24.6113 20.4443 25.1099 19.8058 25.2857 19.3176L26.8804 14.4436C27.0562 13.9569 26.9492 13.2146 26.6439 12.7915L26.0911 12.0228C29.108 9.78027 32.24 5.81747 30.5014 0.968198ZM23.5167 15.4711C23.2402 15.6588 22.9282 15.7919 22.5986 15.8626C22.2691 15.9334 21.9283 15.9405 21.5959 15.8835C21.2635 15.8265 20.9459 15.7065 20.6614 15.5305C20.3768 15.3544 20.1307 15.1257 19.9373 14.8574C19.5457 14.3144 19.3922 13.6429 19.5106 12.9903C19.6289 12.3377 20.0094 11.7573 20.5685 11.3765C21.0068 11.0787 21.5302 10.9211 22.0654 10.9259C22.6005 10.9306 23.1208 11.0974 23.5535 11.4029C23.1189 11.6571 22.82 11.8058 22.7641 11.8291C22.566 11.9207 22.4059 12.0748 22.31 12.2662C22.214 12.4577 22.188 12.675 22.2361 12.8827C22.2842 13.0903 22.4035 13.276 22.5747 13.4092C22.7458 13.5424 22.9585 13.6153 23.178 13.616C23.3154 13.616 23.456 13.585 23.5887 13.5245C23.8987 13.382 24.231 13.213 24.5778 13.0131C24.6576 13.4782 24.6003 13.9556 24.4126 14.3904C24.2248 14.8253 23.9143 15.1999 23.5167 15.4711Z" fill="white"/>
</svg>
