<svg width="18" height="18" viewBox="0 0 18 18" fill="none" xmlns="http://www.w3.org/2000/svg">
<path d="M9.17001 0.46582C10.2853 0.46582 11.355 0.908632 12.1436 1.69684C12.9323 2.48505 13.3754 3.5541 13.3754 4.6688C13.3754 5.7835 12.9323 6.85254 12.1436 7.64075C11.355 8.42896 10.2853 8.87177 9.17001 8.87177C8.05467 8.87177 6.98502 8.42896 6.19636 7.64075C5.40771 6.85254 4.96464 5.7835 4.96464 4.6688C4.96464 3.5541 5.40771 2.48505 6.19636 1.69684C6.98502 0.908632 8.05467 0.46582 9.17001 0.46582ZM9.17001 10.9733C13.8169 10.9733 17.5807 12.8541 17.5807 15.1762V17.2777H0.759277V15.1762C0.759277 12.8541 4.52308 10.9733 9.17001 10.9733Z" fill="white"/>
</svg>
