<svg width="18" height="19" viewBox="0 0 18 19" fill="none" xmlns="http://www.w3.org/2000/svg">
<path d="M9.1007 0.609375C10.2806 0.609375 11.4123 1.09373 12.2466 1.95589C13.0809 2.81804 13.5497 3.98738 13.5497 5.20666C13.5497 6.42593 13.0809 7.59527 12.2466 8.45743C11.4123 9.31958 10.2806 9.80394 9.1007 9.80394C7.92075 9.80394 6.78914 9.31958 5.95479 8.45743C5.12045 7.59527 4.65171 6.42593 4.65171 5.20666C4.65171 3.98738 5.12045 2.81804 5.95479 1.95589C6.78914 1.09373 7.92075 0.609375 9.1007 0.609375ZM9.1007 12.1026C14.0168 12.1026 17.9987 14.1599 17.9987 16.6999V18.9985H0.202732V16.6999C0.202732 14.1599 4.18457 12.1026 9.1007 12.1026Z" fill="white"/>
</svg>
