<svg width="31" height="31" viewBox="0 0 31 31" fill="none" xmlns="http://www.w3.org/2000/svg">
<path d="M30.5014 0.589086C30.4087 0.364844 30.2306 0.183947 30.004 0.0840294C29.7775 -0.0158887 29.52 -0.0271352 29.2851 0.0526295C29.0503 0.132394 28.8561 0.297029 28.7431 0.512283C28.63 0.727538 28.6068 0.976839 28.6781 1.20832C30.1626 5.3521 27.216 8.44674 24.9693 10.1043L24.0616 8.84094C23.7564 8.41725 23.0741 8.06495 22.5436 8.05875L17.4493 8.08047C16.827 8.09873 16.2213 8.27997 15.6963 8.60504L0.685132 18.8279C0.33597 19.0665 0.0983926 19.4298 0.0244172 19.8382C-0.0495583 20.2466 0.0460958 20.6668 0.290436 21.0069L7.11211 30.4864C7.62346 31.1925 8.44002 31.1071 9.16869 30.6136L24.1799 20.3892C24.6113 20.0928 25.1099 19.4534 25.2857 18.9645L26.8804 14.0835C27.0562 13.5962 26.9492 12.8528 26.6439 12.4291L26.0911 11.6593C29.108 9.41362 32.24 5.44522 30.5014 0.589086ZM23.5167 15.1125C23.2402 15.3005 22.9282 15.4337 22.5986 15.5046C22.2691 15.5755 21.9283 15.5826 21.5959 15.5255C21.2635 15.4684 20.9459 15.3483 20.6614 15.172C20.3768 14.9956 20.1307 14.7666 19.9373 14.4979C19.5457 13.9542 19.3922 13.2817 19.5106 12.6282C19.6289 11.9747 20.0094 11.3935 20.5685 11.0122C21.0068 10.7139 21.5302 10.5561 22.0654 10.5608C22.6005 10.5656 23.1208 10.7326 23.5535 11.0385C23.1189 11.2931 22.82 11.4421 22.7641 11.4653C22.566 11.5571 22.4059 11.7114 22.31 11.9031C22.214 12.0948 22.188 12.3124 22.2361 12.5204C22.2842 12.7283 22.4035 12.9143 22.5747 13.0477C22.7458 13.1811 22.9585 13.2541 23.178 13.2548C23.3154 13.2548 23.456 13.2237 23.5887 13.1632C23.8987 13.0204 24.231 12.8512 24.5778 12.651C24.6576 13.1167 24.6003 13.5948 24.4126 14.0303C24.2248 14.4658 23.9143 14.8409 23.5167 15.1125Z" fill="white"/>
</svg>
